<svg width="23" height="24" viewBox="0 0 23 24" fill="none" xmlns="http://www.w3.org/2000/svg">
<path d="M20.875 0.75H2.125C1.62772 0.75 1.15081 0.947544 0.799175 1.29917C0.447544 1.65081 0.25 2.12772 0.25 2.625V21.375C0.25 21.8723 0.447544 22.3492 0.799175 22.7008C1.15081 23.0525 1.62772 23.25 2.125 23.25H20.875C21.3723 23.25 21.8492 23.0525 22.2008 22.7008C22.5525 22.3492 22.75 21.8723 22.75 21.375V2.625C22.75 2.12772 22.5525 1.65081 22.2008 1.29917C21.8492 0.947544 21.3723 0.75 20.875 0.75ZM2.125 2.625H20.875V11.693L17.9816 8.79844C17.63 8.44707 17.1533 8.2497 16.6562 8.2497C16.1592 8.2497 15.6825 8.44707 15.3309 8.79844L2.7543 21.375H2.125V2.625ZM20.875 21.375H5.40625L16.6562 10.125L20.875 14.3438V21.375ZM7.75 11.0625C8.30626 11.0625 8.85003 10.8975 9.31254 10.5885C9.77505 10.2795 10.1355 9.84021 10.3484 9.3263C10.5613 8.81238 10.617 8.24688 10.5085 7.70131C10.3999 7.15574 10.1321 6.6546 9.73874 6.26126C9.3454 5.86793 8.84426 5.60006 8.29869 5.49154C7.75312 5.38302 7.18762 5.43872 6.6737 5.65159C6.15979 5.86446 5.72053 6.22495 5.41149 6.68746C5.10245 7.14997 4.9375 7.69374 4.9375 8.25C4.9375 8.99592 5.23382 9.71129 5.76126 10.2387C6.28871 10.7662 7.00408 11.0625 7.75 11.0625ZM7.75 7.3125C7.93542 7.3125 8.11668 7.36748 8.27085 7.4705C8.42502 7.57351 8.54518 7.71993 8.61614 7.89123C8.68709 8.06254 8.70566 8.25104 8.66949 8.4329C8.63331 8.61475 8.54402 8.7818 8.41291 8.91291C8.2818 9.04402 8.11475 9.13331 7.9329 9.16949C7.75104 9.20566 7.56254 9.18709 7.39123 9.11614C7.21993 9.04518 7.07351 8.92502 6.9705 8.77085C6.86748 8.61668 6.8125 8.43542 6.8125 8.25C6.8125 8.00136 6.91127 7.7629 7.08709 7.58709C7.2629 7.41127 7.50136 7.3125 7.75 7.3125Z" fill="#6C778B"/>
</svg>
