<svg width="18" height="19" viewBox="0 0 18 19" fill="none" xmlns="http://www.w3.org/2000/svg">
<path d="M13.4521 9.53151L9.94843 8.24187L8.65856 4.73608C8.58217 4.52861 8.44397 4.34955 8.26262 4.22307C8.08121 4.09659 7.86544 4.02877 7.64432 4.02877C7.4232 4.02877 7.20737 4.09659 7.02602 4.22307C6.84467 4.34955 6.70646 4.52861 6.63008 4.73608L5.33883 8.23782L1.83243 9.52746C1.62492 9.60385 1.44583 9.742 1.31933 9.92335C1.19283 10.1046 1.125 10.3204 1.125 10.5415C1.125 10.7626 1.19283 10.9784 1.31933 11.1597C1.44583 11.3411 1.62492 11.4792 1.83243 11.5556L5.33409 12.8534L6.62394 16.3572C6.70033 16.5646 6.83854 16.7437 7.01989 16.8702C7.20124 16.9966 7.41707 17.0645 7.63819 17.0645C7.85931 17.0645 8.07514 16.9966 8.25649 16.8702C8.43784 16.7437 8.57604 16.5646 8.65243 16.3572L9.9423 12.8541L13.4487 11.5644C13.6562 11.4881 13.8353 11.3498 13.9618 11.1686C14.0883 10.9872 14.1562 10.7714 14.1562 10.5504C14.1562 10.3292 14.0883 10.1135 13.9618 9.93218C13.8353 9.75083 13.6562 9.61262 13.4487 9.53629L13.4521 9.53151ZM9.56959 11.8352C9.42283 11.8891 9.28957 11.9742 9.17899 12.0848C9.06846 12.1953 8.98329 12.3286 8.92941 12.4753L7.63954 15.9682L6.35242 12.4726C6.29848 12.3266 6.2136 12.194 6.10357 12.084C5.99349 11.974 5.86091 11.8891 5.71494 11.8352L2.22143 10.5456L5.71494 9.25594C5.86091 9.20205 5.99349 9.11717 6.10357 9.00715C6.2136 8.89712 6.29848 8.76454 6.35242 8.61857L7.64229 5.12569L8.93211 8.61857C8.98599 8.76533 9.07116 8.89858 9.18174 9.00912C9.29227 9.11965 9.42553 9.20481 9.57229 9.25864L13.0658 10.5483L9.56959 11.8352ZM9.81467 3.48649C9.81467 3.34247 9.87187 3.20436 9.97374 3.10252C10.0756 3.00069 10.2138 2.94348 10.3578 2.94348H11.444V1.85746C11.444 1.71345 11.5012 1.57533 11.603 1.47349C11.7049 1.37167 11.843 1.31445 11.9871 1.31445C12.1311 1.31445 12.2692 1.37167 12.3711 1.47349C12.473 1.57533 12.5302 1.71345 12.5302 1.85746V2.94348H13.6164C13.7604 2.94348 13.8986 3.00069 14.0004 3.10252C14.1023 3.20436 14.1595 3.34247 14.1595 3.48649C14.1595 3.6305 14.1023 3.76862 14.0004 3.87045C13.8986 3.97228 13.7604 4.02949 13.6164 4.02949H12.5302V5.11551C12.5302 5.25952 12.473 5.39764 12.3711 5.49948C12.2692 5.60131 12.1311 5.65852 11.9871 5.65852C11.843 5.65852 11.7049 5.60131 11.603 5.49948C11.5012 5.39764 11.444 5.25952 11.444 5.11551V4.02949H10.3578C10.2138 4.02949 10.0756 3.97228 9.97374 3.87045C9.87187 3.76862 9.81467 3.6305 9.81467 3.48649ZM16.875 6.74455C16.875 6.88855 16.8178 7.02664 16.7159 7.12851C16.6141 7.23032 16.476 7.28753 16.3319 7.28753H15.7888V7.83057C15.7888 7.97457 15.7316 8.11266 15.6297 8.21453C15.5279 8.31634 15.3897 8.37355 15.2457 8.37355C15.1017 8.37355 14.9635 8.31634 14.8616 8.21453C14.7598 8.11266 14.7026 7.97457 14.7026 7.83057V7.28753H14.1595C14.0155 7.28753 13.8773 7.23032 13.7755 7.12851C13.6736 7.02664 13.6164 6.88855 13.6164 6.74455C13.6164 6.60055 13.6736 6.4624 13.7755 6.36058C13.8773 6.25872 14.0155 6.20151 14.1595 6.20151H14.7026V5.65852C14.7026 5.51451 14.7598 5.37639 14.8616 5.27455C14.9635 5.17272 15.1017 5.11551 15.2457 5.11551C15.3897 5.11551 15.5279 5.17272 15.6297 5.27455C15.7316 5.37639 15.7888 5.51451 15.7888 5.65852V6.20151H16.3319C16.476 6.20151 16.6141 6.25872 16.7159 6.36058C16.8178 6.4624 16.875 6.60055 16.875 6.74455Z" fill="#6C778B"/>
</svg>
