<svg width="31" height="30" viewBox="0 0 31 30" fill="none" xmlns="http://www.w3.org/2000/svg">
<path d="M22.9201 15.5701L17.0807 13.4207L14.9309 7.57772C14.8036 7.23192 14.5733 6.93349 14.271 6.72269C13.9687 6.51189 13.6091 6.39887 13.2405 6.39887C12.872 6.39887 12.5123 6.51189 12.21 6.72269C11.9078 6.93349 11.6774 7.23192 11.5501 7.57772L9.39806 13.4139L3.55406 15.5633C3.2082 15.6907 2.90972 15.9209 2.69888 16.2232C2.48804 16.5253 2.375 16.8849 2.375 17.2535C2.375 17.6219 2.48804 17.9815 2.69888 18.2838C2.90972 18.586 3.2082 18.8163 3.55406 18.9436L9.39014 21.1065L11.5399 26.9462C11.6672 27.2919 11.8976 27.5903 12.1998 27.8012C12.5021 28.0119 12.8618 28.125 13.2303 28.125C13.5988 28.125 13.9586 28.0119 14.2608 27.8012C14.5631 27.5903 14.7934 27.2919 14.9207 26.9462L17.0705 21.1077L22.9145 18.9583C23.2603 18.831 23.5588 18.6007 23.7697 18.2985C23.9805 17.9963 24.0936 17.6366 24.0936 17.2682C24.0936 16.8997 23.9805 16.54 23.7697 16.2379C23.5588 15.9356 23.2603 15.7053 22.9145 15.5781L22.9201 15.5701ZM16.4493 19.4096C16.2047 19.4994 15.9826 19.6413 15.7983 19.8255C15.6141 20.0097 15.4722 20.2319 15.3823 20.4764L13.2326 26.2979L11.0874 20.4719C10.9975 20.2286 10.856 20.0077 10.6726 19.8243C10.4892 19.6409 10.2682 19.4994 10.0249 19.4096L4.20238 17.2602L10.0249 15.1108C10.2682 15.021 10.4892 14.8795 10.6726 14.6962C10.856 14.5128 10.9975 14.2918 11.0874 14.0485L13.2372 8.22707L15.3868 14.0485C15.4767 14.2931 15.6186 14.5152 15.8029 14.6994C15.9871 14.8837 16.2092 15.0256 16.4538 15.1153L22.2763 17.2647L16.4493 19.4096ZM16.8578 5.49505C16.8578 5.25503 16.9531 5.02484 17.1229 4.85512C17.2927 4.68539 17.5229 4.59004 17.7629 4.59004H19.5733V2.78002C19.5733 2.53999 19.6687 2.30979 19.8384 2.14007C20.0082 1.97035 20.2384 1.875 20.4785 1.875C20.7185 1.875 20.9487 1.97035 21.1185 2.14007C21.2883 2.30979 21.3837 2.53999 21.3837 2.78002V4.59004H23.194C23.4341 4.59004 23.6643 4.68539 23.834 4.85512C24.0038 5.02484 24.0991 5.25503 24.0991 5.49505C24.0991 5.73508 24.0038 5.96528 23.834 6.135C23.6643 6.30472 23.4341 6.40007 23.194 6.40007H21.3837V8.2101C21.3837 8.45012 21.2883 8.68031 21.1185 8.85004C20.9487 9.01976 20.7185 9.11511 20.4785 9.11511C20.2384 9.11511 20.0082 9.01976 19.8384 8.85004C19.6687 8.68031 19.5733 8.45012 19.5733 8.2101V6.40007H17.7629C17.5229 6.40007 17.2927 6.30472 17.1229 6.135C16.9531 5.96528 16.8578 5.73508 16.8578 5.49505ZM28.625 10.9252C28.625 11.1652 28.5297 11.3953 28.3599 11.5651C28.1901 11.7348 27.9599 11.8301 27.7198 11.8301H26.8147V12.7352C26.8147 12.9752 26.7192 13.2053 26.5496 13.3751C26.3798 13.5448 26.1495 13.6402 25.9095 13.6402C25.6694 13.6402 25.4392 13.5448 25.2694 13.3751C25.0997 13.2053 25.0043 12.9752 25.0043 12.7352V11.8301H24.0991C23.8591 11.8301 23.6289 11.7348 23.4591 11.5651C23.2893 11.3953 23.194 11.1652 23.194 10.9252C23.194 10.6852 23.2893 10.4549 23.4591 10.2852C23.6289 10.1154 23.8591 10.0201 24.0991 10.0201H25.0043V9.11511C25.0043 8.87509 25.0997 8.64489 25.2694 8.47517C25.4392 8.30544 25.6694 8.2101 25.9095 8.2101C26.1495 8.2101 26.3798 8.30544 26.5496 8.47517C26.7192 8.64489 26.8147 8.87509 26.8147 9.11511V10.0201H27.7198C27.9599 10.0201 28.1901 10.1154 28.3599 10.2852C28.5297 10.4549 28.625 10.6852 28.625 10.9252Z" fill="white"/>
</svg>
