<svg width="14" height="11" viewBox="0 0 14 11" fill="none" xmlns="http://www.w3.org/2000/svg">
<path d="M13.5306 2.03032L5.5306 10.0303C5.46092 10.1002 5.37813 10.1557 5.28696 10.1936C5.1958 10.2314 5.09806 10.2509 4.99935 10.2509C4.90064 10.2509 4.8029 10.2314 4.71173 10.1936C4.62057 10.1557 4.53778 10.1002 4.4681 10.0303L0.968098 6.53032C0.898333 6.46056 0.842993 6.37774 0.805236 6.28658C0.76748 6.19543 0.748047 6.09774 0.748047 5.99907C0.748047 5.90041 0.76748 5.80272 0.805236 5.71156C0.842993 5.62041 0.898333 5.53759 0.968098 5.46782C1.03786 5.39806 1.12069 5.34272 1.21184 5.30496C1.30299 5.26721 1.40069 5.24777 1.49935 5.24777C1.59801 5.24777 1.69571 5.26721 1.78686 5.30496C1.87801 5.34272 1.96083 5.39806 2.0306 5.46782L4.99997 8.4372L12.4693 0.969074C12.6102 0.828178 12.8013 0.749023 13.0006 0.749023C13.1999 0.749023 13.391 0.828178 13.5318 0.969074C13.6727 1.10997 13.7519 1.30107 13.7519 1.50032C13.7519 1.69958 13.6727 1.89068 13.5318 2.03157L13.5306 2.03032Z" fill="#5B5BE1"/>
</svg>
