<svg width="24" height="26" viewBox="0 0 24 26" fill="none" xmlns="http://www.w3.org/2000/svg">
<path d="M23 4.25H17.75V3C17.75 2.27065 17.4603 1.57118 16.9445 1.05546C16.4288 0.539731 15.7293 0.25 15 0.25H9C8.27065 0.25 7.57118 0.539731 7.05546 1.05546C6.53973 1.57118 6.25 2.27065 6.25 3V4.25H1C0.801088 4.25 0.610322 4.32902 0.46967 4.46967C0.329018 4.61032 0.25 4.80109 0.25 5C0.25 5.19891 0.329018 5.38968 0.46967 5.53033C0.610322 5.67098 0.801088 5.75 1 5.75H2.25V24C2.25 24.4641 2.43437 24.9092 2.76256 25.2374C3.09075 25.5656 3.53587 25.75 4 25.75H20C20.4641 25.75 20.9092 25.5656 21.2374 25.2374C21.5656 24.9092 21.75 24.4641 21.75 24V5.75H23C23.1989 5.75 23.3897 5.67098 23.5303 5.53033C23.671 5.38968 23.75 5.19891 23.75 5C23.75 4.80109 23.671 4.61032 23.5303 4.46967C23.3897 4.32902 23.1989 4.25 23 4.25ZM7.75 3C7.75 2.66848 7.8817 2.35054 8.11612 2.11612C8.35054 1.8817 8.66848 1.75 9 1.75H15C15.3315 1.75 15.6495 1.8817 15.8839 2.11612C16.1183 2.35054 16.25 2.66848 16.25 3V4.25H7.75V3ZM20.25 24C20.25 24.0663 20.2237 24.1299 20.1768 24.1768C20.1299 24.2237 20.0663 24.25 20 24.25H4C3.9337 24.25 3.87011 24.2237 3.82322 24.1768C3.77634 24.1299 3.75 24.0663 3.75 24V5.75H20.25V24ZM9.75 11V19C9.75 19.1989 9.67098 19.3897 9.53033 19.5303C9.38968 19.671 9.19891 19.75 9 19.75C8.80109 19.75 8.61032 19.671 8.46967 19.5303C8.32902 19.3897 8.25 19.1989 8.25 19V11C8.25 10.8011 8.32902 10.6103 8.46967 10.4697C8.61032 10.329 8.80109 10.25 9 10.25C9.19891 10.25 9.38968 10.329 9.53033 10.4697C9.67098 10.6103 9.75 10.8011 9.75 11ZM15.75 11V19C15.75 19.1989 15.671 19.3897 15.5303 19.5303C15.3897 19.671 15.1989 19.75 15 19.75C14.8011 19.75 14.6103 19.671 14.4697 19.5303C14.329 19.3897 14.25 19.1989 14.25 19V11C14.25 10.8011 14.329 10.6103 14.4697 10.4697C14.6103 10.329 14.8011 10.25 15 10.25C15.1989 10.25 15.3897 10.329 15.5303 10.4697C15.671 10.6103 15.75 10.8011 15.75 11Z" fill="#6C778B"/>
</svg>
