<svg width="163" height="163" viewBox="0 0 163 163" fill="none" xmlns="http://www.w3.org/2000/svg">
<g filter="url(#filter0_d_10258_45909)">
<rect x="12.1172" y="12.1162" width="138.767" height="138.767" rx="69.3833" fill="#E9E9FB" shape-rendering="crispEdges"/>
<path d="M81.5007 96.2064C85.3997 96.2023 89.138 94.6516 91.8951 91.8945C94.6521 89.1375 96.2028 85.3992 96.2069 81.5001V61.8918C96.2069 57.9915 94.6575 54.2509 91.8995 51.4929C89.1416 48.735 85.401 47.1855 81.5007 47.1855C77.6003 47.1855 73.8597 48.735 71.1018 51.4929C68.3438 54.2509 66.7944 57.9915 66.7944 61.8918V81.5001C66.7985 85.3992 68.3492 89.1375 71.1062 91.8945C73.8633 94.6516 77.6016 96.2023 81.5007 96.2064ZM71.6965 61.8918C71.6965 59.2916 72.7294 56.7978 74.5681 54.9592C76.4067 53.1206 78.9004 52.0876 81.5007 52.0876C84.1009 52.0876 86.5946 53.1206 88.4332 54.9592C90.2719 56.7978 91.3048 59.2916 91.3048 61.8918V81.5001C91.3048 84.1004 90.2719 86.5941 88.4332 88.4327C86.5946 90.2714 84.1009 91.3043 81.5007 91.3043C78.9004 91.3043 76.4067 90.2714 74.5681 88.4327C72.7294 86.5941 71.6965 84.1004 71.6965 81.5001V61.8918ZM83.9517 105.888V113.364C83.9517 114.014 83.6935 114.637 83.2338 115.097C82.7741 115.556 82.1507 115.815 81.5007 115.815C80.8506 115.815 80.2272 115.556 79.7675 115.097C79.3078 114.637 79.0496 114.014 79.0496 113.364V105.888C73.0067 105.273 67.4064 102.439 63.3318 97.9346C59.2572 93.4298 56.9977 87.5743 56.9902 81.5001C56.9902 80.8501 57.2485 80.2266 57.7081 79.767C58.1678 79.3073 58.7912 79.0491 59.4413 79.0491C60.0913 79.0491 60.7148 79.3073 61.1744 79.767C61.6341 80.2266 61.8923 80.8501 61.8923 81.5001C61.8923 86.7006 63.9582 91.688 67.6355 95.3653C71.3127 99.0426 76.3002 101.108 81.5007 101.108C86.7011 101.108 91.6886 99.0426 95.3658 95.3653C99.0431 91.688 101.109 86.7006 101.109 81.5001C101.109 80.8501 101.367 80.2266 101.827 79.767C102.287 79.3073 102.91 79.0491 103.56 79.0491C104.21 79.0491 104.834 79.3073 105.293 79.767C105.753 80.2266 106.011 80.8501 106.011 81.5001C106.004 87.5743 103.744 93.4298 99.6695 97.9346C95.5949 102.439 89.9946 105.273 83.9517 105.888Z" fill="#5B5BE1"/>
</g>
<defs>
<filter id="filter0_d_10258_45909" x="0.352186" y="0.35121" width="162.298" height="162.297" filterUnits="userSpaceOnUse" color-interpolation-filters="sRGB">
<feFlood flood-opacity="0" result="BackgroundImageFix"/>
<feColorMatrix in="SourceAlpha" type="matrix" values="0 0 0 0 0 0 0 0 0 0 0 0 0 0 0 0 0 0 127 0" result="hardAlpha"/>
<feOffset/>
<feGaussianBlur stdDeviation="5.8825"/>
<feComposite in2="hardAlpha" operator="out"/>
<feColorMatrix type="matrix" values="0 0 0 0 0.356863 0 0 0 0 0.356863 0 0 0 0 0.882353 0 0 0 1 0"/>
<feBlend mode="normal" in2="BackgroundImageFix" result="effect1_dropShadow_10258_45909"/>
<feBlend mode="normal" in="SourceGraphic" in2="effect1_dropShadow_10258_45909" result="shape"/>
</filter>
</defs>
</svg>
