<svg width="14" height="12" viewBox="0 0 14 12" fill="none" xmlns="http://www.w3.org/2000/svg">
<path d="M13.5004 6.00031C13.5004 6.1495 13.4412 6.29257 13.3357 6.39806C13.2302 6.50355 13.0871 6.56281 12.9379 6.56281H1.92068L6.02341 10.6648C6.07567 10.7171 6.11713 10.7792 6.14541 10.8474C6.1737 10.9157 6.18826 10.9889 6.18826 11.0628C6.18826 11.1367 6.1737 11.2099 6.14541 11.2782C6.11713 11.3465 6.07567 11.4085 6.02341 11.4608C5.97115 11.513 5.90911 11.5545 5.84082 11.5828C5.77254 11.6111 5.69935 11.6256 5.62544 11.6256C5.55153 11.6256 5.47835 11.6111 5.41006 11.5828C5.34178 11.5545 5.27974 11.513 5.22747 11.4608L0.164974 6.39828C0.112674 6.34604 0.0711851 6.284 0.0428777 6.21572C0.0145702 6.14743 0 6.07423 0 6.00031C0 5.92639 0.0145702 5.8532 0.0428777 5.78491C0.0711851 5.71662 0.112674 5.65458 0.164974 5.60234L5.22747 0.539844C5.33302 0.434296 5.47618 0.375 5.62544 0.375C5.77471 0.375 5.91786 0.434296 6.02341 0.539844C6.12896 0.645392 6.18826 0.788546 6.18826 0.937813C6.18826 1.08708 6.12896 1.23023 6.02341 1.33578L1.92068 5.43781H12.9379C13.0871 5.43781 13.2302 5.49708 13.3357 5.60257C13.4412 5.70805 13.5004 5.85113 13.5004 6.00031Z" fill="#6C778B"/>
</svg>
