<svg width="38" height="38" viewBox="0 0 38 38" fill="none" xmlns="http://www.w3.org/2000/svg">
<rect width="38" height="38" rx="10" fill="#EBEBEB"/>
<path d="M26.0319 18.9998C26.0319 19.2236 25.943 19.4382 25.7848 19.5964C25.6266 19.7546 25.4119 19.8435 25.1882 19.8435H14.8522L18.4747 23.4653C18.6332 23.6238 18.7223 23.8388 18.7223 24.063C18.7223 24.2872 18.6332 24.5021 18.4747 24.6606C18.3162 24.8192 18.1012 24.9082 17.8771 24.9082C17.6529 24.9082 17.4379 24.8192 17.2794 24.6606L12.2169 19.5981C12.1383 19.5198 12.0758 19.4266 12.0333 19.3241C11.9907 19.2215 11.9688 19.1115 11.9688 19.0005C11.9688 18.8894 11.9907 18.7795 12.0333 18.6769C12.0758 18.5744 12.1383 18.4812 12.2169 18.4028L17.2794 13.3403C17.3579 13.2618 17.4511 13.1996 17.5536 13.1571C17.6562 13.1146 17.7661 13.0928 17.8771 13.0928C17.9881 13.0928 18.098 13.1146 18.2005 13.1571C18.3031 13.1996 18.3962 13.2618 18.4747 13.3403C18.5532 13.4188 18.6155 13.512 18.6579 13.6145C18.7004 13.7171 18.7223 13.827 18.7223 13.938C18.7223 14.049 18.7004 14.1589 18.6579 14.2614C18.6155 14.364 18.5532 14.4572 18.4747 14.5356L14.8522 18.156H25.1882C25.4119 18.156 25.6266 18.2449 25.7848 18.4032C25.943 18.5614 26.0319 18.776 26.0319 18.9998Z" fill="#333544"/>
</svg>
