<svg width="21" height="20" viewBox="0 0 21 20" fill="none" xmlns="http://www.w3.org/2000/svg">
<path d="M16.5 2.5H14.625V1.875C14.625 1.70924 14.5592 1.55027 14.4419 1.43306C14.3247 1.31585 14.1658 1.25 14 1.25C13.8342 1.25 13.6753 1.31585 13.5581 1.43306C13.4408 1.55027 13.375 1.70924 13.375 1.875V2.5H7.125V1.875C7.125 1.70924 7.05915 1.55027 6.94194 1.43306C6.82473 1.31585 6.66576 1.25 6.5 1.25C6.33424 1.25 6.17527 1.31585 6.05806 1.43306C5.94085 1.55027 5.875 1.70924 5.875 1.875V2.5H4C3.66848 2.5 3.35054 2.6317 3.11612 2.86612C2.8817 3.10054 2.75 3.41848 2.75 3.75V16.25C2.75 16.5815 2.8817 16.8995 3.11612 17.1339C3.35054 17.3683 3.66848 17.5 4 17.5H16.5C16.8315 17.5 17.1495 17.3683 17.3839 17.1339C17.6183 16.8995 17.75 16.5815 17.75 16.25V3.75C17.75 3.41848 17.6183 3.10054 17.3839 2.86612C17.1495 2.6317 16.8315 2.5 16.5 2.5ZM5.875 3.75V4.375C5.875 4.54076 5.94085 4.69973 6.05806 4.81694C6.17527 4.93415 6.33424 5 6.5 5C6.66576 5 6.82473 4.93415 6.94194 4.81694C7.05915 4.69973 7.125 4.54076 7.125 4.375V3.75H13.375V4.375C13.375 4.54076 13.4408 4.69973 13.5581 4.81694C13.6753 4.93415 13.8342 5 14 5C14.1658 5 14.3247 4.93415 14.4419 4.81694C14.5592 4.69973 14.625 4.54076 14.625 4.375V3.75H16.5V6.25H4V3.75H5.875ZM16.5 16.25H4V7.5H16.5V16.25ZM9 9.375V14.375C9 14.5408 8.93415 14.6997 8.81694 14.8169C8.69973 14.9342 8.54076 15 8.375 15C8.20924 15 8.05027 14.9342 7.93306 14.8169C7.81585 14.6997 7.75 14.5408 7.75 14.375V10.3859L7.40469 10.5594C7.25633 10.6336 7.08459 10.6458 6.92723 10.5933C6.76988 10.5409 6.6398 10.428 6.56562 10.2797C6.49145 10.1313 6.47924 9.95959 6.53169 9.80223C6.58414 9.64488 6.69696 9.5148 6.84531 9.44062L8.09531 8.81562C8.19063 8.76793 8.29657 8.7454 8.40305 8.75018C8.50954 8.75497 8.61303 8.7869 8.70369 8.84296C8.79435 8.89902 8.86916 8.97733 8.92103 9.07045C8.97289 9.16357 9.00008 9.26841 9 9.375ZM13.6219 11.7539L12.125 13.75H13.375C13.5408 13.75 13.6997 13.8158 13.8169 13.9331C13.9342 14.0503 14 14.2092 14 14.375C14 14.5408 13.9342 14.6997 13.8169 14.8169C13.6997 14.9342 13.5408 15 13.375 15H10.875C10.7589 15 10.6452 14.9677 10.5464 14.9067C10.4477 14.8456 10.3679 14.7583 10.316 14.6545C10.2641 14.5507 10.2421 14.4345 10.2525 14.3189C10.2629 14.2033 10.3054 14.0929 10.375 14L12.6234 11.0023C12.6746 10.9343 12.7113 10.8564 12.7313 10.7737C12.7512 10.6909 12.7541 10.6049 12.7397 10.521C12.7252 10.4371 12.6938 10.357 12.6473 10.2856C12.6008 10.2143 12.5402 10.1532 12.4692 10.1062C12.3983 10.0591 12.3184 10.027 12.2346 10.0119C12.1508 9.99678 12.0648 9.99895 11.9819 10.0183C11.899 10.0376 11.8209 10.0737 11.7524 10.1243C11.6839 10.1749 11.6264 10.2389 11.5836 10.3125C11.5438 10.3858 11.4897 10.4505 11.4244 10.5026C11.3592 10.5547 11.2843 10.5932 11.2039 10.6158C11.1236 10.6385 11.0395 10.6448 10.9567 10.6344C10.8739 10.624 10.794 10.5972 10.7217 10.5555C10.6495 10.5137 10.5863 10.4579 10.5359 10.3914C10.4856 10.3248 10.4491 10.2488 10.4285 10.1679C10.408 10.087 10.4039 10.0028 10.4164 9.92033C10.429 9.83781 10.4579 9.75865 10.5016 9.6875C10.708 9.33023 11.0266 9.05103 11.4078 8.8932C11.7891 8.73537 12.2118 8.70772 12.6103 8.81453C13.0089 8.92133 13.3611 9.15664 13.6124 9.48397C13.8636 9.8113 13.9999 10.2124 14 10.625C14.0013 11.0326 13.8684 11.4293 13.6219 11.7539Z" fill="#6C778B"/>
</svg>
