<svg width="30" height="31" viewBox="0 0 30 31" fill="none" xmlns="http://www.w3.org/2000/svg">
<g filter="url(#filter0_d_2021_934)">
<rect x="4" y="0.189453" width="22" height="22" rx="11" fill="#5B5BE1" shape-rendering="crispEdges"/>
<path d="M19.375 7.25195H17.8591L17.1137 6.13414C17.0737 6.07429 17.0197 6.0252 16.9562 5.99125C16.8928 5.95729 16.822 5.9395 16.75 5.93945H13.25C13.178 5.9395 13.1072 5.95729 13.0438 5.99125C12.9803 6.0252 12.9263 6.07429 12.8863 6.13414L12.1404 7.25195H10.625C10.2769 7.25195 9.94306 7.39023 9.69692 7.63638C9.45078 7.88252 9.3125 8.21636 9.3125 8.56445V14.6895C9.3125 15.0375 9.45078 15.3714 9.69692 15.6175C9.94306 15.8637 10.2769 16.002 10.625 16.002H19.375C19.7231 16.002 20.0569 15.8637 20.3031 15.6175C20.5492 15.3714 20.6875 15.0375 20.6875 14.6895V8.56445C20.6875 8.21636 20.5492 7.88252 20.3031 7.63638C20.0569 7.39023 19.7231 7.25195 19.375 7.25195ZM19.8125 14.6895C19.8125 14.8055 19.7664 14.9168 19.6844 14.9988C19.6023 15.0809 19.491 15.127 19.375 15.127H10.625C10.509 15.127 10.3977 15.0809 10.3156 14.9988C10.2336 14.9168 10.1875 14.8055 10.1875 14.6895V8.56445C10.1875 8.44842 10.2336 8.33714 10.3156 8.25509C10.3977 8.17305 10.509 8.12695 10.625 8.12695H12.375C12.447 8.127 12.518 8.10925 12.5815 8.07529C12.6451 8.04133 12.6992 7.9922 12.7392 7.93227L13.4841 6.81445H16.5154L17.2608 7.93227C17.3008 7.9922 17.3549 8.04133 17.4185 8.07529C17.482 8.10925 17.553 8.127 17.625 8.12695H19.375C19.491 8.12695 19.6023 8.17305 19.6844 8.25509C19.7664 8.33714 19.8125 8.44842 19.8125 8.56445V14.6895ZM15 9.00195C14.5241 9.00195 14.0589 9.14308 13.6632 9.40748C13.2675 9.67188 12.959 10.0477 12.7769 10.4874C12.5948 10.9271 12.5471 11.4109 12.64 11.8776C12.7328 12.3444 12.962 12.7732 13.2985 13.1097C13.635 13.4462 14.0638 13.6754 14.5306 13.7682C14.9973 13.8611 15.4811 13.8134 15.9208 13.6313C16.3605 13.4492 16.7363 13.1407 17.0007 12.745C17.2651 12.3493 17.4062 11.8841 17.4062 11.4082C17.4055 10.7702 17.1518 10.1586 16.7007 9.70753C16.2496 9.25642 15.638 9.00268 15 9.00195ZM15 12.9395C14.6971 12.9395 14.4011 12.8496 14.1493 12.6814C13.8975 12.5131 13.7012 12.274 13.5853 11.9942C13.4694 11.7144 13.4391 11.4065 13.4982 11.1095C13.5573 10.8124 13.7031 10.5396 13.9172 10.3254C14.1314 10.1113 14.4042 9.96546 14.7013 9.90638C14.9983 9.84729 15.3062 9.87762 15.586 9.99351C15.8658 10.1094 16.1049 10.3057 16.2732 10.5575C16.4414 10.8093 16.5312 11.1054 16.5312 11.4082C16.5312 11.8143 16.3699 12.2038 16.0828 12.491C15.7956 12.7781 15.4061 12.9395 15 12.9395Z" fill="white"/>
</g>
<defs>
<filter id="filter0_d_2021_934" x="0" y="0.189453" width="30" height="30" filterUnits="userSpaceOnUse" color-interpolation-filters="sRGB">
<feFlood flood-opacity="0" result="BackgroundImageFix"/>
<feColorMatrix in="SourceAlpha" type="matrix" values="0 0 0 0 0 0 0 0 0 0 0 0 0 0 0 0 0 0 127 0" result="hardAlpha"/>
<feOffset dy="4"/>
<feGaussianBlur stdDeviation="2"/>
<feComposite in2="hardAlpha" operator="out"/>
<feColorMatrix type="matrix" values="0 0 0 0 0 0 0 0 0 0 0 0 0 0 0 0 0 0 0.25 0"/>
<feBlend mode="normal" in2="BackgroundImageFix" result="effect1_dropShadow_2021_934"/>
<feBlend mode="normal" in="SourceGraphic" in2="effect1_dropShadow_2021_934" result="shape"/>
</filter>
</defs>
</svg>
