<svg width="40" height="37" viewBox="0 0 40 37" fill="none" xmlns="http://www.w3.org/2000/svg">
<rect x="0.5" y="0.689453" width="39" height="35" rx="5.5" fill="white"/>
<rect x="0.5" y="0.689453" width="39" height="35" rx="5.5" stroke="#D8DCE4"/>
<path d="M26.9375 17.877V17.877C26.9375 16.1199 26.2395 14.4348 24.9971 13.1924C23.7547 11.9499 22.0696 11.252 20.3125 11.252C18.5554 11.252 16.8703 11.9499 15.6279 13.1924C14.3855 14.4348 13.6875 16.1199 13.6875 17.877V24.4395V24.502H13.75H20.3125H20.3126C22.069 24.5001 23.753 23.8015 24.995 22.5595C26.237 21.3175 26.9356 19.6335 26.9375 17.877ZM23.0625 16.9395C23.0625 17.0886 23.0032 17.2317 22.8977 17.3372C22.7923 17.4427 22.6492 17.502 22.5 17.502H17.5C17.3508 17.502 17.2077 17.4427 17.1023 17.3372C16.9968 17.2317 16.9375 17.0886 16.9375 16.9395C16.9375 16.7903 16.9968 16.6472 17.1023 16.5417C17.2077 16.4362 17.3508 16.377 17.5 16.377H22.5C22.6492 16.377 22.7923 16.4362 22.8977 16.5417C23.0032 16.6472 23.0625 16.7903 23.0625 16.9395ZM17.5 18.877H22.5C22.6492 18.877 22.7923 18.9362 22.8977 19.0417C23.0032 19.1472 23.0625 19.2903 23.0625 19.4395C23.0625 19.5886 23.0032 19.7317 22.8977 19.8372C22.7923 19.9427 22.6492 20.002 22.5 20.002H17.5C17.3508 20.002 17.2077 19.9427 17.1023 19.8372C16.9968 19.7317 16.9375 19.5886 16.9375 19.4395C16.9375 19.2903 16.9968 19.1472 17.1023 19.0417C17.2077 18.9362 17.3508 18.877 17.5 18.877ZM28.0625 17.8769C28.0602 19.9316 27.243 21.9016 25.7901 23.3545C24.3371 24.8074 22.3672 25.6247 20.3124 25.627H13.7243C13.4163 25.6266 13.121 25.504 12.9032 25.2862C12.6854 25.0684 12.5629 24.7732 12.5625 24.4652L12.5625 17.877C12.5625 15.8215 13.379 13.8503 14.8324 12.3969C16.2858 10.9435 18.2571 10.127 20.3125 10.127C22.3679 10.127 24.3392 10.9435 25.7926 12.3969C27.246 13.8503 28.0625 15.8215 28.0625 17.8769Z" fill="#6C778B" stroke="#242425" stroke-width="0.125"/>
</svg>
