<svg width="14" height="15" viewBox="0 0 14 15" fill="none" xmlns="http://www.w3.org/2000/svg">
<path d="M12.625 0.75H1.375C1.07663 0.75 0.790483 0.868526 0.579505 1.0795C0.368526 1.29048 0.25 1.57663 0.25 1.875V13.125C0.25 13.4234 0.368526 13.7095 0.579505 13.9205C0.790483 14.1315 1.07663 14.25 1.375 14.25H12.625C12.9234 14.25 13.2095 14.1315 13.4205 13.9205C13.6315 13.7095 13.75 13.4234 13.75 13.125V1.875C13.75 1.57663 13.6315 1.29048 13.4205 1.0795C13.2095 0.868526 12.9234 0.75 12.625 0.75ZM10.2105 6.21047L6.27297 10.148C6.22073 10.2003 6.15869 10.2418 6.0904 10.2701C6.02212 10.2984 5.94892 10.3129 5.875 10.3129C5.80108 10.3129 5.72788 10.2984 5.6596 10.2701C5.59131 10.2418 5.52927 10.2003 5.47703 10.148L3.78953 8.46047C3.68398 8.35492 3.62469 8.21177 3.62469 8.0625C3.62469 7.91323 3.68398 7.77008 3.78953 7.66453C3.89508 7.55898 4.03823 7.49969 4.1875 7.49969C4.33677 7.49969 4.47992 7.55898 4.58547 7.66453L5.875 8.95477L9.41453 5.41453C9.46679 5.36227 9.52884 5.32081 9.59712 5.29253C9.6654 5.26424 9.73859 5.24969 9.8125 5.24969C9.88641 5.24969 9.9596 5.26424 10.0279 5.29253C10.0962 5.32081 10.1582 5.36227 10.2105 5.41453C10.2627 5.46679 10.3042 5.52884 10.3325 5.59712C10.3608 5.6654 10.3753 5.73859 10.3753 5.8125C10.3753 5.88641 10.3608 5.9596 10.3325 6.02788C10.3042 6.09616 10.2627 6.15821 10.2105 6.21047Z" fill="#5B5BE1"/>
</svg>
