<svg width="14" height="14" viewBox="0 0 14 14" fill="none" xmlns="http://www.w3.org/2000/svg">
<path d="M12.625 0.25H1.375C1.07663 0.25 0.790483 0.368526 0.579505 0.579505C0.368526 0.790483 0.25 1.07663 0.25 1.375V12.625C0.25 12.9234 0.368526 13.2095 0.579505 13.4205C0.790483 13.6315 1.07663 13.75 1.375 13.75H12.625C12.9234 13.75 13.2095 13.6315 13.4205 13.4205C13.6315 13.2095 13.75 12.9234 13.75 12.625V1.375C13.75 1.07663 13.6315 0.790483 13.4205 0.579505C13.2095 0.368526 12.9234 0.25 12.625 0.25ZM12.625 12.625H1.375V1.375H12.625V12.625Z" fill="#6C778B"/>
</svg>
