<svg width="20" height="21" viewBox="0 0 20 21" fill="none" xmlns="http://www.w3.org/2000/svg">
<path d="M16.6925 4.69253L12.7589 8.62535H15.0003C15.1661 8.62535 15.3251 8.6912 15.4423 8.80841C15.5595 8.92562 15.6253 9.08459 15.6253 9.25035C15.6253 9.41611 15.5595 9.57508 15.4423 9.69229C15.3251 9.8095 15.1661 9.87535 15.0003 9.87535H11.2503C11.0846 9.87535 10.9256 9.8095 10.8084 9.69229C10.6912 9.57508 10.6253 9.41611 10.6253 9.25035V5.50035C10.6253 5.33459 10.6912 5.17562 10.8084 5.05841C10.9256 4.9412 11.0846 4.87535 11.2503 4.87535C11.4161 4.87535 11.5751 4.9412 11.6923 5.05841C11.8095 5.17562 11.8753 5.33459 11.8753 5.50035V7.74175L15.8082 3.80816C15.9254 3.69088 16.0845 3.625 16.2503 3.625C16.4162 3.625 16.5753 3.69088 16.6925 3.80816C16.8098 3.92544 16.8757 4.0845 16.8757 4.25035C16.8757 4.4162 16.8098 4.57526 16.6925 4.69253ZM8.75035 11.1253H5.00035C4.83459 11.1253 4.67562 11.1912 4.55841 11.3084C4.4412 11.4256 4.37535 11.5846 4.37535 11.7503C4.37535 11.9161 4.4412 12.0751 4.55841 12.1923C4.67562 12.3095 4.83459 12.3753 5.00035 12.3753H7.24175L3.30816 16.3082C3.19088 16.4254 3.125 16.5845 3.125 16.7503C3.125 16.9162 3.19088 17.0753 3.30816 17.1925C3.42544 17.3098 3.5845 17.3757 3.75035 17.3757C3.9162 17.3757 4.07526 17.3098 4.19253 17.1925L8.12535 13.2589V15.5003C8.12535 15.6661 8.1912 15.8251 8.30841 15.9423C8.42562 16.0595 8.58459 16.1253 8.75035 16.1253C8.91611 16.1253 9.07508 16.0595 9.19229 15.9423C9.3095 15.8251 9.37535 15.6661 9.37535 15.5003V11.7503C9.37535 11.5846 9.3095 11.4256 9.19229 11.3084C9.07508 11.1912 8.91611 11.1253 8.75035 11.1253Z" fill="white"/>
</svg>
