<svg width="62" height="62" viewBox="0 0 62 62" fill="none" xmlns="http://www.w3.org/2000/svg">
<path d="M57.7586 24.1148C56.7277 23.0375 55.6613 21.9273 55.2594 20.9512C54.8875 20.057 54.8656 18.575 54.8437 17.1395C54.8027 14.4707 54.759 11.4465 52.6562 9.34375C50.5535 7.24102 47.5293 7.19727 44.8605 7.15625C43.425 7.13437 41.943 7.1125 41.0488 6.74062C40.0754 6.33867 38.9625 5.27227 37.8852 4.24141C35.9984 2.42852 33.8547 0.375 31 0.375C28.1453 0.375 26.0043 2.42852 24.1148 4.24141C23.0375 5.27227 21.9273 6.33867 20.9512 6.74062C20.0625 7.1125 18.575 7.13437 17.1395 7.15625C14.4707 7.19727 11.4465 7.24102 9.34375 9.34375C7.24102 11.4465 7.21094 14.4707 7.15625 17.1395C7.13437 18.575 7.1125 20.057 6.74062 20.9512C6.33867 21.9246 5.27227 23.0375 4.24141 24.1148C2.42852 26.0016 0.375 28.1453 0.375 31C0.375 33.8547 2.42852 35.9957 4.24141 37.8852C5.27227 38.9625 6.33867 40.0727 6.74062 41.0488C7.1125 41.943 7.13437 43.425 7.15625 44.8605C7.19727 47.5293 7.24102 50.5535 9.34375 52.6562C11.4465 54.759 14.4707 54.8027 17.1395 54.8437C18.575 54.8656 20.057 54.8875 20.9512 55.2594C21.9246 55.6613 23.0375 56.7277 24.1148 57.7586C26.0016 59.5715 28.1453 61.625 31 61.625C33.8547 61.625 35.9957 59.5715 37.8852 57.7586C38.9625 56.7277 40.0727 55.6613 41.0488 55.2594C41.943 54.8875 43.425 54.8656 44.8605 54.8437C47.5293 54.8027 50.5535 54.759 52.6562 52.6562C54.759 50.5535 54.8027 47.5293 54.8437 44.8605C54.8656 43.425 54.8875 41.943 55.2594 41.0488C55.6613 40.0754 56.7277 38.9625 57.7586 37.8852C59.5715 35.9984 61.625 33.8547 61.625 31C61.625 28.1453 59.5715 26.0043 57.7586 24.1148ZM54.6004 34.8582C53.2906 36.2254 51.9344 37.6391 51.2152 39.3754C50.5262 41.0434 50.4961 42.9492 50.4687 44.7949C50.4414 46.709 50.4113 48.7133 49.5609 49.5609C48.7105 50.4086 46.7199 50.4414 44.7949 50.4687C42.9492 50.4961 41.0434 50.5262 39.3754 51.2152C37.6391 51.9344 36.2254 53.2906 34.8582 54.6004C33.491 55.9102 32.0938 57.25 31 57.25C29.9062 57.25 28.498 55.9047 27.1418 54.6004C25.7855 53.2961 24.3609 51.9344 22.6246 51.2152C20.9566 50.5262 19.0508 50.4961 17.2051 50.4687C15.291 50.4414 13.2867 50.4113 12.4391 49.5609C11.5914 48.7105 11.5586 46.7199 11.5312 44.7949C11.5039 42.9492 11.4738 41.0434 10.7848 39.3754C10.0656 37.6391 8.70937 36.2254 7.39961 34.8582C6.08984 33.491 4.75 32.0938 4.75 31C4.75 29.9062 6.09531 28.498 7.39961 27.1418C8.70391 25.7855 10.0656 24.3609 10.7848 22.6246C11.4738 20.9566 11.5039 19.0508 11.5312 17.2051C11.5586 15.291 11.5887 13.2867 12.4391 12.4391C13.2895 11.5914 15.2801 11.5586 17.2051 11.5312C19.0508 11.5039 20.9566 11.4738 22.6246 10.7848C24.3609 10.0656 25.7746 8.70937 27.1418 7.39961C28.509 6.08984 29.9062 4.75 31 4.75C32.0938 4.75 33.502 6.09531 34.8582 7.39961C36.2145 8.70391 37.6391 10.0656 39.3754 10.7848C41.0434 11.4738 42.9492 11.5039 44.7949 11.5312C46.709 11.5586 48.7133 11.5887 49.5609 12.4391C50.4086 13.2895 50.4414 15.2801 50.4687 17.2051C50.4961 19.0508 50.5262 20.9566 51.2152 22.6246C51.9344 24.3609 53.2906 25.7746 54.6004 27.1418C55.9102 28.509 57.25 29.9062 57.25 31C57.25 32.0938 55.9047 33.502 54.6004 34.8582ZM43.4852 22.8898C43.6885 23.093 43.8499 23.3343 43.96 23.5998C44.0701 23.8654 44.1267 24.15 44.1267 24.4375C44.1267 24.725 44.0701 25.0096 43.96 25.2752C43.8499 25.5407 43.6885 25.782 43.4852 25.9852L28.1727 41.2977C27.9695 41.501 27.7282 41.6624 27.4627 41.7725C27.1971 41.8826 26.9125 41.9392 26.625 41.9392C26.3375 41.9392 26.0529 41.8826 25.7873 41.7725C25.5218 41.6624 25.2805 41.501 25.0773 41.2977L18.5148 34.7352C18.1044 34.3247 17.8738 33.768 17.8738 33.1875C17.8738 32.607 18.1044 32.0503 18.5148 31.6398C18.9253 31.2294 19.482 30.9988 20.0625 30.9988C20.643 30.9988 21.1997 31.2294 21.6102 31.6398L26.625 36.6574L40.3898 22.8898C40.593 22.6865 40.8343 22.5251 41.0998 22.415C41.3654 22.3049 41.65 22.2483 41.9375 22.2483C42.225 22.2483 42.5096 22.3049 42.7752 22.415C43.0407 22.5251 43.282 22.6865 43.4852 22.8898Z" fill="#5B5BE1"/>
</svg>
