<svg width="24" height="24" viewBox="0 0 24 24" fill="none" xmlns="http://www.w3.org/2000/svg">
<rect width="24" height="24" rx="4" fill="#D8DCE4" fill-opacity="0.5"/>
<path d="M16.8535 16.1465C16.9 16.193 16.9368 16.2481 16.962 16.3088C16.9871 16.3695 17.0001 16.4346 17.0001 16.5003C17.0001 16.566 16.9871 16.631 16.962 16.6917C16.9368 16.7524 16.9 16.8076 16.8535 16.854C16.8071 16.9005 16.7519 16.9373 16.6912 16.9625C16.6305 16.9876 16.5655 17.0006 16.4998 17.0006C16.4341 17.0006 16.369 16.9876 16.3083 16.9625C16.2476 16.9373 16.1925 16.9005 16.146 16.854L11.9998 12.7072L7.85354 16.854C7.75972 16.9478 7.63247 17.0006 7.49979 17.0006C7.36711 17.0006 7.23986 16.9478 7.14604 16.854C7.05222 16.7602 6.99951 16.633 6.99951 16.5003C6.99951 16.3676 7.05222 16.2403 7.14604 16.1465L11.2929 12.0003L7.14604 7.85403C7.05222 7.76021 6.99951 7.63296 6.99951 7.50028C6.99951 7.3676 7.05222 7.24035 7.14604 7.14653C7.23986 7.05271 7.36711 7 7.49979 7C7.63247 7 7.75972 7.05271 7.85354 7.14653L11.9998 11.2934L16.146 7.14653C16.2399 7.05271 16.3671 7 16.4998 7C16.6325 7 16.7597 7.05271 16.8535 7.14653C16.9474 7.24035 17.0001 7.3676 17.0001 7.50028C17.0001 7.63296 16.9474 7.76021 16.8535 7.85403L12.7067 12.0003L16.8535 16.1465Z" fill="#6C778B"/>
</svg>
