<svg width="34" height="34" viewBox="0 0 34 34" fill="none" xmlns="http://www.w3.org/2000/svg">
<rect width="34" height="34" rx="17" fill="white"/>
<path d="M24 17C24.0004 17.1698 23.9569 17.3368 23.8736 17.4847C23.7904 17.6327 23.6703 17.7566 23.525 17.8444L14.52 23.3531C14.3682 23.4461 14.1943 23.4969 14.0163 23.5001C13.8383 23.5034 13.6627 23.4592 13.5075 23.3719C13.3538 23.286 13.2258 23.1606 13.1366 23.0088C13.0474 22.857 13.0003 22.6842 13 22.5081V11.4919C13.0003 11.3158 13.0474 11.143 13.1366 10.9912C13.2258 10.8394 13.3538 10.7141 13.5075 10.6281C13.6627 10.5408 13.8383 10.4966 14.0163 10.4999C14.1943 10.5032 14.3682 10.5539 14.52 10.6469L23.525 16.1556C23.6703 16.2434 23.7904 16.3673 23.8736 16.5153C23.9569 16.6633 24.0004 16.8302 24 17Z" fill="#6C778B"/>
</svg>
