<svg width="70" height="70" viewBox="0 0 70 70" fill="none" xmlns="http://www.w3.org/2000/svg">
<rect x="0.5" y="0.5" width="69" height="69" rx="34.5" fill="#EB4335" fill-opacity="0.1"/>
<rect x="0.5" y="0.5" width="69" height="69" rx="34.5" stroke="#EB4335"/>
<path d="M50.8125 20.625H43.625V19.1875C43.625 18.0438 43.1706 16.9469 42.3619 16.1381C41.5531 15.3294 40.4562 14.875 39.3125 14.875H30.6875C29.5438 14.875 28.4469 15.3294 27.6381 16.1381C26.8294 16.9469 26.375 18.0438 26.375 19.1875V20.625H19.1875C18.8063 20.625 18.4406 20.7765 18.171 21.046C17.9015 21.3156 17.75 21.6813 17.75 22.0625C17.75 22.4437 17.9015 22.8094 18.171 23.079C18.4406 23.3485 18.8063 23.5 19.1875 23.5H20.625V49.375C20.625 50.1375 20.9279 50.8688 21.4671 51.4079C22.0062 51.9471 22.7375 52.25 23.5 52.25H46.5C47.2625 52.25 47.9938 51.9471 48.5329 51.4079C49.0721 50.8688 49.375 50.1375 49.375 49.375V23.5H50.8125C51.1937 23.5 51.5594 23.3485 51.829 23.079C52.0985 22.8094 52.25 22.4437 52.25 22.0625C52.25 21.6813 52.0985 21.3156 51.829 21.046C51.5594 20.7765 51.1937 20.625 50.8125 20.625ZM29.25 19.1875C29.25 18.8063 29.4015 18.4406 29.671 18.171C29.9406 17.9015 30.3063 17.75 30.6875 17.75H39.3125C39.6937 17.75 40.0594 17.9015 40.329 18.171C40.5986 18.4406 40.75 18.8063 40.75 19.1875V20.625H29.25V19.1875ZM46.5 49.375H23.5V23.5H46.5V49.375ZM32.125 30.6875V42.1875C32.125 42.5687 31.9735 42.9344 31.704 43.204C31.4344 43.4736 31.0687 43.625 30.6875 43.625C30.3063 43.625 29.9406 43.4736 29.671 43.204C29.4015 42.9344 29.25 42.5687 29.25 42.1875V30.6875C29.25 30.3063 29.4015 29.9406 29.671 29.671C29.9406 29.4015 30.3063 29.25 30.6875 29.25C31.0687 29.25 31.4344 29.4015 31.704 29.671C31.9735 29.9406 32.125 30.3063 32.125 30.6875ZM40.75 30.6875V42.1875C40.75 42.5687 40.5986 42.9344 40.329 43.204C40.0594 43.4736 39.6937 43.625 39.3125 43.625C38.9313 43.625 38.5656 43.4736 38.296 43.204C38.0264 42.9344 37.875 42.5687 37.875 42.1875V30.6875C37.875 30.3063 38.0264 29.9406 38.296 29.671C38.5656 29.4015 38.9313 29.25 39.3125 29.25C39.6937 29.25 40.0594 29.4015 40.329 29.671C40.5986 29.9406 40.75 30.3063 40.75 30.6875Z" fill="#EB4335"/>
</svg>
