<svg width="14" height="15" viewBox="0 0 14 15" fill="none" xmlns="http://www.w3.org/2000/svg">
<path d="M13.1875 2.56445H10.375V2.00195C10.375 1.5544 10.1972 1.12518 9.88074 0.80871C9.56428 0.492243 9.13505 0.314453 8.6875 0.314453H5.3125C4.86495 0.314453 4.43572 0.492243 4.11926 0.80871C3.80279 1.12518 3.625 1.5544 3.625 2.00195V2.56445H0.8125C0.663316 2.56445 0.520242 2.62372 0.414753 2.72921C0.309263 2.83469 0.25 2.97777 0.25 3.12695C0.25 3.27614 0.309263 3.41921 0.414753 3.5247C0.520242 3.63019 0.663316 3.68945 0.8125 3.68945H1.375V13.8145C1.375 14.1128 1.49353 14.399 1.7045 14.6099C1.91548 14.8209 2.20163 14.9395 2.5 14.9395H11.5C11.7984 14.9395 12.0845 14.8209 12.2955 14.6099C12.5065 14.399 12.625 14.1128 12.625 13.8145V3.68945H13.1875C13.3367 3.68945 13.4798 3.63019 13.5852 3.5247C13.6907 3.41921 13.75 3.27614 13.75 3.12695C13.75 2.97777 13.6907 2.83469 13.5852 2.72921C13.4798 2.62372 13.3367 2.56445 13.1875 2.56445ZM4.75 2.00195C4.75 1.85277 4.80926 1.70969 4.91475 1.60421C5.02024 1.49872 5.16332 1.43945 5.3125 1.43945H8.6875C8.83668 1.43945 8.97976 1.49872 9.08525 1.60421C9.19074 1.70969 9.25 1.85277 9.25 2.00195V2.56445H4.75V2.00195ZM11.5 13.8145H2.5V3.68945H11.5V13.8145ZM5.875 6.50195V11.002C5.875 11.1511 5.81574 11.2942 5.71025 11.3997C5.60476 11.5052 5.46168 11.5645 5.3125 11.5645C5.16332 11.5645 5.02024 11.5052 4.91475 11.3997C4.80926 11.2942 4.75 11.1511 4.75 11.002V6.50195C4.75 6.35277 4.80926 6.20969 4.91475 6.10421C5.02024 5.99872 5.16332 5.93945 5.3125 5.93945C5.46168 5.93945 5.60476 5.99872 5.71025 6.10421C5.81574 6.20969 5.875 6.35277 5.875 6.50195ZM9.25 6.50195V11.002C9.25 11.1511 9.19074 11.2942 9.08525 11.3997C8.97976 11.5052 8.83668 11.5645 8.6875 11.5645C8.53832 11.5645 8.39524 11.5052 8.28975 11.3997C8.18426 11.2942 8.125 11.1511 8.125 11.002V6.50195C8.125 6.35277 8.18426 6.20969 8.28975 6.10421C8.39524 5.99872 8.53832 5.93945 8.6875 5.93945C8.83668 5.93945 8.97976 5.99872 9.08525 6.10421C9.19074 6.20969 9.25 6.35277 9.25 6.50195Z" fill="#DD3333"/>
</svg>
