<svg width="52" height="52" viewBox="0 0 52 52" fill="none" xmlns="http://www.w3.org/2000/svg">
<g filter="url(#filter0_d_1916_35762)">
<rect x="11" y="11" width="30" height="30" rx="15" fill="white" shape-rendering="crispEdges"/>
<path d="M32.1875 20.375H29.375V19.8125C29.375 19.3649 29.1972 18.9357 28.8807 18.6193C28.5643 18.3028 28.1351 18.125 27.6875 18.125H24.3125C23.8649 18.125 23.4357 18.3028 23.1193 18.6193C22.8028 18.9357 22.625 19.3649 22.625 19.8125V20.375H19.8125C19.6633 20.375 19.5202 20.4343 19.4148 20.5398C19.3093 20.6452 19.25 20.7883 19.25 20.9375C19.25 21.0867 19.3093 21.2298 19.4148 21.3352C19.5202 21.4407 19.6633 21.5 19.8125 21.5H20.375V31.625C20.375 31.9234 20.4935 32.2095 20.7045 32.4205C20.9155 32.6315 21.2016 32.75 21.5 32.75H30.5C30.7984 32.75 31.0845 32.6315 31.2955 32.4205C31.5065 32.2095 31.625 31.9234 31.625 31.625V21.5H32.1875C32.3367 21.5 32.4798 21.4407 32.5852 21.3352C32.6907 21.2298 32.75 21.0867 32.75 20.9375C32.75 20.7883 32.6907 20.6452 32.5852 20.5398C32.4798 20.4343 32.3367 20.375 32.1875 20.375ZM23.75 19.8125C23.75 19.6633 23.8093 19.5202 23.9148 19.4148C24.0202 19.3093 24.1633 19.25 24.3125 19.25H27.6875C27.8367 19.25 27.9798 19.3093 28.0852 19.4148C28.1907 19.5202 28.25 19.6633 28.25 19.8125V20.375H23.75V19.8125ZM30.5 31.625H21.5V21.5H30.5V31.625ZM24.875 24.3125V28.8125C24.875 28.9617 24.8157 29.1048 24.7102 29.2102C24.6048 29.3157 24.4617 29.375 24.3125 29.375C24.1633 29.375 24.0202 29.3157 23.9148 29.2102C23.8093 29.1048 23.75 28.9617 23.75 28.8125V24.3125C23.75 24.1633 23.8093 24.0202 23.9148 23.9148C24.0202 23.8093 24.1633 23.75 24.3125 23.75C24.4617 23.75 24.6048 23.8093 24.7102 23.9148C24.8157 24.0202 24.875 24.1633 24.875 24.3125ZM28.25 24.3125V28.8125C28.25 28.9617 28.1907 29.1048 28.0852 29.2102C27.9798 29.3157 27.8367 29.375 27.6875 29.375C27.5383 29.375 27.3952 29.3157 27.2898 29.2102C27.1843 29.1048 27.125 28.9617 27.125 28.8125V24.3125C27.125 24.1633 27.1843 24.0202 27.2898 23.9148C27.3952 23.8093 27.5383 23.75 27.6875 23.75C27.8367 23.75 27.9798 23.8093 28.0852 23.9148C28.1907 24.0202 28.25 24.1633 28.25 24.3125Z" fill="#DD3333"/>
</g>
<defs>
<filter id="filter0_d_1916_35762" x="0.6" y="0.6" width="50.8" height="50.8" filterUnits="userSpaceOnUse" color-interpolation-filters="sRGB">
<feFlood flood-opacity="0" result="BackgroundImageFix"/>
<feColorMatrix in="SourceAlpha" type="matrix" values="0 0 0 0 0 0 0 0 0 0 0 0 0 0 0 0 0 0 127 0" result="hardAlpha"/>
<feOffset/>
<feGaussianBlur stdDeviation="5.2"/>
<feComposite in2="hardAlpha" operator="out"/>
<feColorMatrix type="matrix" values="0 0 0 0 0 0 0 0 0 0 0 0 0 0 0 0 0 0 0.25 0"/>
<feBlend mode="normal" in2="BackgroundImageFix" result="effect1_dropShadow_1916_35762"/>
<feBlend mode="normal" in="SourceGraphic" in2="effect1_dropShadow_1916_35762" result="shape"/>
</filter>
</defs>
</svg>
