<svg width="40" height="37" viewBox="0 0 40 37" fill="none" xmlns="http://www.w3.org/2000/svg">
<rect x="0.5" y="0.689453" width="39" height="35" rx="5.5" fill="white"/>
<rect x="0.5" y="0.689453" width="39" height="35" rx="5.5" stroke="#D8DCE4"/>
<path d="M23.6875 11.9395V12.002H23.75H26.875C27.0242 12.002 27.1673 12.0612 27.2727 12.1667C27.3782 12.2722 27.4375 12.4153 27.4375 12.5645C27.4375 12.7136 27.3782 12.8567 27.2727 12.9622C27.1673 13.0677 27.0242 13.127 26.875 13.127H26.25H26.1875V13.1895V24.4395C26.1875 24.7544 26.0624 25.0564 25.8397 25.2791C25.617 25.5018 25.3149 25.627 25 25.627H15C14.6851 25.627 14.383 25.5018 14.1603 25.2791C13.9376 25.0564 13.8125 24.7544 13.8125 24.4395V13.1895V13.127H13.75H13.125C12.9758 13.127 12.8327 13.0677 12.7273 12.9622C12.6218 12.8567 12.5625 12.7136 12.5625 12.5645C12.5625 12.4153 12.6218 12.2722 12.7273 12.1667C12.8327 12.0612 12.9758 12.002 13.125 12.002H16.25H16.3125V11.9395V11.3145C16.3125 10.8337 16.5035 10.3727 16.8434 10.0328C17.1833 9.69291 17.6443 9.50195 18.125 9.50195H21.875C22.3557 9.50195 22.8167 9.69291 23.1566 10.0328C23.4965 10.3727 23.6875 10.8337 23.6875 11.3145V11.9395ZM22.5 12.002H22.5625V11.9395V11.3145C22.5625 11.1321 22.4901 10.9572 22.3611 10.8283C22.2322 10.6994 22.0573 10.627 21.875 10.627H18.125C17.9427 10.627 17.7678 10.6994 17.6389 10.8283C17.5099 10.9572 17.4375 11.1321 17.4375 11.3145V11.9395V12.002H17.5H22.5ZM25 24.502H25.0625V24.4395V13.1895V13.127H25H15H14.9375V13.1895V24.4395V24.502H15H25ZM18.6875 16.3145V21.3145C18.6875 21.4636 18.6282 21.6067 18.5227 21.7122C18.4173 21.8177 18.2742 21.877 18.125 21.877C17.9758 21.877 17.8327 21.8177 17.7273 21.7122C17.6218 21.6067 17.5625 21.4636 17.5625 21.3145V16.3145C17.5625 16.1653 17.6218 16.0222 17.7273 15.9167C17.8327 15.8112 17.9758 15.752 18.125 15.752C18.2742 15.752 18.4173 15.8112 18.5227 15.9167C18.6282 16.0222 18.6875 16.1653 18.6875 16.3145ZM22.4375 16.3145V21.3145C22.4375 21.4636 22.3782 21.6067 22.2727 21.7122C22.1673 21.8177 22.0242 21.877 21.875 21.877C21.7258 21.877 21.5827 21.8177 21.4773 21.7122C21.3718 21.6067 21.3125 21.4636 21.3125 21.3145V16.3145C21.3125 16.1653 21.3718 16.0222 21.4773 15.9167C21.5827 15.8112 21.7258 15.752 21.875 15.752C22.0242 15.752 22.1673 15.8112 22.2727 15.9167C22.3782 16.0222 22.4375 16.1653 22.4375 16.3145Z" fill="#6C778B" stroke="#242425" stroke-width="0.125"/>
</svg>
