<svg width="28" height="28" viewBox="0 0 28 28" fill="none" xmlns="http://www.w3.org/2000/svg">
<g filter="url(#filter0_d_8559_28260)">
<rect x="6" y="6" width="16" height="16" rx="8" fill="white" shape-rendering="crispEdges"/>
<path d="M18.0004 10.3627H16.1822V9.99911C16.1822 9.70979 16.0672 9.43231 15.8627 9.22772C15.6581 9.02314 15.3806 8.9082 15.0913 8.9082H12.9094C12.6201 8.9082 12.3426 9.02314 12.1381 9.22772C11.9335 9.43231 11.8185 9.70979 11.8185 9.99911V10.3627H10.0004C9.90391 10.3627 9.81142 10.4011 9.74323 10.4693C9.67503 10.5375 9.63672 10.6299 9.63672 10.7264C9.63672 10.8228 9.67503 10.9153 9.74323 10.9835C9.81142 11.0517 9.90391 11.09 10.0004 11.09H10.364V17.6355C10.364 17.8284 10.4406 18.0133 10.577 18.1497C10.7134 18.2861 10.8984 18.3627 11.0913 18.3627H16.9094C17.1023 18.3627 17.2873 18.2861 17.4237 18.1497C17.5601 18.0133 17.6367 17.8284 17.6367 17.6355V11.09H18.0004C18.0968 11.09 18.1893 11.0517 18.2575 10.9835C18.3257 10.9153 18.364 10.8228 18.364 10.7264C18.364 10.6299 18.3257 10.5375 18.2575 10.4693C18.1893 10.4011 18.0968 10.3627 18.0004 10.3627ZM12.5458 9.99911C12.5458 9.90267 12.5841 9.81018 12.6523 9.74198C12.7205 9.67379 12.813 9.63548 12.9094 9.63548H15.0913C15.1877 9.63548 15.2802 9.67379 15.3484 9.74198C15.4166 9.81018 15.4549 9.90267 15.4549 9.99911V10.3627H12.5458V9.99911ZM16.9094 17.6355H11.0913V11.09H16.9094V17.6355ZM13.2731 12.9082V15.8173C13.2731 15.9137 13.2348 16.0062 13.1666 16.0744C13.0984 16.1426 13.0059 16.1809 12.9094 16.1809C12.813 16.1809 12.7205 16.1426 12.6523 16.0744C12.5841 16.0062 12.5458 15.9137 12.5458 15.8173V12.9082C12.5458 12.8118 12.5841 12.7193 12.6523 12.6511C12.7205 12.5829 12.813 12.5446 12.9094 12.5446C13.0059 12.5446 13.0984 12.5829 13.1666 12.6511C13.2348 12.7193 13.2731 12.8118 13.2731 12.9082ZM15.4549 12.9082V15.8173C15.4549 15.9137 15.4166 16.0062 15.3484 16.0744C15.2802 16.1426 15.1877 16.1809 15.0913 16.1809C14.9948 16.1809 14.9023 16.1426 14.8341 16.0744C14.7659 16.0062 14.7276 15.9137 14.7276 15.8173V12.9082C14.7276 12.8118 14.7659 12.7193 14.8341 12.6511C14.9023 12.5829 14.9948 12.5446 15.0913 12.5446C15.1877 12.5446 15.2802 12.5829 15.3484 12.6511C15.4166 12.7193 15.4549 12.8118 15.4549 12.9082Z" fill="#5B5BE1"/>
</g>
<defs>
<filter id="filter0_d_8559_28260" x="0.618182" y="0.618182" width="26.7636" height="26.7636" filterUnits="userSpaceOnUse" color-interpolation-filters="sRGB">
<feFlood flood-opacity="0" result="BackgroundImageFix"/>
<feColorMatrix in="SourceAlpha" type="matrix" values="0 0 0 0 0 0 0 0 0 0 0 0 0 0 0 0 0 0 127 0" result="hardAlpha"/>
<feOffset/>
<feGaussianBlur stdDeviation="2.69091"/>
<feComposite in2="hardAlpha" operator="out"/>
<feColorMatrix type="matrix" values="0 0 0 0 0 0 0 0 0 0 0 0 0 0 0 0 0 0 0.25 0"/>
<feBlend mode="normal" in2="BackgroundImageFix" result="effect1_dropShadow_8559_28260"/>
<feBlend mode="normal" in="SourceGraphic" in2="effect1_dropShadow_8559_28260" result="shape"/>
</filter>
</defs>
</svg>
