<svg width="36" height="36" viewBox="0 0 36 36" fill="none" xmlns="http://www.w3.org/2000/svg">
<g filter="url(#filter0_d_4572_26648)">
<rect x="3" y="3" width="30" height="30" rx="15" fill="white" shape-rendering="crispEdges"/>
<path d="M24.1875 12.375H21.375V11.8125C21.375 11.3649 21.1972 10.9357 20.8807 10.6193C20.5643 10.3028 20.1351 10.125 19.6875 10.125H16.3125C15.8649 10.125 15.4357 10.3028 15.1193 10.6193C14.8028 10.9357 14.625 11.3649 14.625 11.8125V12.375H11.8125C11.6633 12.375 11.5202 12.4343 11.4148 12.5398C11.3093 12.6452 11.25 12.7883 11.25 12.9375C11.25 13.0867 11.3093 13.2298 11.4148 13.3352C11.5202 13.4407 11.6633 13.5 11.8125 13.5H12.375V23.625C12.375 23.9234 12.4935 24.2095 12.7045 24.4205C12.9155 24.6315 13.2016 24.75 13.5 24.75H22.5C22.7984 24.75 23.0845 24.6315 23.2955 24.4205C23.5065 24.2095 23.625 23.9234 23.625 23.625V13.5H24.1875C24.3367 13.5 24.4798 13.4407 24.5852 13.3352C24.6907 13.2298 24.75 13.0867 24.75 12.9375C24.75 12.7883 24.6907 12.6452 24.5852 12.5398C24.4798 12.4343 24.3367 12.375 24.1875 12.375ZM15.75 11.8125C15.75 11.6633 15.8093 11.5202 15.9148 11.4148C16.0202 11.3093 16.1633 11.25 16.3125 11.25H19.6875C19.8367 11.25 19.9798 11.3093 20.0852 11.4148C20.1907 11.5202 20.25 11.6633 20.25 11.8125V12.375H15.75V11.8125ZM22.5 23.625H13.5V13.5H22.5V23.625ZM16.875 16.3125V20.8125C16.875 20.9617 16.8157 21.1048 16.7102 21.2102C16.6048 21.3157 16.4617 21.375 16.3125 21.375C16.1633 21.375 16.0202 21.3157 15.9148 21.2102C15.8093 21.1048 15.75 20.9617 15.75 20.8125V16.3125C15.75 16.1633 15.8093 16.0202 15.9148 15.9148C16.0202 15.8093 16.1633 15.75 16.3125 15.75C16.4617 15.75 16.6048 15.8093 16.7102 15.9148C16.8157 16.0202 16.875 16.1633 16.875 16.3125ZM20.25 16.3125V20.8125C20.25 20.9617 20.1907 21.1048 20.0852 21.2102C19.9798 21.3157 19.8367 21.375 19.6875 21.375C19.5383 21.375 19.3952 21.3157 19.2898 21.2102C19.1843 21.1048 19.125 20.9617 19.125 20.8125V16.3125C19.125 16.1633 19.1843 16.0202 19.2898 15.9148C19.3952 15.8093 19.5383 15.75 19.6875 15.75C19.8367 15.75 19.9798 15.8093 20.0852 15.9148C20.1907 16.0202 20.25 16.1633 20.25 16.3125Z" fill="#6C778B"/>
</g>
<defs>
<filter id="filter0_d_4572_26648" x="0.8" y="0.8" width="34.4" height="34.4" filterUnits="userSpaceOnUse" color-interpolation-filters="sRGB">
<feFlood flood-opacity="0" result="BackgroundImageFix"/>
<feColorMatrix in="SourceAlpha" type="matrix" values="0 0 0 0 0 0 0 0 0 0 0 0 0 0 0 0 0 0 127 0" result="hardAlpha"/>
<feOffset/>
<feGaussianBlur stdDeviation="1.1"/>
<feComposite in2="hardAlpha" operator="out"/>
<feColorMatrix type="matrix" values="0 0 0 0 0 0 0 0 0 0 0 0 0 0 0 0 0 0 0.25 0"/>
<feBlend mode="normal" in2="BackgroundImageFix" result="effect1_dropShadow_4572_26648"/>
<feBlend mode="normal" in="SourceGraphic" in2="effect1_dropShadow_4572_26648" result="shape"/>
</filter>
</defs>
</svg>
