<svg width="22" height="22" viewBox="0 0 22 22" fill="none" xmlns="http://www.w3.org/2000/svg">
<g filter="url(#filter0_d_8583_28379)">
<rect x="1" y="1" width="20" height="20" rx="10" fill="white" shape-rendering="crispEdges"/>
<path d="M15.0004 7.36275H13.1822V6.99911C13.1822 6.70979 13.0672 6.43231 12.8627 6.22772C12.6581 6.02314 12.3806 5.9082 12.0913 5.9082H9.90945C9.62012 5.9082 9.34264 6.02314 9.13806 6.22772C8.93347 6.43231 8.81854 6.70979 8.81854 6.99911V7.36275H7.00036C6.90391 7.36275 6.81142 7.40106 6.74323 7.46926C6.67503 7.53745 6.63672 7.62994 6.63672 7.72638C6.63672 7.82283 6.67503 7.91532 6.74323 7.98351C6.81142 8.05171 6.90391 8.09002 7.00036 8.09002H7.36399V14.6355C7.36399 14.8284 7.44061 15.0133 7.577 15.1497C7.71339 15.2861 7.89838 15.3627 8.09126 15.3627H13.9094C14.1023 15.3627 14.2873 15.2861 14.4237 15.1497C14.5601 15.0133 14.6367 14.8284 14.6367 14.6355V8.09002H15.0004C15.0968 8.09002 15.1893 8.05171 15.2575 7.98351C15.3257 7.91532 15.364 7.82283 15.364 7.72638C15.364 7.62994 15.3257 7.53745 15.2575 7.46926C15.1893 7.40106 15.0968 7.36275 15.0004 7.36275ZM9.54581 6.99911C9.54581 6.90267 9.58412 6.81018 9.65232 6.74198C9.72051 6.67379 9.813 6.63548 9.90945 6.63548H12.0913C12.1877 6.63548 12.2802 6.67379 12.3484 6.74198C12.4166 6.81018 12.4549 6.90267 12.4549 6.99911V7.36275H9.54581V6.99911ZM13.9094 14.6355H8.09126V8.09002H13.9094V14.6355ZM10.2731 9.9082V12.8173C10.2731 12.9137 10.2348 13.0062 10.1666 13.0744C10.0984 13.1426 10.0059 13.1809 9.90945 13.1809C9.813 13.1809 9.72051 13.1426 9.65232 13.0744C9.58412 13.0062 9.54581 12.9137 9.54581 12.8173V9.9082C9.54581 9.81176 9.58412 9.71927 9.65232 9.65107C9.72051 9.58288 9.813 9.54457 9.90945 9.54457C10.0059 9.54457 10.0984 9.58288 10.1666 9.65107C10.2348 9.71927 10.2731 9.81176 10.2731 9.9082ZM12.4549 9.9082V12.8173C12.4549 12.9137 12.4166 13.0062 12.3484 13.0744C12.2802 13.1426 12.1877 13.1809 12.0913 13.1809C11.9948 13.1809 11.9023 13.1426 11.8341 13.0744C11.7659 13.0062 11.7276 12.9137 11.7276 12.8173V9.9082C11.7276 9.81176 11.7659 9.71927 11.8341 9.65107C11.9023 9.58288 11.9948 9.54457 12.0913 9.54457C12.1877 9.54457 12.2802 9.58288 12.3484 9.65107C12.4166 9.71927 12.4549 9.81176 12.4549 9.9082Z" fill="#6C778B"/>
</g>
<defs>
<filter id="filter0_d_8583_28379" x="0.3" y="0.3" width="21.4" height="21.4" filterUnits="userSpaceOnUse" color-interpolation-filters="sRGB">
<feFlood flood-opacity="0" result="BackgroundImageFix"/>
<feColorMatrix in="SourceAlpha" type="matrix" values="0 0 0 0 0 0 0 0 0 0 0 0 0 0 0 0 0 0 127 0" result="hardAlpha"/>
<feOffset/>
<feGaussianBlur stdDeviation="0.35"/>
<feComposite in2="hardAlpha" operator="out"/>
<feColorMatrix type="matrix" values="0 0 0 0 0 0 0 0 0 0 0 0 0 0 0 0 0 0 0.25 0"/>
<feBlend mode="normal" in2="BackgroundImageFix" result="effect1_dropShadow_8583_28379"/>
<feBlend mode="normal" in="SourceGraphic" in2="effect1_dropShadow_8583_28379" result="shape"/>
</filter>
</defs>
</svg>
