<svg width="199" height="15" viewBox="0 0 199 15" fill="none" xmlns="http://www.w3.org/2000/svg">
<line y1="6.61719" x2="91" y2="6.61719" stroke="black" stroke-opacity="0.2"/>
<path d="M104.247 10.7454C104.288 10.786 104.32 10.8343 104.342 10.8874C104.364 10.9405 104.375 10.9974 104.375 11.0549C104.375 11.1124 104.364 11.1693 104.342 11.2224C104.32 11.2756 104.288 11.3238 104.247 11.3645C104.207 11.4051 104.158 11.4374 104.105 11.4594C104.052 11.4814 103.995 11.4927 103.938 11.4927C103.88 11.4927 103.823 11.4814 103.77 11.4594C103.717 11.4374 103.669 11.4051 103.628 11.3645L100 7.73595L96.3723 11.3645C96.2902 11.4466 96.1788 11.4927 96.0627 11.4927C95.9466 11.4927 95.8353 11.4466 95.7532 11.3645C95.6711 11.2824 95.625 11.171 95.625 11.0549C95.625 10.9388 95.6711 10.8275 95.7532 10.7454L99.3817 7.11743L95.7532 3.48946C95.6711 3.40737 95.625 3.29603 95.625 3.17993C95.625 3.06383 95.6711 2.95249 95.7532 2.8704C95.8353 2.78831 95.9466 2.74219 96.0627 2.74219C96.1788 2.74219 96.2902 2.78831 96.3723 2.8704L100 6.49892L103.628 2.8704C103.71 2.78831 103.822 2.74219 103.938 2.74219C104.054 2.74219 104.165 2.78831 104.247 2.8704C104.329 2.95249 104.375 3.06383 104.375 3.17993C104.375 3.29603 104.329 3.40737 104.247 3.48946L100.619 7.11743L104.247 10.7454Z" fill="black" fill-opacity="0.2"/>
<line x1="109" y1="6.61719" x2="199" y2="6.61719" stroke="black" stroke-opacity="0.2"/>
</svg>
