<svg width="14" height="7" viewBox="0 0 14 7" fill="none" xmlns="http://www.w3.org/2000/svg">
<path d="M13.1139 1.14828L7.48886 6.77328C7.43662 6.82558 7.37458 6.86707 7.30629 6.89538C7.23801 6.92369 7.16481 6.93825 7.09089 6.93825C7.01697 6.93825 6.94377 6.92369 6.87548 6.89538C6.8072 6.86707 6.74516 6.82558 6.69292 6.77328L1.06792 1.14828C0.962372 1.04273 0.903076 0.89958 0.903076 0.750313C0.903076 0.601046 0.962372 0.457892 1.06792 0.352344C1.17347 0.246796 1.31662 0.1875 1.46589 0.1875C1.61516 0.1875 1.75831 0.246796 1.86386 0.352344L7.09089 5.58008L12.3179 0.352344C12.3702 0.300082 12.4322 0.258625 12.5005 0.230341C12.5688 0.202057 12.642 0.1875 12.7159 0.1875C12.7898 0.1875 12.863 0.202057 12.9313 0.230341C12.9996 0.258625 13.0616 0.300082 13.1139 0.352344C13.1661 0.404606 13.2076 0.46665 13.2359 0.534934C13.2641 0.603217 13.2787 0.676403 13.2787 0.750313C13.2787 0.824222 13.2641 0.897408 13.2359 0.965692C13.2076 1.03398 13.1661 1.09602 13.1139 1.14828Z" fill="white"/>
</svg>
