<svg width="18" height="19" viewBox="0 0 18 19" fill="none" xmlns="http://www.w3.org/2000/svg">
<path d="M15.0233 7.83773L9.39828 13.4627C9.34604 13.515 9.284 13.5565 9.21572 13.5848C9.14743 13.6131 9.07423 13.6277 9.00031 13.6277C8.92639 13.6277 8.8532 13.6131 8.78491 13.5848C8.71662 13.5565 8.65458 13.515 8.60234 13.4627L2.97734 7.83773C2.8718 7.73219 2.8125 7.58903 2.8125 7.43977C2.8125 7.2905 2.8718 7.14734 2.97734 7.0418C3.08289 6.93625 3.22605 6.87695 3.37531 6.87695C3.52458 6.87695 3.66773 6.93625 3.77328 7.0418L9.00031 12.2695L14.2273 7.0418C14.2796 6.98953 14.3417 6.94808 14.4099 6.91979C14.4782 6.89151 14.5514 6.87695 14.6253 6.87695C14.6992 6.87695 14.7724 6.89151 14.8407 6.91979C14.909 6.94808 14.971 6.98953 15.0233 7.0418C15.0755 7.09406 15.117 7.1561 15.1453 7.22439C15.1736 7.29267 15.1881 7.36586 15.1881 7.43977C15.1881 7.51368 15.1736 7.58686 15.1453 7.65515C15.117 7.72343 15.0755 7.78547 15.0233 7.83773Z" fill="#6C778B"/>
</svg>

<svg width="14" height="7" viewBox="0 0 14 7" fill="none" xmlns="http://www.w3.org/2000/svg">
<path d="M13.1139 1.14828L7.48886 6.77328C7.43662 6.82558 7.37458 6.86707 7.30629 6.89538C7.23801 6.92369 7.16481 6.93825 7.09089 6.93825C7.01697 6.93825 6.94377 6.92369 6.87548 6.89538C6.8072 6.86707 6.74516 6.82558 6.69292 6.77328L1.06792 1.14828C0.962372 1.04273 0.903076 0.89958 0.903076 0.750313C0.903076 0.601046 0.962372 0.457892 1.06792 0.352344C1.17347 0.246796 1.31662 0.1875 1.46589 0.1875C1.61516 0.1875 1.75831 0.246796 1.86386 0.352344L7.09089 5.58008L12.3179 0.352344C12.3702 0.300082 12.4322 0.258625 12.5005 0.230341C12.5688 0.202057 12.642 0.1875 12.7159 0.1875C12.7898 0.1875 12.863 0.202057 12.9313 0.230341C12.9996 0.258625 13.0616 0.300082 13.1139 0.352344C13.1661 0.404606 13.2076 0.46665 13.2359 0.534934C13.2641 0.603217 13.2787 0.676403 13.2787 0.750313C13.2787 0.824222 13.2641 0.897408 13.2359 0.965692C13.2076 1.03398 13.1661 1.09602 13.1139 1.14828Z" fill="white"/>
</svg>
