<svg width="18" height="19" viewBox="0 0 18 19" fill="none" xmlns="http://www.w3.org/2000/svg">
<path d="M15.0233 7.83773L9.39828 13.4627C9.34604 13.515 9.284 13.5565 9.21572 13.5848C9.14743 13.6131 9.07423 13.6277 9.00031 13.6277C8.92639 13.6277 8.8532 13.6131 8.78491 13.5848C8.71662 13.5565 8.65458 13.515 8.60234 13.4627L2.97734 7.83773C2.8718 7.73219 2.8125 7.58903 2.8125 7.43977C2.8125 7.2905 2.8718 7.14734 2.97734 7.0418C3.08289 6.93625 3.22605 6.87695 3.37531 6.87695C3.52458 6.87695 3.66773 6.93625 3.77328 7.0418L9.00031 12.2695L14.2273 7.0418C14.2796 6.98953 14.3417 6.94808 14.4099 6.91979C14.4782 6.89151 14.5514 6.87695 14.6253 6.87695C14.6992 6.87695 14.7724 6.89151 14.8407 6.91979C14.909 6.94808 14.971 6.98953 15.0233 7.0418C15.0755 7.09406 15.117 7.1561 15.1453 7.22439C15.1736 7.29267 15.1881 7.36586 15.1881 7.43977C15.1881 7.51368 15.1736 7.58686 15.1453 7.65515C15.117 7.72343 15.0755 7.78547 15.0233 7.83773Z" fill="#6C778B"/>
</svg>
