<svg fill="none" height="16" viewBox="0 0 10 16" width="10" xmlns="http://www.w3.org/2000/svg">
    <path
        d="M1.625 12.9375C2.00625 12.9375 2.37202 13.0888 2.6416 13.3584C2.91118 13.628 3.0625 13.9938 3.0625 14.375C3.0625 14.6237 2.99791 14.8676 2.87598 15.083L2.82031 15.1738C2.68203 15.3807 2.49271 15.5478 2.27148 15.6592L2.1748 15.7031C1.94495 15.7983 1.69494 15.832 1.44922 15.8018L1.34473 15.7852C1.10077 15.7366 0.874028 15.6255 0.686523 15.4639L0.608398 15.3916C0.407361 15.1906 0.27031 14.9341 0.214844 14.6553C0.166381 14.4114 0.182284 14.1598 0.259766 13.9248L0.296875 13.8252C0.392068 13.5954 0.545136 13.3946 0.740234 13.2422L0.826172 13.1797C1.06257 13.0217 1.34069 12.9375 1.625 12.9375ZM8.375 12.9375C8.70855 12.9375 9.03035 13.0532 9.28613 13.2627L9.3916 13.3584C9.66119 13.628 9.8125 13.9938 9.8125 14.375C9.8125 14.6237 9.74791 14.8676 9.62598 15.083L9.57031 15.1738C9.43203 15.3807 9.24271 15.5478 9.02148 15.6592L8.9248 15.7031C8.69495 15.7983 8.44494 15.832 8.19922 15.8018L8.09473 15.7852C7.81588 15.7297 7.55944 15.5926 7.3584 15.3916C7.18244 15.2156 7.05535 14.9974 6.98926 14.7588L6.96484 14.6553C6.91638 14.4114 6.93228 14.1598 7.00977 13.9248L7.04688 13.8252C7.14207 13.5954 7.29514 13.3946 7.49023 13.2422L7.57617 13.1797C7.81257 13.0217 8.09069 12.9375 8.375 12.9375ZM1.625 6.5625C1.95855 6.5625 2.28035 6.67816 2.53613 6.8877L2.6416 6.9834C2.91118 7.25298 3.0625 7.61875 3.0625 8C3.0625 8.28431 2.97827 8.56243 2.82031 8.79883C2.68203 9.00575 2.49271 9.17281 2.27148 9.28418L2.1748 9.32812C1.94495 9.42328 1.69494 9.45703 1.44922 9.42676L1.34473 9.41016C1.10077 9.36163 0.874028 9.25048 0.686523 9.08887L0.608398 9.0166C0.432441 8.84064 0.305354 8.62245 0.239258 8.38379L0.214844 8.28027C0.166381 8.03644 0.182284 7.78476 0.259766 7.5498L0.296875 7.4502C0.392068 7.22038 0.545136 7.01956 0.740234 6.86719L0.826172 6.80469C1.06257 6.64673 1.34069 6.5625 1.625 6.5625ZM8.375 6.5625C8.70855 6.5625 9.03035 6.67816 9.28613 6.8877L9.3916 6.9834C9.66119 7.25298 9.8125 7.61875 9.8125 8C9.8125 8.24875 9.74791 8.49257 9.62598 8.70801L9.57031 8.79883C9.43203 9.00575 9.24271 9.17281 9.02148 9.28418L8.9248 9.32812C8.69495 9.42328 8.44494 9.45703 8.19922 9.42676L8.09473 9.41016C7.81588 9.35469 7.55944 9.21764 7.3584 9.0166C7.18244 8.84064 7.05535 8.62245 6.98926 8.38379L6.96484 8.28027C6.91638 8.03644 6.93228 7.78476 7.00977 7.5498L7.04688 7.4502C7.14207 7.22038 7.29514 7.01956 7.49023 6.86719L7.57617 6.80469C7.81257 6.64673 8.09069 6.5625 8.375 6.5625ZM7.8252 0.296875C8.05505 0.201722 8.30506 0.167967 8.55078 0.198242L8.65527 0.214844C8.89923 0.263371 9.12597 0.374523 9.31348 0.536133L9.3916 0.608398C9.59264 0.809437 9.72969 1.06588 9.78516 1.34473C9.83362 1.58856 9.81772 1.84024 9.74023 2.0752L9.70312 2.1748C9.59434 2.43744 9.41018 2.66236 9.17383 2.82031C8.93743 2.97827 8.65931 3.0625 8.375 3.0625C8.04145 3.0625 7.71965 2.94684 7.46387 2.7373L7.3584 2.6416C7.08882 2.37202 6.9375 2.00625 6.9375 1.625C6.9375 1.37625 7.00209 1.13243 7.12402 0.916992L7.17969 0.826172C7.31797 0.619253 7.50729 0.452189 7.72852 0.34082L7.8252 0.296875ZM1.625 0.1875C2.00625 0.1875 2.37202 0.338815 2.6416 0.608398C2.91118 0.877982 3.0625 1.24375 3.0625 1.625C3.0625 1.87375 2.99791 2.11757 2.87598 2.33301L2.82031 2.42383C2.68203 2.63075 2.49271 2.79781 2.27148 2.90918L2.1748 2.95312C1.91228 3.0618 1.62341 3.09055 1.34473 3.03516C1.10077 2.98663 0.874028 2.87548 0.686523 2.71387L0.608398 2.6416C0.407361 2.44056 0.27031 2.18412 0.214844 1.90527C0.166381 1.66144 0.182284 1.40976 0.259766 1.1748L0.296875 1.0752C0.392068 0.845378 0.545136 0.644563 0.740234 0.492188L0.826172 0.429688C1.06257 0.271733 1.34069 0.1875 1.625 0.1875Z"
        fill="#6C778B" stroke="#242425" stroke-width="0.125" />
</svg>
