<svg width="28" height="28" viewBox="0 0 28 28" fill="none" xmlns="http://www.w3.org/2000/svg">
<g filter="url(#filter0_d_8559_28256)">
<rect x="6" y="6" width="16" height="16" rx="8" fill="white" shape-rendering="crispEdges"/>
<path d="M13.0913 10.9089C13.0913 11.0528 13.0486 11.1934 12.9687 11.313C12.8888 11.4326 12.7752 11.5258 12.6423 11.5808C12.5094 11.6359 12.3632 11.6503 12.2221 11.6222C12.081 11.5942 11.9514 11.5249 11.8497 11.4232C11.748 11.3215 11.6788 11.1919 11.6507 11.0508C11.6226 10.9097 11.637 10.7635 11.6921 10.6306C11.7471 10.4977 11.8403 10.3841 11.9599 10.3042C12.0795 10.2243 12.2202 10.1816 12.364 10.1816C12.5569 10.1816 12.7419 10.2583 12.8783 10.3947C13.0146 10.531 13.0913 10.716 13.0913 10.9089ZM15.6367 11.6362C15.7806 11.6362 15.9212 11.5935 16.0408 11.5136C16.1604 11.4337 16.2536 11.3201 16.3086 11.1872C16.3637 11.0543 16.3781 10.9081 16.35 10.767C16.322 10.626 16.2527 10.4964 16.151 10.3947C16.0493 10.2929 15.9197 10.2237 15.7786 10.1956C15.6375 10.1676 15.4913 10.182 15.3584 10.237C15.2255 10.292 15.1119 10.3853 15.032 10.5049C14.9521 10.6245 14.9094 10.7651 14.9094 10.9089C14.9094 11.1018 14.9861 11.2868 15.1225 11.4232C15.2588 11.5596 15.4438 11.6362 15.6367 11.6362ZM12.364 13.2725C12.2202 13.2725 12.0795 13.3152 11.9599 13.3951C11.8403 13.475 11.7471 13.5886 11.6921 13.7215C11.637 13.8544 11.6226 14.0006 11.6507 14.1417C11.6788 14.2828 11.748 14.4124 11.8497 14.5141C11.9514 14.6158 12.081 14.6851 12.2221 14.7131C12.3632 14.7412 12.5094 14.7268 12.6423 14.6717C12.7752 14.6167 12.8888 14.5235 12.9687 14.4039C13.0486 14.2843 13.0913 14.1437 13.0913 13.9998C13.0913 13.8069 13.0146 13.622 12.8783 13.4856C12.7419 13.3492 12.5569 13.2725 12.364 13.2725ZM15.6367 13.2725C15.4929 13.2725 15.3523 13.3152 15.2327 13.3951C15.1131 13.475 15.0199 13.5886 14.9648 13.7215C14.9098 13.8544 14.8954 14.0006 14.9234 14.1417C14.9515 14.2828 15.0207 14.4124 15.1225 14.5141C15.2242 14.6158 15.3538 14.6851 15.4948 14.7131C15.6359 14.7412 15.7821 14.7268 15.915 14.6717C16.0479 14.6167 16.1615 14.5235 16.2414 14.4039C16.3213 14.2843 16.364 14.1437 16.364 13.9998C16.364 13.8069 16.2874 13.622 16.151 13.4856C16.0146 13.3492 15.8296 13.2725 15.6367 13.2725ZM12.364 16.3635C12.2202 16.3635 12.0795 16.4061 11.9599 16.486C11.8403 16.5659 11.7471 16.6795 11.6921 16.8124C11.637 16.9453 11.6226 17.0915 11.6507 17.2326C11.6788 17.3737 11.748 17.5033 11.8497 17.605C11.9514 17.7067 12.081 17.776 12.2221 17.804C12.3632 17.8321 12.5094 17.8177 12.6423 17.7626C12.7752 17.7076 12.8888 17.6144 12.9687 17.4948C13.0486 17.3752 13.0913 17.2346 13.0913 17.0907C13.0913 16.8978 13.0146 16.7129 12.8783 16.5765C12.7419 16.4401 12.5569 16.3635 12.364 16.3635ZM15.6367 16.3635C15.4929 16.3635 15.3523 16.4061 15.2327 16.486C15.1131 16.5659 15.0199 16.6795 14.9648 16.8124C14.9098 16.9453 14.8954 17.0915 14.9234 17.2326C14.9515 17.3737 15.0207 17.5033 15.1225 17.605C15.2242 17.7067 15.3538 17.776 15.4948 17.804C15.6359 17.8321 15.7821 17.8177 15.915 17.7626C16.0479 17.7076 16.1615 17.6144 16.2414 17.4948C16.3213 17.3752 16.364 17.2346 16.364 17.0907C16.364 16.8978 16.2874 16.7129 16.151 16.5765C16.0146 16.4401 15.8296 16.3635 15.6367 16.3635Z" fill="#5B5BE1"/>
</g>
<defs>
<filter id="filter0_d_8559_28256" x="0.618182" y="0.618182" width="26.7636" height="26.7636" filterUnits="userSpaceOnUse" color-interpolation-filters="sRGB">
<feFlood flood-opacity="0" result="BackgroundImageFix"/>
<feColorMatrix in="SourceAlpha" type="matrix" values="0 0 0 0 0 0 0 0 0 0 0 0 0 0 0 0 0 0 127 0" result="hardAlpha"/>
<feOffset/>
<feGaussianBlur stdDeviation="2.69091"/>
<feComposite in2="hardAlpha" operator="out"/>
<feColorMatrix type="matrix" values="0 0 0 0 0 0 0 0 0 0 0 0 0 0 0 0 0 0 0.25 0"/>
<feBlend mode="normal" in2="BackgroundImageFix" result="effect1_dropShadow_8559_28256"/>
<feBlend mode="normal" in="SourceGraphic" in2="effect1_dropShadow_8559_28256" result="shape"/>
</filter>
</defs>
</svg>
