<svg width="28" height="29" viewBox="0 0 28 29" fill="none" xmlns="http://www.w3.org/2000/svg">
<rect x="0.475309" y="0.664762" width="27.0494" height="27.0494" rx="4.19136" fill="white"/>
<rect x="0.475309" y="0.664762" width="27.0494" height="27.0494" rx="4.19136" stroke="#D8DCE4" stroke-width="0.950617"/>
<path d="M20.6376 10.5387L17.6512 7.5516C17.5519 7.45227 17.4339 7.37347 17.3042 7.31971C17.1744 7.26595 17.0353 7.23828 16.8949 7.23828C16.7544 7.23828 16.6153 7.26595 16.4856 7.31971C16.3558 7.37347 16.2379 7.45227 16.1386 7.5516L7.89649 15.7943C7.79675 15.8933 7.71768 16.0111 7.66386 16.1409C7.61005 16.2706 7.58256 16.4098 7.58301 16.5503V19.5374C7.58301 19.821 7.69569 20.0931 7.89625 20.2936C8.09681 20.4942 8.36882 20.6068 8.65246 20.6068H11.6395C11.78 20.6073 11.9192 20.5798 12.049 20.526C12.1788 20.4722 12.2966 20.3931 12.3955 20.2934L20.6376 12.0513C20.7369 11.952 20.8157 11.8341 20.8695 11.7043C20.9232 11.5745 20.9509 11.4355 20.9509 11.295C20.9509 11.1545 20.9232 11.0154 20.8695 10.8857C20.8157 10.7559 20.7369 10.638 20.6376 10.5387ZM11.6395 19.5374H8.65246V16.5503L14.5344 10.6684L17.5215 13.6555L11.6395 19.5374ZM18.2775 12.8988L15.2904 9.9124L16.8945 8.30823L19.8816 11.2947L18.2775 12.8988Z" fill="#6C778B"/>
</svg>
