<svg width="18" height="19" viewBox="0 0 18 19" fill="none" xmlns="http://www.w3.org/2000/svg">
<path d="M15.9827 5.84881L12.8412 2.70655C12.7367 2.60206 12.6127 2.51917 12.4762 2.46261C12.3397 2.40606 12.1933 2.37695 12.0456 2.37695C11.8978 2.37695 11.7515 2.40606 11.615 2.46261C11.4785 2.51917 11.3545 2.60206 11.25 2.70655L2.57977 11.3775C2.47485 11.4816 2.39167 11.6055 2.33506 11.742C2.27844 11.8785 2.24953 12.0249 2.25001 12.1727V15.315C2.25001 15.6134 2.36853 15.8995 2.57951 16.1105C2.79049 16.3215 3.07664 16.44 3.37501 16.44H6.51727C6.66506 16.4405 6.81147 16.4115 6.94799 16.3549C7.08451 16.2983 7.20842 16.2151 7.31251 16.1102L15.9827 7.43999C16.0872 7.33552 16.1701 7.21149 16.2267 7.07498C16.2832 6.93847 16.3123 6.79216 16.3123 6.6444C16.3123 6.49664 16.2832 6.35033 16.2267 6.21382C16.1701 6.07731 16.0872 5.95328 15.9827 5.84881ZM6.51727 15.315H3.37501V12.1727L9.56251 5.98522L12.7048 9.12749L6.51727 15.315ZM13.5 8.33155L10.3577 5.18999L12.0452 3.50249L15.1875 6.64405L13.5 8.33155Z" fill="#6C778B"/>
</svg>
