<svg width="30" height="30" viewBox="0 0 30 30" fill="none" xmlns="http://www.w3.org/2000/svg">
<path d="M25.3125 5.625V11.25C25.3125 11.4986 25.2137 11.7371 25.0379 11.9129C24.8621 12.0887 24.6236 12.1875 24.375 12.1875C24.1264 12.1875 23.8879 12.0887 23.7121 11.9129C23.5363 11.7371 23.4375 11.4986 23.4375 11.25V7.88789L17.5383 13.7883C17.3624 13.9642 17.1238 14.063 16.875 14.063C16.6262 14.063 16.3876 13.9642 16.2117 13.7883C16.0358 13.6124 15.937 13.3738 15.937 13.125C15.937 12.8762 16.0358 12.6376 16.2117 12.4617L22.1121 6.5625H18.75C18.5014 6.5625 18.2629 6.46373 18.0871 6.28791C17.9113 6.1121 17.8125 5.87364 17.8125 5.625C17.8125 5.37636 17.9113 5.1379 18.0871 4.96209C18.2629 4.78627 18.5014 4.6875 18.75 4.6875H24.375C24.6236 4.6875 24.8621 4.78627 25.0379 4.96209C25.2137 5.1379 25.3125 5.37636 25.3125 5.625ZM12.4617 16.2117L6.5625 22.1121V18.75C6.5625 18.5014 6.46373 18.2629 6.28791 18.0871C6.1121 17.9113 5.87364 17.8125 5.625 17.8125C5.37636 17.8125 5.1379 17.9113 4.96209 18.0871C4.78627 18.2629 4.6875 18.5014 4.6875 18.75V24.375C4.6875 24.6236 4.78627 24.8621 4.96209 25.0379C5.1379 25.2137 5.37636 25.3125 5.625 25.3125H11.25C11.4986 25.3125 11.7371 25.2137 11.9129 25.0379C12.0887 24.8621 12.1875 24.6236 12.1875 24.375C12.1875 24.1264 12.0887 23.8879 11.9129 23.7121C11.7371 23.5363 11.4986 23.4375 11.25 23.4375H7.88789L13.7883 17.5383C13.9642 17.3624 14.063 17.1238 14.063 16.875C14.063 16.6262 13.9642 16.3876 13.7883 16.2117C13.6124 16.0358 13.3738 15.937 13.125 15.937C12.8762 15.937 12.6376 16.0358 12.4617 16.2117Z" fill="#6C778B"/>
</svg>
