<svg width="22" height="26" viewBox="0 0 22 26" fill="none" xmlns="http://www.w3.org/2000/svg">
<path d="M21.0383 7.64922L14.4758 1.08672C14.3887 0.999687 14.2852 0.930674 14.1714 0.883622C14.0576 0.836571 13.9357 0.812403 13.8125 0.8125H2.5625C2.06522 0.8125 1.58831 1.01004 1.23667 1.36167C0.885044 1.71331 0.6875 2.19022 0.6875 2.6875V23.3125C0.6875 23.8098 0.885044 24.2867 1.23667 24.6383C1.58831 24.99 2.06522 25.1875 2.5625 25.1875H19.4375C19.9348 25.1875 20.4117 24.99 20.7633 24.6383C21.115 24.2867 21.3125 23.8098 21.3125 23.3125V8.3125C21.3126 8.18935 21.2884 8.06739 21.2414 7.95358C21.1943 7.83977 21.1253 7.73635 21.0383 7.64922ZM14.75 4.01289L18.1121 7.375H14.75V4.01289ZM19.4375 23.3125H2.5625V2.6875H12.875V8.3125C12.875 8.56114 12.9738 8.7996 13.1496 8.97541C13.3254 9.15123 13.5639 9.25 13.8125 9.25H19.4375V23.3125Z" fill="#6C778B"/>
</svg>
