<svg width="18" height="16" viewBox="0 0 18 16" fill="none" xmlns="http://www.w3.org/2000/svg">
<path d="M17.0156 0.869551C16.9194 0.647294 16.76 0.45822 16.5572 0.325844C16.3544 0.193468 16.1172 0.123632 15.875 0.12502H2.12498C1.88305 0.125497 1.64646 0.196169 1.4439 0.328463C1.24135 0.460757 1.08154 0.648988 0.98386 0.87032C0.886179 1.09165 0.854826 1.33658 0.893604 1.57538C0.932382 1.81418 1.03963 2.03659 1.20232 2.21565L1.20857 2.22268L6.49998 7.87268V13.875C6.49993 14.1013 6.56127 14.3233 6.67747 14.5174C6.79368 14.7115 6.96038 14.8704 7.15981 14.9772C7.35924 15.084 7.58392 15.1347 7.8099 15.1239C8.03587 15.113 8.25466 15.0411 8.44295 14.9156L10.9429 13.2485C11.1143 13.1343 11.2548 12.9796 11.352 12.798C11.4492 12.6165 11.5 12.4137 11.5 12.2078V7.87268L16.7922 2.22268L16.7984 2.21565C16.9628 2.03741 17.0711 1.8147 17.1097 1.57531C17.1484 1.33592 17.1156 1.09045 17.0156 0.869551ZM10.589 7.0219C10.3719 7.25204 10.2507 7.55628 10.25 7.87268V12.2078L7.74998 13.875V7.87268C7.75071 7.55514 7.62996 7.24936 7.41248 7.01799L2.12498 1.37502H15.875L10.589 7.0219Z" fill="#6C778B"/>
</svg>
