<svg width="16" height="15" viewBox="0 0 16 15" fill="none" xmlns="http://www.w3.org/2000/svg">
<path d="M10.648 5.64797L8.79524 7.5L10.648 9.35203C10.7002 9.40429 10.7417 9.46634 10.77 9.53462C10.7983 9.6029 10.8128 9.67609 10.8128 9.75C10.8128 9.82391 10.7983 9.8971 10.77 9.96538C10.7417 10.0337 10.7002 10.0957 10.648 10.148C10.5957 10.2002 10.5337 10.2417 10.4654 10.27C10.3971 10.2983 10.3239 10.3128 10.25 10.3128C10.1761 10.3128 10.1029 10.2983 10.0346 10.27C9.96634 10.2417 9.9043 10.2002 9.85203 10.148L8 8.29523L6.14797 10.148C6.09571 10.2002 6.03367 10.2417 5.96538 10.27C5.8971 10.2983 5.82391 10.3128 5.75 10.3128C5.67609 10.3128 5.60291 10.2983 5.53462 10.27C5.46634 10.2417 5.4043 10.2002 5.35203 10.148C5.29977 10.0957 5.25832 10.0337 5.23003 9.96538C5.20175 9.8971 5.18719 9.82391 5.18719 9.75C5.18719 9.67609 5.20175 9.6029 5.23003 9.53462C5.25832 9.46634 5.29977 9.40429 5.35203 9.35203L7.20477 7.5L5.35203 5.64797C5.24649 5.54242 5.18719 5.39927 5.18719 5.25C5.18719 5.10073 5.24649 4.95758 5.35203 4.85203C5.45758 4.74648 5.60074 4.68719 5.75 4.68719C5.89927 4.68719 6.04242 4.74648 6.14797 4.85203L8 6.70477L9.85203 4.85203C9.9043 4.79977 9.96634 4.75831 10.0346 4.73003C10.1029 4.70174 10.1761 4.68719 10.25 4.68719C10.3239 4.68719 10.3971 4.70174 10.4654 4.73003C10.5337 4.75831 10.5957 4.79977 10.648 4.85203C10.7002 4.90429 10.7417 4.96634 10.77 5.03462C10.7983 5.1029 10.8128 5.17609 10.8128 5.25C10.8128 5.32391 10.7983 5.3971 10.77 5.46538C10.7417 5.53366 10.7002 5.59571 10.648 5.64797ZM15.3125 7.5C15.3125 8.94628 14.8836 10.3601 14.0801 11.5626C13.2766 12.7651 12.1346 13.7024 10.7984 14.2559C9.46219 14.8093 7.99189 14.9541 6.57341 14.672C5.15492 14.3898 3.85196 13.6934 2.82928 12.6707C1.80661 11.648 1.11017 10.3451 0.828011 8.9266C0.545856 7.50811 0.690668 6.03781 1.24413 4.70163C1.7976 3.36544 2.73486 2.22339 3.9374 1.41988C5.13993 0.616371 6.55373 0.1875 8 0.1875C9.93877 0.189547 11.7975 0.960627 13.1685 2.33154C14.5394 3.70246 15.3105 5.56123 15.3125 7.5ZM14.1875 7.5C14.1875 6.27623 13.8246 5.07994 13.1447 4.06241C12.4648 3.04488 11.4985 2.25181 10.3679 1.7835C9.23724 1.31518 7.99314 1.19265 6.79288 1.43139C5.59262 1.67014 4.49012 2.25944 3.62478 3.12478C2.75944 3.99011 2.17014 5.09262 1.93139 6.29288C1.69265 7.49314 1.81518 8.73724 2.2835 9.86785C2.75182 10.9985 3.54488 11.9648 4.56241 12.6447C5.57994 13.3246 6.77623 13.6875 8 13.6875C9.64046 13.6856 11.2132 13.0331 12.3732 11.8732C13.5331 10.7132 14.1856 9.14046 14.1875 7.5Z" fill="#6C778B"/>
</svg>
