<svg width="30" height="31" viewBox="0 0 30 31" fill="none" xmlns="http://www.w3.org/2000/svg">
<path d="M15 3.00195C12.5895 3.00195 10.2332 3.71674 8.22899 5.05592C6.22477 6.3951 4.66267 8.29852 3.74022 10.5255C2.81778 12.7525 2.57643 15.203 3.04668 17.5671C3.51694 19.9313 4.67769 22.1029 6.38214 23.8073C8.08659 25.5118 10.2582 26.6725 12.6223 27.1428C14.9865 27.613 17.437 27.3717 19.664 26.4492C21.8909 25.5268 23.7944 23.9647 25.1335 21.9605C26.4727 19.9562 27.1875 17.5999 27.1875 15.1895C27.1841 11.9582 25.899 8.86022 23.6141 6.57536C21.3292 4.2905 18.2313 3.00537 15 3.00195ZM15 25.502C12.9604 25.502 10.9666 24.8971 9.27069 23.764C7.57481 22.6308 6.25303 21.0202 5.4725 19.1359C4.69197 17.2515 4.48775 15.178 4.88566 13.1776C5.28357 11.1772 6.26574 9.33964 7.70797 7.89741C9.1502 6.45519 10.9877 5.47302 12.9881 5.0751C14.9886 4.67719 17.0621 4.88142 18.9464 5.66195C20.8308 6.44247 22.4414 7.76425 23.5745 9.46013C24.7077 11.156 25.3125 13.1498 25.3125 15.1895C25.3094 17.9235 24.2219 20.5448 22.2886 22.4781C20.3553 24.4114 17.7341 25.4989 15 25.502ZM22.5 15.1895C22.5 15.4381 22.4012 15.6766 22.2254 15.8524C22.0496 16.0282 21.8111 16.127 21.5625 16.127H15C14.7514 16.127 14.5129 16.0282 14.3371 15.8524C14.1613 15.6766 14.0625 15.4381 14.0625 15.1895V8.62695C14.0625 8.37831 14.1613 8.13986 14.3371 7.96404C14.5129 7.78823 14.7514 7.68945 15 7.68945C15.2486 7.68945 15.4871 7.78823 15.6629 7.96404C15.8387 8.13986 15.9375 8.37831 15.9375 8.62695V14.252H21.5625C21.8111 14.252 22.0496 14.3507 22.2254 14.5265C22.4012 14.7024 22.5 14.9408 22.5 15.1895Z" fill="#6C778B"/>
</svg>
