<svg width="40" height="36" viewBox="0 0 40 36" fill="none" xmlns="http://www.w3.org/2000/svg">
<rect x="0.5" y="0.5" width="39" height="35" rx="5.5" fill="white"/>
<rect x="0.5" y="0.5" width="39" height="35" rx="5.5" stroke="#D8DCE4"/>
<path d="M28.0156 11.8696C27.9194 11.6473 27.76 11.4582 27.5572 11.3258C27.3544 11.1935 27.1172 11.1236 26.875 11.125H13.125C12.8831 11.1255 12.6465 11.1962 12.4439 11.3285C12.2414 11.4608 12.0816 11.649 11.9839 11.8703C11.8862 12.0917 11.8548 12.3366 11.8936 12.5754C11.9324 12.8142 12.0396 13.0366 12.2023 13.2156L12.2086 13.2227L17.5 18.8727V24.875C17.4999 25.1013 17.5613 25.3233 17.6775 25.5174C17.7937 25.7115 17.9604 25.8704 18.1598 25.9772C18.3593 26.084 18.5839 26.1347 18.8099 26.1239C19.0359 26.113 19.2547 26.0411 19.443 25.9156L21.943 24.2485C22.1143 24.1343 22.2549 23.9796 22.352 23.798C22.4492 23.6165 22.5 23.4137 22.5 23.2078V18.8727L27.7922 13.2227L27.7984 13.2156C27.9628 13.0374 28.0711 12.8147 28.1098 12.5753C28.1484 12.3359 28.1156 12.0905 28.0156 11.8696ZM21.5891 18.0219C21.3719 18.252 21.2507 18.5563 21.25 18.8727V23.2078L18.75 24.875V18.8727C18.7507 18.5551 18.63 18.2494 18.4125 18.018L13.125 12.375H26.875L21.5891 18.0219Z" fill="#6C778B"/>
</svg>
