<svg width="4" height="12" viewBox="0 0 4 12" fill="none" xmlns="http://www.w3.org/2000/svg">
<path d="M0.875001 1.21875C0.875001 0.996247 0.940981 0.77874 1.0646 0.593734C1.18821 0.408729 1.36392 0.264535 1.56948 0.179386C1.77505 0.0942374 2.00125 0.0719587 2.21948 0.115367C2.43771 0.158775 2.63816 0.265921 2.7955 0.423255C2.95283 0.58059 3.05998 0.781045 3.10338 0.999274C3.14679 1.2175 3.12451 1.4437 3.03937 1.64927C2.95422 1.85484 2.81002 2.03054 2.62502 2.15415C2.44001 2.27777 2.2225 2.34375 2 2.34375C1.70163 2.34375 1.41548 2.22522 1.20451 2.01425C0.993527 1.80327 0.875001 1.51712 0.875001 1.21875ZM2 4.875C1.7775 4.875 1.55999 4.94098 1.37498 5.0646C1.18998 5.18821 1.04578 5.36392 0.960636 5.56948C0.875487 5.77505 0.853209 6.00125 0.896617 6.21948C0.940025 6.43771 1.04717 6.63816 1.20451 6.7955C1.36184 6.95283 1.5623 7.05998 1.78052 7.10338C1.99875 7.14679 2.22495 7.12451 2.43052 7.03937C2.63609 6.95422 2.81179 6.81002 2.9354 6.62502C3.05902 6.44001 3.125 6.22251 3.125 6C3.125 5.70163 3.00647 5.41548 2.7955 5.20451C2.58452 4.99353 2.29837 4.875 2 4.875ZM2 9.65625C1.7775 9.65625 1.55999 9.72223 1.37498 9.84585C1.18998 9.96947 1.04578 10.1452 0.960636 10.3507C0.875487 10.5563 0.853209 10.7825 0.896617 11.0007C0.940025 11.219 1.04717 11.4194 1.20451 11.5767C1.36184 11.7341 1.5623 11.8412 1.78052 11.8846C1.99875 11.928 2.22495 11.9058 2.43052 11.8206C2.63609 11.7355 2.81179 11.5913 2.9354 11.4063C3.05902 11.2213 3.125 11.0038 3.125 10.7813C3.125 10.4829 3.00647 10.1967 2.7955 9.98576C2.58452 9.77478 2.29837 9.65625 2 9.65625Z" fill="#6C778B"/>
</svg>
