<svg width="24" height="18" viewBox="0 0 24 18" fill="none" xmlns="http://www.w3.org/2000/svg">
<path d="M23.25 9C23.25 9.24864 23.1512 9.4871 22.9754 9.66291C22.7996 9.83873 22.5611 9.9375 22.3125 9.9375H1.6875C1.43886 9.9375 1.2004 9.83873 1.02459 9.66291C0.848772 9.4871 0.75 9.24864 0.75 9C0.75 8.75136 0.848772 8.5129 1.02459 8.33709C1.2004 8.16127 1.43886 8.0625 1.6875 8.0625H22.3125C22.5611 8.0625 22.7996 8.16127 22.9754 8.33709C23.1512 8.5129 23.25 8.75136 23.25 9ZM1.6875 2.4375H22.3125C22.5611 2.4375 22.7996 2.33873 22.9754 2.16291C23.1512 1.9871 23.25 1.74864 23.25 1.5C23.25 1.25136 23.1512 1.0129 22.9754 0.837088C22.7996 0.661272 22.5611 0.5625 22.3125 0.5625H1.6875C1.43886 0.5625 1.2004 0.661272 1.02459 0.837088C0.848772 1.0129 0.75 1.25136 0.75 1.5C0.75 1.74864 0.848772 1.9871 1.02459 2.16291C1.2004 2.33873 1.43886 2.4375 1.6875 2.4375ZM22.3125 15.5625H1.6875C1.43886 15.5625 1.2004 15.6613 1.02459 15.8371C0.848772 16.0129 0.75 16.2514 0.75 16.5C0.75 16.7486 0.848772 16.9871 1.02459 17.1629C1.2004 17.3387 1.43886 17.4375 1.6875 17.4375H22.3125C22.5611 17.4375 22.7996 17.3387 22.9754 17.1629C23.1512 16.9871 23.25 16.7486 23.25 16.5C23.25 16.2514 23.1512 16.0129 22.9754 15.8371C22.7996 15.6613 22.5611 15.5625 22.3125 15.5625Z" fill="#6C778B"/>
</svg>
