<svg width="18" height="18" viewBox="0 0 18 18" fill="none" xmlns="http://www.w3.org/2000/svg">
<path d="M7.875 15.1875C7.875 15.3367 7.81574 15.4798 7.71025 15.5852C7.60476 15.6907 7.46168 15.75 7.3125 15.75H3.375C3.07663 15.75 2.79048 15.6315 2.5795 15.4205C2.36853 15.2095 2.25 14.9234 2.25 14.625V3.375C2.25 3.07663 2.36853 2.79048 2.5795 2.5795C2.79048 2.36853 3.07663 2.25 3.375 2.25H7.3125C7.46168 2.25 7.60476 2.30926 7.71025 2.41475C7.81574 2.52024 7.875 2.66332 7.875 2.8125C7.875 2.96168 7.81574 3.10476 7.71025 3.21025C7.60476 3.31574 7.46168 3.375 7.3125 3.375H3.375V14.625H7.3125C7.46168 14.625 7.60476 14.6843 7.71025 14.7898C7.81574 14.8952 7.875 15.0383 7.875 15.1875ZM15.5855 8.60203L12.773 5.78953C12.6674 5.68398 12.5243 5.62469 12.375 5.62469C12.2257 5.62469 12.0826 5.68398 11.977 5.78953C11.8715 5.89508 11.8122 6.03823 11.8122 6.1875C11.8122 6.33677 11.8715 6.47992 11.977 6.58547L13.8298 8.4375H7.3125C7.16332 8.4375 7.02024 8.49676 6.91475 8.60225C6.80926 8.70774 6.75 8.85082 6.75 9C6.75 9.14918 6.80926 9.29226 6.91475 9.39775C7.02024 9.50324 7.16332 9.5625 7.3125 9.5625H13.8298L11.977 11.4145C11.8715 11.5201 11.8122 11.6632 11.8122 11.8125C11.8122 11.9618 11.8715 12.1049 11.977 12.2105C12.0826 12.316 12.2257 12.3753 12.375 12.3753C12.5243 12.3753 12.6674 12.316 12.773 12.2105L15.5855 9.39797C15.6378 9.34573 15.6793 9.28369 15.7076 9.2154C15.7359 9.14712 15.7504 9.07392 15.7504 9C15.7504 8.92608 15.7359 8.85288 15.7076 8.7846C15.6793 8.71631 15.6378 8.65427 15.5855 8.60203Z" fill="#6C778B"/>
</svg>
