<svg width="14" height="14" viewBox="0 0 14 14" fill="none" xmlns="http://www.w3.org/2000/svg">
<path d="M13.0675 12.1832C13.1256 12.2412 13.1717 12.3102 13.2031 12.386C13.2345 12.4619 13.2507 12.5432 13.2507 12.6253C13.2507 12.7075 13.2345 12.7888 13.2031 12.8647C13.1717 12.9405 13.1256 13.0095 13.0675 13.0675C13.0095 13.1256 12.9405 13.1717 12.8647 13.2031C12.7888 13.2345 12.7075 13.2507 12.6253 13.2507C12.5432 13.2507 12.4619 13.2345 12.386 13.2031C12.3102 13.1717 12.2412 13.1256 12.1832 13.0675L7.00035 7.88394L1.81753 13.0675C1.70026 13.1848 1.5412 13.2507 1.37535 13.2507C1.2095 13.2507 1.05044 13.1848 0.93316 13.0675C0.815885 12.9503 0.75 12.7912 0.75 12.6253C0.75 12.4595 0.815885 12.3004 0.93316 12.1832L6.11675 7.00035L0.93316 1.81753C0.815885 1.70026 0.75 1.5412 0.75 1.37535C0.75 1.2095 0.815885 1.05044 0.93316 0.93316C1.05044 0.815885 1.2095 0.75 1.37535 0.75C1.5412 0.75 1.70026 0.815885 1.81753 0.93316L7.00035 6.11675L12.1832 0.93316C12.3004 0.815885 12.4595 0.75 12.6253 0.75C12.7912 0.75 12.9503 0.815885 13.0675 0.93316C13.1848 1.05044 13.2507 1.2095 13.2507 1.37535C13.2507 1.5412 13.1848 1.70026 13.0675 1.81753L7.88394 7.00035L13.0675 12.1832Z" fill="#6C778B"/>
</svg>
