<svg width="14" height="14" viewBox="0 0 14 14" fill="none" xmlns="http://www.w3.org/2000/svg">
<path d="M13.75 8.68794V12.6254C13.75 12.9238 13.6315 13.21 13.4205 13.4209C13.2095 13.6319 12.9234 13.7504 12.625 13.7504H1.375C1.07663 13.7504 0.790483 13.6319 0.579505 13.4209C0.368526 13.21 0.25 12.9238 0.25 12.6254V8.68794C0.25 8.53876 0.309263 8.39568 0.414753 8.29019C0.520242 8.18471 0.663316 8.12544 0.8125 8.12544C0.961684 8.12544 1.10476 8.18471 1.21025 8.29019C1.31574 8.39568 1.375 8.53876 1.375 8.68794V12.6254H12.625V8.68794C12.625 8.53876 12.6843 8.39568 12.7898 8.29019C12.8952 8.18471 13.0383 8.12544 13.1875 8.12544C13.3367 8.12544 13.4798 8.18471 13.5852 8.29019C13.6907 8.39568 13.75 8.53876 13.75 8.68794ZM4.58547 4.02341L6.4375 2.17068V8.68794C6.4375 8.83713 6.49676 8.9802 6.60225 9.08569C6.70774 9.19118 6.85082 9.25044 7 9.25044C7.14918 9.25044 7.29226 9.19118 7.39775 9.08569C7.50324 8.9802 7.5625 8.83713 7.5625 8.68794V2.17068L9.41453 4.02341C9.52008 4.12896 9.66323 4.18826 9.8125 4.18826C9.96177 4.18826 10.1049 4.12896 10.2105 4.02341C10.316 3.91786 10.3753 3.77471 10.3753 3.62544C10.3753 3.47618 10.316 3.33302 10.2105 3.22747L7.39797 0.414974C7.34573 0.362674 7.28369 0.321185 7.2154 0.292878C7.14712 0.26457 7.07392 0.25 7 0.25C6.92608 0.25 6.85288 0.26457 6.7846 0.292878C6.71631 0.321185 6.65427 0.362674 6.60203 0.414974L3.78953 3.22747C3.68398 3.33302 3.62469 3.47618 3.62469 3.62544C3.62469 3.77471 3.68398 3.91786 3.78953 4.02341C3.89508 4.12896 4.03823 4.18826 4.1875 4.18826C4.33677 4.18826 4.47992 4.12896 4.58547 4.02341Z" fill="#5B5BE1"/>
</svg>
