<svg width="343" height="162" viewBox="0 0 343 162" fill="none" xmlns="http://www.w3.org/2000/svg">
<path d="M105.221 50.0607C105.221 50.0607 106.897 46.8885 102.508 42.4924C101.216 41.1977 99.8711 39.1715 99.1945 38.2755C95.7659 33.7351 91.6251 34.4032 88.4249 35.9232C85.6601 37.2365 85.0664 39.5134 82.5823 41.4279C80.0983 43.3424 78.0905 46.1524 78.2338 50.9701L105.221 50.0607Z" fill="#151E13"/>
<path d="M121.796 90.9139C121.796 90.9139 116.678 68.0845 105.042 62.2254C100.678 60.0276 103.777 88.1734 108.301 96.4196C112.824 104.666 125.1 105.95 121.796 90.9139Z" fill="#E79F59"/>
<path d="M103.794 83.7582C103.794 83.7582 93.9497 64.1629 102.031 60.4681C110.069 56.7932 118.326 79.6038 118.326 79.6038C118.326 79.6038 109.226 83.9375 103.794 83.7582Z" fill="#ADADF0"/>
<path d="M98.2384 39.7816C98.2384 39.7816 96.1107 46.4953 98.3006 58.8649L87.1354 58.7439C87.1354 58.7439 86.3155 48.4168 91.6293 39.1211L98.2384 39.7816Z" fill="#E79F59"/>
<path d="M86.2072 37.2245C86.2072 37.2245 84.4903 39.1429 84.261 42.2648C83.9763 46.1439 86.3879 49.7607 90.1124 50.9509C91.8461 51.5049 93.9942 51.6118 96.4298 50.5356C96.4298 50.5356 102.106 48.6248 101.264 41.6007C100.422 34.5766 94.468 34.3001 92.3908 34.4078C92.3908 34.4078 88.3217 34.5961 86.2072 37.2245Z" fill="#E79F59"/>
<path d="M98.2943 35.9429C98.2943 35.9429 96.4115 43.5579 84.6061 45.3417C84.6061 45.3417 82.1357 38.147 89.2539 35.0269C89.2539 35.0269 93.9952 33.005 98.2943 35.9429Z" fill="#151E13"/>
<path d="M100.912 39.8454C100.912 39.8454 97.4662 39.634 94.9277 37.0209L95.9394 34.793C95.9394 34.793 99.8518 35.5718 100.912 39.8454Z" fill="#151E13"/>
<path d="M79.3771 110.611C87.987 111.664 98.4496 111.717 115.125 110.764C115.125 110.764 116.04 67.03 106.028 60.4273C80.7718 43.772 64.1407 77.7482 66.438 107.349C66.9244 113.614 73.3496 109.873 79.3771 110.611Z" fill="#ADADF0"/>
<path d="M113.208 82.2871C113.208 82.2871 111.362 70.69 104.883 64.0166C104.883 64.0166 113.872 69.6131 113.208 82.2871Z" fill="#151E13"/>
<path d="M89.2455 85.5814C89.2455 85.5814 90.8679 74.4668 87.5 64.9883C87.5 64.9883 93.5908 75.7482 89.2455 85.5814Z" fill="#151E13"/>
<path d="M229.594 72.1724H124.371C121.506 72.1724 119.366 69.538 119.953 66.7339L133.167 3.58942C133.605 1.49806 135.448 0 137.585 0H242.807C245.672 0 247.813 2.63442 247.226 5.43851L234.012 68.583C233.574 70.6745 231.73 72.1724 229.594 72.1724Z" fill="#A0AEEA"/>
<path d="M185.603 12.7744H137.441L137.047 14.6555H185.209L185.603 12.7744Z" fill="#F5F5F5"/>
<path d="M186.466 8.6582H138.304L137.91 10.5393H186.073L186.466 8.6582Z" fill="#F5F5F5"/>
<path d="M165.442 16.8535H136.587L136.193 18.7346H165.048L165.442 16.8535Z" fill="#F5F5F5"/>
<path d="M176.339 57.0469H128.177L127.783 58.928H175.946L176.339 57.0469Z" fill="#F5F5F5"/>
<path d="M182.376 28.1973H134.214L133.82 30.0784H181.983L182.376 28.1973Z" fill="#F5F5F5"/>
<path d="M181.511 32.3291H133.349L132.955 34.2102H181.118L181.511 32.3291Z" fill="#F5F5F5"/>
<path d="M180.648 36.4619H132.485L132.092 38.3429H180.254L180.648 36.4619Z" fill="#F5F5F5"/>
<path d="M179.783 40.5938H131.62L131.227 42.4748H179.389L179.783 40.5938Z" fill="#F5F5F5"/>
<path d="M178.917 44.7256H130.755L130.361 46.6067H178.524L178.917 44.7256Z" fill="#F5F5F5"/>
<path d="M178.054 48.8584H129.892L129.498 50.7395H177.661L178.054 48.8584Z" fill="#F5F5F5"/>
<path d="M177.189 52.9902H129.026L128.633 54.8714H176.795L177.189 52.9902Z" fill="#F5F5F5"/>
<path d="M145.498 61.126H127.323L126.93 63.0071H145.104L145.498 61.126Z" fill="#F5F5F5"/>
<path d="M239.187 12.7744H191.025L190.631 14.6555H238.793L239.187 12.7744Z" fill="#F5F5F5"/>
<path d="M240.048 8.6582H191.886L191.492 10.5393H239.655L240.048 8.6582Z" fill="#F5F5F5"/>
<path d="M228.664 16.8535H190.171L189.777 18.7346H228.271L228.664 16.8535Z" fill="#F5F5F5"/>
<path d="M229.923 57.0469H181.761L181.367 58.928H229.53L229.923 57.0469Z" fill="#F5F5F5"/>
<path d="M235.96 28.1973H187.798L187.404 30.0784H235.567L235.96 28.1973Z" fill="#F5F5F5"/>
<path d="M235.095 32.3291H186.933L186.539 34.2102H234.702L235.095 32.3291Z" fill="#F5F5F5"/>
<path d="M234.232 36.4619H186.069L185.676 38.3429H233.838L234.232 36.4619Z" fill="#F5F5F5"/>
<path d="M225.296 40.5938H185.204L184.811 42.4748H224.903L225.296 40.5938Z" fill="#F5F5F5"/>
<path d="M230.773 52.9902H182.61L182.217 54.8714H230.379L230.773 52.9902Z" fill="#F5F5F5"/>
<path d="M198.273 61.126H180.907L180.514 63.0071H197.879L198.273 61.126Z" fill="#F5F5F5"/>
<path d="M237.977 84.4844H231.725V90.7372H237.977V84.4844Z" fill="#ADADF0"/>
<path d="M239.628 84.4844C239.628 84.4844 235.315 87.7359 233.324 91.0207C233.324 91.0207 231.798 88.4991 230.072 87.7525C230.072 87.7525 232.03 87.1055 233.224 88.8309C233.224 88.8309 235.48 85.3139 239.628 84.4844Z" fill="#151E13"/>
<path d="M237.977 96.4297H231.725V102.683H237.977V96.4297Z" fill="#ADADF0"/>
<path d="M239.628 96.4297C239.628 96.4297 235.315 99.6812 233.324 102.966C233.324 102.966 231.798 100.444 230.072 99.6979C230.072 99.6979 232.03 99.0508 233.224 100.776C233.224 100.776 235.48 97.2592 239.628 96.4297Z" fill="#151E13"/>
<path d="M268.293 85.335H241.633V86.6781H268.293V85.335Z" fill="#151E13"/>
<path d="M259.382 87.9912H241.633V89.3343H259.382V87.9912Z" fill="#151E13"/>
<path d="M268.293 97.6982H241.633V99.0414H268.293V97.6982Z" fill="#151E13"/>
<path d="M259.382 100.355H241.633V101.699H259.382V100.355Z" fill="#151E13"/>
<path d="M133.011 106.356H54.002C54.002 106.356 54.8771 112.378 68.4559 116.925C82.0348 121.472 89.2891 111.258 101.606 115.393C113.922 119.529 125.941 118.49 133.011 106.356Z" fill="#F5F5F5"/>
<path d="M108.572 77.3828C108.572 77.3828 101.228 79.0735 102.475 90.979C103.816 103.783 99.9918 108.162 98.4512 109.615H135.399V77.3828H108.572Z" fill="#151E13"/>
<path d="M154.426 108.965C154.426 108.965 177.032 116.195 197.415 107.014C215.064 99.0634 220.94 72.3687 222.954 60.2604C223.821 55.0471 225.018 49.8578 226.58 44.7273C226.889 43.7135 227.198 42.7476 227.494 41.8984H193.473C193.473 41.8984 189.935 61.6525 185.778 73.5212C181.621 85.3899 175.608 101.648 154.426 108.965Z" fill="#E79F59"/>
<path d="M173.735 111.67C173.735 111.67 159.604 110.328 150.829 93.9181C150.315 92.957 149.782 92.007 149.329 91.0154C147.84 87.7505 143.575 78.8703 140.6 77.3828H108.57C108.57 77.3828 112.419 94.6723 124.7 105.271C133.69 113.03 156.541 111.936 173.735 111.67Z" fill="#A0AEEA"/>
<path d="M197.279 52.568H204.834L206.239 50.373H198.685L197.279 52.568Z" fill="#F5F5F5"/>
<path d="M196.123 58.9702H207.687L209.093 56.7754H197.529L196.123 58.9702Z" fill="#F5F5F5"/>
<path d="M194.518 65.3717H200.228L201.634 63.1768H195.923L194.518 65.3717Z" fill="#F5F5F5"/>
<path d="M202.717 65.3717H215.652L217.058 63.1768H204.123L202.717 65.3717Z" fill="#F5F5F5"/>
<path d="M192.832 71.773H202.648L204.054 69.5781H194.238L192.832 71.773Z" fill="#F5F5F5"/>
<path d="M191.002 78.1753H212.219L213.625 75.9805H192.408L191.002 78.1753Z" fill="#F5F5F5"/>
<path d="M188.443 84.5768H209.661L211.067 82.3818H189.849L188.443 84.5768Z" fill="#F5F5F5"/>
<path d="M185.518 90.979H200.658L202.064 88.7842H186.923L185.518 90.979Z" fill="#F5F5F5"/>
<path d="M180.6 97.3805H201.817L203.223 95.1855H182.005L180.6 97.3805Z" fill="#F5F5F5"/>
<path d="M174.523 103.783H182.49L183.896 101.588H175.929L174.523 103.783Z" fill="#F5F5F5"/>
<path d="M185.273 103.783H195.171L196.577 101.588H186.679L185.273 103.783Z" fill="#F5F5F5"/>
<path d="M139.482 84.5768H118.265L116.924 82.3818H138.141L139.482 84.5768Z" fill="#F5F5F5"/>
<path d="M141.252 90.979H126.111L124.77 88.7842H139.91L141.252 90.979Z" fill="#F5F5F5"/>
<path d="M145.396 97.3804H124.179L122.838 95.1855H144.055L145.396 97.3804Z" fill="#F5F5F5"/>
<path d="M150.72 103.783H142.753L141.412 101.588H149.379L150.72 103.783Z" fill="#F5F5F5"/>
<path d="M139.971 103.783H130.074L128.732 101.588H138.63L139.971 103.783Z" fill="#F5F5F5"/>
<path d="M237.053 63.9631C239.955 63.9631 242.307 61.6108 242.307 58.7091C242.307 55.8074 239.955 53.4551 237.053 53.4551C234.151 53.4551 231.799 55.8074 231.799 58.7091C231.799 61.6108 234.151 63.9631 237.053 63.9631Z" fill="#6C778B"/>
<path d="M246.232 51.2839L242.018 48.8506L237.44 56.7783L241.655 59.2116L246.232 51.2839Z" fill="#6C778B"/>
<path d="M254.174 28.7725C254.174 28.7725 247.939 30.8704 243.342 37.7102C238.424 45.0259 239.828 51.983 242.69 53.9895C245.552 55.996 252.401 49.5724 256.019 43.2028C259.638 36.8333 258.808 30.2572 254.174 28.7725Z" fill="#F5F5F5"/>
<path d="M260.725 48.6328C268.097 47.2219 273.19 41.4675 272.101 35.7802C271.013 30.0928 264.154 26.6261 256.783 28.037C249.411 29.448 244.318 35.2023 245.407 40.8897C246.495 46.5771 253.354 50.0438 260.725 48.6328Z" fill="#6C778B"/>
<path d="M234.097 53.1781C234.097 53.1781 240.934 53.0824 239.914 59.3829C239.096 64.4314 236.185 65.4145 227.093 63.0372C218.881 60.8901 213.038 58.7744 213.448 55.6585C213.937 51.9441 234.097 53.1781 234.097 53.1781Z" fill="#F5F5F5"/>
<path d="M264.257 61.9059C268.419 61.9059 271.793 58.5319 271.793 54.3699C271.793 50.2079 268.419 46.834 264.257 46.834C260.095 46.834 256.721 50.2079 256.721 54.3699C256.721 58.5319 260.095 61.9059 264.257 61.9059Z" fill="#6C778B"/>
<path d="M271.241 7.25545C271.241 7.25545 269.662 4.93543 266.419 3.87369C262.389 2.5544 257.93 4.15685 255.693 7.78503C254.652 9.47389 253.975 11.7186 254.474 14.578C254.474 14.578 255.007 21.0849 262.659 22.0375C270.312 22.9902 272.167 16.763 272.598 14.537C272.598 14.537 273.467 10.1825 271.241 7.25545Z" fill="#F5F5F5"/>
<path d="M255.341 8.40534C255.341 8.40534 259.802 9.16639 263.241 8.37893C266.68 7.59147 266.89 11.6427 264.055 13.0032C261.22 14.3638 254.338 13.5115 254.338 13.5115C254.338 13.5115 254.012 10.9166 255.341 8.40534Z" fill="#6C778B"/>
<path d="M271.546 17.1754C273.428 17.1003 274.875 15.0721 274.778 12.6453C274.681 10.2186 273.077 8.31221 271.195 8.38736C269.313 8.46251 267.866 10.4907 267.963 12.9175C268.059 15.3442 269.664 17.2506 271.546 17.1754Z" fill="#6C778B"/>
<path d="M276.504 28.5381C276.504 28.5381 283.251 32.1267 282.82 37.2944C282.39 42.4621 279.806 49.0652 275.212 54.8071C270.619 60.549 258.417 59.5441 254.829 55.8119C251.24 52.0796 248.8 40.3291 248.513 38.094C248.226 35.8589 250.953 32.1267 256.121 28.5381C261.288 24.9495 265.666 22.6527 276.504 28.5381Z" fill="#F5F5F5"/>
<path d="M264.966 24.7658C269.927 24.9386 274.363 27.4396 274.363 27.4396C274.363 27.4396 265.226 36.5748 257.976 35.9164C252.424 35.4122 253.939 30.178 253.939 30.178C253.939 30.178 259.926 24.5903 264.966 24.7658Z" fill="#6C778B"/>
<path d="M276.172 74.8957C279.074 74.8957 281.426 72.5434 281.426 69.6417C281.426 66.74 279.074 64.3877 276.172 64.3877C273.27 64.3877 270.918 66.74 270.918 69.6417C270.918 72.5434 273.27 74.8957 276.172 74.8957Z" fill="#6C778B"/>
<path d="M275.005 68.364L279.66 69.0635L281.091 59.5394L276.436 58.8399L275.005 68.364Z" fill="#6C778B"/>
<path d="M278.849 29.7946C274.187 30.0198 270.261 37.3074 270.561 43.5182C270.861 49.7289 274.883 54.5812 279.545 54.356C284.207 54.1308 289.328 47.9659 288.2 41.851C286.635 33.3639 283.511 29.5694 278.849 29.7946Z" fill="#6C778B"/>
<path d="M272.599 74.3408C272.599 74.3408 279.278 75.8064 279.543 69.4293C279.755 64.3194 277.1 62.7723 267.716 63.277C259.24 63.7329 253.091 64.6333 252.868 67.7681C252.602 71.5049 272.599 74.3408 272.599 74.3408Z" fill="#F5F5F5"/>
<path d="M281.567 32.3317C283.838 31.5571 286.322 32.8347 287.18 35.0754C288.205 37.7547 289.417 42.3067 288.858 47.9817C287.882 57.9048 281.647 62.963 277.706 62.6532C273.765 62.3435 272.414 51.8085 273.843 43.6461C274.864 37.8159 277.997 33.5497 281.567 32.3317Z" fill="#F5F5F5"/>
<path d="M255.193 71.6045C255.193 71.6045 259.59 71.4976 259.546 68.4755C259.492 64.7669 256.927 62.8187 252.72 64.6296C251.123 65.3173 247.024 63.2376 245.283 65.5351C243.543 67.8325 246.2 70.7722 248.72 71.4673C250.94 72.0796 255.193 71.6045 255.193 71.6045Z" fill="#6C778B"/>
<path d="M257.708 64.496C257.708 64.496 254.456 62.5431 253.012 61.8084C251.569 61.0738 248.897 61.6369 248.572 62.4327C248.246 63.2286 250.773 63.654 251.261 63.773C251.748 63.892 253.869 65.8762 253.869 65.8762L257.708 64.496Z" fill="#6C778B"/>
<path d="M216.134 60.5534C216.134 60.5534 220.339 58.5689 219.003 55.6666C217.364 52.1049 214.051 51.3194 210.76 54.8694C209.51 56.2175 204.659 55.9608 203.959 58.9263C203.259 61.8919 207.085 63.5965 209.819 63.1902C212.226 62.8322 216.134 60.5534 216.134 60.5534Z" fill="#6C778B"/>
<path d="M217.634 53.6756C217.634 53.6756 214.848 51.2233 212.405 50.7045C210.821 50.3678 208.043 51.1742 208.152 52.2181C208.252 53.1906 210.532 52.9353 211.023 53.0405C211.389 53.1189 212.717 54.5987 212.717 54.5987L217.634 53.6756Z" fill="#6C778B"/>
<path d="M104.313 94.6545C106.24 89.3857 100.752 89.3857 100.752 89.3857C96.2678 89.9923 73.2383 93.4851 73.2383 93.4851C73.2383 93.4851 73.4741 103.728 80.6292 104.351C85.064 104.737 91.9199 102.184 91.9199 102.184C91.9199 102.184 103.097 97.9772 104.313 94.6545Z" fill="#E79F59"/>
<path d="M72.7796 93.6052C72.7796 93.6052 72.0082 74.2042 81.2167 64.9895C84.6709 61.5329 89.0283 85.3479 87.3212 94.5971C85.6141 103.846 74.3613 108.919 72.7796 93.6052Z" fill="#E79F59"/>
<path d="M88.9812 85.4403C88.9812 85.4403 91.2526 64.4182 82.4197 63.2488C73.6345 62.0857 70.8184 86.1822 70.8184 86.1822C70.8184 86.1822 83.8803 87.6966 88.9812 85.4403Z" fill="#ADADF0"/>
<path d="M99.9668 89.4947C104.723 88.7008 106.876 89.0698 107.387 89.3858C109.669 90.7964 105.482 91.4605 105.482 91.4605C105.27 92.7756 106.898 93.7832 106.898 93.7832C106.898 93.7832 108.128 94.531 110.996 94.6886C114.182 94.8636 114.03 95.9688 113.66 96.3608C113.29 96.7528 112.373 96.8327 112.373 96.8327C112.373 96.8327 114.311 96.8181 114.194 97.4906C114.077 98.1632 112.752 98.5715 112.752 98.5715C112.752 98.5715 114.413 98.6413 114.203 99.2939C113.994 99.9465 112.841 100.229 112.841 100.229C112.841 100.229 113.676 100.319 113.434 100.899C113.193 101.479 110.68 102.416 106.567 101.191C102.968 100.119 99.6463 99.031 99.5751 94.3132C99.5578 93.1649 99.8042 92.028 100.223 90.9586L99.9668 89.4947Z" fill="#E79F59"/>
<path d="M111.889 100.053C111.889 100.053 108.425 101.035 104.654 98.5859C104.654 98.5859 108.307 99.8747 111.889 100.053Z" fill="#151E13"/>
<path d="M112.009 98.6048C112.009 98.6048 108.489 99.3635 104.883 96.6777C104.883 96.6777 108.445 98.1978 112.009 98.6048Z" fill="#151E13"/>
<path d="M111.932 96.7323C111.932 96.7323 108.429 97.5637 104.768 94.9531C104.768 94.9531 108.36 96.399 111.932 96.7323Z" fill="#151E13"/>
<path d="M12.0416 143.997L8.36156 151.085V155.117H6.53756V151.085L2.84156 143.997H4.87356L7.44956 149.453L10.0256 143.997H12.0416ZM17.3131 155.261C16.4811 155.261 15.7291 155.075 15.0571 154.701C14.3851 154.317 13.8571 153.784 13.4731 153.101C13.0891 152.408 12.8971 151.608 12.8971 150.701C12.8971 149.805 13.0944 149.011 13.4891 148.317C13.8837 147.624 14.4224 147.091 15.1051 146.717C15.7877 146.344 16.5504 146.157 17.3931 146.157C18.2357 146.157 18.9984 146.344 19.6811 146.717C20.3637 147.091 20.9024 147.624 21.2971 148.317C21.6917 149.011 21.8891 149.805 21.8891 150.701C21.8891 151.597 21.6864 152.392 21.2811 153.085C20.8757 153.779 20.3211 154.317 19.6171 154.701C18.9237 155.075 18.1557 155.261 17.3131 155.261ZM17.3131 153.677C17.7824 153.677 18.2197 153.565 18.6251 153.341C19.0411 153.117 19.3771 152.781 19.6331 152.333C19.8891 151.885 20.0171 151.341 20.0171 150.701C20.0171 150.061 19.8944 149.523 19.6491 149.085C19.4037 148.637 19.0784 148.301 18.6731 148.077C18.2677 147.853 17.8304 147.741 17.3611 147.741C16.8917 147.741 16.4544 147.853 16.0491 148.077C15.6544 148.301 15.3397 148.637 15.1051 149.085C14.8704 149.523 14.7531 150.061 14.7531 150.701C14.7531 151.651 14.9931 152.387 15.4731 152.909C15.9637 153.421 16.5771 153.677 17.3131 153.677ZM31.6762 146.301V155.117H29.8522V154.077C29.5642 154.44 29.1855 154.728 28.7162 154.941C28.2575 155.144 27.7669 155.245 27.2442 155.245C26.5509 155.245 25.9269 155.101 25.3722 154.813C24.8282 154.525 24.3962 154.099 24.0762 153.533C23.7669 152.968 23.6122 152.285 23.6122 151.485V146.301H25.4202V151.213C25.4202 152.003 25.6175 152.611 26.0122 153.037C26.4069 153.453 26.9455 153.661 27.6282 153.661C28.3109 153.661 28.8495 153.453 29.2442 153.037C29.6495 152.611 29.8522 152.003 29.8522 151.213V146.301H31.6762ZM35.9068 147.581C36.1735 147.133 36.5255 146.787 36.9628 146.541C37.4108 146.285 37.9388 146.157 38.5468 146.157V148.045H38.0828C37.3681 148.045 36.8241 148.227 36.4508 148.589C36.0881 148.952 35.9068 149.581 35.9068 150.477V155.117H34.0828V146.301H35.9068V147.581ZM56.0917 143.997V155.117H54.2677V147.501L50.8757 155.117H49.6117L46.2037 147.501V155.117H44.3797V143.997H46.3477L50.2517 152.717L54.1397 143.997H56.0917ZM66.5691 150.493C66.5691 150.824 66.5477 151.123 66.5051 151.389H59.7691C59.8224 152.093 60.0837 152.659 60.5531 153.085C61.0224 153.512 61.5984 153.725 62.2811 153.725C63.2624 153.725 63.9557 153.315 64.3611 152.493H66.3291C66.0624 153.304 65.5771 153.971 64.8731 154.493C64.1797 155.005 63.3157 155.261 62.2811 155.261C61.4384 155.261 60.6811 155.075 60.0091 154.701C59.3477 154.317 58.8251 153.784 58.4411 153.101C58.0677 152.408 57.8811 151.608 57.8811 150.701C57.8811 149.795 58.0624 149 58.4251 148.317C58.7984 147.624 59.3157 147.091 59.9771 146.717C60.6491 146.344 61.4171 146.157 62.2811 146.157C63.1131 146.157 63.8544 146.339 64.5051 146.701C65.1557 147.064 65.6624 147.576 66.0251 148.237C66.3877 148.888 66.5691 149.64 66.5691 150.493ZM64.6651 149.917C64.6544 149.245 64.4144 148.707 63.9451 148.301C63.4757 147.896 62.8944 147.693 62.2011 147.693C61.5717 147.693 61.0331 147.896 60.5851 148.301C60.1371 148.696 59.8704 149.235 59.7851 149.917H64.6651ZM67.7561 150.669C67.7561 149.784 67.9374 149 68.3001 148.317C68.6734 147.635 69.1747 147.107 69.8041 146.733C70.4441 146.349 71.1534 146.157 71.9321 146.157C72.5081 146.157 73.0734 146.285 73.6281 146.541C74.1934 146.787 74.6414 147.117 74.9721 147.533V143.277H76.8121V155.117H74.9721V153.789C74.6734 154.216 74.2574 154.568 73.7241 154.845C73.2014 155.123 72.5987 155.261 71.9161 155.261C71.1481 155.261 70.4441 155.069 69.8041 154.685C69.1747 154.291 68.6734 153.747 68.3001 153.053C67.9374 152.349 67.7561 151.555 67.7561 150.669ZM74.9721 150.701C74.9721 150.093 74.8441 149.565 74.5881 149.117C74.3427 148.669 74.0174 148.328 73.6121 148.093C73.2067 147.859 72.7694 147.741 72.3001 147.741C71.8307 147.741 71.3934 147.859 70.9881 148.093C70.5827 148.317 70.2521 148.653 69.9961 149.101C69.7507 149.539 69.6281 150.061 69.6281 150.669C69.6281 151.277 69.7507 151.811 69.9961 152.269C70.2521 152.728 70.5827 153.08 70.9881 153.325C71.4041 153.56 71.8414 153.677 72.3001 153.677C72.7694 153.677 73.2067 153.56 73.6121 153.325C74.0174 153.091 74.3427 152.749 74.5881 152.301C74.8441 151.843 74.9721 151.309 74.9721 150.701ZM80.1358 145.133C79.8051 145.133 79.5278 145.021 79.3038 144.797C79.0798 144.573 78.9678 144.296 78.9678 143.965C78.9678 143.635 79.0798 143.357 79.3038 143.133C79.5278 142.909 79.8051 142.797 80.1358 142.797C80.4558 142.797 80.7278 142.909 80.9518 143.133C81.1758 143.357 81.2878 143.635 81.2878 143.965C81.2878 144.296 81.1758 144.573 80.9518 144.797C80.7278 145.021 80.4558 145.133 80.1358 145.133ZM81.0318 146.301V155.117H79.2078V146.301H81.0318ZM82.8186 150.701C82.8186 149.795 82.9999 149 83.3626 148.317C83.7359 147.624 84.2479 147.091 84.8986 146.717C85.5492 146.344 86.2959 146.157 87.1386 146.157C88.2052 146.157 89.0852 146.413 89.7786 146.925C90.4826 147.427 90.9572 148.147 91.2026 149.085H89.2346C89.0746 148.648 88.8186 148.307 88.4666 148.061C88.1146 147.816 87.6719 147.693 87.1386 147.693C86.3919 147.693 85.7946 147.96 85.3466 148.493C84.9092 149.016 84.6906 149.752 84.6906 150.701C84.6906 151.651 84.9092 152.392 85.3466 152.925C85.7946 153.459 86.3919 153.725 87.1386 153.725C88.1946 153.725 88.8932 153.261 89.2346 152.333H91.2026C90.9466 153.229 90.4666 153.944 89.7626 154.477C89.0586 155 88.1839 155.261 87.1386 155.261C86.2959 155.261 85.5492 155.075 84.8986 154.701C84.2479 154.317 83.7359 153.784 83.3626 153.101C82.9999 152.408 82.8186 151.608 82.8186 150.701ZM92.4123 150.669C92.4123 149.784 92.5936 149 92.9563 148.317C93.3296 147.635 93.831 147.107 94.4603 146.733C95.1003 146.349 95.8043 146.157 96.5723 146.157C97.2656 146.157 97.8683 146.296 98.3803 146.573C98.903 146.84 99.319 147.176 99.6283 147.581V146.301H101.468V155.117H99.6283V153.805C99.319 154.221 98.8976 154.568 98.3643 154.845C97.831 155.123 97.223 155.261 96.5403 155.261C95.783 155.261 95.0896 155.069 94.4603 154.685C93.831 154.291 93.3296 153.747 92.9563 153.053C92.5936 152.349 92.4123 151.555 92.4123 150.669ZM99.6283 150.701C99.6283 150.093 99.5003 149.565 99.2443 149.117C98.999 148.669 98.6736 148.328 98.2683 148.093C97.863 147.859 97.4256 147.741 96.9563 147.741C96.487 147.741 96.0496 147.859 95.6443 148.093C95.239 148.317 94.9083 148.653 94.6523 149.101C94.407 149.539 94.2843 150.061 94.2843 150.669C94.2843 151.277 94.407 151.811 94.6523 152.269C94.9083 152.728 95.239 153.08 95.6443 153.325C96.0603 153.56 96.4976 153.677 96.9563 153.677C97.4256 153.677 97.863 153.56 98.2683 153.325C98.6736 153.091 98.999 152.749 99.2443 152.301C99.5003 151.843 99.6283 151.309 99.6283 150.701ZM105.688 143.277V155.117H103.864V143.277H105.688ZM121.375 155.117H119.551L114.063 146.813V155.117H112.239V143.981H114.063L119.551 152.269V143.981H121.375V155.117ZM127.594 155.261C126.762 155.261 126.01 155.075 125.338 154.701C124.666 154.317 124.138 153.784 123.754 153.101C123.37 152.408 123.178 151.608 123.178 150.701C123.178 149.805 123.376 149.011 123.77 148.317C124.165 147.624 124.704 147.091 125.386 146.717C126.069 146.344 126.832 146.157 127.674 146.157C128.517 146.157 129.28 146.344 129.962 146.717C130.645 147.091 131.184 147.624 131.578 148.317C131.973 149.011 132.17 149.805 132.17 150.701C132.17 151.597 131.968 152.392 131.562 153.085C131.157 153.779 130.602 154.317 129.898 154.701C129.205 155.075 128.437 155.261 127.594 155.261ZM127.594 153.677C128.064 153.677 128.501 153.565 128.906 153.341C129.322 153.117 129.658 152.781 129.914 152.333C130.17 151.885 130.298 151.341 130.298 150.701C130.298 150.061 130.176 149.523 129.93 149.085C129.685 148.637 129.36 148.301 128.954 148.077C128.549 147.853 128.112 147.741 127.642 147.741C127.173 147.741 126.736 147.853 126.33 148.077C125.936 148.301 125.621 148.637 125.386 149.085C125.152 149.523 125.034 150.061 125.034 150.701C125.034 151.651 125.274 152.387 125.754 152.909C126.245 153.421 126.858 153.677 127.594 153.677ZM136.101 147.789V152.669C136.101 153 136.176 153.24 136.325 153.389C136.485 153.528 136.752 153.597 137.125 153.597H138.245V155.117H136.805C135.984 155.117 135.355 154.925 134.917 154.541C134.48 154.157 134.261 153.533 134.261 152.669V147.789H133.221V146.301H134.261V144.109H136.101V146.301H138.245V147.789H136.101ZM148.007 150.493C148.007 150.824 147.985 151.123 147.943 151.389H141.207C141.26 152.093 141.521 152.659 141.991 153.085C142.46 153.512 143.036 153.725 143.719 153.725C144.7 153.725 145.393 153.315 145.799 152.493H147.767C147.5 153.304 147.015 153.971 146.311 154.493C145.617 155.005 144.753 155.261 143.719 155.261C142.876 155.261 142.119 155.075 141.447 154.701C140.785 154.317 140.263 153.784 139.879 153.101C139.505 152.408 139.319 151.608 139.319 150.701C139.319 149.795 139.5 149 139.863 148.317C140.236 147.624 140.753 147.091 141.415 146.717C142.087 146.344 142.855 146.157 143.719 146.157C144.551 146.157 145.292 146.339 145.943 146.701C146.593 147.064 147.1 147.576 147.463 148.237C147.825 148.888 148.007 149.64 148.007 150.493ZM146.103 149.917C146.092 149.245 145.852 148.707 145.383 148.301C144.913 147.896 144.332 147.693 143.639 147.693C143.009 147.693 142.471 147.896 142.023 148.301C141.575 148.696 141.308 149.235 141.223 149.917H146.103ZM153.002 155.261C152.308 155.261 151.684 155.139 151.13 154.893C150.586 154.637 150.154 154.296 149.834 153.869C149.514 153.432 149.343 152.947 149.322 152.413H151.21C151.242 152.787 151.418 153.101 151.738 153.357C152.068 153.603 152.479 153.725 152.97 153.725C153.482 153.725 153.876 153.629 154.154 153.437C154.442 153.235 154.586 152.979 154.586 152.669C154.586 152.339 154.426 152.093 154.106 151.933C153.796 151.773 153.3 151.597 152.618 151.405C151.956 151.224 151.418 151.048 151.002 150.877C150.586 150.707 150.223 150.445 149.914 150.093C149.615 149.741 149.466 149.277 149.466 148.701C149.466 148.232 149.604 147.805 149.882 147.421C150.159 147.027 150.554 146.717 151.066 146.493C151.588 146.269 152.186 146.157 152.858 146.157C153.86 146.157 154.666 146.413 155.274 146.925C155.892 147.427 156.223 148.115 156.266 148.989H154.442C154.41 148.595 154.25 148.28 153.962 148.045C153.674 147.811 153.284 147.693 152.794 147.693C152.314 147.693 151.946 147.784 151.69 147.965C151.434 148.147 151.306 148.387 151.306 148.685C151.306 148.92 151.391 149.117 151.562 149.277C151.732 149.437 151.94 149.565 152.186 149.661C152.431 149.747 152.794 149.859 153.274 149.997C153.914 150.168 154.436 150.344 154.842 150.525C155.258 150.696 155.615 150.952 155.914 151.293C156.212 151.635 156.367 152.088 156.378 152.653C156.378 153.155 156.239 153.603 155.962 153.997C155.684 154.392 155.29 154.701 154.778 154.925C154.276 155.149 153.684 155.261 153.002 155.261ZM161.897 150.669C161.897 149.784 162.078 149 162.441 148.317C162.814 147.635 163.315 147.107 163.945 146.733C164.585 146.349 165.289 146.157 166.057 146.157C166.75 146.157 167.353 146.296 167.865 146.573C168.387 146.84 168.803 147.176 169.113 147.581V146.301H170.953V155.117H169.113V153.805C168.803 154.221 168.382 154.568 167.849 154.845C167.315 155.123 166.707 155.261 166.025 155.261C165.267 155.261 164.574 155.069 163.945 154.685C163.315 154.291 162.814 153.747 162.441 153.053C162.078 152.349 161.897 151.555 161.897 150.669ZM169.113 150.701C169.113 150.093 168.985 149.565 168.729 149.117C168.483 148.669 168.158 148.328 167.753 148.093C167.347 147.859 166.91 147.741 166.441 147.741C165.971 147.741 165.534 147.859 165.129 148.093C164.723 148.317 164.393 148.653 164.137 149.101C163.891 149.539 163.769 150.061 163.769 150.669C163.769 151.277 163.891 151.811 164.137 152.269C164.393 152.728 164.723 153.08 165.129 153.325C165.545 153.56 165.982 153.677 166.441 153.677C166.91 153.677 167.347 153.56 167.753 153.325C168.158 153.091 168.483 152.749 168.729 152.301C168.985 151.843 169.113 151.309 169.113 150.701ZM175.172 147.581C175.439 147.133 175.791 146.787 176.228 146.541C176.676 146.285 177.204 146.157 177.812 146.157V148.045H177.348C176.634 148.045 176.09 148.227 175.716 148.589C175.354 148.952 175.172 149.581 175.172 150.477V155.117H173.348V146.301H175.172V147.581ZM187.569 150.493C187.569 150.824 187.548 151.123 187.505 151.389H180.769C180.822 152.093 181.084 152.659 181.553 153.085C182.022 153.512 182.598 153.725 183.281 153.725C184.262 153.725 184.956 153.315 185.361 152.493H187.329C187.062 153.304 186.577 153.971 185.873 154.493C185.18 155.005 184.316 155.261 183.281 155.261C182.438 155.261 181.681 155.075 181.009 154.701C180.348 154.317 179.825 153.784 179.441 153.101C179.068 152.408 178.881 151.608 178.881 150.701C178.881 149.795 179.062 149 179.425 148.317C179.798 147.624 180.316 147.091 180.977 146.717C181.649 146.344 182.417 146.157 183.281 146.157C184.113 146.157 184.854 146.339 185.505 146.701C186.156 147.064 186.662 147.576 187.025 148.237C187.388 148.888 187.569 149.64 187.569 150.493ZM185.665 149.917C185.654 149.245 185.414 148.707 184.945 148.301C184.476 147.896 183.894 147.693 183.201 147.693C182.572 147.693 182.033 147.896 181.585 148.301C181.137 148.696 180.87 149.235 180.785 149.917H185.665ZM195.344 147.613C195.654 147.187 196.075 146.84 196.608 146.573C197.152 146.296 197.755 146.157 198.416 146.157C199.195 146.157 199.899 146.344 200.528 146.717C201.158 147.091 201.654 147.624 202.016 148.317C202.379 149 202.56 149.784 202.56 150.669C202.56 151.555 202.379 152.349 202.016 153.053C201.654 153.747 201.152 154.291 200.512 154.685C199.883 155.069 199.184 155.261 198.416 155.261C197.734 155.261 197.126 155.128 196.592 154.861C196.07 154.595 195.654 154.253 195.344 153.837V155.117H193.52V143.277H195.344V147.613ZM200.704 150.669C200.704 150.061 200.576 149.539 200.32 149.101C200.075 148.653 199.744 148.317 199.328 148.093C198.923 147.859 198.486 147.741 198.016 147.741C197.558 147.741 197.12 147.859 196.704 148.093C196.299 148.328 195.968 148.669 195.712 149.117C195.467 149.565 195.344 150.093 195.344 150.701C195.344 151.309 195.467 151.843 195.712 152.301C195.968 152.749 196.299 153.091 196.704 153.325C197.12 153.56 197.558 153.677 198.016 153.677C198.486 153.677 198.923 153.56 199.328 153.325C199.744 153.08 200.075 152.728 200.32 152.269C200.576 151.811 200.704 151.277 200.704 150.669ZM212.444 150.493C212.444 150.824 212.423 151.123 212.38 151.389H205.644C205.697 152.093 205.959 152.659 206.428 153.085C206.897 153.512 207.473 153.725 208.156 153.725C209.137 153.725 209.831 153.315 210.236 152.493H212.204C211.937 153.304 211.452 153.971 210.748 154.493C210.055 155.005 209.191 155.261 208.156 155.261C207.313 155.261 206.556 155.075 205.884 154.701C205.223 154.317 204.7 153.784 204.316 153.101C203.943 152.408 203.756 151.608 203.756 150.701C203.756 149.795 203.937 149 204.3 148.317C204.673 147.624 205.191 147.091 205.852 146.717C206.524 146.344 207.292 146.157 208.156 146.157C208.988 146.157 209.729 146.339 210.38 146.701C211.031 147.064 211.537 147.576 211.9 148.237C212.263 148.888 212.444 149.64 212.444 150.493ZM210.54 149.917C210.529 149.245 210.289 148.707 209.82 148.301C209.351 147.896 208.769 147.693 208.076 147.693C207.447 147.693 206.908 147.896 206.46 148.301C206.012 148.696 205.745 149.235 205.66 149.917H210.54ZM215.167 145.133C214.836 145.133 214.559 145.021 214.335 144.797C214.111 144.573 213.999 144.296 213.999 143.965C213.999 143.635 214.111 143.357 214.335 143.133C214.559 142.909 214.836 142.797 215.167 142.797C215.487 142.797 215.759 142.909 215.983 143.133C216.207 143.357 216.319 143.635 216.319 143.965C216.319 144.296 216.207 144.573 215.983 144.797C215.759 145.021 215.487 145.133 215.167 145.133ZM216.063 146.301V155.117H214.239V146.301H216.063ZM222.906 146.157C223.599 146.157 224.218 146.301 224.762 146.589C225.316 146.877 225.748 147.304 226.058 147.869C226.367 148.435 226.522 149.117 226.522 149.917V155.117H224.714V150.189C224.714 149.4 224.516 148.797 224.122 148.381C223.727 147.955 223.188 147.741 222.506 147.741C221.823 147.741 221.279 147.955 220.874 148.381C220.479 148.797 220.282 149.4 220.282 150.189V155.117H218.458V146.301H220.282V147.309C220.58 146.947 220.959 146.664 221.418 146.461C221.887 146.259 222.383 146.157 222.906 146.157ZM232.4 146.157C233.083 146.157 233.686 146.296 234.208 146.573C234.742 146.84 235.158 147.176 235.456 147.581V146.301H237.296V155.261C237.296 156.072 237.126 156.792 236.784 157.421C236.443 158.061 235.947 158.563 235.296 158.925C234.656 159.288 233.888 159.469 232.992 159.469C231.798 159.469 230.806 159.187 230.016 158.621C229.227 158.067 228.779 157.309 228.672 156.349H230.48C230.619 156.808 230.912 157.176 231.36 157.453C231.819 157.741 232.363 157.885 232.992 157.885C233.728 157.885 234.32 157.661 234.768 157.213C235.227 156.765 235.456 156.115 235.456 155.261V153.789C235.147 154.205 234.726 154.557 234.192 154.845C233.67 155.123 233.072 155.261 232.4 155.261C231.632 155.261 230.928 155.069 230.288 154.685C229.659 154.291 229.158 153.747 228.784 153.053C228.422 152.349 228.24 151.555 228.24 150.669C228.24 149.784 228.422 149 228.784 148.317C229.158 147.635 229.659 147.107 230.288 146.733C230.928 146.349 231.632 146.157 232.4 146.157ZM235.456 150.701C235.456 150.093 235.328 149.565 235.072 149.117C234.827 148.669 234.502 148.328 234.096 148.093C233.691 147.859 233.254 147.741 232.784 147.741C232.315 147.741 231.878 147.859 231.472 148.093C231.067 148.317 230.736 148.653 230.48 149.101C230.235 149.539 230.112 150.061 230.112 150.669C230.112 151.277 230.235 151.811 230.48 152.269C230.736 152.728 231.067 153.08 231.472 153.325C231.888 153.56 232.326 153.677 232.784 153.677C233.254 153.677 233.691 153.56 234.096 153.325C234.502 153.091 234.827 152.749 235.072 152.301C235.328 151.843 235.456 151.309 235.456 150.701ZM251.896 147.197C251.608 146.643 251.208 146.227 250.696 145.949C250.184 145.661 249.592 145.517 248.92 145.517C248.184 145.517 247.528 145.683 246.952 146.013C246.376 146.344 245.923 146.813 245.592 147.421C245.272 148.029 245.112 148.733 245.112 149.533C245.112 150.333 245.272 151.043 245.592 151.661C245.923 152.269 246.376 152.739 246.952 153.069C247.528 153.4 248.184 153.565 248.92 153.565C249.912 153.565 250.718 153.288 251.336 152.733C251.955 152.179 252.334 151.427 252.472 150.477H248.296V149.021H254.424V150.445C254.307 151.309 253.998 152.104 253.496 152.829C253.006 153.555 252.36 154.136 251.56 154.573C250.771 155 249.891 155.213 248.92 155.213C247.875 155.213 246.92 154.973 246.056 154.493C245.192 154.003 244.504 153.325 243.992 152.461C243.491 151.597 243.24 150.621 243.24 149.533C243.24 148.445 243.491 147.469 243.992 146.605C244.504 145.741 245.192 145.069 246.056 144.589C246.931 144.099 247.886 143.853 248.92 143.853C250.104 143.853 251.155 144.147 252.072 144.733C253 145.309 253.672 146.131 254.088 147.197H251.896ZM264.303 150.493C264.303 150.824 264.282 151.123 264.239 151.389H257.503C257.557 152.093 257.818 152.659 258.287 153.085C258.757 153.512 259.333 153.725 260.015 153.725C260.997 153.725 261.69 153.315 262.095 152.493H264.063C263.797 153.304 263.311 153.971 262.607 154.493C261.914 155.005 261.05 155.261 260.015 155.261C259.173 155.261 258.415 155.075 257.743 154.701C257.082 154.317 256.559 153.784 256.175 153.101C255.802 152.408 255.615 151.608 255.615 150.701C255.615 149.795 255.797 149 256.159 148.317C256.533 147.624 257.05 147.091 257.711 146.717C258.383 146.344 259.151 146.157 260.015 146.157C260.847 146.157 261.589 146.339 262.239 146.701C262.89 147.064 263.397 147.576 263.759 148.237C264.122 148.888 264.303 149.64 264.303 150.493ZM262.399 149.917C262.389 149.245 262.149 148.707 261.679 148.301C261.21 147.896 260.629 147.693 259.935 147.693C259.306 147.693 258.767 147.896 258.319 148.301C257.871 148.696 257.605 149.235 257.519 149.917H262.399ZM270.546 146.157C271.24 146.157 271.858 146.301 272.402 146.589C272.957 146.877 273.389 147.304 273.698 147.869C274.008 148.435 274.162 149.117 274.162 149.917V155.117H272.354V150.189C272.354 149.4 272.157 148.797 271.762 148.381C271.368 147.955 270.829 147.741 270.146 147.741C269.464 147.741 268.92 147.955 268.514 148.381C268.12 148.797 267.922 149.4 267.922 150.189V155.117H266.098V146.301H267.922V147.309C268.221 146.947 268.6 146.664 269.058 146.461C269.528 146.259 270.024 146.157 270.546 146.157ZM284.569 150.493C284.569 150.824 284.548 151.123 284.505 151.389H277.769C277.822 152.093 278.084 152.659 278.553 153.085C279.022 153.512 279.598 153.725 280.281 153.725C281.262 153.725 281.956 153.315 282.361 152.493H284.329C284.062 153.304 283.577 153.971 282.873 154.493C282.18 155.005 281.316 155.261 280.281 155.261C279.438 155.261 278.681 155.075 278.009 154.701C277.348 154.317 276.825 153.784 276.441 153.101C276.068 152.408 275.881 151.608 275.881 150.701C275.881 149.795 276.062 149 276.425 148.317C276.798 147.624 277.316 147.091 277.977 146.717C278.649 146.344 279.417 146.157 280.281 146.157C281.113 146.157 281.854 146.339 282.505 146.701C283.156 147.064 283.662 147.576 284.025 148.237C284.388 148.888 284.569 149.64 284.569 150.493ZM282.665 149.917C282.654 149.245 282.414 148.707 281.945 148.301C281.476 147.896 280.894 147.693 280.201 147.693C279.572 147.693 279.033 147.896 278.585 148.301C278.137 148.696 277.87 149.235 277.785 149.917H282.665ZM288.188 147.581C288.455 147.133 288.807 146.787 289.244 146.541C289.692 146.285 290.22 146.157 290.828 146.157V148.045H290.364C289.649 148.045 289.105 148.227 288.732 148.589C288.369 148.952 288.188 149.581 288.188 150.477V155.117H286.364V146.301H288.188V147.581ZM291.897 150.669C291.897 149.784 292.078 149 292.441 148.317C292.814 147.635 293.315 147.107 293.945 146.733C294.585 146.349 295.289 146.157 296.057 146.157C296.75 146.157 297.353 146.296 297.865 146.573C298.387 146.84 298.803 147.176 299.113 147.581V146.301H300.953V155.117H299.113V153.805C298.803 154.221 298.382 154.568 297.849 154.845C297.315 155.123 296.707 155.261 296.025 155.261C295.267 155.261 294.574 155.069 293.945 154.685C293.315 154.291 292.814 153.747 292.441 153.053C292.078 152.349 291.897 151.555 291.897 150.669ZM299.113 150.701C299.113 150.093 298.985 149.565 298.729 149.117C298.483 148.669 298.158 148.328 297.753 148.093C297.347 147.859 296.91 147.741 296.441 147.741C295.971 147.741 295.534 147.859 295.129 148.093C294.723 148.317 294.393 148.653 294.137 149.101C293.891 149.539 293.769 150.061 293.769 150.669C293.769 151.277 293.891 151.811 294.137 152.269C294.393 152.728 294.723 153.08 295.129 153.325C295.545 153.56 295.982 153.677 296.441 153.677C296.91 153.677 297.347 153.56 297.753 153.325C298.158 153.091 298.483 152.749 298.729 152.301C298.985 151.843 299.113 151.309 299.113 150.701ZM305.476 147.789V152.669C305.476 153 305.551 153.24 305.7 153.389C305.86 153.528 306.127 153.597 306.5 153.597H307.62V155.117H306.18C305.359 155.117 304.73 154.925 304.292 154.541C303.855 154.157 303.636 153.533 303.636 152.669V147.789H302.596V146.301H303.636V144.109H305.476V146.301H307.62V147.789H305.476ZM317.382 150.493C317.382 150.824 317.36 151.123 317.318 151.389H310.582C310.635 152.093 310.896 152.659 311.366 153.085C311.835 153.512 312.411 153.725 313.094 153.725C314.075 153.725 314.768 153.315 315.174 152.493H317.142C316.875 153.304 316.39 153.971 315.686 154.493C314.992 155.005 314.128 155.261 313.094 155.261C312.251 155.261 311.494 155.075 310.822 154.701C310.16 154.317 309.638 153.784 309.254 153.101C308.88 152.408 308.694 151.608 308.694 150.701C308.694 149.795 308.875 149 309.238 148.317C309.611 147.624 310.128 147.091 310.79 146.717C311.462 146.344 312.23 146.157 313.094 146.157C313.926 146.157 314.667 146.339 315.318 146.701C315.968 147.064 316.475 147.576 316.838 148.237C317.2 148.888 317.382 149.64 317.382 150.493ZM315.478 149.917C315.467 149.245 315.227 148.707 314.758 148.301C314.288 147.896 313.707 147.693 313.014 147.693C312.384 147.693 311.846 147.896 311.398 148.301C310.95 148.696 310.683 149.235 310.598 149.917H315.478ZM318.569 150.669C318.569 149.784 318.75 149 319.113 148.317C319.486 147.635 319.987 147.107 320.617 146.733C321.257 146.349 321.966 146.157 322.745 146.157C323.321 146.157 323.886 146.285 324.441 146.541C325.006 146.787 325.454 147.117 325.785 147.533V143.277H327.625V155.117H325.785V153.789C325.486 154.216 325.07 154.568 324.537 154.845C324.014 155.123 323.411 155.261 322.729 155.261C321.961 155.261 321.257 155.069 320.617 154.685C319.987 154.291 319.486 153.747 319.113 153.053C318.75 152.349 318.569 151.555 318.569 150.669ZM325.785 150.701C325.785 150.093 325.657 149.565 325.401 149.117C325.155 148.669 324.83 148.328 324.425 148.093C324.019 147.859 323.582 147.741 323.113 147.741C322.643 147.741 322.206 147.859 321.801 148.093C321.395 148.317 321.065 148.653 320.809 149.101C320.563 149.539 320.441 150.061 320.441 150.669C320.441 151.277 320.563 151.811 320.809 152.269C321.065 152.728 321.395 153.08 321.801 153.325C322.217 153.56 322.654 153.677 323.113 153.677C323.582 153.677 324.019 153.56 324.425 153.325C324.83 153.091 325.155 152.749 325.401 152.301C325.657 151.843 325.785 151.309 325.785 150.701ZM330.756 155.229C330.426 155.229 330.148 155.117 329.924 154.893C329.7 154.669 329.588 154.392 329.588 154.061C329.588 153.731 329.7 153.453 329.924 153.229C330.148 153.005 330.426 152.893 330.756 152.893C331.076 152.893 331.348 153.005 331.572 153.229C331.796 153.453 331.908 153.731 331.908 154.061C331.908 154.392 331.796 154.669 331.572 154.893C331.348 155.117 331.076 155.229 330.756 155.229ZM334.616 155.229C334.285 155.229 334.008 155.117 333.784 154.893C333.56 154.669 333.448 154.392 333.448 154.061C333.448 153.731 333.56 153.453 333.784 153.229C334.008 153.005 334.285 152.893 334.616 152.893C334.936 152.893 335.208 153.005 335.432 153.229C335.656 153.453 335.768 153.731 335.768 154.061C335.768 154.392 335.656 154.669 335.432 154.893C335.208 155.117 334.936 155.229 334.616 155.229ZM338.475 155.229C338.144 155.229 337.867 155.117 337.643 154.893C337.419 154.669 337.307 154.392 337.307 154.061C337.307 153.731 337.419 153.453 337.643 153.229C337.867 153.005 338.144 152.893 338.475 152.893C338.795 152.893 339.067 153.005 339.291 153.229C339.515 153.453 339.627 153.731 339.627 154.061C339.627 154.392 339.515 154.669 339.291 154.893C339.067 155.117 338.795 155.229 338.475 155.229Z" fill="#5B5BE1"/>
</svg>
