<svg width="13" height="16" viewBox="0 0 13 16" fill="none" xmlns="http://www.w3.org/2000/svg">
<path d="M6.5 11.375C7.39482 11.3741 8.25272 11.0182 8.88546 10.3855C9.51819 9.75272 9.87407 8.89482 9.875 8V3.5C9.875 2.60489 9.51942 1.74645 8.88649 1.11351C8.25355 0.480579 7.39511 0.125 6.5 0.125C5.60489 0.125 4.74645 0.480579 4.11351 1.11351C3.48058 1.74645 3.125 2.60489 3.125 3.5V8C3.12593 8.89482 3.48181 9.75272 4.11454 10.3855C4.74728 11.0182 5.60518 11.3741 6.5 11.375ZM4.25 3.5C4.25 2.90326 4.48705 2.33097 4.90901 1.90901C5.33097 1.48705 5.90326 1.25 6.5 1.25C7.09674 1.25 7.66903 1.48705 8.09099 1.90901C8.51295 2.33097 8.75 2.90326 8.75 3.5V8C8.75 8.59674 8.51295 9.16903 8.09099 9.59099C7.66903 10.0129 7.09674 10.25 6.5 10.25C5.90326 10.25 5.33097 10.0129 4.90901 9.59099C4.48705 9.16903 4.25 8.59674 4.25 8V3.5ZM7.0625 13.5969V15.3125C7.0625 15.4617 7.00324 15.6048 6.89775 15.7102C6.79226 15.8157 6.64918 15.875 6.5 15.875C6.35082 15.875 6.20774 15.8157 6.10225 15.7102C5.99676 15.6048 5.9375 15.4617 5.9375 15.3125V13.5969C4.55069 13.4558 3.26546 12.8054 2.33036 11.7716C1.39526 10.7378 0.876713 9.39398 0.875 8C0.875 7.85082 0.934263 7.70774 1.03975 7.60225C1.14524 7.49676 1.28832 7.4375 1.4375 7.4375C1.58668 7.4375 1.72976 7.49676 1.83525 7.60225C1.94074 7.70774 2 7.85082 2 8C2 9.19347 2.47411 10.3381 3.31802 11.182C4.16193 12.0259 5.30653 12.5 6.5 12.5C7.69347 12.5 8.83807 12.0259 9.68198 11.182C10.5259 10.3381 11 9.19347 11 8C11 7.85082 11.0593 7.70774 11.1648 7.60225C11.2702 7.49676 11.4133 7.4375 11.5625 7.4375C11.7117 7.4375 11.8548 7.49676 11.9602 7.60225C12.0657 7.70774 12.125 7.85082 12.125 8C12.1233 9.39398 11.6047 10.7378 10.6696 11.7716C9.73454 12.8054 8.44931 13.4558 7.0625 13.5969Z" fill="#5B5BE1"/>
</svg>
