<svg width="58" height="58" viewBox="0 0 58 58" fill="none" xmlns="http://www.w3.org/2000/svg">
<g clip-path="url(#clip0_2807_5137)">
<mask id="mask0_2807_5137" style="mask-type:luminance" maskUnits="userSpaceOnUse" x="0" y="0" width="58" height="58">
<path d="M58 0H0V58H58V0Z" fill="white"/>
</mask>
<g mask="url(#mask0_2807_5137)">
<path d="M57.5 29C57.5 13.2599 44.7401 0.5 29 0.5C13.2599 0.5 0.5 13.2599 0.5 29C0.5 44.7401 13.2599 57.5 29 57.5C44.7401 57.5 57.5 44.7401 57.5 29Z" stroke="#5B5BE1" stroke-opacity="0.5"/>
<path d="M39.6031 27.6279L24.97 18.6762C24.7233 18.5251 24.4407 18.4426 24.1515 18.4373C23.8622 18.4319 23.5768 18.5039 23.3247 18.6457C23.075 18.7854 22.8669 18.989 22.722 19.2357C22.577 19.4824 22.5004 19.7632 22.5 20.0493V37.9507C22.5019 38.3799 22.6741 38.7908 22.9788 39.093C23.2835 39.3953 23.6958 39.5641 24.125 39.5625C24.4246 39.5624 24.7183 39.4798 24.9741 39.3238L39.6031 30.3721C39.8383 30.2288 40.0326 30.0274 40.1675 29.7873C40.3023 29.5472 40.3731 29.2764 40.3731 29.001C40.3731 28.7256 40.3023 28.4549 40.1675 28.2148C40.0326 27.9747 39.8383 27.7733 39.6031 27.6299V27.6279ZM24.125 37.9314V20.0625L38.7327 29L24.125 37.9314Z" fill="#5B5BE1"/>
</g>
</g>
<defs>
<clipPath id="clip0_2807_5137">
<rect width="58" height="58" fill="white"/>
</clipPath>
</defs>
</svg>
