<svg width="59" height="58" viewBox="0 0 59 58" fill="none" xmlns="http://www.w3.org/2000/svg">
<rect x="1" y="0.5" width="57" height="57" rx="28.5" stroke="#5B5BE1" stroke-opacity="0.5"/>
<path d="M36.8125 19.25H32.75C32.319 19.25 31.9057 19.4212 31.601 19.726C31.2962 20.0307 31.125 20.444 31.125 20.875V37.125C31.125 37.556 31.2962 37.9693 31.601 38.274C31.9057 38.5788 32.319 38.75 32.75 38.75H36.8125C37.2435 38.75 37.6568 38.5788 37.9615 38.274C38.2663 37.9693 38.4375 37.556 38.4375 37.125V20.875C38.4375 20.444 38.2663 20.0307 37.9615 19.726C37.6568 19.4212 37.2435 19.25 36.8125 19.25ZM36.8125 37.125H32.75V20.875H36.8125V37.125ZM26.25 19.25H22.1875C21.7565 19.25 21.3432 19.4212 21.0385 19.726C20.7337 20.0307 20.5625 20.444 20.5625 20.875V37.125C20.5625 37.556 20.7337 37.9693 21.0385 38.274C21.3432 38.5788 21.7565 38.75 22.1875 38.75H26.25C26.681 38.75 27.0943 38.5788 27.399 38.274C27.7038 37.9693 27.875 37.556 27.875 37.125V20.875C27.875 20.444 27.7038 20.0307 27.399 19.726C27.0943 19.4212 26.681 19.25 26.25 19.25ZM26.25 37.125H22.1875V20.875H26.25V37.125Z" fill="#5B5BE1"/>
</svg>
