<svg width="19" height="13" viewBox="0 0 19 13" fill="none" xmlns="http://www.w3.org/2000/svg">
<path d="M6.81562 1.10814C6.76515 1.00077 6.68516 0.909979 6.58499 0.846386C6.48483 0.782793 6.36864 0.749023 6.25 0.749023C6.13135 0.749023 6.01516 0.782793 5.915 0.846386C5.81484 0.909979 5.73484 1.00077 5.68437 1.10814L0.684371 11.7331C0.649437 11.8074 0.629476 11.8879 0.625627 11.9698C0.621777 12.0518 0.634116 12.1338 0.661937 12.211C0.718125 12.367 0.833967 12.4942 0.98398 12.5648C1.13399 12.6353 1.30589 12.6434 1.46185 12.5872C1.61781 12.531 1.74507 12.4152 1.81562 12.2652L3.11718 9.49955H9.38281L10.6844 12.2652C10.7193 12.3395 10.7685 12.4061 10.8292 12.4614C10.8899 12.5166 10.9609 12.5594 11.0381 12.5872C11.1154 12.615 11.1973 12.6274 11.2793 12.6235C11.3613 12.6197 11.4417 12.5997 11.516 12.5648C11.5903 12.5298 11.657 12.4806 11.7122 12.4199C11.7675 12.3592 11.8102 12.2882 11.8381 12.211C11.8659 12.1338 11.8782 12.0518 11.8744 11.9698C11.8705 11.8879 11.8506 11.8074 11.8156 11.7331L6.81562 1.10814ZM3.70546 8.24955L6.25 2.84252L8.79453 8.24955H3.70546ZM15.625 4.49955C14.6281 4.49955 13.8492 4.77064 13.3102 5.3058C13.1973 5.42345 13.1349 5.58054 13.1362 5.74357C13.1375 5.9066 13.2025 6.06265 13.3173 6.17844C13.4321 6.29422 13.5875 6.36058 13.7505 6.36336C13.9136 6.36614 14.0712 6.30511 14.1898 6.1933C14.4867 5.89877 14.9711 5.74955 15.625 5.74955C16.6586 5.74955 17.5 6.45267 17.5 7.31205V7.56361C16.9454 7.19254 16.2923 6.99607 15.625 6.99955C13.9016 6.99955 12.5 8.26127 12.5 9.81205C12.5 11.3628 13.9016 12.6245 15.625 12.6245C16.2926 12.6275 16.9457 12.4302 17.5 12.0581C17.5078 12.2239 17.5811 12.3798 17.7038 12.4915C17.8265 12.6032 17.9885 12.6616 18.1543 12.6538C18.3201 12.6461 18.4759 12.5728 18.5877 12.4501C18.6994 12.3274 18.7578 12.1653 18.75 11.9995V7.31205C18.75 5.76127 17.3484 4.49955 15.625 4.49955ZM15.625 11.3745C14.5914 11.3745 13.75 10.6714 13.75 9.81205C13.75 8.95267 14.5914 8.24955 15.625 8.24955C16.6586 8.24955 17.5 8.95267 17.5 9.81205C17.5 10.6714 16.6586 11.3745 15.625 11.3745Z" fill="#6C778B"/>
</svg>
