<svg width="430" height="344" viewBox="0 0 430 344" fill="none" xmlns="http://www.w3.org/2000/svg">
<g opacity="0.2">
<path d="M110.439 98.2063C105.683 95.9697 97.8178 99.6062 95.3099 104.928C90.5224 115.086 106.006 129.798 111.637 128.219C117.93 126.455 119.172 102.313 110.439 98.2063Z" stroke="#5B5BE1" stroke-width="1.72" stroke-miterlimit="10" stroke-linecap="round" stroke-dasharray="4.3 4.3 4.3 4.3 4.3 4.3"/>
<path d="M86.6505 121.216C84.9531 120.234 66.9733 109.834 56.798 118.065C49.6535 123.844 49.5851 136.198 54.9541 143.142C65.5878 156.893 98.562 150.728 101.983 140.888C104.287 134.262 93.4703 125.161 86.6505 121.216Z" stroke="#5B5BE1" stroke-width="1.72" stroke-miterlimit="10" stroke-linecap="round" stroke-dasharray="4.3 4.3 4.3 4.3 4.3 4.3"/>
<path d="M109.786 291.024C153.55 280.161 203.278 269.102 280.496 270.986C323.68 272.039 333.466 258.638 366.195 241.975C395.367 227.125 409.695 197.594 400.896 180.858C392.012 163.961 364.953 170.688 342.792 145.537C332.7 134.081 334.476 126.053 328.65 113.349C310.198 73.1264 241.043 41.6874 206.942 58.3258C161.889 80.3065 200.405 175.282 150.044 201.227C118.189 217.639 94.1112 186.133 62.6576 210.184C47.0727 222.101 28.0117 238.817 26.5376 256.968C26.5376 256.968 24.4736 301.344 109.786 291.024Z" stroke="#5B5BE1" stroke-width="1.72" stroke-miterlimit="10" stroke-linecap="round" stroke-dasharray="4.3 4.3 4.3 4.3 4.3 4.3"/>
<path d="M146.272 48.0186C154.853 34.7727 169.936 24.8304 196.014 25.4395L197.265 25.4766C229.276 26.6241 258.796 42.6773 276.982 68.4434L277.839 69.6777C286.724 82.6737 298.271 97.1702 310.492 106.136C316.603 110.618 322.885 113.72 329.089 114.559C335.101 115.371 341.038 114.057 346.67 109.817L347.214 109.398C352.378 105.322 359.153 103.733 365.552 105.318L366.17 105.481C370.326 106.649 374.622 109.035 377.947 113.63C381.271 118.225 383.628 125.033 383.898 135.05C384.429 154.773 376.869 186.926 352.704 239.083L351.545 241.574L351.544 241.576C351.543 241.577 351.542 241.58 351.54 241.582C351.536 241.587 351.53 241.594 351.523 241.604C351.507 241.625 351.484 241.655 351.454 241.695C351.394 241.776 351.306 241.896 351.19 242.054C350.957 242.369 350.616 242.837 350.183 243.442C349.316 244.653 348.076 246.418 346.589 248.634C343.801 252.788 340.143 258.527 336.429 265.171L335.686 266.512C328.542 279.509 323.107 297.017 321.899 311.646C320.228 311.567 318.476 311.49 316.646 311.416L310.877 311.197C287.197 310.357 253.012 309.83 215 309.83C174.488 309.83 138.321 310.429 114.588 311.367L110.009 311.56C109.207 311.595 108.422 311.63 107.655 311.667C92.9775 293.477 70.881 268.552 59.2424 244.915C53.4214 233.093 50.2204 221.6 51.8674 211.437C53.5137 201.279 60.0044 192.441 73.5872 185.928H73.5881L73.5901 185.927C73.592 185.926 73.595 185.925 73.5989 185.924C73.6066 185.921 73.6187 185.918 73.634 185.913C73.6648 185.904 73.7106 185.889 73.7708 185.87C73.8915 185.832 74.0706 185.774 74.304 185.697C74.7712 185.543 75.4566 185.309 76.3284 184.994C77.854 184.443 79.9513 183.643 82.4534 182.578L83.55 182.105C93.0055 177.979 107.451 170.362 118.992 158.541C130.354 146.904 138.903 131.189 137.105 110.719L137.012 109.74L137.011 109.736V109.735C137.011 109.734 137.01 109.733 137.01 109.731C137.009 109.728 137.008 109.721 137.007 109.714C137.004 109.699 137 109.676 136.994 109.646C136.984 109.587 136.968 109.498 136.948 109.381C136.907 109.146 136.85 108.798 136.781 108.348C136.644 107.446 136.46 106.13 136.276 104.475C135.908 101.164 135.539 96.4954 135.539 91.0625C135.539 78.3565 137.551 61.4784 146.272 48.0186Z" fill="#D0D0F6" stroke="#5B5BE1" stroke-width="0.086"/>
</g>
<path opacity="0.15" d="M394.781 313.106C394.781 314.826 314.29 316.221 215 316.221C158.977 316.221 108.939 315.777 75.9674 315.081C68.373 314.92 61.6851 314.747 56.0379 314.562C52.3181 314.441 49.0499 314.314 46.2716 314.183C39.1234 313.848 35.2192 313.485 35.2192 313.106C35.2192 312.623 41.5559 312.166 52.8657 311.759C57.4974 311.591 62.9625 311.433 69.1683 311.285C101.821 310.501 154.976 309.991 215 309.991C267.799 309.991 315.282 310.385 348.173 311.014C377.133 311.567 394.781 312.301 394.781 313.106Z" fill="#8F8FEB"/>
<path d="M149.729 294.292C149.729 294.292 148.568 303.748 149.729 305.904L141.186 307.48L143.757 291.97L149.729 294.292Z" fill="#DB965F"/>
<path d="M149.436 311.887C149.436 311.887 156.442 313.615 161.807 312.227C162.607 312.02 163.108 311.222 162.933 310.415C162.72 309.438 161.832 308.263 158.964 307.797C158.964 307.797 151.252 304.462 149.106 301.808C149.106 301.808 144.664 304.028 142.014 302.306C142.014 302.306 139.999 303.754 139.67 306.608C139.431 308.684 140.932 310.559 143.007 310.809C145.185 311.07 148.073 311.47 149.436 311.887Z" fill="black"/>
<path d="M138.433 293.214C138.433 293.214 137.272 302.67 138.433 304.826L129.89 306.402L132.461 290.892L138.433 293.214Z" fill="#DB965F"/>
<path d="M138.29 311.866C138.29 311.866 145.296 313.595 150.661 312.207C151.461 312 151.962 311.202 151.786 310.395C151.574 309.418 150.686 308.242 147.818 307.777C147.818 307.777 140.106 304.441 137.96 301.787C137.96 301.787 133.287 303.502 130.637 301.78C130.637 301.78 128.852 303.734 128.524 306.588C128.284 308.664 129.785 310.539 131.861 310.788C134.038 311.05 136.927 311.45 138.29 311.866Z" fill="black"/>
<path d="M140.621 222.93L146.08 258.212L142.762 295.039L144.472 295.3L151.471 296.366L158.015 260.843C158.682 257.218 158.989 253.536 158.931 249.85L158.438 218.731L140.356 221.22L140.621 222.93Z" fill="black"/>
<path opacity="0.15" d="M146.079 258.212L142.761 295.039L144.472 295.3L150.592 259.05L151.799 222.93H140.621L146.079 258.212Z" fill="black"/>
<path d="M132.933 219.85C132.933 219.85 130.278 225.905 131.523 240.752L132.57 259.502L130.486 296.366L139.658 296.903L145.901 265.614C147.015 259.942 147.619 254.181 147.703 248.401L148.153 217.735L132.933 219.85Z" fill="black"/>
<path d="M164.791 207.364L162.541 214.572C160.907 215.26 159.787 213.613 159.641 213.278L159.262 212.293L155.138 201.369L158.439 200.892L159.933 200.675L162.989 200.233L164.454 206.031L164.791 207.364Z" fill="#DB965F"/>
<path d="M190.106 197.276C190.106 197.276 190.338 200.599 183.118 203.161L166.979 212.219L163.025 214.437C162.452 214.759 161.781 214.771 161.217 214.518L164.179 206.982L164.23 207.087L165.684 206.288L178.678 199.144C178.678 199.144 178.957 196.661 180.904 193.762C181.485 193.774 181.871 194.366 181.649 194.902L180.997 196.479C180.997 196.479 184.245 192.701 187.028 193.061C187.028 193.061 190.934 193.823 190.106 197.276Z" fill="#DB965F"/>
<path d="M137.736 185.566L137.774 192.239L148.029 194.049L153.986 191.108L151.409 187.876L149.985 186.09C149.7 185.732 149.578 185.271 149.652 184.819L150.894 177.158L140.903 172.822L141.745 178.911L141.883 179.911C142.185 183.153 137.736 185.566 137.736 185.566Z" fill="#C9885B"/>
<path opacity="0.15" d="M140.903 172.822L141.845 179.722C145.348 185.811 149.78 187.237 151.409 187.876L149.985 186.09C149.7 185.732 149.578 185.271 149.652 184.819L150.894 177.158L140.903 172.822Z" fill="black"/>
<path d="M155.682 171.314C155.682 171.314 154.476 185.038 150.253 184.359C150.253 184.359 145.54 183.567 140.639 176.404L139.47 173.501L142.939 169.806L155.682 171.314Z" fill="#DB965F"/>
<path d="M148.82 164.527C148.82 164.527 161.258 166.441 155.19 174.985C155.19 174.985 154.099 175.16 152.817 171.314C152.817 171.314 151.912 175.461 145.05 173.501C145.05 173.501 144.899 175.838 144.447 176.517H143.768C143.768 176.517 143.844 174.104 141.883 173.576C141.883 173.576 139.47 173.199 140.827 176.517L141.694 177.912L141.897 180.177C141.897 180.177 139.168 175.31 138.716 172.369C138.716 172.369 137.585 167.543 141.807 164.98C141.807 164.98 145.276 162.34 148.82 164.527Z" fill="black"/>
<path d="M157.794 208.263L159.89 207.536L164.228 206.031L165.184 205.699C162.799 193.167 160.484 190.619 159.426 190.148C159.044 189.978 158.826 190.078 158.826 190.078L158.212 200.892L157.794 208.263Z" fill="white"/>
<path opacity="0.15" d="M154.912 201.744L159.035 212.444L159.89 207.784L159.707 201.064L159.426 190.752C159.044 190.586 158.826 190.684 158.826 190.684L158.212 201.276L154.912 201.744Z" fill="black"/>
<path d="M128.764 203.887L129.169 223.942L129.188 224.862C129.204 225.701 129.737 226.445 130.53 226.724C135.752 228.557 142.337 228.558 147.998 228.005H148.002V228.004C152.578 227.557 156.55 226.748 158.707 226.254C159.697 226.028 160.362 225.101 160.265 224.092L158.938 210.354C158.93 210.267 158.927 210.179 158.93 210.092L159.583 190.782C159.595 190.409 159.379 190.068 159.038 189.921L152.525 187.109L152.263 186.996L149.892 185.973C150.805 188.288 149.896 189.544 148.759 190.22C148.23 190.535 147.644 190.718 147.047 190.772C146.905 190.785 146.764 190.791 146.621 190.789C146.021 190.783 145.419 190.648 144.861 190.388C137.93 187.168 139.436 184.383 139.436 184.383L137.319 185.767L136.966 185.998L129.441 190.919L128.87 201.78L128.766 203.74C128.764 203.789 128.763 203.838 128.764 203.887Z" fill="white"/>
<path opacity="0.15" d="M128.762 203.814L129.169 223.943L130.497 224.023L133.526 201.454L128.869 201.781L128.762 203.814Z" fill="black"/>
<path opacity="0.15" d="M146.621 190.789L147.515 228.005H148.003V228.005L147.028 190.887L147.047 190.772C146.905 190.785 146.764 190.791 146.621 190.789Z" fill="black"/>
<path opacity="0.15" d="M147.049 190.807C147.069 190.847 147.888 192.38 148.632 191.636L149.108 193.573C149.108 193.573 152.752 192.351 152.524 187.11L152.263 186.997C152.407 188.544 152.048 190.948 149.235 193.069L148.783 191.108C148.783 191.108 147.954 191.787 147.049 190.807Z" fill="black"/>
<path opacity="0.15" d="M145.889 191.691C146.49 191.554 146.589 190.861 146.595 190.809C146.492 191.217 146.189 191.502 145.889 191.691Z" fill="black"/>
<path opacity="0.15" d="M136.966 185.999C137.813 188.093 139.821 190.883 144.485 193.597L145.163 192.014C145.163 192.014 145.525 191.923 145.889 191.692C145.67 191.742 145.385 191.718 145.013 191.561L144.485 193.069C144.485 193.069 138.404 189.926 137.319 185.769L136.966 185.999Z" fill="black"/>
<path d="M173.639 235.804L142.238 260.136C141.049 261.058 139.337 260.841 138.416 259.651L116.899 231.885C115.978 230.695 116.195 228.984 117.384 228.062L154.564 199.252C155.753 198.33 157.465 198.547 158.387 199.737L175.313 221.579L175.283 221.833L173.639 235.804Z" fill="#E9E9FB"/>
<path d="M152.493 226.523C154.095 228.59 155.264 230.908 155.968 233.413C156.603 235.673 156.834 238.001 156.656 240.346C154.34 239.933 152.144 239.129 150.114 237.949C147.864 236.642 145.911 234.931 144.31 232.865C142.708 230.798 141.539 228.48 140.835 225.975C140.2 223.715 139.969 221.387 140.147 219.042C142.463 219.455 144.659 220.259 146.689 221.439C148.939 222.746 150.892 224.457 152.493 226.523ZM153.296 225.901C149.982 221.624 145.036 218.611 139.244 217.877C138.51 223.669 140.193 229.21 143.507 233.487C146.821 237.764 151.767 240.777 157.559 241.511C158.293 235.719 156.61 230.178 153.296 225.901Z" fill="#ACBCF8"/>
<path d="M151.097 227.605C152.249 229.092 151.977 231.238 150.491 232.39C149.004 233.542 146.858 233.27 145.706 231.783C144.554 230.297 144.826 228.15 146.313 226.998C147.799 225.846 149.946 226.118 151.097 227.605ZM151.9 226.983C150.403 225.051 147.623 224.698 145.69 226.195C143.758 227.693 143.405 230.473 144.903 232.405C146.4 234.338 149.18 234.69 151.113 233.193C153.045 231.696 153.398 228.915 151.9 226.983Z" fill="#ACBCF8"/>
<path d="M137.193 228.633C137.113 228.531 137.073 228.398 137.091 228.258C137.126 227.98 137.38 227.783 137.658 227.819L159.273 230.56C159.551 230.595 159.748 230.849 159.713 231.127C159.677 231.406 159.423 231.603 159.145 231.567L137.53 228.826C137.391 228.808 137.273 228.736 137.193 228.633Z" fill="#ACBCF8"/>
<path opacity="0.1" d="M173.597 235.837L168.708 229.528C167.942 228.539 168.122 227.117 169.111 226.351L175.275 221.574L173.597 235.837Z" fill="black"/>
<path d="M125.294 200.646L132.231 204.492L127.933 214.597L137.736 231.563C137.736 231.563 140.224 231.789 143.165 233.675C143.165 234.255 142.581 234.654 142.04 234.444L140.45 233.825C140.45 233.825 144.296 236.993 143.994 239.783C143.994 239.783 143.316 243.704 139.847 242.95C139.847 242.95 136.529 243.251 133.815 236.088L122.429 216.434C121.873 215.474 121.718 214.334 121.998 213.261L125.294 200.646Z" fill="#DB965F"/>
<path d="M129.837 190.887C129.837 190.887 125.218 190.768 123.559 206.604L131.552 209.545C131.552 209.545 137.698 191.91 129.837 190.887Z" fill="white"/>
<path d="M226.753 213.145V202.29C226.753 199.946 225.12 198.046 223.106 198.046H184.998C182.984 198.046 181.351 199.946 181.351 202.29V217.58V233.393V311.341H301.412V225.375C301.412 221.07 298.413 217.58 294.713 217.58H230.564C228.459 217.58 226.753 215.594 226.753 213.145Z" fill="#8F8FEB"/>
<path d="M301.407 311.341H181.376L184.982 221.013H305.013L301.407 311.341Z" fill="#D3DCEF"/>
<path d="M301.407 311.341H181.376L188.567 223.847H308.598L301.407 311.341Z" fill="#EEF2FA"/>
<path d="M301.407 311.341H181.376L191.916 226.938H311.946L301.407 311.341Z" fill="#D3DCEF"/>
<path d="M301.407 311.341H181.376L194.84 228.556H314.87L301.407 311.341Z" fill="#F4F6FC"/>
<path d="M181.311 311.341H301.372L318.232 236.753C319.084 232.986 316.642 229.3 313.294 229.3H203.792C201.472 229.3 199.444 231.119 198.854 233.73L181.311 311.341Z" fill="#8F8FEB"/>
<g filter="url(#filter0_i_2804_5145)">
<path d="M255.212 254.458C251.619 254.458 247.885 255.5 244.482 257.452C241.079 259.405 238.161 262.18 236.096 265.428C234.03 268.675 232.911 272.248 232.879 275.695C232.848 279.142 233.905 282.308 235.917 284.794C237.93 287.279 240.807 288.971 244.186 289.657C247.564 290.343 251.292 289.991 254.897 288.646C258.503 287.301 261.824 285.023 264.442 282.101C267.059 279.178 268.855 275.743 269.602 272.228C270.599 267.517 269.643 262.999 266.945 259.668C264.247 256.336 260.028 254.462 255.212 254.458ZM248.239 287.265C245.198 287.265 242.414 286.383 240.237 284.73C238.06 283.078 236.589 280.73 236.009 277.982C235.43 275.235 235.768 272.211 236.981 269.295C238.194 266.378 240.228 263.698 242.825 261.596C245.422 259.493 248.465 258.061 251.57 257.48C254.676 256.9 257.703 257.198 260.27 258.336C262.837 259.474 264.829 261.401 265.992 263.874C267.156 266.347 267.439 269.254 266.807 272.228C265.955 276.215 263.522 280.037 260.041 282.855C256.56 285.674 252.315 287.26 248.239 287.265ZM249.747 273.595L251.781 264.026C251.858 263.664 252.079 263.316 252.395 263.06C252.712 262.803 253.098 262.659 253.469 262.659C253.839 262.659 254.164 262.803 254.372 263.06C254.579 263.316 254.653 263.664 254.576 264.026L252.542 273.595C252.465 273.958 252.243 274.305 251.927 274.562C251.61 274.818 251.224 274.962 250.854 274.962C250.483 274.962 250.158 274.818 249.951 274.562C249.743 274.305 249.67 273.958 249.747 273.595ZM251.933 279.746C251.847 280.152 251.639 280.548 251.337 280.885C251.035 281.223 250.652 281.485 250.236 281.641C249.82 281.796 249.39 281.836 249 281.757C248.61 281.678 248.278 281.483 248.046 281.196C247.814 280.909 247.692 280.544 247.696 280.146C247.699 279.749 247.828 279.336 248.067 278.962C248.305 278.587 248.642 278.267 249.034 278.041C249.427 277.816 249.858 277.696 250.272 277.696C250.828 277.696 251.316 277.912 251.627 278.296C251.938 278.681 252.048 279.202 251.933 279.746Z" fill="#E9E9FB"/>
</g>
<path d="M209.62 131.234L209.965 139.637L227.064 140.538L219.866 131.284C219.243 130.483 218.298 129.999 217.284 129.96L211.121 129.728C210.277 129.696 209.585 130.39 209.62 131.234Z" fill="#CDD7FB"/>
<path d="M211.812 133.679L212.256 142.796L241.614 144.192L241.777 134.605C241.786 134.055 241.353 133.599 240.804 133.58L212.853 132.623C212.264 132.602 211.783 133.09 211.812 133.679Z" fill="#EEF2FE"/>
<path d="M210.086 134.966L210.473 145.044L240.037 146.083L240.098 136.059C240.102 135.516 239.674 135.067 239.131 135.046L211.134 133.921C210.547 133.897 210.064 134.379 210.086 134.966Z" fill="#F8FAFF"/>
<path d="M240.516 157.244L209.941 155.673C209.433 155.647 209.02 155.253 208.971 154.746L207.136 135.992C207.08 135.416 207.54 134.92 208.119 134.933L215.891 135.105C216.314 135.114 216.681 135.398 216.798 135.804L216.953 136.345L242.41 137.181C243.005 137.201 243.459 137.719 243.399 138.311L241.591 156.32C241.537 156.866 241.063 157.272 240.516 157.244Z" fill="#D0D0F6"/>
<path d="M225.877 144.589C227.084 144.629 228.252 144.896 229.35 145.384C230.341 145.824 231.237 146.428 232.018 147.182C231.189 147.884 230.256 148.428 229.238 148.802C228.111 149.217 226.927 149.407 225.72 149.367C224.514 149.328 223.345 149.061 222.247 148.573C221.256 148.133 220.361 147.529 219.579 146.774C220.409 146.073 221.342 145.529 222.359 145.155C223.487 144.74 224.671 144.55 225.877 144.589ZM225.892 144.121C223.395 144.039 220.867 144.909 218.899 146.752C220.742 148.72 223.208 149.754 225.705 149.836C228.202 149.918 230.731 149.047 232.698 147.205C230.855 145.237 228.39 144.202 225.892 144.121Z" fill="#CDD7FB"/>
<path d="M225.85 145.404C226.718 145.433 227.401 146.162 227.373 147.03C227.344 147.898 226.615 148.581 225.747 148.552C224.879 148.524 224.196 147.795 224.225 146.927C224.253 146.059 224.982 145.376 225.85 145.404ZM225.866 144.936C224.738 144.899 223.793 145.783 223.756 146.911C223.719 148.04 224.604 148.984 225.732 149.021C226.86 149.058 227.805 148.174 227.841 147.045C227.879 145.917 226.994 144.973 225.866 144.936Z" fill="#CDD7FB"/>
<path d="M222.12 150.651C222.06 150.649 222 150.624 221.956 150.576C221.868 150.482 221.872 150.334 221.967 150.245L229.31 143.368C229.405 143.28 229.553 143.284 229.642 143.379C229.73 143.473 229.725 143.622 229.631 143.71L222.288 150.587C222.24 150.632 222.18 150.652 222.12 150.651Z" fill="#CDD7FB"/>
<path d="M80.6734 237.347L78.4526 245.459L94.4729 251.505L90.4213 240.504C90.0706 239.552 89.3171 238.803 88.3627 238.459L82.5605 236.368C81.7661 236.081 80.8963 236.533 80.6734 237.347Z" fill="#CDD7FB"/>
<path d="M82.0204 240.342L79.6772 249.165L107.228 259.401L110.292 250.315C110.468 249.794 110.194 249.229 109.676 249.044L83.3326 239.652C82.7775 239.454 82.1717 239.772 82.0204 240.342Z" fill="#EEF2FE"/>
<path d="M79.9853 241.045L77.2966 250.765L105.152 260.724L108.251 251.191C108.419 250.674 108.148 250.118 107.637 249.932L81.3004 240.367C80.7481 240.166 80.142 240.479 79.9853 241.045Z" fill="#F8FAFF"/>
<path d="M102.222 271.505L73.5649 260.733C73.0885 260.554 72.8148 260.053 72.9213 259.555L76.8627 241.129C76.9838 240.562 77.5726 240.229 78.1204 240.417L85.4742 242.938C85.8745 243.075 86.1388 243.457 86.1264 243.88L86.1098 244.443L110.114 252.962C110.675 253.161 110.95 253.793 110.714 254.339L103.528 270.951C103.31 271.454 102.735 271.698 102.222 271.505Z" fill="#D0D0F6"/>
<path d="M92.1129 255.005C93.2506 255.408 94.283 256.017 95.1814 256.815C95.9919 257.535 96.662 258.382 97.1779 259.338C96.1748 259.755 95.1207 259.99 94.0376 260.038C92.8372 260.091 91.6518 259.914 90.514 259.51C89.3764 259.106 88.3439 258.497 87.4456 257.699C86.635 256.979 85.9649 256.132 85.449 255.176C86.4521 254.759 87.5062 254.524 88.5893 254.476C89.7897 254.423 90.9752 254.601 92.1129 255.005ZM92.2697 254.562C89.9151 253.727 87.2418 253.79 84.8079 254.949C85.9669 257.383 88.0027 259.116 90.3573 259.952C92.7119 260.787 95.3852 260.725 97.8191 259.566C96.6601 257.132 94.6243 255.398 92.2697 254.562Z" fill="#8F8FEB"/>
<path d="M91.8401 255.774C92.6585 256.065 93.088 256.967 92.7976 257.785C92.5072 258.603 91.6052 259.033 90.7868 258.743C89.9684 258.452 89.5389 257.55 89.8293 256.732C90.1197 255.913 91.0217 255.484 91.8401 255.774ZM91.997 255.332C90.9332 254.955 89.7647 255.511 89.3873 256.575C89.0098 257.639 89.5662 258.807 90.6299 259.184C91.6937 259.562 92.8621 259.006 93.2396 257.942C93.6171 256.878 93.0608 255.71 91.997 255.332Z" fill="#8F8FEB"/>
<path d="M86.6935 259.64C86.6369 259.62 86.588 259.578 86.5602 259.52C86.5045 259.403 86.5541 259.263 86.6711 259.207L95.7545 254.882C95.8715 254.827 96.0114 254.876 96.067 254.993C96.1228 255.11 96.0731 255.25 95.9561 255.306L86.8727 259.631C86.8143 259.659 86.7501 259.66 86.6935 259.64Z" fill="#8F8FEB"/>
<path d="M321.782 132.232L338.914 152.618C339.563 153.39 339.463 154.542 338.69 155.191L320.663 170.34C319.891 170.989 318.739 170.889 318.09 170.117L297.806 145.978C297.157 145.206 297.257 144.054 298.029 143.405L312.21 131.488L312.381 131.502L321.782 132.232Z" fill="#D0D0F6"/>
<path d="M316.127 146.642C317.469 145.515 318.99 144.67 320.65 144.132C322.147 143.647 323.7 143.43 325.276 143.487C325.06 145.049 324.58 146.542 323.844 147.933C323.028 149.475 321.934 150.828 320.592 151.955C319.25 153.083 317.729 153.927 316.07 154.466C314.572 154.951 313.02 155.167 311.444 155.11C311.659 153.548 312.14 152.056 312.876 150.665C313.691 149.123 314.785 147.77 316.127 146.642ZM315.689 146.121C312.912 148.454 311.026 151.847 310.688 155.746C314.586 156.084 318.253 154.81 321.03 152.477C323.807 150.143 325.693 146.751 326.032 142.852C322.133 142.513 318.466 143.788 315.689 146.121Z" fill="#8F8FEB"/>
<path d="M316.889 147.548C317.854 146.737 319.299 146.862 320.11 147.827C320.921 148.793 320.796 150.238 319.83 151.049C318.865 151.859 317.42 151.734 316.609 150.769C315.798 149.804 315.924 148.359 316.889 147.548ZM316.451 147.027C315.196 148.081 315.034 149.953 316.088 151.207C317.142 152.462 319.014 152.624 320.269 151.57C321.523 150.515 321.685 148.644 320.631 147.389C319.577 146.135 317.705 145.973 316.451 147.027Z" fill="#8F8FEB"/>
<path d="M317.947 156.835C317.881 156.891 317.793 156.922 317.699 156.914C317.512 156.897 317.373 156.732 317.389 156.545L318.652 141.995C318.668 141.807 318.833 141.669 319.02 141.685C319.208 141.701 319.346 141.866 319.33 142.053L318.068 156.604C318.059 156.697 318.014 156.779 317.947 156.835Z" fill="#8F8FEB"/>
<path opacity="0.1" d="M321.805 132.259L317.709 135.701C317.067 136.241 316.11 136.158 315.571 135.516L312.208 131.514L321.805 132.259Z" fill="#5B5BE1"/>
<path d="M189.984 64.6961L177.894 88.4217C177.436 89.3205 176.336 89.6778 175.437 89.2198L154.458 78.529C153.559 78.071 153.201 76.9712 153.659 76.0724L167.975 47.98C168.433 47.0812 169.532 46.724 170.431 47.1819L186.935 55.592L186.99 55.7546L189.984 64.6961Z" fill="#D0D0F6"/>
<path d="M174.51 65.1094C176.071 65.9051 177.443 66.9768 178.585 68.2947C179.616 69.4838 180.421 70.8294 180.983 72.3026C179.461 72.7135 177.899 72.8532 176.331 72.718C174.593 72.5681 172.92 72.0887 171.359 71.293C169.797 70.4973 168.426 69.4256 167.284 68.1077C166.253 66.9186 165.448 65.573 164.886 64.0998C166.408 63.6889 167.97 63.5492 169.538 63.6844C171.276 63.8343 172.948 64.3137 174.51 65.1094ZM174.819 64.5028C171.587 62.8561 167.728 62.4422 164.006 63.6514C165.215 67.3734 167.818 70.253 171.05 71.8997C174.281 73.5464 178.141 73.9604 181.863 72.7512C180.654 69.0291 178.051 66.1496 174.819 64.5028Z" fill="#8F8FEB"/>
<path d="M173.972 66.1641C175.096 66.7364 175.544 68.1159 174.971 69.2391C174.399 70.3623 173.019 70.8104 171.896 70.2381C170.773 69.6658 170.325 68.2863 170.897 67.1631C171.47 66.0399 172.849 65.5918 173.972 66.1641ZM174.281 65.5575C172.821 64.8135 171.035 65.394 170.291 66.8539C169.547 68.3139 170.127 70.1007 171.587 70.8447C173.047 71.5886 174.834 71.0082 175.578 69.5482C176.322 68.0882 175.741 66.3014 174.281 65.5575Z" fill="#8F8FEB"/>
<path d="M165.835 70.7609C165.757 70.7214 165.695 70.6522 165.666 70.5628C165.608 70.384 165.705 70.192 165.884 70.1338L179.775 65.6212C179.954 65.5632 180.145 65.661 180.204 65.8398C180.262 66.0186 180.164 66.2107 179.985 66.2688L166.095 70.7814C166.005 70.8104 165.913 70.8005 165.835 70.7609Z" fill="#8F8FEB"/>
<path opacity="0.1" d="M189.968 64.7281L185.201 62.2989C184.454 61.9183 184.157 61.0043 184.538 60.2574L186.911 55.5996L189.968 64.7281Z" fill="#5B5BE1"/>
<path d="M81.5276 198.786H64.3473C62.4391 198.786 60.8923 197.239 60.8923 195.331V180.338C60.8923 178.43 62.4392 176.883 64.3473 176.883H81.5276C83.4358 176.883 84.9826 178.43 84.9826 180.338V195.331C84.9826 197.239 83.4357 198.786 81.5276 198.786Z" fill="#B6B6F2"/>
<path d="M80.3383 191.393L80.2776 192.514L80.2763 192.537L80.2819 192.538L80.7961 192.714C80.7038 193.05 80.5638 193.365 80.3844 193.649C80.3812 193.655 80.378 193.66 80.3747 193.665L80.1767 193.568L79.8507 193.408L79.1777 194.307L79.4166 194.646C79.136 194.832 78.8266 194.974 78.4975 195.062L78.3903 194.534L77.3095 194.512L77.1462 195.11C76.7836 195.041 76.4428 194.907 76.1348 194.72L76.4487 194.191L75.7118 193.357L75.111 193.719L75.1057 193.723C75.0914 193.701 75.0774 193.679 75.0636 193.657C74.8307 193.285 74.6659 192.862 74.5874 192.407L75.1165 192.289L75.1765 191.146L74.6302 190.975C74.7265 190.565 74.8931 190.185 75.1154 189.849L75.6762 190.185L76.433 189.364L76.1333 188.859C76.5199 188.62 76.9572 188.465 77.4228 188.416L77.5422 189.096L78.6219 189.15L78.7919 188.586C78.8895 188.546 79.479 188.917 79.7653 189.166L79.4175 189.675L80.1407 190.555L80.6061 190.298C80.7463 190.604 80.8438 190.936 80.8908 191.285L80.3383 191.393ZM77.7768 189.638C77.3741 189.629 76.9867 189.745 76.6535 189.969C76.5393 190.046 76.4315 190.135 76.3316 190.236C75.9403 190.634 75.7179 191.168 75.7051 191.741C75.6924 192.313 75.8911 192.856 76.2645 193.269C76.6379 193.681 77.1413 193.915 77.682 193.926C78.2228 193.936 78.7361 193.724 79.1274 193.326C79.5187 192.929 79.7411 192.395 79.7538 191.822C79.7666 191.25 79.5679 190.707 79.1945 190.294C79.1565 190.252 79.1171 190.212 79.0764 190.174C78.718 189.836 78.2624 189.647 77.7768 189.638Z" fill="white"/>
<path d="M79.4059 184.046L79.3376 185.361L79.3363 185.387L79.3424 185.389L79.9043 185.595C79.8028 185.989 79.6491 186.359 79.4525 186.693C79.449 186.699 79.4455 186.705 79.4419 186.711L79.2256 186.597L78.8694 186.41L78.1318 187.466L78.3925 187.863C78.0854 188.082 77.7468 188.249 77.3867 188.353L77.2705 187.734L76.0886 187.71L75.9092 188.411C75.5127 188.331 75.1403 188.174 74.8039 187.956L75.1481 187.335L74.3438 186.357L73.6861 186.783L73.6804 186.787C73.6648 186.762 73.6495 186.736 73.6345 186.71C73.3805 186.274 73.201 185.778 73.116 185.244L73.6947 185.105L73.7623 183.764L73.1653 183.565C73.2714 183.083 73.4542 182.637 73.6979 182.243L74.3106 182.635L75.1396 181.671L74.8127 181.079C75.2359 180.799 75.7144 180.616 76.2235 180.558L76.3528 181.355L77.5334 181.416L77.7203 180.755C77.827 180.708 78.471 181.141 78.7836 181.434L78.4025 182.032L79.1917 183.063L79.7011 182.761C79.8538 183.12 79.9598 183.509 80.0106 183.919L79.4059 184.046ZM76.6081 181.99C76.1678 181.981 75.744 182.118 75.3792 182.381C75.2542 182.471 75.1361 182.576 75.0266 182.695C74.598 183.162 74.3539 183.789 74.3391 184.461C74.3242 185.133 74.5405 185.769 74.948 186.253C75.3556 186.736 75.9057 187.009 76.4969 187.021C77.0881 187.033 77.6498 186.782 78.0784 186.316C78.507 185.849 78.7512 185.222 78.766 184.55C78.7809 183.878 78.5646 183.242 78.157 182.758C78.1155 182.709 78.0725 182.662 78.0281 182.617C77.6369 182.222 77.1391 182.001 76.6081 181.99Z" fill="white"/>
<path d="M73.6315 188.851L73.5375 190.662L73.5356 190.698L73.5441 190.701L74.3167 190.984C74.1771 191.527 73.9658 192.036 73.6954 192.496C73.6906 192.504 73.6857 192.512 73.6808 192.52L73.3834 192.364L72.8936 192.107L71.8795 193.561L72.2379 194.107C71.8156 194.409 71.3501 194.639 70.8549 194.782L70.695 193.93L69.07 193.897L68.8232 194.863C68.278 194.752 67.766 194.536 67.3035 194.235L67.7767 193.38L66.6709 192.034L65.7666 192.621L65.7586 192.626C65.7372 192.591 65.7162 192.556 65.6955 192.52C65.3464 191.92 65.0996 191.236 64.9827 190.502L65.7784 190.31L65.8715 188.463L65.0506 188.189C65.1965 187.526 65.4478 186.911 65.783 186.369L66.6254 186.909L67.7653 185.581L67.3158 184.766C67.8976 184.38 68.5556 184.128 69.2557 184.048L69.4335 185.146L71.0568 185.23L71.3139 184.32C71.4607 184.254 72.3462 184.852 72.7759 185.255L72.2518 186.078L73.3369 187.497L74.0373 187.081C74.2473 187.576 74.393 188.112 74.4628 188.676L73.6315 188.851ZM69.7845 186.02C69.1791 186.008 68.5963 186.196 68.0947 186.558C67.9228 186.682 67.7605 186.827 67.61 186.991C67.0207 187.634 66.685 188.497 66.6645 189.422C66.644 190.348 66.9413 191.224 67.5017 191.89C68.0621 192.556 68.8185 192.931 69.6314 192.948C70.4444 192.964 71.2167 192.619 71.806 191.977C72.3953 191.334 72.7311 190.47 72.7515 189.545C72.7719 188.62 72.4746 187.744 71.9143 187.078C71.8572 187.01 71.798 186.945 71.7369 186.884C71.1991 186.339 70.5146 186.035 69.7845 186.02Z" fill="white"/>
<path d="M280.446 77.7842H263.265C261.357 77.7842 259.811 76.2373 259.811 74.3292V59.3358C259.811 57.4277 261.357 55.8809 263.265 55.8809H280.446C282.354 55.8809 283.901 57.4277 283.901 59.3358V74.3292C283.901 76.2373 282.354 77.7842 280.446 77.7842Z" fill="#B6B6F2"/>
<path d="M274.83 59.8167C274.069 58.9929 273.017 58.4834 271.856 58.4834C269.532 58.4834 267.649 60.5214 267.649 63.0356V64.7676H268.572V63.0356C268.572 61.0766 270.045 59.4826 271.856 59.4826C273.666 59.4826 275.139 61.0766 275.139 63.0356V64.7676H276.063V63.0356C276.063 61.7785 275.592 60.6404 274.83 59.8167Z" fill="white"/>
<path d="M277.018 64.7676H266.693C265.895 64.7676 265.248 65.3991 265.248 66.1781V73.7713C265.248 74.5503 265.895 75.1818 266.693 75.1818H277.018C277.817 75.1818 278.464 74.5503 278.464 73.7713V66.1781C278.464 65.3991 277.817 64.7676 277.018 64.7676ZM272.598 70.0731V71.6067C272.598 71.8386 272.41 72.0266 272.178 72.0266H271.534C271.302 72.0266 271.114 71.8386 271.114 71.6067V70.0731C270.833 69.8528 270.653 69.5105 270.653 69.126C270.653 68.4615 271.191 67.923 271.856 67.923C272.52 67.923 273.059 68.4616 273.059 69.126C273.059 69.5105 272.878 69.8528 272.598 70.0731Z" fill="white"/>
<path d="M369.907 223.726H352.727C350.819 223.726 349.272 222.179 349.272 220.271V205.277C349.272 203.369 350.819 201.822 352.727 201.822H369.907C371.815 201.822 373.362 203.369 373.362 205.277V220.271C373.362 222.179 371.815 223.726 369.907 223.726Z" fill="#B6B6F2"/>
<path d="M367.707 218.928C366.57 220.016 364.765 219.976 363.677 218.838C362.589 217.7 362.629 215.896 363.767 214.808C364.905 213.72 366.709 213.76 367.797 214.898C368.885 216.035 368.845 217.84 367.707 218.928ZM364.276 215.341C363.434 216.146 363.405 217.486 364.21 218.328C365.015 219.17 366.356 219.2 367.198 218.395C368.04 217.589 368.07 216.249 367.264 215.407C366.459 214.565 365.119 214.535 364.276 215.341Z" fill="white"/>
<path d="M355.343 206C355.098 206.235 355.089 206.624 355.324 206.869L363.629 215.552L364.517 214.703L356.212 206.02C355.977 205.775 355.588 205.766 355.343 206Z" fill="white"/>
<path d="M356.357 211.184L355.746 210.545L356.232 210.079L355.87 209.7L356.165 209.418L355.803 209.04L355.228 209.589L354.866 209.21L354.659 209.408L354.048 208.769L356.107 206.799L358.417 209.214L356.357 211.184Z" fill="white"/>
<defs>
<filter id="filter0_i_2804_5145" x="224.426" y="250.356" width="55.0826" height="43.7427" filterUnits="userSpaceOnUse" color-interpolation-filters="sRGB">
<feFlood flood-opacity="0" result="BackgroundImageFix"/>
<feBlend mode="normal" in="SourceGraphic" in2="BackgroundImageFix" result="shape"/>
<feColorMatrix in="SourceAlpha" type="matrix" values="0 0 0 0 0 0 0 0 0 0 0 0 0 0 0 0 0 0 127 0" result="hardAlpha"/>
<feOffset dx="1.06476"/>
<feGaussianBlur stdDeviation="1.06476"/>
<feComposite in2="hardAlpha" operator="arithmetic" k2="-1" k3="1"/>
<feColorMatrix type="matrix" values="0 0 0 0 0 0 0 0 0 0 0 0 0 0 0 0 0 0 0.15 0"/>
<feBlend mode="normal" in2="shape" result="effect1_innerShadow_2804_5145"/>
</filter>
</defs>
</svg>
