<svg width="191" height="178" viewBox="0 0 191 178" fill="none" xmlns="http://www.w3.org/2000/svg">
<path d="M156.806 42.1746H155.832V15.461C155.832 6.92214 148.911 2.4929e-09 140.373 2.4929e-09H83.7802C75.2421 -0.000151682 68.3204 6.92188 68.3203 15.4608V162.014C68.3203 170.553 75.2418 177.475 83.7799 177.475H140.372C148.91 177.475 155.832 170.553 155.832 162.014V61.1898H156.806L156.806 42.1746Z" fill="#3F3D56"/>
<path d="M152.66 14.4254V163.049C152.66 169.523 147.413 174.771 140.939 174.773H83.1858C76.7098 174.774 71.459 169.525 71.457 163.049V14.4255C71.459 7.94917 76.7095 2.70034 83.1853 2.70117H90.1911C89.0312 5.5538 90.4032 8.80669 93.2556 9.96666C93.9204 10.237 94.6311 10.3765 95.3487 10.3774H128.275C131.354 10.3735 133.847 7.87394 133.843 4.79446C133.842 4.07677 133.703 3.36601 133.433 2.70117H140.937C147.41 2.70227 152.658 7.9494 152.66 14.4232L152.66 14.4254Z" fill="white"/>
<path d="M138.345 73.0346H87.0246C86.4999 73.034 86.0748 72.6088 86.0742 72.0841V59.3528C86.0749 58.8282 86.5 58.4031 87.0246 58.4023H138.345C138.87 58.403 139.295 58.8282 139.296 59.3528V72.0844C139.295 72.609 138.87 73.0341 138.345 73.0348L138.345 73.0346ZM87.0246 58.7824C86.7097 58.7827 86.4545 59.0379 86.4543 59.3527V72.0844C86.4545 72.3992 86.7097 72.6544 87.0246 72.6547H138.345C138.66 72.6544 138.915 72.3992 138.916 72.0844V59.3527C138.915 59.0379 138.66 58.7827 138.345 58.7824H87.0246Z" fill="#E6E6E6"/>
<path d="M102.896 62.9883C102.528 62.9883 102.23 63.2861 102.23 63.6536C102.23 64.0211 102.528 64.319 102.896 64.319H134.258C134.625 64.3331 134.935 64.0468 134.949 63.6795C134.963 63.3122 134.676 63.0031 134.309 62.989C134.299 62.9887 134.29 62.9885 134.28 62.9886H102.896L102.896 62.9883Z" fill="#E6E6E6"/>
<path d="M102.896 66.9785C102.528 66.9785 102.23 67.2764 102.23 67.6439C102.23 68.0114 102.528 68.3092 102.896 68.3092H134.258C134.625 68.3233 134.935 68.037 134.949 67.6697C134.963 67.3025 134.676 66.9933 134.309 66.9793C134.299 66.9789 134.29 66.9787 134.28 66.9788L102.896 66.9785Z" fill="#E6E6E6"/>
<path d="M138.345 94.2553H87.0246C86.4999 94.2547 86.0748 93.8295 86.0742 93.3048V80.5735C86.0749 80.0489 86.5 79.6237 87.0246 79.623H138.345C138.87 79.6237 139.295 80.0489 139.296 80.5735V93.3051C139.295 93.8296 138.87 94.2546 138.345 94.2553ZM87.0246 80.0031C86.7097 80.0034 86.4545 80.2586 86.4543 80.5735V93.3051C86.4545 93.62 86.7097 93.8752 87.0246 93.8755H138.345C138.66 93.8752 138.915 93.62 138.916 93.3051V80.5735C138.915 80.2586 138.66 80.0034 138.345 80.0031H87.0246Z" fill="#E6E6E6"/>
<path d="M102.896 84.2764C102.528 84.2765 102.23 84.5745 102.23 84.942C102.231 85.3093 102.528 85.6069 102.896 85.6071H134.258C134.625 85.605 134.922 85.3054 134.92 84.9379C134.918 84.5817 134.636 84.2903 134.28 84.2766H102.895L102.896 84.2764Z" fill="#E6E6E6"/>
<path d="M102.896 88.2695C102.528 88.2697 102.23 88.5677 102.23 88.9352C102.231 89.3024 102.528 89.6001 102.896 89.6003H134.258C134.625 89.5982 134.922 89.2986 134.92 88.931C134.918 88.5749 134.636 88.2835 134.28 88.2698H102.895L102.896 88.2695Z" fill="#E6E6E6"/>
<path d="M138.345 115.544H87.0246C86.4999 115.544 86.0748 115.119 86.0742 114.594V101.863C86.0749 101.338 86.5 100.913 87.0246 100.912H138.345C138.87 100.913 139.295 101.338 139.296 101.863V114.594C139.295 115.119 138.87 115.544 138.345 115.545L138.345 115.544ZM87.0246 101.292C86.7097 101.292 86.4545 101.548 86.4543 101.863V114.594C86.4545 114.909 86.7097 115.164 87.0246 115.165H138.345C138.66 115.164 138.915 114.909 138.916 114.594V101.863C138.915 101.548 138.66 101.292 138.345 101.292H87.0246Z" fill="#E6E6E6"/>
<path d="M102.896 105.567C102.529 105.567 102.231 105.865 102.23 106.232C102.23 106.6 102.528 106.898 102.895 106.898C102.896 106.898 102.896 106.898 102.896 106.898H134.259C134.626 106.912 134.935 106.626 134.949 106.259C134.963 105.891 134.677 105.582 134.309 105.568C134.3 105.568 134.29 105.568 134.28 105.568H102.896L102.896 105.567Z" fill="#E6E6E6"/>
<path d="M102.896 109.56C102.528 109.56 102.23 109.858 102.23 110.225C102.231 110.592 102.528 110.89 102.896 110.89H134.258C134.625 110.904 134.934 110.618 134.948 110.251C134.962 109.884 134.676 109.574 134.309 109.56C134.299 109.56 134.289 109.56 134.28 109.56H102.895L102.896 109.56Z" fill="#E6E6E6"/>
<path d="M185.686 177.939H1.27883C1.01139 177.939 0.794922 177.822 0.794922 177.678C0.794922 177.534 1.01166 177.417 1.27883 177.417H185.686C185.953 177.417 186.17 177.534 186.17 177.678C186.17 177.822 185.954 177.939 185.686 177.939Z" fill="#E6E6E6"/>
<path d="M177.874 167.76C176.272 168.323 174.492 168.009 173.178 166.932C171.534 165.552 171.018 163.278 170.598 161.171L169.357 154.942L171.955 156.732C173.824 158.018 175.734 159.346 177.028 161.21C178.322 163.073 178.887 165.617 177.847 167.634" fill="#E6E6E6"/>
<path d="M177.476 175.735C177.804 173.352 178.14 170.939 177.91 168.531C177.707 166.392 177.054 164.303 175.726 162.59C175.021 161.683 174.163 160.905 173.191 160.293C172.937 160.133 172.704 160.535 172.956 160.694C174.638 161.757 175.94 163.327 176.672 165.178C177.481 167.236 177.611 169.479 177.471 171.665C177.386 172.987 177.208 174.3 177.028 175.611C176.999 175.734 177.069 175.859 177.19 175.897C177.314 175.93 177.441 175.858 177.476 175.735L177.476 175.735Z" fill="#F2F2F2"/>
<path d="M175.121 171.912C174.434 172.956 173.252 173.567 172.002 173.522C170.424 173.447 169.107 172.345 167.922 171.299L164.418 168.204L166.737 168.093C168.405 168.013 170.116 167.939 171.706 168.453C173.296 168.968 174.76 170.206 175.051 171.849" fill="#E6E6E6"/>
<path d="M178.397 177.104C176.824 174.318 174.997 171.222 171.734 170.232C170.827 169.958 169.876 169.86 168.932 169.943C168.634 169.968 168.708 170.427 169.007 170.401C170.589 170.27 172.169 170.688 173.479 171.585C174.74 172.443 175.722 173.637 176.553 174.902C177.062 175.677 177.518 176.486 177.974 177.293C178.119 177.551 178.545 177.365 178.397 177.104Z" fill="#F2F2F2"/>
<path d="M96.2486 68.4633C97.8074 66.9044 97.8074 64.3769 96.2486 62.8179C94.6898 61.259 92.1625 61.259 90.6037 62.8179C89.0449 64.3769 89.0449 66.9044 90.6037 68.4633C92.1625 70.0223 94.6898 70.0223 96.2486 68.4633Z" fill="#6C63FF"/>
<path d="M91.5148 64.8936C91.4688 64.8936 91.4316 65.1915 91.4316 65.5588C91.4316 65.9261 91.4688 66.2243 91.5148 66.2243H95.4397C95.4856 66.2303 95.5236 65.9374 95.5243 65.57C95.5498 65.3413 95.5218 65.1098 95.4424 64.8938H91.5148L91.5148 64.8936Z" fill="#E6E6E6"/>
<path d="M96.2486 89.7631C97.8074 88.2042 97.8074 85.6767 96.2486 84.1177C94.6898 82.5588 92.1625 82.5588 90.6037 84.1177C89.0449 85.6767 89.0449 88.2042 90.6037 89.7631C92.1625 91.3221 94.6898 91.3221 96.2486 89.7631Z" fill="#6C63FF"/>
<path d="M91.5167 86.1943C91.4708 86.1943 91.4336 86.4922 91.4336 86.8596C91.4336 87.2269 91.4708 87.525 91.5167 87.525H95.4416C95.4876 87.531 95.5255 87.2381 95.5263 86.8708C95.5517 86.6421 95.5237 86.4106 95.4444 86.1945H91.5167L91.5167 86.1943Z" fill="#E6E6E6"/>
<path d="M93.6712 112.223C95.8715 112.086 97.5442 110.191 97.4073 107.991C97.2704 105.79 95.3757 104.117 93.1754 104.254C90.9751 104.391 89.3024 106.286 89.4393 108.486C89.5762 110.687 91.4709 112.36 93.6712 112.223Z" fill="#6C63FF"/>
<path d="M91.5148 107.48C91.4688 107.48 91.4316 107.778 91.4316 108.146C91.4316 108.513 91.4688 108.811 91.5148 108.811H95.4397C95.4856 108.817 95.5236 108.524 95.5243 108.157C95.5498 107.928 95.5218 107.697 95.4424 107.481H91.5148L91.5148 107.48Z" fill="#E6E6E6"/>
<g filter="url(#filter0_d_10318_48583)">
<path d="M151.094 75.2291C170.485 75.2291 186.205 59.5078 186.205 40.1146C186.205 20.7213 170.485 5 151.094 5C131.702 5 115.982 20.7213 115.982 40.1146C115.982 59.5078 131.702 75.2291 151.094 75.2291Z" fill="#5B5BE1"/>
</g>
<path d="M159.706 46.6704L144.536 31.4998C143.968 30.9318 143.048 30.9318 142.48 31.4998C141.912 32.0678 141.912 32.9888 142.48 33.5568L157.649 48.7274C158.217 49.2954 159.138 49.2954 159.706 48.7274C160.274 48.1593 160.274 47.2384 159.706 46.6704Z" fill="white"/>
<path d="M157.649 31.4992L142.48 46.6697C141.912 47.2378 141.912 48.1587 142.48 48.7267C143.048 49.2948 143.968 49.2948 144.536 48.7267L159.706 33.5562C160.274 32.9882 160.274 32.0672 159.706 31.4992C159.138 30.9312 158.217 30.9312 157.649 31.4992Z" fill="white"/>
<path d="M23.3316 113.903C24.6388 113.44 25.3235 112.005 24.8608 110.698C24.8115 110.558 24.7499 110.424 24.6769 110.295L30.5609 103.587L25.9678 102.953L21.0843 109.421C19.9204 110.188 19.5989 111.754 20.3664 112.918C21.0086 113.892 22.2344 114.299 23.3316 113.903Z" fill="#9F616A"/>
<path d="M30.4291 173.355L26.3254 173.355L24.373 157.524L30.4298 157.525L30.4291 173.355Z" fill="#9F616A"/>
<path d="M31.4746 177.333L18.2422 177.333V177.165C18.2424 174.321 20.5482 172.015 23.3926 172.015H23.3929L31.4748 172.015L31.4746 177.333Z" fill="#2F2E41"/>
<path d="M51.9092 169.92L47.99 171.137L41.4316 156.598L47.216 154.802L51.9092 169.92Z" fill="#9F616A"/>
<path d="M54.0878 173.41L41.4506 177.334L41.4009 177.174C40.5576 174.457 42.0759 171.571 44.7923 170.728L44.7926 170.728L52.5111 168.331L54.0878 173.41Z" fill="#2F2E41"/>
<path d="M27.2848 100.371L21.207 107.332L25.9652 107.761L27.2848 100.371Z" fill="#E6E6E6"/>
<path d="M24.9116 109.344C24.9116 109.344 22.8004 110.399 22.5365 115.15C22.2726 119.9 23.3283 132.305 23.3283 132.305C23.3283 132.305 22.2728 137.847 23.3283 142.862C24.3837 147.876 22.2728 166.085 23.5922 166.085C24.9115 166.085 31.7726 166.877 32.0365 166.085C32.3004 165.293 32.5643 153.417 32.5643 153.417C32.5643 153.417 34.6755 147.347 32.5643 143.653C32.5643 143.653 39.9354 156.526 44.7031 166.35C45.7465 168.5 53.6753 166.086 52.3559 163.71C51.0365 161.335 47.8699 150.515 47.8699 150.515C47.8699 150.515 45.4949 142.597 41.2728 139.167L43.384 122.276C43.384 122.276 47.8702 110.928 45.2317 109.345C42.5932 107.761 24.9116 109.344 24.9116 109.344Z" fill="#2F2E41"/>
<path d="M37.6773 64.3157C40.3567 61.6361 40.3567 57.2916 37.6773 54.612C34.998 51.9324 30.6538 51.9324 27.9745 54.612C25.2951 57.2916 25.2951 61.6361 27.9745 64.3157C30.6538 66.9953 34.998 66.9953 37.6773 64.3157Z" fill="#A0616A"/>
<path d="M40.48 66.8535L31.9506 71.8678C31.9506 71.8678 28.6846 73.7071 27.4646 76.882C26.1642 80.2657 26.92 85.0297 27.4646 86.1189C28.52 88.2302 27.0219 93.5084 27.0219 93.5084L25.7026 105.648C25.7026 105.648 20.9526 110.135 24.6471 110.662C28.3416 111.19 34.9386 110.399 38.897 110.662C42.8554 110.926 47.3413 111.454 46.022 108.815C44.7026 106.175 43.1193 104.328 44.7026 99.0508C45.9416 94.9205 45.8879 79.4775 45.806 72.9558C45.7831 71.1347 44.8182 69.4557 43.2564 68.5191L40.48 66.8535Z" fill="#E5E5E5"/>
<path opacity="0.1" d="M36.6543 75.167L37.4459 91.2655L29.7738 106.803L28.4727 106.308L36.3894 91.7931L36.6543 75.167Z" fill="black"/>
<path opacity="0.1" d="M45.3637 94.6965V92.8486L36.3926 107.628L45.3637 94.6965Z" fill="black"/>
<path d="M27.9573 53.1075L26.824 52.654C26.824 52.654 29.196 50.0428 32.4952 50.2698L31.5671 49.248C31.5671 49.248 33.8355 48.3398 35.898 50.7238C36.9822 51.9771 38.2364 53.4504 39.0191 55.1098H40.2339L39.727 56.2262L41.5013 57.3427L39.68 57.1429C39.8526 58.1068 39.7935 59.0979 39.5077 60.0344L39.5577 60.9169C39.5577 60.9169 37.4455 57.6484 37.4455 57.1949V58.3303C37.4455 58.3303 36.3112 57.3085 36.3112 56.6273L35.6924 57.4221L35.3831 56.1736L31.5678 57.4221L32.186 56.3998L29.814 56.7404L30.7421 55.4918C30.7421 55.4918 28.0611 56.9677 27.958 58.2167C27.8549 59.4658 26.5146 61.055 26.5146 61.055L25.8958 59.9195C25.8959 59.9195 24.968 54.8106 27.9573 53.1075Z" fill="#2F2E41"/>
<path d="M32.3974 114.65C33.6017 113.963 34.0208 112.429 33.3334 111.225C33.2602 111.096 33.1757 110.975 33.081 110.861L37.681 103.215L33.0482 103.407L29.3902 110.638C28.381 111.6 28.3425 113.198 29.3044 114.208C30.1093 115.052 31.388 115.235 32.3974 114.65Z" fill="#9F616A"/>
<path d="M42.8556 70.2854L44.8346 69.8896C44.8346 69.8896 50.772 74.2441 48.9248 82.9531C47.0776 91.6622 38.8972 104.858 38.8972 104.858C38.8972 104.858 37.0495 107.233 36.5221 107.761C35.9948 108.288 34.9388 107.761 35.4667 108.553C35.9945 109.344 34.6749 109.872 34.6749 109.872C34.6749 109.872 28.8694 109.872 29.3972 107.761C29.9251 105.649 38.8972 90.6053 38.8972 90.6053L37.5779 76.6181C37.5779 76.6181 36.5219 69.7576 42.8556 70.2854Z" fill="#E5E5E5"/>
<defs>
<filter id="filter0_d_10318_48583" x="111.982" y="5" width="78.2227" height="78.2295" filterUnits="userSpaceOnUse" color-interpolation-filters="sRGB">
<feFlood flood-opacity="0" result="BackgroundImageFix"/>
<feColorMatrix in="SourceAlpha" type="matrix" values="0 0 0 0 0 0 0 0 0 0 0 0 0 0 0 0 0 0 127 0" result="hardAlpha"/>
<feOffset dy="4"/>
<feGaussianBlur stdDeviation="2"/>
<feComposite in2="hardAlpha" operator="out"/>
<feColorMatrix type="matrix" values="0 0 0 0 0.360577 0 0 0 0 0.360577 0 0 0 0 0.360577 0 0 0 0.15 0"/>
<feBlend mode="normal" in2="BackgroundImageFix" result="effect1_dropShadow_10318_48583"/>
<feBlend mode="normal" in="SourceGraphic" in2="effect1_dropShadow_10318_48583" result="shape"/>
</filter>
</defs>
</svg>
