<svg width="138" height="117" viewBox="0 0 138 117" fill="none" xmlns="http://www.w3.org/2000/svg">
<path opacity="0.5" d="M70.4779 116.049C107.346 116.049 137.234 111.915 137.234 106.816C137.234 101.716 107.346 97.582 70.4779 97.582C33.6097 97.582 3.72217 101.716 3.72217 106.816C3.72217 111.915 33.6097 116.049 70.4779 116.049Z" fill="#F5F5F5"/>
<path d="M58.4719 90.243C58.4719 89.2805 58.4417 87.9872 58.2305 86.4232C58.0495 85.1299 57.4161 80.9792 55.2442 77.8211C51.926 73.0689 48.1553 75.2044 44.2942 70.3018C42.0921 67.5047 42.6954 66.0309 40.1917 63.7751C37.9595 61.79 35.5764 61.0682 33.0124 60.6471C26.557 59.5944 16.0293 60.5869 16.0293 60.5869C16.9041 70.753 20.3429 74.9638 23.2991 76.9188C27.4619 79.6859 30.6595 77.9715 34.3396 81.28C39.1661 85.581 35.9987 90.4234 40.4933 94.9049C40.4933 94.9049 42.4541 96.8599 57.7177 99.7473L58.4719 90.243Z" fill="#F5F5F5"/>
<path d="M57.7479 99.7776C57.7479 99.7776 45.9533 79.7462 41.4586 75.8362C36.964 71.9262 16.0293 60.6172 16.0293 60.6172" stroke="#D6D6D6" stroke-width="0.227463" stroke-miterlimit="10" stroke-linecap="round" stroke-linejoin="round"/>
<path d="M31.1725 69.1289L17.9902 69.8808" stroke="#D6D6D6" stroke-width="0.227463" stroke-miterlimit="10" stroke-linecap="round" stroke-linejoin="round"/>
<path d="M33.8872 70.7528L34.762 61.0078" stroke="#D6D6D6" stroke-width="0.227463" stroke-miterlimit="10" stroke-linecap="round" stroke-linejoin="round"/>
<path d="M39.8903 74.6328L28.4878 78.8135" stroke="#D6D6D6" stroke-width="0.227463" stroke-miterlimit="10" stroke-linecap="round" stroke-linejoin="round"/>
<path d="M44.7163 79.6255L46.1642 72.2266" stroke="#D6D6D6" stroke-width="0.227463" stroke-miterlimit="10" stroke-linecap="round" stroke-linejoin="round"/>
<path d="M48.3968 84.8594L37.3262 86.8745" stroke="#D6D6D6" stroke-width="0.227463" stroke-miterlimit="10" stroke-linecap="round" stroke-linejoin="round"/>
<path d="M51.2622 89.2508L55.425 78.1523" stroke="#D6D6D6" stroke-width="0.227463" stroke-miterlimit="10" stroke-linecap="round" stroke-linejoin="round"/>
<path d="M53.8868 93.4316L41.0967 95.3265" stroke="#D6D6D6" stroke-width="0.227463" stroke-miterlimit="10" stroke-linecap="round" stroke-linejoin="round"/>
<path d="M51.4435 91.8074C51.0815 90.9352 50.5687 89.7321 49.7543 88.3787C49.0906 87.2357 46.9187 83.6565 43.691 81.5812C38.8043 78.4532 36.1497 81.8519 30.6898 78.784C27.5828 77.0396 27.5828 75.4455 24.3853 74.3326C21.5799 73.3401 19.0762 73.5807 16.5423 74.1822C10.1774 75.656 0.826172 80.5887 0.826172 80.5887C5.56212 89.6419 10.3282 92.2285 13.8274 92.9203C18.7142 93.8828 21.0369 91.1157 25.7125 92.7398C31.8059 94.8753 30.7501 100.56 36.6324 102.996C36.6324 102.996 39.1964 104.049 54.4299 100.921L51.4435 91.8074Z" fill="#F5F5F5"/>
<path d="M54.43 100.891C54.43 100.891 35.8482 86.875 30.2073 84.9801C24.5362 83.0552 0.856445 80.5889 0.856445 80.5889" stroke="#D6D6D6" stroke-width="0.227463" stroke-miterlimit="10" stroke-linecap="round" stroke-linejoin="round"/>
<path d="M18.1409 82.6943L6.22559 88.409" stroke="#D6D6D6" stroke-width="0.227463" stroke-miterlimit="10" stroke-linecap="round" stroke-linejoin="round"/>
<path d="M21.2781 83.1755L18.3521 73.8516" stroke="#D6D6D6" stroke-width="0.227463" stroke-miterlimit="10" stroke-linecap="round" stroke-linejoin="round"/>
<path d="M28.2766 84.4688L19.3477 92.6798" stroke="#D6D6D6" stroke-width="0.227463" stroke-miterlimit="10" stroke-linecap="round" stroke-linejoin="round"/>
<path d="M34.6715 87.2359L33.1934 79.8369" stroke="#D6D6D6" stroke-width="0.227463" stroke-miterlimit="10" stroke-linecap="round" stroke-linejoin="round"/>
<path d="M40.0711 90.6641L30.6294 96.7396" stroke="#D6D6D6" stroke-width="0.227463" stroke-miterlimit="10" stroke-linecap="round" stroke-linejoin="round"/>
<path d="M44.4151 93.6424L44.0229 81.792" stroke="#D6D6D6" stroke-width="0.227463" stroke-miterlimit="10" stroke-linecap="round" stroke-linejoin="round"/>
<path d="M48.4573 96.5L37.3564 103.117" stroke="#D6D6D6" stroke-width="0.227463" stroke-miterlimit="10" stroke-linecap="round" stroke-linejoin="round"/>
<path d="M94.4291 101.041H54.2188L58.0799 74.543H90.5679L94.4291 101.041Z" fill="#8F8FEB"/>
<path d="M124.323 79.2048H24.295C21.7611 79.2048 19.6797 77.1596 19.6797 74.603V11.802C19.6797 9.27552 21.7309 7.2002 24.295 7.2002H124.323C126.857 7.2002 128.938 9.24544 128.938 11.802V74.6331C128.938 77.1596 126.857 79.2048 124.323 79.2048Z" fill="#8F8FEB"/>
<path d="M121.668 71.6559H26.9493C24.4154 71.6559 22.334 69.6107 22.334 67.0541V13.968C22.334 11.4415 24.3852 9.36621 26.9493 9.36621H121.668C124.202 9.36621 126.284 11.4115 126.284 13.968V67.0842C126.284 69.6107 124.232 71.6559 121.668 71.6559Z" fill="#E9E9FB"/>
<path d="M102.966 102.966H45.6821V100.199C45.6821 98.063 47.4016 96.3486 49.5433 96.3486H99.0747C101.216 96.3486 102.936 98.063 102.936 100.199V102.966H102.966Z" fill="#8282F7"/>
<path d="M25.7427 71.6553H120.974" stroke="#262626" stroke-width="0.488432" stroke-miterlimit="10" stroke-linecap="round" stroke-linejoin="round"/>
<path d="M48.2158 101.612V100.168C48.2158 99.2961 48.9398 98.5742 49.8146 98.5742H92.7699" stroke="#262626" stroke-width="0.488432" stroke-miterlimit="10" stroke-linecap="round" stroke-linejoin="round"/>
<path d="M88.1851 81.3105L89.6933 92.9203" stroke="#262626" stroke-width="0.488432" stroke-miterlimit="10" stroke-linecap="round" stroke-linejoin="round"/>
<path d="M73.3436 77.8821C74.5764 77.8821 75.5758 76.8856 75.5758 75.6564C75.5758 74.4271 74.5764 73.4307 73.3436 73.4307C72.1107 73.4307 71.1113 74.4271 71.1113 75.6564C71.1113 76.8856 72.1107 77.8821 73.3436 77.8821Z" fill="white"/>
<path d="M105.047 13.6064H116.872C119.135 13.6064 120.944 15.4412 120.944 17.6669V42.1797" stroke="white" stroke-width="0.488432" stroke-miterlimit="10" stroke-linecap="round" stroke-linejoin="round"/>
<path d="M114.097 21.367C114.791 19.7428 115.454 18.4495 116.118 17.5773C116.781 16.675 117.656 15.9531 118.712 15.4418C119.345 15.1109 119.979 14.8703 120.673 14.75C121.367 14.5996 122 14.4192 122.603 14.2086C123.207 13.9981 123.78 13.6973 124.293 13.3364C124.805 12.9755 125.228 12.3739 125.56 11.5618C126.133 10.2084 126.133 9.09552 125.62 8.25336C125.107 7.4112 124.323 6.7495 123.297 6.32842C121.819 5.72688 120.643 5.6968 119.738 6.29835C118.833 6.89989 118.018 7.83228 117.324 9.18575L111.925 6.96004C112.498 5.60657 113.222 4.46364 114.127 3.53125C115.032 2.59886 116.057 1.93716 117.204 1.48601C118.35 1.03485 119.587 0.854387 120.914 0.914541C122.241 0.974695 123.599 1.30554 124.986 1.87701C128.003 3.11017 130.114 4.73434 131.351 6.65927C132.588 8.61428 132.618 10.9603 131.472 13.6973C131.11 14.5996 130.688 15.3215 130.235 15.923C129.783 16.5246 129.24 17.0058 128.667 17.3968C128.063 17.7878 127.43 18.1187 126.706 18.3593C125.982 18.5999 125.167 18.8405 124.293 19.0811C123.478 19.2917 122.814 19.5323 122.272 19.7729C121.729 20.0135 121.276 20.3143 120.884 20.6752C120.492 21.0361 120.19 21.4572 119.919 21.9084C119.647 22.3595 119.406 22.9009 119.134 23.5325L114.097 21.367ZM110.567 29.3374L112.83 23.8935L118.471 26.2395L116.208 31.6834L110.567 29.3374Z" fill="#4A4ADE"/>
<path d="M81.2166 29.5474V25.096C81.2166 23.6222 80.0401 22.4492 78.562 22.4492H52.6199C51.1418 22.4492 49.9653 23.6222 49.9653 25.096V29.5474V59.2335C49.9653 60.7073 51.1418 61.8803 52.6199 61.8803H94.1273C95.6054 61.8803 96.7819 60.7073 96.7819 59.2335V32.1942C96.7819 30.7204 95.6054 29.5474 94.1273 29.5474H81.2166Z" fill="white"/>
<path d="M78.5923 35.7734L73.3436 40.9768L68.125 35.7734L64.9878 38.9315L70.2064 44.1349L64.9878 49.3382L68.125 52.4963L73.3436 47.293L78.5923 52.4963L81.7295 49.3382L76.5109 44.1349L81.7295 38.9315L78.5923 35.7734Z" fill="#D6D6D6"/>
<path d="M16.7233 102.726V99.2969H10.3584V108.741L24.6869 108.952V107.237L16.7233 102.726Z" fill="#F7A99C"/>
<path d="M25.1995 108.952V108.139C25.1995 107.297 24.747 106.545 23.9929 106.154L17.9598 102.906C16.1499 103.387 14.7623 103.327 13.797 103.177C12.1983 102.906 10.69 102.184 10.1772 102.786C10.0264 102.966 10.0264 103.177 10.0264 103.327V108.32C10.0264 108.681 10.2979 108.952 10.6598 108.952H25.1995Z" fill="#5B5BE1"/>
<path d="M25.1995 108.41H10.0264" stroke="#3897E9" stroke-width="0.358021" stroke-miterlimit="10" stroke-linecap="round" stroke-linejoin="round"/>
<path d="M21.851 105.071L21.0063 106.184" stroke="#3897E9" stroke-width="0.358021" stroke-miterlimit="10" stroke-linecap="round" stroke-linejoin="round"/>
<path d="M21.2177 104.711L20.373 105.824" stroke="#3897E9" stroke-width="0.358021" stroke-miterlimit="10" stroke-linecap="round" stroke-linejoin="round"/>
<path d="M20.5844 104.38L19.7397 105.523" stroke="#3897E9" stroke-width="0.358021" stroke-miterlimit="10" stroke-linecap="round" stroke-linejoin="round"/>
<path d="M19.6189 103.809C18.5933 104.2 16.9041 104.711 14.7623 104.681C12.6809 104.681 11.052 104.2 10.0264 103.809" stroke="#3897E9" stroke-width="0.358021" stroke-miterlimit="10" stroke-linecap="round" stroke-linejoin="round"/>
<path d="M34.7926 102.726V99.2969H28.4277V108.741L42.7562 108.952V107.237L34.7926 102.726Z" fill="#F7A99C"/>
<path d="M43.2688 108.952V108.139C43.2688 107.297 42.8164 106.545 42.0622 106.154L36.0292 102.906C34.2193 103.387 32.8317 103.327 31.8664 103.177C30.2676 102.906 28.7593 102.184 28.2465 102.786C28.0957 102.966 28.0957 103.177 28.0957 103.327V108.32C28.0957 108.681 28.3672 108.952 28.7292 108.952H43.2688Z" fill="#5B5BE1"/>
<path d="M43.2688 108.41H28.0957" stroke="#3897E9" stroke-width="0.358021" stroke-miterlimit="10" stroke-linecap="round" stroke-linejoin="round"/>
<path d="M39.9203 105.071L39.0757 106.184" stroke="#3897E9" stroke-width="0.358021" stroke-miterlimit="10" stroke-linecap="round" stroke-linejoin="round"/>
<path d="M39.287 104.711L38.4424 105.824" stroke="#3897E9" stroke-width="0.358021" stroke-miterlimit="10" stroke-linecap="round" stroke-linejoin="round"/>
<path d="M38.6537 104.38L37.8091 105.523" stroke="#3897E9" stroke-width="0.358021" stroke-miterlimit="10" stroke-linecap="round" stroke-linejoin="round"/>
<path d="M37.6883 103.809C36.6626 104.2 34.9734 104.711 32.8317 104.681C30.7502 104.681 29.1213 104.2 28.0957 103.809" stroke="#3897E9" stroke-width="0.358021" stroke-miterlimit="10" stroke-linecap="round" stroke-linejoin="round"/>
<path d="M31.1421 53.8506C31.1421 53.8506 36.3607 70.393 37.1751 72.6789C37.9896 74.9647 38.7136 78.183 38.5627 80.9802C38.3817 83.7773 35.697 101.072 35.697 101.072H27.8239C27.8239 101.072 27.2809 82.8149 27.0094 81.4012C26.7379 79.9575 24.4454 71.8969 24.4454 71.8969C24.4454 71.8969 23.6912 81.3712 23.0578 83.8676C22.4243 86.394 17.3867 101.372 17.3867 101.372H10.0264L13.1334 53.9107H31.1421V53.8506Z" fill="#D0D0F6"/>
<path d="M43.1177 43.7748C43.1177 43.7748 45.6214 41.6694 46.2549 40.2858C46.7978 39.1128 47.552 37.0375 47.7631 36.466C47.7933 36.3758 47.8838 36.3457 47.9743 36.3457L48.1251 36.3758C48.5776 36.4961 48.8792 36.9472 48.7586 37.3984L48.5173 38.421L51.1416 36.7066C51.3528 36.5562 51.6846 36.6465 51.8053 36.857C51.9259 37.0676 51.8656 37.3382 51.6846 37.4586L49.935 38.7218L52.8309 37.3683C53.0421 37.2781 53.3135 37.3382 53.4342 37.5488C53.5549 37.7894 53.4945 38.0601 53.2532 38.1804H53.2834C53.5247 38.1203 53.7962 38.2406 53.9169 38.4511C54.0375 38.7218 53.9169 39.0526 53.6454 39.173L53.4644 39.2331C53.7057 39.173 53.947 39.2933 54.0073 39.564C54.0677 39.9249 53.9168 40.2858 53.585 40.4663C52.8007 40.8573 52.3181 40.9776 51.564 41.519C50.9908 41.94 51.1718 42.2408 50.5685 43.0228C49.8144 43.9853 49.1507 44.0154 47.8536 44.9778C47.371 45.3388 46.6772 45.9102 45.9532 46.7524L43.1177 43.7748Z" fill="#F7A99C"/>
<path d="M51.8354 36.9775C51.8354 36.9775 51.9561 37.2482 51.7148 37.4287C51.4734 37.6092 49.5127 39.0829 49.5127 39.0829" stroke="#262626" stroke-width="0.202553" stroke-miterlimit="10" stroke-linecap="round" stroke-linejoin="round"/>
<path d="M53.253 38.2402L50.5381 39.5035" stroke="#262626" stroke-width="0.202553" stroke-miterlimit="10" stroke-linecap="round" stroke-linejoin="round"/>
<path d="M53.5249 39.293L50.8101 40.5261" stroke="#262626" stroke-width="0.202553" stroke-miterlimit="10" stroke-linecap="round" stroke-linejoin="round"/>
<path d="M48.306 36.4355C48.306 36.4355 48.7887 36.7363 48.7585 37.0672C48.7585 37.398 48.2759 39.5335 48.2759 39.5335" stroke="#262626" stroke-width="0.202553" stroke-miterlimit="10" stroke-linecap="round" stroke-linejoin="round"/>
<path d="M27.824 101.041C27.824 101.041 27.1 82.3331 27.0699 81.8519C27.0095 81.3706 24.355 71.4752 24.355 71.4752L24.8376 67.084C24.8376 67.084 30.2372 80.3179 30.2372 81.1902C30.2372 82.0624 30.8405 101.041 30.8405 101.041H27.824Z" fill="#B6B6F2"/>
<path d="M23.3594 82.6649L25.2598 62.002" stroke="#262626" stroke-width="0.202553" stroke-miterlimit="10" stroke-linecap="round" stroke-linejoin="round"/>
<path d="M35.9686 99.4473H27.7637L27.824 101.041H35.667L35.9686 99.4473Z" fill="#262626"/>
<path d="M17.8392 99.8984H10.1169L10.0264 101.312H17.3565L17.8392 99.8984Z" fill="#262626"/>
<path d="M36.4512 74.3027C37.4768 77.5811 37.6578 81.1002 36.9338 84.4688" stroke="white" stroke-width="0.202553" stroke-miterlimit="10" stroke-linecap="round" stroke-linejoin="round"/>
<path d="M45.1993 41.549C45.1993 41.549 43.872 42.5716 42.3637 42.8423C40.584 43.1431 39.0456 42.0904 38.6232 41.8197C37.5071 41.0377 37.0848 40.1354 36.3307 39.0827C34.1286 35.9246 32.741 33.9696 30.8406 32.8567C29.8451 32.2852 28.186 31.6235 25.5918 31.8341C25.0187 31.6235 24.0836 31.804 23.4501 31.804C22.9373 31.804 22.3943 31.804 21.8815 31.804C20.8559 31.9243 13.2844 32.7965 12.0175 31.6235C11.5046 31.1724 11.5046 30.6911 11.5046 30.6911C11.5046 30.3001 11.746 29.9091 12.3493 29.458C13.8877 28.285 16.6931 27.4428 17.6282 27.142L17.0551 22.8711C17.0551 22.8711 17.0551 22.8711 15.7881 22.8711C14.5212 22.8711 10.0567 23.623 7.64349 24.4652C4.26498 25.6382 2.45506 26.5104 1.5501 28.4654C0.433984 30.9017 1.61043 33.5485 1.94225 34.2102C3.48068 37.639 6.91952 39.0225 9.00093 39.8647C10.841 40.6166 12.4699 40.8873 13.5861 41.0377L12.6208 56.5875L30.5691 57.55H33.2538C33.465 55.1739 32.4394 47.775 32.56 45.3688C34.8526 48.557 38.6534 50.151 42.2431 49.4593C46.2249 48.7073 48.246 45.459 48.5476 44.9176C47.16 42.1505 45.1993 41.549 45.1993 41.549Z" fill="#4450E4"/>
<path d="M22.9071 40.4066H22.7261V32.9775H23.8422V39.4441C23.8724 39.9855 23.45 40.4066 22.9071 40.4066Z" fill="white"/>
<path d="M33.2838 56.7076C32.6805 56.8279 24.1739 58.2415 18.171 51.9253C13.1033 46.6017 13.7066 39.8644 13.8272 38.8418C13.5256 43.5338 13.1937 48.1958 12.8921 52.8878H12.8619L12.6206 56.5572L15.426 56.7076V56.6775C19.619 57.0084 23.9326 57.249 28.3971 57.3994C30.026 57.4595 31.6549 57.4896 33.2537 57.5197C33.2537 57.249 33.2537 56.9783 33.2838 56.7076Z" fill="#3748C4"/>
<path d="M28.5181 26.18C28.8198 24.616 28.7896 23.3829 28.6991 22.6008C28.6388 21.9993 28.5181 21.5481 28.2165 21.1271C28.1561 21.0368 27.6132 20.3451 26.7082 20.1646C25.6223 19.9541 25.3508 20.7361 23.8123 20.9165C22.4851 21.0669 22.2136 20.5556 21.3086 20.9466C20.3433 21.3677 19.8607 22.3302 19.7099 22.6309C19.6495 22.7512 19.3177 23.4129 19.2875 24.3453C19.2574 25.0672 19.4384 25.6086 19.4987 25.8492C19.7702 26.7816 20.102 28.2253 20.4942 30.5111C20.7053 30.5111 20.9165 30.4811 21.1276 30.4811C23.571 29.0073 26.0446 27.5936 28.5181 26.18Z" fill="#262626"/>
<path d="M23.2389 33.9095C22.0625 33.9095 21.1273 32.9772 21.1273 31.8041L21.0972 27.2625L25.3203 27.2324L25.3505 31.7741C25.3505 32.9772 24.4154 33.9095 23.2389 33.9095Z" fill="#F7A99C"/>
<path d="M25.3505 30.5406L22.6055 29.127C22.6356 29.3676 22.7865 30.4804 23.7819 31.2324C24.4154 31.7136 25.079 31.8339 25.3807 31.864L25.3505 30.5406Z" fill="#FF7769"/>
<path d="M21.0068 25.8789C21.0068 25.8187 20.8258 25.6984 20.7655 25.6683C20.675 25.6082 20.5845 25.548 20.4639 25.5179C20.2527 25.4578 20.0416 25.4277 19.8304 25.4879C19.4081 25.5781 19.0461 25.939 18.9556 26.3601C18.9254 26.6007 18.9858 26.8714 19.0763 27.112C19.2271 27.473 19.4986 27.7437 19.8606 27.9542C20.132 28.1046 20.4639 28.1948 20.7655 28.2249C20.8258 28.2249 21.4895 28.2249 21.4593 28.1948C21.3085 27.4128 21.1577 26.6308 21.0068 25.8789Z" fill="#F7A99C"/>
<path d="M20.4337 25.9094C20.494 26.2403 20.7957 28.0449 22.3944 29.2781C22.6961 29.5187 24.6568 31.0526 26.4667 30.3007C28.7895 29.3382 28.5481 25.5184 28.518 25.338C28.4576 24.6462 28.3068 22.6009 26.5874 21.4881C25.1998 20.5858 23.6915 20.9166 23.4804 20.9768C23.2692 21.0369 21.8213 21.3979 20.9465 22.7814C20.1622 24.0747 20.3432 25.368 20.4337 25.9094Z" fill="#F7A99C"/>
<path d="M27.1908 25.3681C27.221 25.6688 27.4623 25.8794 27.7036 25.8493C27.9449 25.8192 28.1259 25.5485 28.0958 25.2478C28.0656 24.947 27.8243 24.7365 27.583 24.7665C27.3115 24.7966 27.1607 25.0673 27.1908 25.3681Z" fill="#262626"/>
<path d="M24.5062 25.6981C24.5364 25.9989 24.7777 26.2095 25.0191 26.1794C25.2604 26.1493 25.4414 25.8786 25.4112 25.5778C25.381 25.2771 25.1397 25.0665 24.8984 25.0966C24.6269 25.1267 24.4761 25.3974 24.5062 25.6981Z" fill="#262626"/>
<path d="M26.3764 25.7891L26.7987 26.3304C26.8892 26.4207 26.859 26.5711 26.7383 26.6312L26.3462 26.8718" stroke="#262626" stroke-width="0.358021" stroke-miterlimit="10" stroke-linecap="round" stroke-linejoin="round"/>
<path d="M23.6012 27.082C23.6313 27.4129 23.933 27.6535 24.295 27.6234C24.6268 27.5933 24.8681 27.2925 24.838 26.9316C24.8078 26.6008 24.5061 26.3602 24.1442 26.3902C23.8123 26.4504 23.571 26.7512 23.6012 27.082Z" fill="#FF7769"/>
<path d="M20.7052 27.4127C20.7052 27.3525 20.7052 26.9013 20.3432 26.5705C20.0717 26.3299 19.7399 26.2998 19.6494 26.2998" stroke="#262626" stroke-width="0.358021" stroke-miterlimit="10" stroke-linecap="round" stroke-linejoin="round"/>
<path d="M20.4033 26.6611C20.3732 26.6611 20.1319 26.631 19.981 26.8114C19.8302 26.9618 19.8604 27.1423 19.8604 27.1724" stroke="#262626" stroke-width="0.358021" stroke-miterlimit="10" stroke-linecap="round" stroke-linejoin="round"/>
<path d="M20.3735 25.5177C20.3735 25.5177 20.6751 25.5478 20.8863 25.7583C21.0975 25.9689 21.188 26.3599 21.188 26.3599C21.7611 26.2997 23.0884 26.0591 24.295 25.0064C24.9586 24.435 25.3508 23.8334 25.5921 23.3823C25.8032 23.5928 26.1954 23.8635 26.7082 24.1041C27.402 24.4049 28.2466 24.5553 28.3673 24.3146C28.3975 24.2846 28.3673 24.1342 28.307 23.8936C28.2768 23.8033 28.2768 23.683 28.2165 23.5326C28.126 23.292 28.0053 23.0514 27.8846 22.8108C27.6132 22.3596 27.2512 21.9386 26.859 21.6378C26.5875 21.4272 26.2859 21.2468 25.9842 21.1265C24.9888 20.7054 23.6012 20.7054 22.3946 21.337C22.3946 21.337 21.0673 22.0589 20.464 23.4424C20.2528 23.9236 20.2227 24.4049 20.1925 24.5553C20.1623 24.8861 20.1925 25.0967 20.2528 25.2771C20.3132 25.3673 20.3433 25.4576 20.3735 25.5177Z" fill="#262626"/>
<path d="M28.1862 26.1191C28.3068 26.1191 28.4275 26.1191 28.518 26.1793C28.518 26.5101 28.4878 26.9011 28.3973 27.3222C28.3672 27.3222 28.3672 27.3222 28.337 27.3222C28.0052 27.3523 27.7035 27.1418 27.6432 26.7808C27.5829 26.4199 27.8544 26.1793 28.1862 26.1191Z" fill="#FF7769"/>
<path d="M23.7219 21.0663C23.5107 20.976 23.2392 20.8858 22.8772 20.7956C22.0929 20.585 21.7008 20.4647 21.3388 20.4948C20.283 20.6151 19.6797 21.9987 19.4384 22.5701C19.2574 22.9912 18.9256 23.7431 19.1066 24.6755C19.1669 25.0966 19.3177 25.3974 19.4384 25.638" stroke="#262626" stroke-width="0.122108" stroke-miterlimit="10" stroke-linecap="round" stroke-linejoin="round"/>
<path d="M23.7217 20.9464C24.0837 20.796 24.4456 20.6757 24.8076 20.4952C25.1696 20.3148 25.4713 20.0741 25.8634 19.9238C26.2556 19.7734 26.708 19.7132 27.1304 19.8335C27.4923 19.9538 27.794 20.1644 28.0353 20.4351C28.3671 20.796 28.6386 21.2472 28.7593 21.7284C29.0308 22.6608 28.7894 23.6232 28.6386 24.5256" stroke="#262626" stroke-width="0.122108" stroke-miterlimit="10" stroke-linecap="round" stroke-linejoin="round"/>
<path d="M26.8287 28.1644C26.8287 28.4652 26.5271 28.7058 26.1651 28.7058C25.8031 28.7058 25.5015 28.4652 25.5015 28.1644C25.5015 27.8637 25.8031 27.623 26.1651 27.623C26.5572 27.623 26.8287 27.8637 26.8287 28.1644Z" fill="white"/>
<path d="M17.1455 23.5933L18.3521 22.8714C18.3521 22.8714 18.5934 21.8187 18.9253 21.5781C19.2571 21.3676 21.0368 20.6758 21.0368 20.6758L21.3083 20.9164C21.3083 20.9164 19.9207 22.1796 19.6191 22.7511C19.3174 23.3226 19.2872 24.8866 19.2872 24.8866L17.9298 26.631L17.598 26.8717L17.1455 23.5933Z" fill="#F7A99C"/>
<path d="M13.8272 39.5342L13.1636 47.6851" stroke="#262626" stroke-width="0.202553" stroke-miterlimit="10" stroke-linecap="round" stroke-linejoin="round"/>
<path d="M32.2583 40.1953L32.7409 49.1884" stroke="#262626" stroke-width="0.202553" stroke-miterlimit="10" stroke-linecap="round" stroke-linejoin="round"/>
<path d="M4.38588 27.4131C4.14456 27.6236 2.81729 28.6763 2.60613 30.6013C2.36481 32.6766 3.63175 34.0902 3.81274 34.3007" stroke="white" stroke-width="0.202553" stroke-miterlimit="10" stroke-linecap="round" stroke-linejoin="round"/>
<path d="M35.3652 45.9697C35.6971 46.3307 36.9942 47.6841 39.1962 47.9849C41.2776 48.2556 42.8161 47.4134 43.2685 47.1427" stroke="white" stroke-width="0.202553" stroke-miterlimit="10" stroke-linecap="round" stroke-linejoin="round"/>
<path d="M92.3476 53.0682L95.153 51.5643L99.3158 52.3162L101.397 50.1206L106.314 51.444L109.059 47.7144L113.946 50.6921L112.287 40.1651L105.862 35.6836L91.0505 37.9995C90.5075 38.0898 90.1154 38.6011 90.2059 39.1425L92.3476 53.0682Z" fill="white"/>
<path d="M107.31 40.9774L112.257 40.1954L105.832 35.7139L106.586 40.436C106.616 40.7668 106.948 41.0375 107.31 40.9774Z" fill="#D6D6D6"/>
<path d="M105.801 35.7139L106.555 40.436C106.616 40.7969 106.948 41.0375 107.31 40.9774L112.257 40.1954" stroke="#262626" stroke-width="0.13383" stroke-miterlimit="10" stroke-linecap="round" stroke-linejoin="round"/>
<path d="M94.3686 66.9033C94.4591 67.4447 94.9719 67.8357 95.5149 67.7455L114.911 64.7077C115.454 64.6174 115.846 64.1061 115.756 63.5647L113.916 51.9249L109.029 48.9473L106.284 52.6768L101.367 51.3534L99.2856 53.5491L95.1228 52.7971L92.3174 54.301L94.3686 66.9033Z" fill="white"/>
<path d="M92.3779 53.0682L95.1833 51.5643L99.3461 52.3162L101.427 50.1206L106.344 51.444L109.089 47.7144L113.976 50.6921L112.317 40.1651L105.892 35.6836L91.0808 37.9995C90.5378 38.0898 90.1457 38.6011 90.2362 39.1425L92.3779 53.0682Z" stroke="#262626" stroke-width="0.13383" stroke-miterlimit="10" stroke-linecap="round" stroke-linejoin="round"/>
<path d="M94.3686 66.9033C94.4591 67.4447 94.9719 67.8357 95.5149 67.7455L114.911 64.7077C115.454 64.6174 115.846 64.1061 115.756 63.5647L113.916 51.9249L109.029 48.9473L106.284 52.6768L101.367 51.3534L99.2856 53.5491L95.1228 52.7971L92.3174 54.301L94.3686 66.9033Z" stroke="#262626" stroke-width="0.13383" stroke-miterlimit="10" stroke-linecap="round" stroke-linejoin="round"/>
<path d="M17.387 20.3743L16.8742 20.8254L12.5605 16.9455L13.7973 15.7725L17.387 20.3743Z" fill="#FF7129"/>
<path d="M18.4425 19.5617L17.7789 19.682L16.3008 14.0877L17.99 13.7568L18.4425 19.5617Z" fill="#FF7129"/>
<path d="M16.1502 21.4265L16.0899 22.1183L10.2378 22.0581L10.3886 20.3438L16.1502 21.4265Z" fill="#FF7129"/>
<path d="M85.8018 106.695C84.3237 105.252 84.3237 102.906 85.7414 101.462L102.845 84.1074L108.154 89.3108L91.0505 106.665C89.6328 108.109 87.2799 108.109 85.8018 106.695Z" fill="#5B5BE1"/>
<path opacity="0.2" d="M116.303 90.7549C124.6 90.7361 131.31 84.0148 131.292 75.7425C131.273 67.4702 124.532 60.7793 116.235 60.7981C107.939 60.8168 101.228 67.5381 101.247 75.8104C101.266 84.0828 108.007 90.7736 116.303 90.7549Z" fill="#DCF0FF"/>
<path opacity="0.5" d="M102.212 81.0397C102.725 82.3932 103.419 83.6564 104.323 84.8595L131.261 75.5657C131.231 74.122 131.02 72.6482 130.567 71.2646L102.212 81.0397Z" fill="white"/>
<path opacity="0.5" d="M101.307 76.7382C101.367 77.5803 101.488 78.4225 101.699 79.2646L129.964 69.5197C129.602 68.7376 129.179 68.0158 128.697 67.2939L101.307 76.7382Z" fill="white"/>
<path d="M128.425 63.4444C121.608 56.7673 110.628 56.8575 103.901 63.655C97.2041 70.4524 97.2946 81.4004 104.112 88.1076C110.929 94.7848 121.909 94.6945 128.636 87.8971C135.363 81.0696 135.273 70.1215 128.425 63.4444ZM106.284 85.912C100.673 80.4079 100.583 71.3848 106.103 65.7904C111.623 60.1961 120.673 60.1059 126.283 65.61C131.894 71.1141 131.985 80.1372 126.464 85.7316C120.944 91.356 111.895 91.4161 106.284 85.912Z" fill="#5B5BE1"/>
<path d="M104.052 90.875L90.5376 104.59" stroke="white" stroke-width="0.488432" stroke-miterlimit="10" stroke-linecap="round" stroke-linejoin="round"/>
<path d="M117.536 59.7154C113.282 59.2944 108.848 60.7381 105.711 63.6555C102.544 66.5429 100.734 70.8139 100.794 75.0848" stroke="white" stroke-width="0.488432" stroke-miterlimit="10" stroke-linecap="round" stroke-linejoin="round"/>
</svg>
