<svg width="16" height="12" viewBox="0 0 16 12" fill="none" xmlns="http://www.w3.org/2000/svg">
<path d="M4.875 1C4.875 0.83424 4.94085 0.675269 5.05806 0.558058C5.17527 0.440848 5.33424 0.375 5.5 0.375H14.875C15.0408 0.375 15.1997 0.440848 15.3169 0.558058C15.4342 0.675269 15.5 0.83424 15.5 1C15.5 1.16576 15.4342 1.32473 15.3169 1.44194C15.1997 1.55915 15.0408 1.625 14.875 1.625H5.5C5.33424 1.625 5.17527 1.55915 5.05806 1.44194C4.94085 1.32473 4.875 1.16576 4.875 1ZM14.875 5.375H5.5C5.33424 5.375 5.17527 5.44085 5.05806 5.55806C4.94085 5.67527 4.875 5.83424 4.875 6C4.875 6.16576 4.94085 6.32473 5.05806 6.44194C5.17527 6.55915 5.33424 6.625 5.5 6.625H14.875C15.0408 6.625 15.1997 6.55915 15.3169 6.44194C15.4342 6.32473 15.5 6.16576 15.5 6C15.5 5.83424 15.4342 5.67527 15.3169 5.55806C15.1997 5.44085 15.0408 5.375 14.875 5.375ZM14.875 10.375H5.5C5.33424 10.375 5.17527 10.4408 5.05806 10.5581C4.94085 10.6753 4.875 10.8342 4.875 11C4.875 11.1658 4.94085 11.3247 5.05806 11.4419C5.17527 11.5592 5.33424 11.625 5.5 11.625H14.875C15.0408 11.625 15.1997 11.5592 15.3169 11.4419C15.4342 11.3247 15.5 11.1658 15.5 11C15.5 10.8342 15.4342 10.6753 15.3169 10.5581C15.1997 10.4408 15.0408 10.375 14.875 10.375ZM2.375 0.375H1.125C0.95924 0.375 0.800269 0.440848 0.683058 0.558058C0.565848 0.675269 0.5 0.83424 0.5 1C0.5 1.16576 0.565848 1.32473 0.683058 1.44194C0.800269 1.55915 0.95924 1.625 1.125 1.625H2.375C2.54076 1.625 2.69973 1.55915 2.81694 1.44194C2.93415 1.32473 3 1.16576 3 1C3 0.83424 2.93415 0.675269 2.81694 0.558058C2.69973 0.440848 2.54076 0.375 2.375 0.375ZM2.375 5.375H1.125C0.95924 5.375 0.800269 5.44085 0.683058 5.55806C0.565848 5.67527 0.5 5.83424 0.5 6C0.5 6.16576 0.565848 6.32473 0.683058 6.44194C0.800269 6.55915 0.95924 6.625 1.125 6.625H2.375C2.54076 6.625 2.69973 6.55915 2.81694 6.44194C2.93415 6.32473 3 6.16576 3 6C3 5.83424 2.93415 5.67527 2.81694 5.55806C2.69973 5.44085 2.54076 5.375 2.375 5.375ZM2.375 10.375H1.125C0.95924 10.375 0.800269 10.4408 0.683058 10.5581C0.565848 10.6753 0.5 10.8342 0.5 11C0.5 11.1658 0.565848 11.3247 0.683058 11.4419C0.800269 11.5592 0.95924 11.625 1.125 11.625H2.375C2.54076 11.625 2.69973 11.5592 2.81694 11.4419C2.93415 11.3247 3 11.1658 3 11C3 10.8342 2.93415 10.6753 2.81694 10.5581C2.69973 10.4408 2.54076 10.375 2.375 10.375Z" fill="#6C778B"/>
</svg>
