<svg width="26" height="26" viewBox="0 0 26 26" fill="none" xmlns="http://www.w3.org/2000/svg">
<path d="M20.3125 3.25H16.25C15.819 3.25 15.4057 3.4212 15.101 3.72595C14.7962 4.0307 14.625 4.44402 14.625 4.875V21.125C14.625 21.556 14.7962 21.9693 15.101 22.274C15.4057 22.5788 15.819 22.75 16.25 22.75H20.3125C20.7435 22.75 21.1568 22.5788 21.4615 22.274C21.7663 21.9693 21.9375 21.556 21.9375 21.125V4.875C21.9375 4.44402 21.7663 4.0307 21.4615 3.72595C21.1568 3.4212 20.7435 3.25 20.3125 3.25ZM20.3125 21.125H16.25V4.875H20.3125V21.125ZM9.75 3.25H5.6875C5.25652 3.25 4.8432 3.4212 4.53845 3.72595C4.2337 4.0307 4.0625 4.44402 4.0625 4.875V21.125C4.0625 21.556 4.2337 21.9693 4.53845 22.274C4.8432 22.5788 5.25652 22.75 5.6875 22.75H9.75C10.181 22.75 10.5943 22.5788 10.899 22.274C11.2038 21.9693 11.375 21.556 11.375 21.125V4.875C11.375 4.44402 11.2038 4.0307 10.899 3.72595C10.5943 3.4212 10.181 3.25 9.75 3.25ZM9.75 21.125H5.6875V4.875H9.75V21.125Z" fill="white"/>
</svg>
