<svg width="44" height="44" viewBox="0 0 44 44" fill="none" xmlns="http://www.w3.org/2000/svg">
<rect width="44" height="44" rx="22" fill="white"/>
<path d="M28.75 13H25C24.6022 13 24.2206 13.158 23.9393 13.4393C23.658 13.7206 23.5 14.1022 23.5 14.5V29.5C23.5 29.8978 23.658 30.2794 23.9393 30.5607C24.2206 30.842 24.6022 31 25 31H28.75C29.1478 31 29.5294 30.842 29.8107 30.5607C30.092 30.2794 30.25 29.8978 30.25 29.5V14.5C30.25 14.1022 30.092 13.7206 29.8107 13.4393C29.5294 13.158 29.1478 13 28.75 13ZM28.75 29.5H25V14.5H28.75V29.5ZM19 13H15.25C14.8522 13 14.4706 13.158 14.1893 13.4393C13.908 13.7206 13.75 14.1022 13.75 14.5V29.5C13.75 29.8978 13.908 30.2794 14.1893 30.5607C14.4706 30.842 14.8522 31 15.25 31H19C19.3978 31 19.7794 30.842 20.0607 30.5607C20.342 30.2794 20.5 29.8978 20.5 29.5V14.5C20.5 14.1022 20.342 13.7206 20.0607 13.4393C19.7794 13.158 19.3978 13 19 13ZM19 29.5H15.25V14.5H19V29.5Z" fill="#6C778B"/>
</svg>
