<svg width="42" height="43" viewBox="0 0 42 43" fill="none" xmlns="http://www.w3.org/2000/svg">
<path d="M32.25 24.002C32.25 24.2506 32.1512 24.4891 31.9754 24.6649C31.7996 24.8407 31.5611 24.9395 31.3125 24.9395H28.5V26.8145H30.375C30.6236 26.8145 30.8621 26.9132 31.0379 27.089C31.2137 27.2649 31.3125 27.5033 31.3125 27.752C31.3125 28.0006 31.2137 28.2391 31.0379 28.4149C30.8621 28.5907 30.6236 28.6895 30.375 28.6895H28.5V30.5645C28.5 30.8131 28.4012 31.0516 28.2254 31.2274C28.0496 31.4032 27.8111 31.502 27.5625 31.502C27.3139 31.502 27.0754 31.4032 26.8996 31.2274C26.7238 31.0516 26.625 30.8131 26.625 30.5645V24.002C26.625 23.7533 26.7238 23.5149 26.8996 23.339C27.0754 23.1632 27.3139 23.0645 27.5625 23.0645H31.3125C31.5611 23.0645 31.7996 23.1632 31.9754 23.339C32.1512 23.5149 32.25 23.7533 32.25 24.002ZM16.7812 26.3457C16.7812 27.2159 16.4355 28.0505 15.8202 28.6659C15.2048 29.2813 14.3702 29.627 13.5 29.627H12.5625V30.5645C12.5625 30.8131 12.4637 31.0516 12.2879 31.2274C12.1121 31.4032 11.8736 31.502 11.625 31.502C11.3764 31.502 11.1379 31.4032 10.9621 31.2274C10.7863 31.0516 10.6875 30.8131 10.6875 30.5645V24.002C10.6875 23.7533 10.7863 23.5149 10.9621 23.339C11.1379 23.1632 11.3764 23.0645 11.625 23.0645H13.5C14.3702 23.0645 15.2048 23.4102 15.8202 24.0255C16.4355 24.6409 16.7812 25.4755 16.7812 26.3457ZM14.9062 26.3457C14.9062 25.9727 14.7581 25.6151 14.4944 25.3513C14.2306 25.0876 13.873 24.9395 13.5 24.9395H12.5625V27.752H13.5C13.873 27.752 14.2306 27.6038 14.4944 27.3401C14.7581 27.0763 14.9062 26.7187 14.9062 26.3457ZM25.2188 27.2832C25.2188 28.4021 24.7743 29.4751 23.9831 30.2663C23.1919 31.0575 22.1189 31.502 21 31.502H19.125C18.8764 31.502 18.6379 31.4032 18.4621 31.2274C18.2863 31.0516 18.1875 30.8131 18.1875 30.5645V24.002C18.1875 23.7533 18.2863 23.5149 18.4621 23.339C18.6379 23.1632 18.8764 23.0645 19.125 23.0645H21C22.1189 23.0645 23.1919 23.5089 23.9831 24.3001C24.7743 25.0913 25.2188 26.1643 25.2188 27.2832ZM23.3438 27.2832C23.3438 26.6616 23.0968 26.0655 22.6573 25.6259C22.2177 25.1864 21.6216 24.9395 21 24.9395H20.0625V29.627H21C21.6216 29.627 22.2177 29.38 22.6573 28.9405C23.0968 28.5009 23.3438 27.9048 23.3438 27.2832ZM10.6875 19.3145V10.877C10.6875 10.3797 10.885 9.90276 11.2367 9.55113C11.5883 9.1995 12.0652 9.00195 12.5625 9.00195H23.8125C23.9357 9.00186 24.0576 9.02602 24.1714 9.07308C24.2852 9.12013 24.3887 9.18914 24.4758 9.27617L31.0383 15.8387C31.1253 15.9258 31.1943 16.0292 31.2414 16.143C31.2884 16.2568 31.3126 16.3788 31.3125 16.502V19.3145C31.3125 19.5631 31.2137 19.8015 31.0379 19.9774C30.8621 20.1532 30.6236 20.252 30.375 20.252C30.1264 20.252 29.8879 20.1532 29.7121 19.9774C29.5363 19.8015 29.4375 19.5631 29.4375 19.3145V17.4395H23.8125C23.5639 17.4395 23.3254 17.3407 23.1496 17.1649C22.9738 16.9891 22.875 16.7506 22.875 16.502V10.877H12.5625V19.3145C12.5625 19.5631 12.4637 19.8015 12.2879 19.9774C12.1121 20.1532 11.8736 20.252 11.625 20.252C11.3764 20.252 11.1379 20.1532 10.9621 19.9774C10.7863 19.8015 10.6875 19.5631 10.6875 19.3145ZM24.75 15.5645H28.1121L24.75 12.2023V15.5645Z" fill="#6C778B"/>
</svg>

<svg width="23" height="24" viewBox="0 0 23 24" fill="none" xmlns="http://www.w3.org/2000/svg">
<path d="M22.25 15.8125C22.25 16.0611 22.1512 16.2996 21.9754 16.4754C21.7996 16.6512 21.5611 16.75 21.3125 16.75H18.5V18.625H20.375C20.6236 18.625 20.8621 18.7238 21.0379 18.8996C21.2137 19.0754 21.3125 19.3139 21.3125 19.5625C21.3125 19.8111 21.2137 20.0496 21.0379 20.2254C20.8621 20.4012 20.6236 20.5 20.375 20.5H18.5V22.375C18.5 22.6236 18.4012 22.8621 18.2254 23.0379C18.0496 23.2137 17.8111 23.3125 17.5625 23.3125C17.3139 23.3125 17.0754 23.2137 16.8996 23.0379C16.7238 22.8621 16.625 22.6236 16.625 22.375V15.8125C16.625 15.5639 16.7238 15.3254 16.8996 15.1496C17.0754 14.9738 17.3139 14.875 17.5625 14.875H21.3125C21.5611 14.875 21.7996 14.9738 21.9754 15.1496C22.1512 15.3254 22.25 15.5639 22.25 15.8125ZM6.78125 18.1562C6.78125 19.0265 6.43555 19.8611 5.82019 20.4764C5.20484 21.0918 4.37024 21.4375 3.5 21.4375H2.5625V22.375C2.5625 22.6236 2.46373 22.8621 2.28791 23.0379C2.1121 23.2137 1.87364 23.3125 1.625 23.3125C1.37636 23.3125 1.1379 23.2137 0.962088 23.0379C0.786272 22.8621 0.6875 22.6236 0.6875 22.375V15.8125C0.6875 15.5639 0.786272 15.3254 0.962088 15.1496C1.1379 14.9738 1.37636 14.875 1.625 14.875H3.5C4.37024 14.875 5.20484 15.2207 5.82019 15.8361C6.43555 16.4514 6.78125 17.286 6.78125 18.1562ZM4.90625 18.1562C4.90625 17.7833 4.75809 17.4256 4.49437 17.1619C4.23065 16.8982 3.87296 16.75 3.5 16.75H2.5625V19.5625H3.5C3.87296 19.5625 4.23065 19.4143 4.49437 19.1506C4.75809 18.8869 4.90625 18.5292 4.90625 18.1562ZM15.2188 19.0938C15.2188 20.2126 14.7743 21.2857 13.9831 22.0769C13.1919 22.868 12.1189 23.3125 11 23.3125H9.125C8.87636 23.3125 8.6379 23.2137 8.46209 23.0379C8.28627 22.8621 8.1875 22.6236 8.1875 22.375V15.8125C8.1875 15.5639 8.28627 15.3254 8.46209 15.1496C8.6379 14.9738 8.87636 14.875 9.125 14.875H11C12.1189 14.875 13.1919 15.3195 13.9831 16.1106C14.7743 16.9018 15.2188 17.9749 15.2188 19.0938ZM13.3438 19.0938C13.3438 18.4721 13.0968 17.876 12.6573 17.4365C12.2177 16.9969 11.6216 16.75 11 16.75H10.0625V21.4375H11C11.6216 21.4375 12.2177 21.1906 12.6573 20.751C13.0968 20.3115 13.3438 19.7154 13.3438 19.0938ZM0.6875 11.125V2.6875C0.6875 2.19022 0.885044 1.71331 1.23667 1.36167C1.58831 1.01004 2.06522 0.8125 2.5625 0.8125H13.8125C13.9357 0.812403 14.0576 0.836571 14.1714 0.883622C14.2852 0.930674 14.3887 0.999687 14.4758 1.08672L21.0383 7.64922C21.1253 7.73635 21.1943 7.83977 21.2414 7.95358C21.2884 8.06739 21.3126 8.18935 21.3125 8.3125V11.125C21.3125 11.3736 21.2137 11.6121 21.0379 11.7879C20.8621 11.9637 20.6236 12.0625 20.375 12.0625C20.1264 12.0625 19.8879 11.9637 19.7121 11.7879C19.5363 11.6121 19.4375 11.3736 19.4375 11.125V9.25H13.8125C13.5639 9.25 13.3254 9.15123 13.1496 8.97541C12.9738 8.7996 12.875 8.56114 12.875 8.3125V2.6875H2.5625V11.125C2.5625 11.3736 2.46373 11.6121 2.28791 11.7879C2.1121 11.9637 1.87364 12.0625 1.625 12.0625C1.37636 12.0625 1.1379 11.9637 0.962088 11.7879C0.786272 11.6121 0.6875 11.3736 0.6875 11.125ZM14.75 7.375H18.1121L14.75 4.01289V7.375Z" fill="#6C778B"/>
</svg>
