<svg width="42" height="43" viewBox="0 0 42 43" fill="none" xmlns="http://www.w3.org/2000/svg">
<path d="M32.25 24.002C32.25 24.2506 32.1512 24.4891 31.9754 24.6649C31.7996 24.8407 31.5611 24.9395 31.3125 24.9395H28.5V26.8145H30.375C30.6236 26.8145 30.8621 26.9132 31.0379 27.089C31.2137 27.2649 31.3125 27.5033 31.3125 27.752C31.3125 28.0006 31.2137 28.2391 31.0379 28.4149C30.8621 28.5907 30.6236 28.6895 30.375 28.6895H28.5V30.5645C28.5 30.8131 28.4012 31.0516 28.2254 31.2274C28.0496 31.4032 27.8111 31.502 27.5625 31.502C27.3139 31.502 27.0754 31.4032 26.8996 31.2274C26.7238 31.0516 26.625 30.8131 26.625 30.5645V24.002C26.625 23.7533 26.7238 23.5149 26.8996 23.339C27.0754 23.1632 27.3139 23.0645 27.5625 23.0645H31.3125C31.5611 23.0645 31.7996 23.1632 31.9754 23.339C32.1512 23.5149 32.25 23.7533 32.25 24.002ZM16.7812 26.3457C16.7812 27.2159 16.4355 28.0505 15.8202 28.6659C15.2048 29.2813 14.3702 29.627 13.5 29.627H12.5625V30.5645C12.5625 30.8131 12.4637 31.0516 12.2879 31.2274C12.1121 31.4032 11.8736 31.502 11.625 31.502C11.3764 31.502 11.1379 31.4032 10.9621 31.2274C10.7863 31.0516 10.6875 30.8131 10.6875 30.5645V24.002C10.6875 23.7533 10.7863 23.5149 10.9621 23.339C11.1379 23.1632 11.3764 23.0645 11.625 23.0645H13.5C14.3702 23.0645 15.2048 23.4102 15.8202 24.0255C16.4355 24.6409 16.7812 25.4755 16.7812 26.3457ZM14.9062 26.3457C14.9062 25.9727 14.7581 25.6151 14.4944 25.3513C14.2306 25.0876 13.873 24.9395 13.5 24.9395H12.5625V27.752H13.5C13.873 27.752 14.2306 27.6038 14.4944 27.3401C14.7581 27.0763 14.9062 26.7187 14.9062 26.3457ZM25.2188 27.2832C25.2188 28.4021 24.7743 29.4751 23.9831 30.2663C23.1919 31.0575 22.1189 31.502 21 31.502H19.125C18.8764 31.502 18.6379 31.4032 18.4621 31.2274C18.2863 31.0516 18.1875 30.8131 18.1875 30.5645V24.002C18.1875 23.7533 18.2863 23.5149 18.4621 23.339C18.6379 23.1632 18.8764 23.0645 19.125 23.0645H21C22.1189 23.0645 23.1919 23.5089 23.9831 24.3001C24.7743 25.0913 25.2188 26.1643 25.2188 27.2832ZM23.3438 27.2832C23.3438 26.6616 23.0968 26.0655 22.6573 25.6259C22.2177 25.1864 21.6216 24.9395 21 24.9395H20.0625V29.627H21C21.6216 29.627 22.2177 29.38 22.6573 28.9405C23.0968 28.5009 23.3438 27.9048 23.3438 27.2832ZM10.6875 19.3145V10.877C10.6875 10.3797 10.885 9.90276 11.2367 9.55113C11.5883 9.1995 12.0652 9.00195 12.5625 9.00195H23.8125C23.9357 9.00186 24.0576 9.02602 24.1714 9.07308C24.2852 9.12013 24.3887 9.18914 24.4758 9.27617L31.0383 15.8387C31.1253 15.9258 31.1943 16.0292 31.2414 16.143C31.2884 16.2568 31.3126 16.3788 31.3125 16.502V19.3145C31.3125 19.5631 31.2137 19.8015 31.0379 19.9774C30.8621 20.1532 30.6236 20.252 30.375 20.252C30.1264 20.252 29.8879 20.1532 29.7121 19.9774C29.5363 19.8015 29.4375 19.5631 29.4375 19.3145V17.4395H23.8125C23.5639 17.4395 23.3254 17.3407 23.1496 17.1649C22.9738 16.9891 22.875 16.7506 22.875 16.502V10.877H12.5625V19.3145C12.5625 19.5631 12.4637 19.8015 12.2879 19.9774C12.1121 20.1532 11.8736 20.252 11.625 20.252C11.3764 20.252 11.1379 20.1532 10.9621 19.9774C10.7863 19.8015 10.6875 19.5631 10.6875 19.3145ZM24.75 15.5645H28.1121L24.75 12.2023V15.5645Z" fill="#6C778B"/>
</svg>
