<svg width="23" height="24" viewBox="0 0 23 24" fill="none" xmlns="http://www.w3.org/2000/svg">
<path d="M22.25 15.8125C22.25 16.0611 22.1512 16.2996 21.9754 16.4754C21.7996 16.6512 21.5611 16.75 21.3125 16.75H18.5V18.625H20.375C20.6236 18.625 20.8621 18.7238 21.0379 18.8996C21.2137 19.0754 21.3125 19.3139 21.3125 19.5625C21.3125 19.8111 21.2137 20.0496 21.0379 20.2254C20.8621 20.4012 20.6236 20.5 20.375 20.5H18.5V22.375C18.5 22.6236 18.4012 22.8621 18.2254 23.0379C18.0496 23.2137 17.8111 23.3125 17.5625 23.3125C17.3139 23.3125 17.0754 23.2137 16.8996 23.0379C16.7238 22.8621 16.625 22.6236 16.625 22.375V15.8125C16.625 15.5639 16.7238 15.3254 16.8996 15.1496C17.0754 14.9738 17.3139 14.875 17.5625 14.875H21.3125C21.5611 14.875 21.7996 14.9738 21.9754 15.1496C22.1512 15.3254 22.25 15.5639 22.25 15.8125ZM6.78125 18.1562C6.78125 19.0265 6.43555 19.8611 5.82019 20.4764C5.20484 21.0918 4.37024 21.4375 3.5 21.4375H2.5625V22.375C2.5625 22.6236 2.46373 22.8621 2.28791 23.0379C2.1121 23.2137 1.87364 23.3125 1.625 23.3125C1.37636 23.3125 1.1379 23.2137 0.962088 23.0379C0.786272 22.8621 0.6875 22.6236 0.6875 22.375V15.8125C0.6875 15.5639 0.786272 15.3254 0.962088 15.1496C1.1379 14.9738 1.37636 14.875 1.625 14.875H3.5C4.37024 14.875 5.20484 15.2207 5.82019 15.8361C6.43555 16.4514 6.78125 17.286 6.78125 18.1562ZM4.90625 18.1562C4.90625 17.7833 4.75809 17.4256 4.49437 17.1619C4.23065 16.8982 3.87296 16.75 3.5 16.75H2.5625V19.5625H3.5C3.87296 19.5625 4.23065 19.4143 4.49437 19.1506C4.75809 18.8869 4.90625 18.5292 4.90625 18.1562ZM15.2188 19.0938C15.2188 20.2126 14.7743 21.2857 13.9831 22.0769C13.1919 22.868 12.1189 23.3125 11 23.3125H9.125C8.87636 23.3125 8.6379 23.2137 8.46209 23.0379C8.28627 22.8621 8.1875 22.6236 8.1875 22.375V15.8125C8.1875 15.5639 8.28627 15.3254 8.46209 15.1496C8.6379 14.9738 8.87636 14.875 9.125 14.875H11C12.1189 14.875 13.1919 15.3195 13.9831 16.1106C14.7743 16.9018 15.2188 17.9749 15.2188 19.0938ZM13.3438 19.0938C13.3438 18.4721 13.0968 17.876 12.6573 17.4365C12.2177 16.9969 11.6216 16.75 11 16.75H10.0625V21.4375H11C11.6216 21.4375 12.2177 21.1906 12.6573 20.751C13.0968 20.3115 13.3438 19.7154 13.3438 19.0938ZM0.6875 11.125V2.6875C0.6875 2.19022 0.885044 1.71331 1.23667 1.36167C1.58831 1.01004 2.06522 0.8125 2.5625 0.8125H13.8125C13.9357 0.812403 14.0576 0.836571 14.1714 0.883622C14.2852 0.930674 14.3887 0.999687 14.4758 1.08672L21.0383 7.64922C21.1253 7.73635 21.1943 7.83977 21.2414 7.95358C21.2884 8.06739 21.3126 8.18935 21.3125 8.3125V11.125C21.3125 11.3736 21.2137 11.6121 21.0379 11.7879C20.8621 11.9637 20.6236 12.0625 20.375 12.0625C20.1264 12.0625 19.8879 11.9637 19.7121 11.7879C19.5363 11.6121 19.4375 11.3736 19.4375 11.125V9.25H13.8125C13.5639 9.25 13.3254 9.15123 13.1496 8.97541C12.9738 8.7996 12.875 8.56114 12.875 8.3125V2.6875H2.5625V11.125C2.5625 11.3736 2.46373 11.6121 2.28791 11.7879C2.1121 11.9637 1.87364 12.0625 1.625 12.0625C1.37636 12.0625 1.1379 11.9637 0.962088 11.7879C0.786272 11.6121 0.6875 11.3736 0.6875 11.125ZM14.75 7.375H18.1121L14.75 4.01289V7.375Z" fill="#6C778B"/>
</svg>
