<svg width="32" height="32" viewBox="0 0 32 32" fill="none" xmlns="http://www.w3.org/2000/svg">
<path d="M29.0613 10.525L21.475 2.93874C21.3357 2.7989 21.1701 2.68795 20.9877 2.61224C20.8054 2.53653 20.6099 2.49756 20.4125 2.49756C20.2151 2.49756 20.0196 2.53653 19.8373 2.61224C19.655 2.68795 19.4894 2.7989 19.35 2.93874L12.4313 9.88374C11.4213 9.50874 8.33251 8.70249 5.05626 11.3425C4.89175 11.4742 4.75683 11.639 4.66029 11.8263C4.56376 12.0137 4.50777 12.2192 4.49597 12.4296C4.48418 12.64 4.51685 12.8505 4.59185 13.0474C4.66685 13.2443 4.7825 13.4233 4.93126 13.5725L11.3225 19.9637L5.64626 25.6462C5.55244 25.7401 5.49973 25.8673 5.49973 26C5.49973 26.1327 5.55244 26.2599 5.64626 26.3537C5.74008 26.4476 5.86733 26.5003 6.00001 26.5003C6.13269 26.5003 6.25994 26.4476 6.35376 26.3537L12.0363 20.67L18.4263 27.06C18.5656 27.1995 18.731 27.3101 18.9131 27.3856C19.0952 27.4611 19.2904 27.5 19.4875 27.5C19.5225 27.5 19.5588 27.5 19.5938 27.5C19.8074 27.4849 20.0153 27.4242 20.2036 27.322C20.3918 27.2198 20.556 27.0784 20.685 26.9075C23.1638 23.6125 22.7488 21.01 22.1488 19.5862L29.0613 12.65C29.2011 12.5106 29.3121 12.345 29.3878 12.1627C29.4635 11.9804 29.5024 11.7849 29.5024 11.5875C29.5024 11.3901 29.4635 11.1946 29.3878 11.0123C29.3121 10.8299 29.2011 10.6643 29.0613 10.525ZM28.3538 11.9387L21.195 19.125C21.121 19.1991 21.0721 19.2946 21.0553 19.398C21.0385 19.5014 21.0545 19.6075 21.1013 19.7012C22.405 22.3075 20.8988 24.9512 19.885 26.305C19.8417 26.3615 19.7869 26.4081 19.7242 26.4417C19.6615 26.4753 19.5923 26.4951 19.5213 26.4998C19.4503 26.5046 19.3792 26.4941 19.3125 26.4691C19.2459 26.4441 19.1854 26.4052 19.135 26.355L5.64626 12.8662C5.59552 12.8165 5.55599 12.7564 5.53029 12.6902C5.50459 12.6239 5.49331 12.5529 5.49722 12.4819C5.50112 12.4109 5.52011 12.3416 5.55292 12.2786C5.58574 12.2155 5.63162 12.1602 5.68751 12.1162C7.30501 10.8162 8.85751 10.4675 10.055 10.4675C10.8354 10.456 11.6093 10.6111 12.325 10.9225C12.4189 10.9695 12.5252 10.9857 12.6289 10.9689C12.7326 10.9521 12.8283 10.903 12.9025 10.8287L20.0613 3.64624C20.1077 3.59975 20.1628 3.56287 20.2235 3.53771C20.2842 3.51255 20.3493 3.4996 20.415 3.4996C20.4807 3.4996 20.5458 3.51255 20.6065 3.53771C20.6672 3.56287 20.7223 3.59975 20.7688 3.64624L28.3538 11.2325C28.4473 11.3262 28.4998 11.4532 28.4998 11.5856C28.4998 11.718 28.4473 11.845 28.3538 11.9387Z" fill="#6C778B"/>
</svg>
