<svg width="44" height="44" viewBox="0 0 44 44" fill="none" xmlns="http://www.w3.org/2000/svg">
<rect width="44" height="44" rx="4" fill="#5B5BE1" fill-opacity="0.15"/>
<rect x="0.5" y="0.5" width="43" height="43" rx="3.5" stroke="#5B5BE1" stroke-opacity="0.2"/>
<path d="M28.875 15.125H15.125C14.7935 15.125 14.4755 15.2567 14.2411 15.4911C14.0067 15.7255 13.875 16.0435 13.875 16.375V27.625C13.875 27.9565 14.0067 28.2745 14.2411 28.5089C14.4755 28.7433 14.7935 28.875 15.125 28.875H28.875C29.2065 28.875 29.5245 28.7433 29.7589 28.5089C29.9933 28.2745 30.125 27.9565 30.125 27.625V16.375C30.125 16.0435 29.9933 15.7255 29.7589 15.4911C29.5245 15.2567 29.2065 15.125 28.875 15.125ZM28.875 16.375V24.4023L26.8383 22.3664C26.7222 22.2503 26.5844 22.1582 26.4327 22.0954C26.281 22.0325 26.1185 22.0002 25.9543 22.0002C25.7901 22.0002 25.6276 22.0325 25.4759 22.0954C25.3242 22.1582 25.1864 22.2503 25.0703 22.3664L23.5078 23.9289L20.0703 20.4914C19.8359 20.2572 19.5181 20.1256 19.1867 20.1256C18.8553 20.1256 18.5375 20.2572 18.3031 20.4914L15.125 23.6695V16.375H28.875ZM15.125 25.4375L19.1875 21.375L25.4375 27.625H15.125V25.4375ZM28.875 27.625H27.2055L24.393 24.8125L25.9555 23.25L28.875 26.1703V27.625ZM23.25 19.8125C23.25 19.6271 23.305 19.4458 23.408 19.2917C23.511 19.1375 23.6574 19.0173 23.8287 18.9464C24 18.8754 24.1885 18.8568 24.3704 18.893C24.5523 18.9292 24.7193 19.0185 24.8504 19.1496C24.9815 19.2807 25.0708 19.4477 25.107 19.6296C25.1432 19.8115 25.1246 20 25.0536 20.1713C24.9827 20.3426 24.8625 20.489 24.7083 20.592C24.5542 20.695 24.3729 20.75 24.1875 20.75C23.9389 20.75 23.7004 20.6512 23.5246 20.4754C23.3488 20.2996 23.25 20.0611 23.25 19.8125Z" fill="#5B5BE1"/>
</svg>
