<svg width="20" height="20" viewBox="0 0 20 20" fill="none" xmlns="http://www.w3.org/2000/svg">
<path d="M14.9468 10.3801L11.0538 8.94712L9.62062 5.05181C9.53575 4.82128 9.38219 4.62232 9.18069 4.48179C8.97913 4.34126 8.73938 4.26591 8.49369 4.26591C8.248 4.26591 8.00819 4.34126 7.80669 4.48179C7.60519 4.62232 7.45163 4.82128 7.36675 5.05181L5.93204 8.94263L2.03604 10.3756C1.80547 10.4604 1.60648 10.6139 1.46592 10.8154C1.32536 11.0169 1.25 11.2566 1.25 11.5023C1.25 11.7479 1.32536 11.9877 1.46592 12.1892C1.60648 12.3907 1.80547 12.5442 2.03604 12.6291L5.92676 14.071L7.35994 17.9641C7.44481 18.1946 7.59838 18.3936 7.79988 18.5341C8.00138 18.6746 8.24119 18.75 8.48688 18.75C8.73256 18.75 8.97237 18.6746 9.17387 18.5341C9.37537 18.3936 9.52894 18.1946 9.61381 17.9641L11.047 14.0718L14.943 12.6389C15.1736 12.554 15.3726 12.4004 15.5131 12.199C15.6537 11.9975 15.7291 11.7577 15.7291 11.5121C15.7291 11.2664 15.6537 11.0267 15.5131 10.8253C15.3726 10.6237 15.1736 10.4702 14.943 10.3854L14.9468 10.3801ZM10.6329 12.9397C10.4698 12.9996 10.3217 13.0942 10.1989 13.217C10.0761 13.3398 9.98144 13.4879 9.92156 13.6509L8.48837 17.5319L7.05825 13.6479C6.99831 13.4858 6.904 13.3384 6.78175 13.2162C6.65944 13.0939 6.51213 12.9996 6.34994 12.9397L2.46826 11.5068L6.34994 10.0739C6.51213 10.014 6.65944 9.91969 6.78175 9.79744C6.904 9.67519 6.99831 9.52787 7.05825 9.36569L8.49144 5.48471L9.92456 9.36569C9.98444 9.52875 10.0791 9.67681 10.2019 9.79963C10.3247 9.92244 10.4728 10.0171 10.6359 10.0769L14.5176 11.5098L10.6329 12.9397ZM10.9052 3.66337C10.9052 3.50336 10.9688 3.34989 11.0819 3.23674C11.1951 3.12359 11.3486 3.06002 11.5086 3.06002H12.7156V1.85334C12.7156 1.69332 12.7791 1.53986 12.8923 1.42671C13.0054 1.31357 13.1589 1.25 13.319 1.25C13.479 1.25 13.6325 1.31357 13.7457 1.42671C13.8589 1.53986 13.9224 1.69332 13.9224 1.85334V3.06002H15.1293C15.2894 3.06002 15.4429 3.12359 15.556 3.23674C15.6692 3.34989 15.7327 3.50336 15.7327 3.66337C15.7327 3.82339 15.6692 3.97685 15.556 4.09C15.4429 4.20314 15.2894 4.26671 15.1293 4.26671H13.9224V5.4734C13.9224 5.63341 13.8589 5.78687 13.7457 5.90002C13.6325 6.01318 13.479 6.07674 13.319 6.07674C13.1589 6.07674 13.0054 6.01318 12.8923 5.90002C12.7791 5.78687 12.7156 5.63341 12.7156 5.4734V4.26671H11.5086C11.3486 4.26671 11.1951 4.20314 11.0819 4.09C10.9688 3.97685 10.9052 3.82339 10.9052 3.66337ZM18.75 7.28344C18.75 7.44344 18.6864 7.59687 18.5732 7.71006C18.4601 7.82319 18.3066 7.88675 18.1466 7.88675H17.5431V8.49012C17.5431 8.65013 17.4795 8.80356 17.3664 8.91675C17.2532 9.02987 17.0997 9.09344 16.9397 9.09344C16.7796 9.09344 16.6261 9.02987 16.5129 8.91675C16.3998 8.80356 16.3362 8.65013 16.3362 8.49012V7.88675H15.7327C15.5728 7.88675 15.4193 7.82319 15.3061 7.71006C15.1929 7.59687 15.1293 7.44344 15.1293 7.28344C15.1293 7.12344 15.1929 6.96994 15.3061 6.85681C15.4193 6.74362 15.5728 6.68006 15.7327 6.68006H16.3362V6.07674C16.3362 5.91673 16.3998 5.76326 16.5129 5.65011C16.6261 5.53696 16.7796 5.4734 16.9397 5.4734C17.0997 5.4734 17.2532 5.53696 17.3664 5.65011C17.4795 5.76326 17.5431 5.91673 17.5431 6.07674V6.68006H18.1466C18.3066 6.68006 18.4601 6.74362 18.5732 6.85681C18.6864 6.96994 18.75 7.12344 18.75 7.28344Z" fill="white"/>
</svg>
