<svg width="44" height="44" viewBox="0 0 44 44" fill="none" xmlns="http://www.w3.org/2000/svg">
<path d="M0 22C0 9.84974 9.84974 0 22 0C34.1503 0 44 9.84974 44 22C44 34.1503 34.1503 44 22 44C9.84974 44 0 34.1503 0 22Z" fill="#5B5BE1"/>
<path d="M21.9997 26.7143C23.2496 26.713 24.448 26.2159 25.3318 25.3321C26.2156 24.4483 26.7127 23.2499 26.714 22V15.7143C26.714 14.464 26.2173 13.2649 25.3332 12.3808C24.4491 11.4967 23.25 11 21.9997 11C20.7494 11 19.5503 11.4967 18.6662 12.3808C17.7821 13.2649 17.2854 14.464 17.2854 15.7143V22C17.2867 23.2499 17.7838 24.4483 18.6677 25.3321C19.5515 26.2159 20.7498 26.713 21.9997 26.7143ZM18.8569 15.7143C18.8569 14.8807 19.188 14.0814 19.7774 13.492C20.3668 12.9025 21.1662 12.5714 21.9997 12.5714C22.8333 12.5714 23.6327 12.9025 24.2221 13.492C24.8115 14.0814 25.1426 14.8807 25.1426 15.7143V22C25.1426 22.8335 24.8115 23.6329 24.2221 24.2223C23.6327 24.8117 22.8333 25.1429 21.9997 25.1429C21.1662 25.1429 20.3668 24.8117 19.7774 24.2223C19.188 23.6329 18.8569 22.8335 18.8569 22V15.7143ZM22.7854 29.8179V32.2143C22.7854 32.4227 22.7027 32.6225 22.5553 32.7699C22.408 32.9172 22.2081 33 21.9997 33C21.7913 33 21.5915 32.9172 21.4441 32.7699C21.2968 32.6225 21.214 32.4227 21.214 32.2143V29.8179C19.2769 29.6207 17.4816 28.7123 16.1755 27.2683C14.8693 25.8242 14.145 23.9471 14.1426 22C14.1426 21.7916 14.2254 21.5918 14.3727 21.4444C14.5201 21.2971 14.7199 21.2143 14.9283 21.2143C15.1367 21.2143 15.3365 21.2971 15.4839 21.4444C15.6312 21.5918 15.714 21.7916 15.714 22C15.714 23.6671 16.3762 25.2659 17.555 26.4447C18.7338 27.6235 20.3326 28.2857 21.9997 28.2857C23.6668 28.2857 25.2656 27.6235 26.4444 26.4447C27.6232 25.2659 28.2854 23.6671 28.2854 22C28.2854 21.7916 28.3682 21.5918 28.5156 21.4444C28.6629 21.2971 28.8628 21.2143 29.0711 21.2143C29.2795 21.2143 29.4794 21.2971 29.6267 21.4444C29.7741 21.5918 29.8569 21.7916 29.8569 22C29.8545 23.9471 29.1302 25.8242 27.824 27.2683C26.5178 28.7123 24.7226 29.6207 22.7854 29.8179Z" fill="white"/>
</svg>
