<svg width="24" height="24" viewBox="0 0 24 24" fill="none" xmlns="http://www.w3.org/2000/svg">
<path d="M10.0625 5.625C10.0625 5.90931 9.97819 6.18724 9.82024 6.42363C9.66228 6.66003 9.43778 6.84428 9.17511 6.95308C8.91244 7.06188 8.62341 7.09035 8.34456 7.03488C8.06571 6.97941 7.80957 6.8425 7.60854 6.64147C7.4075 6.44043 7.27059 6.18429 7.21512 5.90544C7.15966 5.6266 7.18812 5.33756 7.29692 5.07489C7.40572 4.81222 7.58997 4.58772 7.82637 4.42976C8.06276 4.27181 8.34069 4.1875 8.625 4.1875C9.00625 4.1875 9.37188 4.33895 9.64147 4.60853C9.91105 4.87812 10.0625 5.24375 10.0625 5.625ZM16.1736 6.82024C15.9372 6.97819 15.6593 7.0625 15.375 7.0625C14.9938 7.0625 14.6281 6.91105 14.3585 6.64147C14.089 6.37188 13.9375 6.00625 13.9375 5.625C13.9375 5.34069 14.0218 5.06276 14.1798 4.82637C14.3377 4.58997 14.5622 4.40572 14.8249 4.29692C15.0876 4.18812 15.3766 4.15966 15.6554 4.21512C15.9343 4.27059 16.1904 4.4075 16.3915 4.60853C16.5925 4.80957 16.7294 5.06571 16.7849 5.34456C16.8403 5.62341 16.8119 5.91244 16.7031 6.17511C16.5943 6.43778 16.41 6.66228 16.1736 6.82024ZM7.82637 10.8048C8.06276 10.6468 8.34069 10.5625 8.625 10.5625C9.00625 10.5625 9.37188 10.714 9.64147 10.9835C9.91105 11.2531 10.0625 11.6188 10.0625 12C10.0625 12.2843 9.97819 12.5622 9.82024 12.7986C9.66228 13.035 9.43778 13.2193 9.17511 13.3281C8.91244 13.4369 8.62341 13.4653 8.34456 13.4099C8.06571 13.3544 7.80957 13.2175 7.60854 13.0165C7.4075 12.8154 7.27059 12.5593 7.21512 12.2804C7.15966 12.0016 7.18812 11.7126 7.29692 11.4499C7.40572 11.1872 7.58997 10.9627 7.82637 10.8048ZM14.5764 10.8048C14.8128 10.6468 15.0907 10.5625 15.375 10.5625C15.7562 10.5625 16.1219 10.714 16.3915 10.9835C16.661 11.2531 16.8125 11.6188 16.8125 12C16.8125 12.2843 16.7282 12.5622 16.5702 12.7986C16.4123 13.035 16.1878 13.2193 15.9251 13.3281C15.6624 13.4369 15.3734 13.4653 15.0946 13.4099C14.8157 13.3544 14.5596 13.2175 14.3585 13.0165C14.1575 12.8154 14.0206 12.5593 13.9651 12.2804C13.9097 12.0016 13.9381 11.7126 14.0469 11.4499C14.1557 11.1872 14.34 10.9627 14.5764 10.8048ZM7.82637 17.1798C8.06276 17.0218 8.34069 16.9375 8.625 16.9375C9.00625 16.9375 9.37188 17.089 9.64147 17.3585C9.91105 17.6281 10.0625 17.9938 10.0625 18.375C10.0625 18.6593 9.97819 18.9372 9.82024 19.1736C9.66228 19.41 9.43778 19.5943 9.17511 19.7031C8.91244 19.8119 8.62341 19.8403 8.34456 19.7849C8.06571 19.7294 7.80957 19.5925 7.60854 19.3915C7.4075 19.1904 7.27059 18.9343 7.21512 18.6554C7.15966 18.3766 7.18812 18.0876 7.29692 17.8249C7.40572 17.5622 7.58997 17.3377 7.82637 17.1798ZM14.5764 17.1798C14.8128 17.0218 15.0907 16.9375 15.375 16.9375C15.7562 16.9375 16.1219 17.089 16.3915 17.3585C16.661 17.6281 16.8125 17.9938 16.8125 18.375C16.8125 18.6593 16.7282 18.9372 16.5702 19.1736C16.4123 19.41 16.1878 19.5943 15.9251 19.7031C15.6624 19.8119 15.3734 19.8403 15.0946 19.7849C14.8157 19.7294 14.5596 19.5925 14.3585 19.3915C14.1575 19.1904 14.0206 18.9343 13.9651 18.6554C13.9097 18.3766 13.9381 18.0876 14.0469 17.8249C14.1557 17.5622 14.34 17.3377 14.5764 17.1798Z" fill="#6C778B" stroke="#242425" stroke-width="0.125"/>
</svg>
