<svg width="40" height="40" viewBox="0 0 40 40" fill="none" xmlns="http://www.w3.org/2000/svg">
<path d="M28.5613 14.4387C28.7007 14.5781 28.8114 14.7435 28.8868 14.9256C28.9623 15.1077 29.0012 15.3029 29.0012 15.5C29.0012 15.6971 28.9623 15.8923 28.8868 16.0744C28.8114 16.2565 28.7007 16.4219 28.5613 16.5613L18.0613 27.0613C17.9219 27.2007 17.7565 27.3114 17.5744 27.3868C17.3923 27.4623 17.1971 27.5012 17 27.5012C16.8029 27.5012 16.6077 27.4623 16.4256 27.3868C16.2435 27.3114 16.0781 27.2007 15.9388 27.0613L11.4388 22.5613C11.1573 22.2798 10.9992 21.898 10.9992 21.5C10.9992 21.102 11.1573 20.7202 11.4388 20.4387C11.7202 20.1573 12.102 19.9992 12.5 19.9992C12.8981 19.9992 13.2798 20.1573 13.5613 20.4387L17 23.8794L26.4388 14.4387C26.5781 14.2993 26.7435 14.1886 26.9256 14.1132C27.1077 14.0377 27.3029 13.9988 27.5 13.9988C27.6971 13.9988 27.8923 14.0377 28.0744 14.1132C28.2565 14.1886 28.4219 14.2993 28.5613 14.4387ZM39.5 20C39.5 23.8567 38.3564 27.6269 36.2137 30.8336C34.071 34.0404 31.0255 36.5397 27.4623 38.0156C23.8992 39.4916 19.9784 39.8777 16.1957 39.1253C12.4131 38.3729 8.93855 36.5157 6.21143 33.7886C3.4843 31.0615 1.62711 27.5869 0.874696 23.8043C0.122284 20.0216 0.508449 16.1008 1.98436 12.5377C3.46027 8.97451 5.95963 5.92903 9.16639 3.78634C12.3731 1.64366 16.1433 0.5 20 0.5C25.1701 0.50546 30.1268 2.56167 33.7826 6.21745C37.4383 9.87322 39.4945 14.83 39.5 20ZM36.5 20C36.5 16.7366 35.5323 13.5465 33.7193 10.8331C31.9062 8.11968 29.3293 6.00483 26.3143 4.75599C23.2993 3.50714 19.9817 3.18039 16.781 3.81704C13.5803 4.4537 10.6403 6.02517 8.33275 8.33274C6.02518 10.6403 4.45371 13.5803 3.81705 16.781C3.1804 19.9817 3.50715 23.2993 4.756 26.3143C6.00484 29.3293 8.11969 31.9062 10.8331 33.7192C13.5465 35.5323 16.7366 36.5 20 36.5C24.3746 36.495 28.5685 34.7551 31.6618 31.6618C34.7551 28.5685 36.495 24.3745 36.5 20Z" fill="#5B5BE1"/>
</svg>
