<svg width="20" height="20" viewBox="0 0 20 20" fill="none" xmlns="http://www.w3.org/2000/svg">
<path d="M15.625 8.74991C15.625 8.91567 15.5592 9.07464 15.4419 9.19184C15.3247 9.30905 15.1658 9.3749 15 9.3749H11.875C11.7092 9.3749 11.5503 9.30905 11.4331 9.19184C11.3158 9.07464 11.25 8.91567 11.25 8.74991C11.25 8.58415 11.3158 8.42518 11.4331 8.30798C11.5503 8.19077 11.7092 8.12492 11.875 8.12492H15C15.1658 8.12492 15.3247 8.19077 15.4419 8.30798C15.5592 8.42518 15.625 8.58415 15.625 8.74991ZM15 10.6249H11.875C11.7092 10.6249 11.5503 10.6907 11.4331 10.8079C11.3158 10.9251 11.25 11.0841 11.25 11.2499C11.25 11.4156 11.3158 11.5746 11.4331 11.6918C11.5503 11.809 11.7092 11.8749 11.875 11.8749H15C15.1658 11.8749 15.3247 11.809 15.4419 11.6918C15.5592 11.5746 15.625 11.4156 15.625 11.2499C15.625 11.0841 15.5592 10.9251 15.4419 10.8079C15.3247 10.6907 15.1658 10.6249 15 10.6249ZM18.125 4.37498V15.6248C18.125 15.9563 17.9933 16.2743 17.7589 16.5087C17.5245 16.7431 17.2065 16.8748 16.875 16.8748H3.125C2.79348 16.8748 2.47554 16.7431 2.24112 16.5087C2.0067 16.2743 1.875 15.9563 1.875 15.6248V4.37498C1.875 4.04346 2.0067 3.72553 2.24112 3.49111C2.47554 3.25669 2.79348 3.125 3.125 3.125H16.875C17.2065 3.125 17.5245 3.25669 17.7589 3.49111C17.9933 3.72553 18.125 4.04346 18.125 4.37498ZM16.875 15.6248V4.37498H3.125V15.6248H16.875ZM10.6047 12.9686C10.6461 13.1292 10.6221 13.2996 10.5378 13.4425C10.4536 13.5853 10.316 13.6889 10.1555 13.7303C9.99489 13.7717 9.82442 13.7477 9.68157 13.6634C9.53872 13.5792 9.43519 13.4417 9.39375 13.2811C9.18828 12.4795 8.37344 11.8749 7.49922 11.8749C6.625 11.8749 5.81094 12.4795 5.60469 13.2811C5.56325 13.4417 5.45971 13.5792 5.31686 13.6634C5.17401 13.7477 5.00355 13.7717 4.84297 13.7303C4.68239 13.6889 4.54485 13.5853 4.4606 13.4425C4.37636 13.2996 4.35231 13.1292 4.39375 12.9686C4.59656 12.2137 5.07598 11.5628 5.73672 11.1452C5.3856 10.7962 5.14602 10.3507 5.04835 9.86538C4.95068 9.38003 4.99932 8.87661 5.1881 8.41894C5.37688 7.96126 5.6973 7.56994 6.10875 7.29459C6.52019 7.01923 7.00413 6.87223 7.49922 6.87223C7.99431 6.87223 8.47825 7.01923 8.88969 7.29459C9.30114 7.56994 9.62156 7.96126 9.81034 8.41894C9.99912 8.87661 10.0478 9.38003 9.95009 9.86538C9.85242 10.3507 9.61284 10.7962 9.26172 11.1452C9.92318 11.5622 10.403 12.2133 10.6055 12.9686H10.6047ZM7.5 10.6249C7.74723 10.6249 7.9889 10.5516 8.19446 10.4142C8.40002 10.2769 8.56024 10.0817 8.65485 9.85325C8.74946 9.62484 8.77421 9.37351 8.72598 9.13104C8.67775 8.88857 8.5587 8.66584 8.38388 8.49103C8.20907 8.31622 7.98634 8.19717 7.74386 8.14894C7.50139 8.10071 7.25005 8.12546 7.02165 8.22007C6.79324 8.31468 6.59801 8.47489 6.46066 8.68045C6.32331 8.88601 6.25 9.12768 6.25 9.3749C6.25 9.70642 6.3817 10.0244 6.61612 10.2588C6.85054 10.4932 7.16848 10.6249 7.5 10.6249Z" fill="#6C778B"/>
</svg>
