<svg width="16" height="17" viewBox="0 0 16 17" fill="none" xmlns="http://www.w3.org/2000/svg">
<path d="M14.3539 14.1463L11.2245 11.0175C12.1315 9.92859 12.5838 8.53189 12.4873 7.11798C12.3908 5.70407 11.7528 4.38181 10.7062 3.42625C9.65963 2.4707 8.28492 1.95543 6.86808 1.98763C5.45125 2.01983 4.10137 2.59702 3.09926 3.59913C2.09714 4.60125 1.51995 5.95113 1.48775 7.36796C1.45555 8.7848 1.97082 10.1595 2.92637 11.2061C3.88193 12.2527 5.20419 12.8906 6.6181 12.9872C8.03201 13.0837 9.42871 12.6314 10.5176 11.7244L13.6464 14.8538C13.6928 14.9002 13.748 14.9371 13.8087 14.9622C13.8694 14.9874 13.9344 15.0003 14.0001 15.0003C14.0658 15.0003 14.1309 14.9874 14.1916 14.9622C14.2523 14.9371 14.3074 14.9002 14.3539 14.8538C14.4003 14.8073 14.4372 14.7522 14.4623 14.6915C14.4875 14.6308 14.5004 14.5657 14.5004 14.5C14.5004 14.4343 14.4875 14.3693 14.4623 14.3086C14.4372 14.2479 14.4003 14.1927 14.3539 14.1463ZM2.50014 7.50002C2.50014 6.61 2.76406 5.73998 3.25853 4.99995C3.753 4.25993 4.4558 3.68316 5.27807 3.34256C6.10033 3.00197 7.00513 2.91285 7.87805 3.08649C8.75096 3.26012 9.55279 3.6887 10.1821 4.31804C10.8115 4.94738 11.24 5.7492 11.4137 6.62211C11.5873 7.49503 11.4982 8.39983 11.1576 9.2221C10.817 10.0444 10.2402 10.7472 9.50021 11.2416C8.76019 11.7361 7.89016 12 7.00014 12C5.80707 11.9987 4.66325 11.5242 3.81962 10.6805C2.976 9.83691 2.50147 8.69309 2.50014 7.50002Z" fill="#6C778B"/>
</svg>
