<svg width="16" height="17" viewBox="0 0 16 17" fill="none" xmlns="http://www.w3.org/2000/svg">
<path d="M14.3539 14.3358L11.2245 11.2071C12.1315 10.1182 12.5838 8.72147 12.4873 7.30755C12.3908 5.89364 11.7528 4.57138 10.7062 3.61583C9.65963 2.66028 8.28492 2.145 6.86808 2.1772C5.45125 2.2094 4.10137 2.7866 3.09926 3.78871C2.09714 4.79082 1.51995 6.1407 1.48775 7.55754C1.45555 8.97437 1.97082 10.3491 2.92637 11.3957C3.88193 12.4423 5.20419 13.0802 6.6181 13.1767C8.03201 13.2733 9.42871 12.821 10.5176 11.914L13.6464 15.0433C13.6928 15.0898 13.748 15.1267 13.8087 15.1518C13.8694 15.1769 13.9344 15.1899 14.0001 15.1899C14.0658 15.1899 14.1309 15.1769 14.1916 15.1518C14.2523 15.1267 14.3074 15.0898 14.3539 15.0433C14.4003 14.9969 14.4372 14.9417 14.4623 14.881C14.4875 14.8203 14.5004 14.7553 14.5004 14.6896C14.5004 14.6239 14.4875 14.5588 14.4623 14.4981C14.4372 14.4375 14.4003 14.3823 14.3539 14.3358ZM2.50014 7.6896C2.50014 6.79958 2.76406 5.92955 3.25853 5.18953C3.753 4.44951 4.4558 3.87273 5.27807 3.53214C6.10033 3.19154 7.00513 3.10243 7.87805 3.27606C8.75096 3.4497 9.55279 3.87828 10.1821 4.50762C10.8115 5.13695 11.24 5.93877 11.4137 6.81169C11.5873 7.6846 11.4982 8.5894 11.1576 9.41167C10.817 10.2339 10.2402 10.9367 9.50021 11.4312C8.76019 11.9257 7.89016 12.1896 7.00014 12.1896C5.80707 12.1883 4.66325 11.7137 3.81962 10.8701C2.976 10.0265 2.50147 8.88266 2.50014 7.6896Z" fill="#6C778B"/>
</svg>
