<svg width="37" height="37" viewBox="0 0 37 37" fill="none" xmlns="http://www.w3.org/2000/svg">
<rect width="37" height="37" rx="18.5" fill="#5B5BE1"/>
<path d="M27.4898 17.4051L14.3648 9.91372C14.1436 9.78961 13.8898 9.73576 13.6373 9.7593C13.3847 9.78285 13.1452 9.88269 12.9508 10.0456C12.7563 10.2084 12.6159 10.4266 12.5484 10.6711C12.4809 10.9156 12.4893 11.1749 12.5726 11.4145L14.9945 18.4825C14.9942 18.4851 14.9942 18.4877 14.9945 18.4903C14.9941 18.4929 14.9941 18.4955 14.9945 18.4981L12.5726 25.5817C12.5059 25.7702 12.4854 25.9719 12.5127 26.17C12.5401 26.368 12.6146 26.5566 12.7299 26.7199C12.8452 26.8833 12.9981 27.0165 13.1756 27.1086C13.3531 27.2006 13.5501 27.2487 13.75 27.2489C13.9669 27.2483 14.18 27.1918 14.3687 27.0848L27.4867 19.5809C27.6802 19.4725 27.8414 19.3146 27.9537 19.1233C28.066 18.9321 28.1254 18.7144 28.1258 18.4926C28.1262 18.2708 28.0676 18.0529 27.956 17.8612C27.8443 17.6696 27.6837 17.5111 27.4906 17.402L27.4898 17.4051ZM13.75 25.9989V25.9918L16.1047 19.1239H20.625C20.7908 19.1239 20.9497 19.058 21.0669 18.9408C21.1841 18.8236 21.25 18.6646 21.25 18.4989C21.25 18.3331 21.1841 18.1741 21.0669 18.0569C20.9497 17.9397 20.7908 17.8739 20.625 17.8739H16.1109L13.7547 11.0082L13.75 10.9989L26.875 18.4856L13.75 25.9989Z" fill="white"/>
</svg>
