<svg width="20" height="20" viewBox="0 0 20 20" fill="none" xmlns="http://www.w3.org/2000/svg">
<path d="M9.9993 6.24923C9.25762 6.24923 8.5326 6.46916 7.91592 6.88121C7.29923 7.29326 6.81858 7.87892 6.53476 8.56413C6.25093 9.24935 6.17666 10.0033 6.32136 10.7308C6.46605 11.4582 6.82321 12.1263 7.34765 12.6508C7.8721 13.1752 8.54029 13.5324 9.26772 13.6771C9.99514 13.8218 10.7491 13.7475 11.4344 13.4637C12.1196 13.1798 12.7053 12.6992 13.1173 12.0825C13.5294 11.4659 13.7493 10.7408 13.7493 9.99917C13.7483 9.00494 13.3529 8.05173 12.6498 7.34871C11.9468 6.64568 10.9935 6.25027 9.9993 6.24923ZM9.9993 12.4991C9.50485 12.4991 9.0215 12.3525 8.61038 12.0778C8.19926 11.8031 7.87882 11.4127 7.6896 10.9559C7.50039 10.4991 7.45088 9.9964 7.54734 9.51146C7.6438 9.02651 7.88191 8.58106 8.23154 8.23143C8.58117 7.88181 9.02663 7.64371 9.51158 7.54725C9.99653 7.45079 10.4992 7.50029 10.956 7.68951C11.4128 7.87873 11.8033 8.19915 12.078 8.61027C12.3527 9.02139 12.4993 9.50473 12.4993 9.99917C12.4993 10.6622 12.2359 11.2981 11.7671 11.7669C11.2982 12.2357 10.6623 12.4991 9.9993 12.4991ZM16.8743 10.1679C16.8774 10.0554 16.8774 9.94292 16.8743 9.83043L18.0399 8.3742C18.101 8.29774 18.1434 8.20799 18.1634 8.11219C18.1835 8.01639 18.1808 7.91721 18.1556 7.82265C17.9645 7.10438 17.6786 6.41474 17.3056 5.7719C17.2567 5.68777 17.1889 5.61621 17.1075 5.56291C17.0261 5.50961 16.9334 5.47604 16.8368 5.46487L14.9837 5.25862C14.9066 5.17737 14.8285 5.09925 14.7493 5.02425L14.5306 3.16647C14.5193 3.06976 14.4856 2.97702 14.4322 2.89564C14.3787 2.81426 14.307 2.74648 14.2227 2.69773C13.5796 2.32535 12.8901 2.0398 12.172 1.84852C12.0773 1.82336 11.9781 1.82079 11.8823 1.84101C11.7865 1.86123 11.6968 1.90367 11.6204 1.96493L10.1681 3.12428C10.0556 3.12428 9.94305 3.12428 9.83055 3.12428L8.3743 1.96102C8.29784 1.8999 8.2081 1.8576 8.11229 1.83751C8.01649 1.81743 7.91731 1.82013 7.82274 1.8454C7.10458 2.03682 6.41497 2.32264 5.77196 2.69538C5.68783 2.74423 5.61627 2.81204 5.56297 2.89342C5.50967 2.97479 5.47609 3.06749 5.46493 3.16413L5.25868 5.02035C5.17743 5.09795 5.0993 5.17607 5.0243 5.25472L3.16649 5.468C3.06978 5.47925 2.97704 5.51294 2.89566 5.56638C2.81427 5.61982 2.7465 5.69153 2.69774 5.7758C2.32536 6.41889 2.0398 7.10847 1.84852 7.82655C1.82336 7.92118 1.82079 8.02039 1.84101 8.1162C1.86123 8.212 1.90368 8.30171 1.96493 8.37811L3.1243 9.83043C3.1243 9.94292 3.1243 10.0554 3.1243 10.1679L1.96102 11.6241C1.8999 11.7006 1.8576 11.7904 1.83752 11.8862C1.81743 11.982 1.82013 12.0811 1.8454 12.1757C2.03648 12.894 2.32233 13.5836 2.6954 14.2264C2.74425 14.3106 2.81206 14.3821 2.89344 14.4354C2.97481 14.4887 3.06751 14.5223 3.16415 14.5335L5.01727 14.7397C5.09488 14.821 5.173 14.8991 5.25165 14.9741L5.46805 16.8319C5.47931 16.9286 5.51299 17.0213 5.56644 17.1027C5.61988 17.1841 5.69159 17.2519 5.77587 17.3006C6.41896 17.673 7.10855 17.9586 7.82665 18.1498C7.92128 18.175 8.02049 18.1776 8.1163 18.1573C8.2121 18.1371 8.30182 18.0947 8.37821 18.0334L9.83055 16.8741C9.94305 16.8772 10.0556 16.8772 10.1681 16.8741L11.6243 18.0397C11.7008 18.1008 11.7905 18.1431 11.8863 18.1632C11.9821 18.1833 12.0813 18.1806 12.1759 18.1553C12.8941 17.9642 13.5838 17.6784 14.2266 17.3053C14.3108 17.2565 14.3823 17.1886 14.4356 17.1073C14.4889 17.0259 14.5225 16.9332 14.5337 16.8366L14.7399 14.9835C14.8212 14.9064 14.8993 14.8283 14.9743 14.7491L16.8321 14.5304C16.9288 14.5191 17.0216 14.4854 17.103 14.432C17.1843 14.3785 17.2521 14.3068 17.3009 14.2225C17.6733 13.5795 17.9588 12.8899 18.1501 12.1718C18.1752 12.0772 18.1778 11.978 18.1576 11.8821C18.1374 11.7863 18.0949 11.6966 18.0337 11.6202L16.8743 10.1679ZM15.6165 9.66012C15.6298 9.88596 15.6298 10.1124 15.6165 10.3382C15.6072 10.4929 15.6556 10.6454 15.7524 10.7663L16.861 12.1515C16.7338 12.5557 16.5709 12.9479 16.3743 13.3233L14.6087 13.5233C14.4549 13.5404 14.313 13.6139 14.2102 13.7296C14.0599 13.8987 13.8997 14.0589 13.7306 14.2093C13.6149 14.312 13.5414 14.4539 13.5243 14.6077L13.3282 16.3717C12.9528 16.5684 12.5606 16.7313 12.1563 16.8584L10.7704 15.7499C10.6595 15.6613 10.5217 15.613 10.3798 15.6131H10.3423C10.1164 15.6264 9.88999 15.6264 9.66415 15.6131C9.50952 15.6038 9.35695 15.6523 9.23602 15.7491L7.84696 16.8584C7.44269 16.7312 7.05052 16.5684 6.67508 16.3717L6.47508 14.6085C6.45802 14.4547 6.38453 14.3127 6.26884 14.21C6.0997 14.0597 5.93953 13.8995 5.78915 13.7304C5.68644 13.6147 5.54447 13.5412 5.39071 13.5241L3.62665 13.3272C3.42992 12.9519 3.26704 12.5597 3.13993 12.1554L4.24852 10.7695C4.34532 10.6485 4.39377 10.496 4.38446 10.3414C4.37118 10.1155 4.37118 9.88908 4.38446 9.66324C4.39377 9.50862 4.34532 9.35605 4.24852 9.23512L3.13993 7.84686C3.26714 7.4426 3.43002 7.05044 3.62665 6.67501L5.38993 6.47501C5.54369 6.45794 5.68566 6.38446 5.78837 6.26876C5.93875 6.09963 6.09892 5.93946 6.26805 5.78908C6.38421 5.68631 6.458 5.54402 6.47508 5.38987L6.67118 3.62662C7.04657 3.4299 7.43875 3.26702 7.84305 3.13991L9.22899 4.24848C9.34992 4.34528 9.50249 4.39373 9.65712 4.38442C9.88296 4.37114 10.1094 4.37114 10.3352 4.38442C10.4899 4.39373 10.6424 4.34528 10.7634 4.24848L12.1516 3.13991C12.5559 3.26711 12.9481 3.42999 13.3235 3.62662L13.5235 5.38987C13.5406 5.54363 13.6141 5.6856 13.7298 5.7883C13.8989 5.93868 14.0591 6.09885 14.2095 6.26798C14.3122 6.38367 14.4541 6.45716 14.6079 6.47423L16.372 6.67032C16.5687 7.04571 16.7316 7.43788 16.8587 7.84218L15.7501 9.22809C15.6524 9.35004 15.6039 9.50418 15.6141 9.66012H15.6165Z" fill="#6C778B"/>
</svg>
