<svg width="18" height="18" viewBox="0 0 18 18" fill="none" xmlns="http://www.w3.org/2000/svg">
<path d="M9.00028 5.2493C8.2586 5.2493 7.53358 5.46924 6.91689 5.88129C6.30021 6.29335 5.81956 6.87902 5.53573 7.56424C5.2519 8.24946 5.17764 9.00346 5.32234 9.73089C5.46703 10.4583 5.82418 11.1265 6.34863 11.651C6.87308 12.1754 7.54126 12.5326 8.26869 12.6772C8.99612 12.8219 9.75012 12.7477 10.4353 12.4639C11.1206 12.18 11.7062 11.6994 12.1183 11.0827C12.5303 10.466 12.7503 9.74098 12.7503 8.9993C12.7492 8.00506 12.3538 7.05183 11.6508 6.3488C10.9478 5.64576 9.99452 5.25034 9.00028 5.2493ZM9.00028 11.4993C8.50583 11.4993 8.02248 11.3527 7.61135 11.078C7.20023 10.8033 6.8798 10.4128 6.69058 9.95601C6.50136 9.4992 6.45185 8.99653 6.54832 8.51158C6.64478 8.02663 6.88288 7.58117 7.23251 7.23154C7.58214 6.8819 8.0276 6.6438 8.51255 6.54734C8.99751 6.45088 9.50017 6.50039 9.95699 6.6896C10.4138 6.87882 10.8043 7.19926 11.079 7.61038C11.3537 8.0215 11.5003 8.50485 11.5003 8.9993C11.5003 9.66234 11.2369 10.2982 10.768 10.7671C10.2992 11.2359 9.66332 11.4993 9.00028 11.4993ZM15.8753 9.16805C15.8784 9.05555 15.8784 8.94305 15.8753 8.83055L17.0409 7.3743C17.102 7.29784 17.1443 7.2081 17.1644 7.11229C17.1845 7.01649 17.1818 6.91731 17.1565 6.82274C16.9654 6.10446 16.6796 5.41481 16.3065 4.77196C16.2577 4.68783 16.1899 4.61627 16.1085 4.56297C16.0271 4.50967 15.9344 4.47609 15.8378 4.46493L13.9847 4.25868C13.9076 4.17743 13.8294 4.0993 13.7503 4.0243L13.5315 2.16649C13.5203 2.06978 13.4866 1.97704 13.4331 1.89566C13.3797 1.81427 13.308 1.7465 13.2237 1.69774C12.5806 1.32536 11.891 1.0398 11.1729 0.848522C11.0783 0.823363 10.9791 0.82079 10.8833 0.84101C10.7875 0.861229 10.6978 0.903676 10.6214 0.964928L9.16903 2.1243C9.05653 2.1243 8.94403 2.1243 8.83153 2.1243L7.37528 0.961022C7.29882 0.899904 7.20907 0.857598 7.11327 0.837515C7.01747 0.817432 6.91829 0.820131 6.82372 0.845397C6.10555 1.03682 5.41595 1.32265 4.77294 1.6954C4.68881 1.74425 4.61725 1.81206 4.56394 1.89344C4.51064 1.97481 4.47707 2.06751 4.4659 2.16415L4.25965 4.0204C4.1784 4.098 4.10028 4.17613 4.02528 4.25477L2.16747 4.46805C2.07076 4.4793 1.97801 4.51299 1.89663 4.56644C1.81525 4.61988 1.74748 4.69159 1.69872 4.77587C1.32633 5.41896 1.04078 6.10855 0.849499 6.82665C0.82434 6.92128 0.821767 7.02049 0.841986 7.1163C0.862206 7.2121 0.904653 7.30182 0.965905 7.37821L2.12528 8.83055C2.12528 8.94305 2.12528 9.05555 2.12528 9.16805L0.961999 10.6243C0.90088 10.7008 0.858575 10.7905 0.838492 10.8863C0.818408 10.9821 0.821108 11.0813 0.846373 11.1759C1.03746 11.8941 1.3233 12.5838 1.69637 13.2266C1.74522 13.3108 1.81303 13.3823 1.89441 13.4356C1.97579 13.4889 2.06849 13.5225 2.16512 13.5337L4.01825 13.7399C4.09585 13.8212 4.17398 13.8993 4.25262 13.9743L4.46903 15.8321C4.48028 15.9288 4.51397 16.0216 4.56741 16.103C4.62085 16.1843 4.69257 16.2521 4.77684 16.3009C5.41994 16.6733 6.10953 16.9588 6.82762 17.1501C6.92225 17.1752 7.02147 17.1778 7.11727 17.1576C7.21308 17.1374 7.30279 17.0949 7.37919 17.0337L8.83153 15.8743C8.94403 15.8774 9.05653 15.8774 9.16903 15.8743L10.6253 17.0399C10.7017 17.101 10.7915 17.1434 10.8873 17.1634C10.9831 17.1835 11.0823 17.1808 11.1768 17.1556C11.8951 16.9645 12.5848 16.6786 13.2276 16.3056C13.3118 16.2567 13.3833 16.1889 13.4366 16.1075C13.4899 16.0261 13.5235 15.9334 13.5347 15.8368L13.7409 13.9837C13.8222 13.9066 13.9003 13.8285 13.9753 13.7493L15.8331 13.5306C15.9298 13.5193 16.0225 13.4856 16.1039 13.4322C16.1853 13.3787 16.2531 13.307 16.3018 13.2227C16.6742 12.5796 16.9598 11.8901 17.1511 11.172C17.1762 11.0773 17.1788 10.9781 17.1586 10.8823C17.1384 10.7865 17.0959 10.6968 17.0347 10.6204L15.8753 9.16805ZM14.6175 8.66024C14.6307 8.88609 14.6307 9.11252 14.6175 9.33837C14.6082 9.49299 14.6566 9.64556 14.7534 9.76649L15.862 11.1516C15.7348 11.5559 15.5719 11.9481 15.3753 12.3235L13.6097 12.5235C13.4559 12.5406 13.3139 12.6141 13.2112 12.7298C13.0608 12.8989 12.9007 13.0591 12.7315 13.2095C12.6158 13.3122 12.5423 13.4541 12.5253 13.6079L12.3292 15.372C11.9538 15.5687 11.5616 15.7316 11.1573 15.8587L9.77137 14.7501C9.66047 14.6615 9.5227 14.6133 9.38075 14.6134H9.34325C9.1174 14.6266 8.89097 14.6266 8.66512 14.6134C8.5105 14.6041 8.35793 14.6525 8.237 14.7493L6.84794 15.8587C6.44366 15.7315 6.0515 15.5686 5.67606 15.372L5.47606 13.6087C5.45899 13.4549 5.3855 13.3129 5.26981 13.2102C5.10068 13.0599 4.94051 12.8997 4.79012 12.7306C4.68742 12.6149 4.54545 12.5414 4.39169 12.5243L2.62762 12.3274C2.4309 11.952 2.26801 11.5599 2.1409 11.1556L3.2495 9.76962C3.3463 9.64868 3.39474 9.49611 3.38544 9.34149C3.37216 9.11564 3.37216 8.88921 3.38544 8.66337C3.39474 8.50874 3.3463 8.35617 3.2495 8.23524L2.1409 6.84696C2.26811 6.44269 2.43099 6.05052 2.62762 5.67508L4.3909 5.47508C4.54467 5.45802 4.68663 5.38453 4.78934 5.26883C4.93973 5.0997 5.0999 4.93953 5.26903 4.78915C5.38518 4.68637 5.45897 4.54408 5.47606 4.38993L5.67216 2.62665C6.04755 2.42992 6.43972 2.26704 6.84403 2.13993L8.22997 3.24852C8.3509 3.34532 8.50347 3.39377 8.65809 3.38446C8.88394 3.37118 9.11037 3.37118 9.33622 3.38446C9.49084 3.39377 9.64341 3.34532 9.76434 3.24852L11.1526 2.13993C11.5569 2.26714 11.9491 2.43002 12.3245 2.62665L12.5245 4.38993C12.5416 4.54369 12.6151 4.68566 12.7307 4.78837C12.8999 4.93875 13.0601 5.09892 13.2104 5.26805C13.3131 5.38375 13.4551 5.45724 13.6089 5.4743L15.3729 5.6704C15.5697 6.04579 15.7325 6.43797 15.8597 6.84227L14.7511 8.22821C14.6533 8.35016 14.6048 8.5043 14.6151 8.66024H14.6175Z" fill="#6C778B"/>
</svg>
