<svg width="20" height="21" viewBox="0 0 20 21" fill="none" xmlns="http://www.w3.org/2000/svg">
<path d="M16.7711 5.93555H15.625V3.43555C15.625 3.26979 15.5592 3.11082 15.4419 2.99361C15.3247 2.8764 15.1658 2.81055 15 2.81055H5C4.83424 2.81055 4.67527 2.8764 4.55806 2.99361C4.44085 3.11082 4.375 3.26979 4.375 3.43555V5.93555H3.22891C2.1375 5.93555 1.25 6.77695 1.25 7.81055V14.0605C1.25 14.2263 1.31585 14.3853 1.43306 14.5025C1.55027 14.6197 1.70924 14.6855 1.875 14.6855H4.375V17.1855C4.375 17.3513 4.44085 17.5103 4.55806 17.6275C4.67527 17.7447 4.83424 17.8105 5 17.8105H15C15.1658 17.8105 15.3247 17.7447 15.4419 17.6275C15.5592 17.5103 15.625 17.3513 15.625 17.1855V14.6855H18.125C18.2908 14.6855 18.4497 14.6197 18.5669 14.5025C18.6842 14.3853 18.75 14.2263 18.75 14.0605V7.81055C18.75 6.77695 17.8625 5.93555 16.7711 5.93555ZM5.625 4.06055H14.375V5.93555H5.625V4.06055ZM14.375 16.5605H5.625V12.8105H14.375V16.5605ZM17.5 13.4355H15.625V12.1855C15.625 12.0198 15.5592 11.8608 15.4419 11.7436C15.3247 11.6264 15.1658 11.5605 15 11.5605H5C4.83424 11.5605 4.67527 11.6264 4.55806 11.7436C4.44085 11.8608 4.375 12.0198 4.375 12.1855V13.4355H2.5V7.81055C2.5 7.46602 2.82734 7.18555 3.22891 7.18555H16.7711C17.1727 7.18555 17.5 7.46602 17.5 7.81055V13.4355ZM15.625 9.37305C15.625 9.55847 15.57 9.73972 15.467 9.89389C15.364 10.0481 15.2176 10.1682 15.0463 10.2392C14.875 10.3101 14.6865 10.3287 14.5046 10.2925C14.3227 10.2564 14.1557 10.1671 14.0246 10.036C13.8935 9.90485 13.8042 9.7378 13.768 9.55594C13.7318 9.37409 13.7504 9.18559 13.8214 9.01428C13.8923 8.84298 14.0125 8.69656 14.1667 8.59354C14.3208 8.49053 14.5021 8.43555 14.6875 8.43555C14.9361 8.43555 15.1746 8.53432 15.3504 8.71013C15.5262 8.88595 15.625 9.12441 15.625 9.37305Z" fill="#6C778B"/>
</svg>
