<svg width="36" height="37" viewBox="0 0 36 37" fill="none" xmlns="http://www.w3.org/2000/svg">
<rect x="0.611111" y="0.800564" width="34.7778" height="34.7778" rx="5.38889" fill="white"/>
<rect x="0.611111" y="0.800564" width="34.7778" height="34.7778" rx="5.38889" stroke="#D8DCE4" stroke-width="1.22222"/>
<path d="M22.125 20.9403C21.6663 20.9401 21.2124 21.032 20.7899 21.2104C20.3674 21.3889 19.9851 21.6503 19.6654 21.9792L15.7037 19.4329C16.0153 18.6338 16.0153 17.7467 15.7037 16.9476L19.6654 14.4013C20.2605 15.0108 21.0607 15.3777 21.911 15.4308C22.7612 15.4839 23.6008 15.2194 24.2671 14.6886C24.9334 14.1578 25.3788 13.3985 25.5171 12.5579C25.6554 11.7173 25.4766 10.8553 25.0154 10.1391C24.5542 9.42284 23.8435 8.90334 23.0211 8.68131C22.1987 8.45928 21.3231 8.55055 20.5641 8.93741C19.8051 9.32427 19.2169 9.97917 18.9133 10.7751C18.6098 11.5711 18.6126 12.4514 18.9212 13.2454L14.9595 15.7917C14.4824 15.302 13.8701 14.9656 13.2009 14.8256C12.5317 14.6856 11.8359 14.7483 11.2025 15.0058C10.5691 15.2633 10.0269 15.7039 9.64519 16.2711C9.26346 16.8383 9.05957 17.5065 9.05957 18.1903C9.05957 18.874 9.26346 19.5422 9.64519 20.1094C10.0269 20.6767 10.5691 21.1172 11.2025 21.3747C11.8359 21.6322 12.5317 21.6949 13.2009 21.5549C13.8701 21.4149 14.4824 21.0785 14.9595 20.5888L18.9212 23.1351C18.6558 23.8196 18.6165 24.5711 18.8091 25.2796C19.0018 25.988 19.4161 26.6162 19.9916 27.0721C20.567 27.528 21.2733 27.7877 22.007 27.8132C22.7408 27.8386 23.4634 27.6285 24.069 27.2136C24.6747 26.7987 25.1316 26.2007 25.3729 25.5073C25.6141 24.8139 25.627 24.0615 25.4097 23.3602C25.1924 22.659 24.7562 22.0457 24.1652 21.6102C23.5741 21.1748 22.8591 20.94 22.125 20.9403ZM22.125 9.94025C22.5329 9.94025 22.9317 10.0612 23.2708 10.2878C23.61 10.5145 23.8744 10.8366 24.0305 11.2135C24.1866 11.5903 24.2274 12.005 24.1478 12.4051C24.0683 12.8052 23.8718 13.1727 23.5834 13.4612C23.2949 13.7496 22.9274 13.946 22.5273 14.0256C22.1273 14.1052 21.7126 14.0644 21.3357 13.9083C20.9588 13.7521 20.6367 13.4878 20.4101 13.1486C20.1834 12.8094 20.0625 12.4107 20.0625 12.0028C20.0625 11.4557 20.2798 10.9311 20.6666 10.5443C21.0533 10.1576 21.578 9.94025 22.125 9.94025ZM12.5 20.2528C12.092 20.2528 11.6933 20.1318 11.3541 19.9052C11.0149 19.6785 10.7506 19.3564 10.5945 18.9795C10.4384 18.6027 10.3975 18.188 10.4771 17.7879C10.5567 17.3878 10.7531 17.0203 11.0416 16.7318C11.33 16.4434 11.6975 16.247 12.0976 16.1674C12.4977 16.0878 12.9124 16.1286 13.2892 16.2848C13.6661 16.4409 13.9882 16.7052 14.2149 17.0444C14.4415 17.3836 14.5625 17.7823 14.5625 18.1903C14.5625 18.7373 14.3452 19.2619 13.9584 19.6487C13.5716 20.0355 13.047 20.2528 12.5 20.2528ZM22.125 26.4403C21.717 26.4403 21.3183 26.3193 20.9791 26.0927C20.6399 25.866 20.3756 25.5439 20.2195 25.167C20.0634 24.7902 20.0225 24.3755 20.1021 23.9754C20.1817 23.5753 20.3781 23.2078 20.6666 22.9193C20.955 22.6309 21.3225 22.4345 21.7226 22.3549C22.1227 22.2753 22.5374 22.3161 22.9142 22.4722C23.2911 22.6284 23.6132 22.8927 23.8399 23.2319C24.0665 23.5711 24.1875 23.9698 24.1875 24.3778C24.1875 24.9248 23.9702 25.4494 23.5834 25.8362C23.1966 26.223 22.672 26.4403 22.125 26.4403Z" fill="#6C778B"/>
</svg>
