<svg width="20" height="21" viewBox="0 0 20 21" fill="none" xmlns="http://www.w3.org/2000/svg">
<path d="M17.5 12.1855C17.5 12.3513 17.4342 12.5103 17.3169 12.6275C17.1997 12.7447 17.0408 12.8105 16.875 12.8105H15V14.0605H16.25C16.4158 14.0605 16.5747 14.1264 16.6919 14.2436C16.8092 14.3608 16.875 14.5198 16.875 14.6855C16.875 14.8513 16.8092 15.0103 16.6919 15.1275C16.5747 15.2447 16.4158 15.3105 16.25 15.3105H15V16.5605C15 16.7263 14.9342 16.8853 14.8169 17.0025C14.6997 17.1197 14.5408 17.1855 14.375 17.1855C14.2092 17.1855 14.0503 17.1197 13.9331 17.0025C13.8158 16.8853 13.75 16.7263 13.75 16.5605V12.1855C13.75 12.0198 13.8158 11.8608 13.9331 11.7436C14.0503 11.6264 14.2092 11.5605 14.375 11.5605H16.875C17.0408 11.5605 17.1997 11.6264 17.3169 11.7436C17.4342 11.8608 17.5 12.0198 17.5 12.1855ZM7.1875 13.748C7.1875 14.3282 6.95703 14.8846 6.5468 15.2948C6.13656 15.7051 5.58016 15.9355 5 15.9355H4.375V16.5605C4.375 16.7263 4.30915 16.8853 4.19194 17.0025C4.07473 17.1197 3.91576 17.1855 3.75 17.1855C3.58424 17.1855 3.42527 17.1197 3.30806 17.0025C3.19085 16.8853 3.125 16.7263 3.125 16.5605V12.1855C3.125 12.0198 3.19085 11.8608 3.30806 11.7436C3.42527 11.6264 3.58424 11.5605 3.75 11.5605H5C5.58016 11.5605 6.13656 11.791 6.5468 12.2013C6.95703 12.6115 7.1875 13.1679 7.1875 13.748ZM5.9375 13.748C5.9375 13.4994 5.83873 13.261 5.66291 13.0851C5.4871 12.9093 5.24864 12.8105 5 12.8105H4.375V14.6855H5C5.24864 14.6855 5.4871 14.5868 5.66291 14.411C5.83873 14.2351 5.9375 13.9967 5.9375 13.748ZM12.8125 14.373C12.8125 15.119 12.5162 15.8343 11.9887 16.3618C11.4613 16.8892 10.7459 17.1855 10 17.1855H8.75C8.58424 17.1855 8.42527 17.1197 8.30806 17.0025C8.19085 16.8853 8.125 16.7263 8.125 16.5605V12.1855C8.125 12.0198 8.19085 11.8608 8.30806 11.7436C8.42527 11.6264 8.58424 11.5605 8.75 11.5605H10C10.7459 11.5605 11.4613 11.8569 11.9887 12.3843C12.5162 12.9118 12.8125 13.6271 12.8125 14.373ZM11.5625 14.373C11.5625 13.9586 11.3979 13.5612 11.1049 13.2682C10.8118 12.9752 10.4144 12.8105 10 12.8105H9.375V15.9355H10C10.4144 15.9355 10.8118 15.7709 11.1049 15.4779C11.3979 15.1849 11.5625 14.7874 11.5625 14.373ZM3.125 9.06055V3.43555C3.125 3.10403 3.2567 2.78608 3.49112 2.55166C3.72554 2.31724 4.04348 2.18555 4.375 2.18555H11.875C11.9571 2.18548 12.0384 2.20159 12.1143 2.23296C12.1902 2.26433 12.2591 2.31034 12.3172 2.36836L16.6922 6.74336C16.7502 6.80145 16.7962 6.87039 16.8276 6.94627C16.859 7.02214 16.8751 7.10345 16.875 7.18555V9.06055C16.875 9.22631 16.8092 9.38528 16.6919 9.50249C16.5747 9.6197 16.4158 9.68555 16.25 9.68555C16.0842 9.68555 15.9253 9.6197 15.8081 9.50249C15.6908 9.38528 15.625 9.22631 15.625 9.06055V7.81055H11.875C11.7092 7.81055 11.5503 7.7447 11.4331 7.62749C11.3158 7.51028 11.25 7.35131 11.25 7.18555V3.43555H4.375V9.06055C4.375 9.22631 4.30915 9.38528 4.19194 9.50249C4.07473 9.6197 3.91576 9.68555 3.75 9.68555C3.58424 9.68555 3.42527 9.6197 3.30806 9.50249C3.19085 9.38528 3.125 9.22631 3.125 9.06055ZM12.5 6.56055H14.7414L12.5 4.31914V6.56055Z" fill="#6C778B"/>
</svg>
