<svg width="20" height="21" viewBox="0 0 20 21" fill="none" xmlns="http://www.w3.org/2000/svg">
<path d="M17.5 4.06055H2.5C2.33424 4.06055 2.17527 4.1264 2.05806 4.24361C1.94085 4.36082 1.875 4.51979 1.875 4.68555V15.3105C1.875 15.6421 2.0067 15.96 2.24112 16.1944C2.47554 16.4289 2.79348 16.5605 3.125 16.5605H16.875C17.2065 16.5605 17.5245 16.4289 17.7589 16.1944C17.9933 15.96 18.125 15.6421 18.125 15.3105V4.68555C18.125 4.51979 18.0592 4.36082 17.9419 4.24361C17.8247 4.1264 17.6658 4.06055 17.5 4.06055ZM15.893 5.31055L10 10.7129L4.10703 5.31055H15.893ZM16.875 15.3105H3.125V6.10664L9.57734 12.0215C9.69265 12.1273 9.84348 12.1861 10 12.1861C10.1565 12.1861 10.3074 12.1273 10.4227 12.0215L16.875 6.10664V15.3105Z" fill="#6C778B"/>
</svg>
