<svg width="20" height="21" viewBox="0 0 20 21" fill="none" xmlns="http://www.w3.org/2000/svg">
<path d="M16.6922 6.74336L12.3172 2.36836C12.2591 2.31034 12.1902 2.26433 12.1143 2.23296C12.0384 2.20159 11.9571 2.18548 11.875 2.18555H4.375C4.04348 2.18555 3.72554 2.31724 3.49112 2.55166C3.2567 2.78608 3.125 3.10403 3.125 3.43555V17.1855C3.125 17.5171 3.2567 17.835 3.49112 18.0694C3.72554 18.3039 4.04348 18.4355 4.375 18.4355H15.625C15.9565 18.4355 16.2745 18.3039 16.5089 18.0694C16.7433 17.835 16.875 17.5171 16.875 17.1855V7.18555C16.8751 7.10345 16.859 7.02214 16.8276 6.94627C16.7962 6.87039 16.7502 6.80145 16.6922 6.74336ZM12.5 4.31914L14.7414 6.56055H12.5V4.31914ZM15.625 17.1855H4.375V3.43555H11.25V7.18555C11.25 7.35131 11.3158 7.51028 11.4331 7.62749C11.5503 7.7447 11.7092 7.81055 11.875 7.81055H15.625V17.1855ZM13.125 10.9355C13.125 11.1013 13.0592 11.2603 12.9419 11.3775C12.8247 11.4947 12.6658 11.5605 12.5 11.5605H7.5C7.33424 11.5605 7.17527 11.4947 7.05806 11.3775C6.94085 11.2603 6.875 11.1013 6.875 10.9355C6.875 10.7698 6.94085 10.6108 7.05806 10.4936C7.17527 10.3764 7.33424 10.3105 7.5 10.3105H12.5C12.6658 10.3105 12.8247 10.3764 12.9419 10.4936C13.0592 10.6108 13.125 10.7698 13.125 10.9355ZM13.125 13.4355C13.125 13.6013 13.0592 13.7603 12.9419 13.8775C12.8247 13.9947 12.6658 14.0605 12.5 14.0605H7.5C7.33424 14.0605 7.17527 13.9947 7.05806 13.8775C6.94085 13.7603 6.875 13.6013 6.875 13.4355C6.875 13.2698 6.94085 13.1108 7.05806 12.9936C7.17527 12.8764 7.33424 12.8105 7.5 12.8105H12.5C12.6658 12.8105 12.8247 12.8764 12.9419 12.9936C13.0592 13.1108 13.125 13.2698 13.125 13.4355Z" fill="#6C778B"/>
</svg>
