<svg width="20" height="21" viewBox="0 0 20 21" fill="none" xmlns="http://www.w3.org/2000/svg">
<path d="M12.9424 7.36867C13.0005 7.42672 13.0466 7.49565 13.0781 7.57152C13.1095 7.6474 13.1257 7.72873 13.1257 7.81086C13.1257 7.893 13.1095 7.97433 13.0781 8.0502C13.0466 8.12607 13.0005 8.195 12.9424 8.25305L7.94241 13.253C7.88434 13.3111 7.8154 13.3572 7.73953 13.3886C7.66366 13.42 7.58234 13.4362 7.50022 13.4362C7.4181 13.4362 7.33678 13.42 7.26091 13.3886C7.18504 13.3572 7.1161 13.3111 7.05803 13.253C6.99997 13.195 6.9539 13.126 6.92248 13.0502C6.89105 12.9743 6.87488 12.893 6.87488 12.8109C6.87488 12.7287 6.89105 12.6474 6.92248 12.5716C6.9539 12.4957 6.99997 12.4267 7.05803 12.3687L12.058 7.36867C12.1161 7.31056 12.185 7.26446 12.2609 7.23301C12.3368 7.20156 12.4181 7.18537 12.5002 7.18537C12.5824 7.18537 12.6637 7.20156 12.7396 7.23301C12.8154 7.26446 12.8844 7.31056 12.9424 7.36867ZM16.844 3.46711C16.4377 3.06081 15.9554 2.73851 15.4246 2.51862C14.8937 2.29872 14.3248 2.18555 13.7502 2.18555C13.1757 2.18555 12.6067 2.29872 12.0759 2.51862C11.545 2.73851 11.0627 3.06081 10.6565 3.46711L8.30803 5.81477C8.19076 5.93204 8.12488 6.0911 8.12488 6.25696C8.12488 6.42281 8.19076 6.58187 8.30803 6.69914C8.42531 6.81642 8.58437 6.8823 8.75022 6.8823C8.91607 6.8823 9.07513 6.81642 9.19241 6.69914L11.5408 4.35539C12.129 3.78012 12.9204 3.46002 13.7431 3.46455C14.5658 3.46908 15.3536 3.79788 15.9354 4.3796C16.5172 4.96131 16.8462 5.74901 16.8508 6.57174C16.8555 7.39447 16.5355 8.18585 15.9604 8.77414L13.6112 11.1226C13.4939 11.2398 13.428 11.3987 13.4279 11.5645C13.4278 11.7303 13.4936 11.8893 13.6108 12.0066C13.7279 12.1238 13.8869 12.1898 14.0527 12.1898C14.2185 12.1899 14.3775 12.1241 14.4948 12.007L16.844 9.65461C17.2503 9.24835 17.5726 8.76603 17.7925 8.23521C18.0124 7.70438 18.1255 7.13543 18.1255 6.56086C18.1255 5.98629 18.0124 5.41735 17.7925 4.88652C17.5726 4.35569 17.2503 3.87337 16.844 3.46711ZM10.808 13.9218L8.4596 16.2702C8.1706 16.5657 7.82585 16.801 7.44531 16.9623C7.06478 17.1236 6.65602 17.2079 6.2427 17.2101C5.82938 17.2124 5.41972 17.1327 5.03743 16.9755C4.65515 16.8184 4.30783 16.587 4.01559 16.2947C3.72335 16.0024 3.492 15.6551 3.33493 15.2727C3.17786 14.8904 3.09819 14.4808 3.10054 14.0674C3.10289 13.6541 3.18721 13.2454 3.34862 12.8649C3.51002 12.4844 3.74531 12.1397 4.04085 11.8507L6.3885 9.50305C6.50578 9.38577 6.57166 9.22671 6.57166 9.06086C6.57166 8.89501 6.50578 8.73595 6.3885 8.61867C6.27123 8.5014 6.11217 8.43551 5.94632 8.43551C5.78046 8.43551 5.6214 8.5014 5.50413 8.61867L3.15647 10.9671C2.33596 11.7876 1.875 12.9005 1.875 14.0609C1.875 15.2212 2.33596 16.3341 3.15647 17.1546C3.97699 17.9751 5.08984 18.4361 6.25022 18.4361C7.4106 18.4361 8.52346 17.9751 9.34397 17.1546L11.6924 14.8054C11.8096 14.6881 11.8754 14.5291 11.8753 14.3633C11.8752 14.1975 11.8093 14.0386 11.692 13.9214C11.5747 13.8042 11.4157 13.7385 11.2499 13.7385C11.0842 13.7386 10.9252 13.8045 10.808 13.9218Z" fill="#6C778B"/>
</svg>
