<svg width="30" height="31" viewBox="0 0 30 31" fill="none" xmlns="http://www.w3.org/2000/svg">
<path d="M27.1874 19.877H7.48349C7.79521 19.2629 8.1081 18.6313 8.42099 17.9891C10.1706 18.1824 12.2436 16.9578 14.6015 14.3305C14.6718 14.525 14.7503 14.7254 14.8358 14.9281C15.5987 16.7152 16.5831 17.7336 17.7655 17.9574C18.9772 18.1918 20.1772 17.5789 21.4077 16.1035C22.2069 17.0492 23.8476 18.002 27.1874 18.002C27.436 18.002 27.6745 17.9032 27.8503 17.7274C28.0261 17.5516 28.1249 17.3131 28.1249 17.0645C28.1249 16.8158 28.0261 16.5774 27.8503 16.4015C27.6745 16.2257 27.436 16.127 27.1874 16.127C23.5979 16.127 22.5526 14.8859 22.4999 14.2262C22.4942 14.0081 22.4126 13.7988 22.2692 13.6344C22.1258 13.47 21.9295 13.3608 21.7142 13.3255C21.4989 13.2903 21.2781 13.3312 21.0897 13.4413C20.9014 13.5513 20.7573 13.7236 20.6823 13.9285C19.2561 16.0672 18.4112 16.1715 18.1042 16.1152C17.128 15.9312 16.2198 13.6625 15.914 12.1883C15.8739 12.0021 15.7782 11.8325 15.6394 11.7021C15.5006 11.5717 15.3254 11.4866 15.1371 11.4583C14.9488 11.4299 14.7563 11.4595 14.5852 11.5433C14.4142 11.627 14.2727 11.7608 14.1796 11.927C11.8593 14.8121 10.303 15.7941 9.32685 16.0449C10.3218 13.8324 11.0647 11.8906 11.5405 10.2559C12.3397 7.50898 12.3983 5.58828 11.7175 4.38477C11.3659 3.75664 10.6288 3.00781 9.1499 3.00195H9.1206C7.2456 3.01484 5.76904 4.79492 5.06357 7.88867C4.64287 9.72969 4.57373 11.7781 4.87255 13.5137C5.17138 15.2492 5.79365 16.5031 6.69482 17.2508C6.25888 18.1566 5.8124 19.0414 5.3788 19.8793H2.8124C2.56376 19.8793 2.3253 19.9781 2.14948 20.1539C1.97367 20.3297 1.8749 20.5682 1.8749 20.8168C1.8749 21.0654 1.97367 21.3039 2.14948 21.4797C2.3253 21.6555 2.56376 21.7543 2.8124 21.7543H4.38388C3.05732 24.2152 2.02607 25.9309 2.00966 25.959C1.94283 26.0646 1.89776 26.1824 1.87713 26.3057C1.8565 26.4289 1.8607 26.555 1.88951 26.6766C1.91831 26.7982 1.97112 26.9128 2.04485 27.0136C2.11857 27.1145 2.21172 27.1996 2.31881 27.264C2.42591 27.3284 2.54479 27.3707 2.66847 27.3884C2.79215 27.4062 2.91813 27.3991 3.03901 27.3675C3.15989 27.3358 3.27323 27.2804 3.37237 27.2043C3.47151 27.1283 3.55444 27.0332 3.6163 26.9246C3.63388 26.8941 4.93701 24.7227 6.51083 21.7543H27.1874C27.436 21.7543 27.6745 21.6555 27.8503 21.4797C28.0261 21.3039 28.1249 21.0654 28.1249 20.8168C28.1249 20.5682 28.0261 20.3297 27.8503 20.1539C27.6745 19.9781 27.436 19.8793 27.1874 19.8793V19.877ZM22.4999 14.252V14.2273C22.5007 14.2355 22.5007 14.2438 22.4999 14.252ZM6.88935 8.30586C7.35693 6.25742 8.25927 4.87695 9.14052 4.87695C9.75576 4.87695 9.96083 5.09492 10.078 5.30703C10.4296 5.93164 10.8421 8.1418 7.54091 15.4285C6.58115 14.1055 6.25419 11.0879 6.88935 8.30586Z" fill="white"/>
</svg>
