<svg width="12" height="18" viewBox="0 0 12 18" fill="none" xmlns="http://www.w3.org/2000/svg">
<path d="M10.375 0.875H1.625C1.29348 0.875 0.975537 1.0067 0.741116 1.24112C0.506696 1.47554 0.375 1.79348 0.375 2.125V4.9375C0.375422 5.13148 0.420789 5.32273 0.50754 5.49623C0.594292 5.66973 0.720068 5.82077 0.875 5.9375L4.95859 9L0.875 12.0625C0.720068 12.1792 0.594292 12.3303 0.50754 12.5038C0.420789 12.6773 0.375422 12.8685 0.375 13.0625V15.875C0.375 16.2065 0.506696 16.5245 0.741116 16.7589C0.975537 16.9933 1.29348 17.125 1.625 17.125H10.375C10.7065 17.125 11.0245 16.9933 11.2589 16.7589C11.4933 16.5245 11.625 16.2065 11.625 15.875V13.0906C11.6246 12.8974 11.5796 12.7069 11.4935 12.5338C11.4075 12.3608 11.2827 12.2099 11.1289 12.093L7.03672 9L11.1289 5.90625C11.2828 5.78952 11.4076 5.63882 11.4937 5.4659C11.5797 5.29298 11.6247 5.10252 11.625 4.90937V2.125C11.625 1.79348 11.4933 1.47554 11.2589 1.24112C11.0245 1.0067 10.7065 0.875 10.375 0.875ZM10.375 2.125V3.375H1.625V2.125H10.375ZM10.375 15.875H1.625V13.0625L6 9.78125L10.375 13.0898V15.875ZM6 8.21875L1.625 4.9375V4.625H10.375V4.90937L6 8.21875Z" fill="#6C778B"/>
</svg>
