<svg width="58" height="58" viewBox="0 0 58 58" fill="none" xmlns="http://www.w3.org/2000/svg">
<rect width="58" height="58" rx="29" fill="#EB4335"/>
<path d="M36.3866 20.0625H21.6134C21.2022 20.063 20.8081 20.2266 20.5173 20.5173C20.2266 20.8081 20.063 21.2022 20.0625 21.6134V36.3866C20.063 36.7978 20.2266 37.1919 20.5173 37.4827C20.8081 37.7734 21.2022 37.937 21.6134 37.9375H36.3866C36.7978 37.937 37.1919 37.7734 37.4827 37.4827C37.7734 37.1919 37.937 36.7978 37.9375 36.3866V21.6134C37.937 21.2022 37.7734 20.8081 37.4827 20.5173C37.1919 20.2266 36.7978 20.063 36.3866 20.0625ZM36.3125 36.3125H21.6875V21.6875H36.3125V36.3125Z" fill="white"/>
</svg>
