<svg width="289" height="57" viewBox="0 0 289 57" fill="none" xmlns="http://www.w3.org/2000/svg">
<mask id="mask0_7630_4387" style="mask-type:luminance" maskUnits="userSpaceOnUse" x="0" y="0" width="289" height="57">
<path d="M288.554 0.59375H0.446289V56.2219H288.554V0.59375Z" fill="white"/>
</mask>
<g mask="url(#mask0_7630_4387)">
<path d="M185.88 43.6379C185.15 42.9359 184.427 42.2275 183.708 41.5127L185.88 43.6379Z" fill="white"/>
<path d="M189.351 47.0305C186.543 44.2817 183.748 41.5183 180.977 38.7302C180.977 38.7302 181.287 38.4426 181.68 38C184.875 34.3973 186.131 29.8593 186.162 25.0372C186.223 15.3001 178.809 6.77564 168.843 7.67688C165.638 7.96675 162.489 8.7276 159.849 10.7192C152.171 16.5127 150.675 28.5358 155.748 36.4511C159.08 41.6479 165.41 43.9905 171.37 43.3429C171.743 43.3032 174.247 42.787 174.247 42.787C175.808 44.3551 177.358 45.8896 178.904 47.4132H189.752L189.351 47.0305ZM168.597 36.6843C163.114 36.2201 160.71 30.3846 160.692 25.5705C160.668 19.6411 164.358 13.4433 170.918 14.451C178.625 15.6364 179.492 25.7991 177.183 31.7614C175.841 35.2317 172.217 36.9911 168.597 36.6843Z" fill="white"/>
<path d="M82.8952 43.4793C80.165 43.4793 77.6782 42.8803 75.0666 41.593L74.8819 41.5013V37.3347L75.3947 37.6687C77.6334 39.1164 80.2326 39.9012 82.8952 39.9331C86.0698 39.9331 88.0418 38.5428 88.0418 36.3044C88.0418 33.8282 85.5205 32.8919 82.6008 31.8083C80.7405 31.1177 78.823 30.4044 77.3225 29.2099C75.576 27.8218 74.731 26.0182 74.731 23.6983C74.731 19.2679 77.8857 16.623 83.1543 16.623C85.8582 16.623 88.4622 17.3024 90.4942 18.5229L90.6554 18.6203V22.5989L90.1475 22.283C87.9922 20.9413 85.4626 20.1726 83.206 20.1726C80.2608 20.1726 78.5708 21.418 78.5708 23.5941C78.5708 26.256 81.2051 27.258 84.2537 28.4173C87.8591 29.7873 91.9347 31.3385 91.9347 36.2014C91.9347 38.4488 91.0897 40.3068 89.492 41.576C87.9191 42.8203 85.6398 43.4793 82.8952 43.4793Z" fill="white"/>
<path d="M105.615 43.3262C101.933 43.3262 99.3898 41.8973 98.0561 39.077C96.9878 36.8125 96.9878 34.273 96.9878 32.9064V17.3418H100.932V32.3924C100.932 33.3887 100.932 35.2422 101.64 36.8771C102.501 38.863 104.087 39.8288 106.485 39.8288C110.743 39.8288 113.833 36.3982 113.833 31.6712V17.3418H117.723V42.8167H113.943L113.862 39.1144L113.477 39.6431C111.716 42.0513 108.997 43.3262 105.615 43.3262Z" fill="white"/>
<path d="M138.09 43.4804C134.407 43.4804 131.443 42.0085 129.518 39.2346L129.129 38.6685L129.046 42.8079H125.264V6.12402H129.207V21.2867L129.609 20.7341C130.345 19.7081 131.277 18.8386 132.35 18.1754C133.972 17.179 135.904 16.674 138.096 16.674C144.807 16.674 148.977 21.8098 148.977 30.0772C148.977 38.3447 144.802 43.4804 138.09 43.4804ZM137.221 20.2699C132.202 20.2699 129.206 23.935 129.206 30.0738C129.206 36.1799 132.202 39.8256 137.221 39.8256C142.014 39.8256 144.882 36.1799 144.882 30.0738C144.876 23.9383 142.014 20.2733 137.225 20.2733L137.221 20.2699Z" fill="white"/>
<path d="M201.052 43.4804C194.373 43.4804 190.224 38.3447 190.224 30.0772C190.224 21.8098 194.373 16.6751 201.052 16.6751C204.657 16.6751 207.587 18.0712 209.539 20.7138L209.937 21.255V6.12402H213.881V42.8079H210.15L210.067 38.6798L209.678 39.23C207.713 42.0119 204.731 43.4804 201.052 43.4804ZM201.923 20.2699C197.129 20.2699 194.261 23.935 194.261 30.0738C194.261 36.1799 197.123 39.8256 201.923 39.8256C206.973 39.8256 209.989 36.1799 209.989 30.0738C209.989 23.9383 206.973 20.2733 201.923 20.2733V20.2699Z" fill="white"/>
<path d="M231.991 43.4791C224.521 43.4791 219.88 38.3433 219.88 30.0759C219.88 21.8084 224.521 16.6738 231.991 16.6738C239.461 16.6738 244.1 21.8096 244.1 30.077C244.1 38.3444 239.459 43.4791 231.991 43.4791ZM231.991 20.3241C226.94 20.3241 223.925 23.9699 223.925 30.0759C223.925 36.1491 226.94 39.7756 231.991 39.7756C237.042 39.7756 240.054 36.1525 240.054 30.0759C240.054 23.9699 237.041 20.3241 231.991 20.3241Z" fill="white"/>
<path d="M261.22 43.4271C257.389 43.4271 254.257 42.176 252.158 39.8097C250.13 37.5237 249.06 34.1928 249.06 30.1768C249.06 21.8776 253.679 16.7227 261.115 16.7227C264.172 16.7227 266.209 17.5152 267.151 17.993L267.336 18.0858V22.0803L266.851 21.8301C265.103 20.9243 263.175 20.4262 261.422 20.4262C256.288 20.4262 253.1 24.1228 253.1 30.0749C253.1 36.1741 256.133 39.6727 261.422 39.6727C263.302 39.6727 265.027 39.238 267.011 38.2653L267.489 38.031V42.0187L267.299 42.1081C265.458 42.9833 263.414 43.4271 261.22 43.4271Z" fill="white"/>
<path d="M279.517 43.4793C276.788 43.4793 274.3 42.8803 271.69 41.593L271.503 41.5013V37.3347L272.017 37.6687C274.255 39.1165 276.855 39.9013 279.517 39.9331C282.691 39.9331 284.662 38.5428 284.662 36.3044C284.662 33.8271 282.141 32.8919 279.222 31.8083C277.365 31.1189 275.446 30.4055 273.945 29.2099C272.198 27.8218 271.353 26.0193 271.353 23.6983C271.353 19.2679 274.508 16.623 279.776 16.623C282.48 16.623 285.084 17.3024 287.116 18.5229L287.276 18.6203V22.5989L286.77 22.283C284.614 20.9413 282.083 20.1726 279.827 20.1726C276.882 20.1726 275.193 21.418 275.193 23.5941C275.193 26.256 277.824 27.2568 280.872 28.4162C284.478 29.7862 288.557 31.3374 288.557 36.2014C288.557 38.4488 287.712 40.3068 286.113 41.576C284.542 42.8203 282.262 43.4793 279.517 43.4793Z" fill="white"/>
<mask id="mask1_7630_4387" style="mask-type:luminance" maskUnits="userSpaceOnUse" x="0" y="0" width="56" height="57">
<path d="M55.8025 0.598633H0.446289V56.2267H55.8025V0.598633Z" fill="white"/>
</mask>
<g mask="url(#mask1_7630_4387)">
<path fill-rule="evenodd" clip-rule="evenodd" d="M55.802 11.0726V52.6249C55.8047 53.0955 55.715 53.562 55.5381 53.9976C55.3611 54.4333 55.1005 54.8297 54.7709 55.164C54.4413 55.4983 54.0494 55.7641 53.6176 55.946C53.1857 56.1279 52.7224 56.2224 52.2541 56.2242H11.1978C10.3772 56.2206 9.58298 55.9324 8.94935 55.4085C8.31565 54.8846 7.88136 54.1569 7.71973 53.3484H48.6521C49.7448 53.3424 50.7904 52.9009 51.5594 52.1207C52.3283 51.3406 52.7578 50.2856 52.7532 49.1875V7.50488C53.6033 7.63199 54.3794 8.06261 54.9392 8.71774C55.4991 9.37294 55.8054 10.2089 55.802 11.0726Z" fill="white"/>
<path fill-rule="evenodd" clip-rule="evenodd" d="M52.2 7.63557V49.1879C52.2037 49.659 52.1148 50.1262 51.9384 50.5627C51.762 50.9992 51.5016 51.3963 51.172 51.7313C50.8424 52.0664 50.4503 52.3328 50.0181 52.5151C49.5858 52.6975 49.122 52.7923 48.6532 52.794H7.59578C6.77523 52.7902 5.98114 52.502 5.34751 51.9781C4.71388 51.4541 4.27951 50.7266 4.11768 49.9182H45.0501C45.5892 49.9179 46.123 49.8097 46.6201 49.6C47.1172 49.3902 47.5679 49.0831 47.9456 48.6965C48.7164 47.9129 49.1474 46.8546 49.1445 45.7528V4.07129C49.9674 4.19341 50.7221 4.60014 51.2787 5.22142C51.8352 5.8427 52.1586 6.63954 52.1932 7.47474C52.1989 7.52819 52.2012 7.58184 52.2 7.63557Z" fill="white"/>
<path fill-rule="evenodd" clip-rule="evenodd" d="M48.5969 4.19793V45.7504C48.6004 46.705 48.2269 47.622 47.5581 48.3001L42.9849 38.691V9.0382C42.9849 7.555 41.6666 6.28122 40.2211 6.28122H8.77317C8.41469 6.28288 8.06 6.3555 7.72944 6.49493C7.39894 6.63443 7.09898 6.83804 6.84678 7.09406C6.59465 7.35014 6.39512 7.65365 6.25975 7.9872C6.12438 8.32083 6.0558 8.67792 6.05786 9.0382V40.8693C6.05786 42.3231 7.31409 43.6762 8.77317 43.6762H38.0669L47.5615 48.3024C47.2339 48.6367 46.8436 48.9022 46.413 49.0836C45.9825 49.2649 45.5203 49.3585 45.0535 49.3588H3.99266C2.06827 49.3588 0.445841 47.717 0.445841 45.7594V4.19793C0.441354 3.24805 0.812475 2.33525 1.4776 1.66027C2.14272 0.985293 3.04738 0.603424 3.99266 0.598633H45.0501C46.9868 0.598633 48.5969 2.25393 48.5969 4.19793Z" fill="white"/>
<path fill-rule="evenodd" clip-rule="evenodd" d="M34.9227 12.6309H14.1219C13.8849 12.632 13.6504 12.6802 13.4319 12.7726C13.2134 12.8649 13.0152 12.9997 12.8486 13.1691C12.682 13.3385 12.5503 13.5392 12.461 13.7599C12.3717 13.9805 12.3265 14.2167 12.3282 14.4549V35.5017C12.3264 35.74 12.3714 35.9762 12.4607 36.197C12.5499 36.4178 12.6816 36.6187 12.8482 36.7882C13.0148 36.9578 13.2131 37.0926 13.4316 37.185C13.6502 37.2774 13.8847 37.3256 14.1219 37.3268H34.9137C35.1509 37.3257 35.3855 37.2777 35.6042 37.1853C35.8229 37.093 36.0213 36.9582 36.188 36.7887C36.3548 36.619 36.4866 36.4181 36.5759 36.1973C36.6652 35.9764 36.7103 35.74 36.7085 35.5017V14.4549C36.7113 14.217 36.6673 13.981 36.5789 13.7603C36.4905 13.5397 36.3595 13.3387 36.1935 13.1692C36.0275 12.9997 35.8298 12.8648 35.6116 12.7724C35.3935 12.68 35.1594 12.6319 34.9227 12.6309ZM31.8683 27.2365H26.8567V32.4141H22.3038V27.2308H17.1774V22.6137H22.3038V17.5413H26.8624V22.6137H31.8717L31.8683 27.2365Z" fill="white"/>
</g>
</g>
</svg>
