<svg width="130" height="26" viewBox="0 0 130 26" fill="none" xmlns="http://www.w3.org/2000/svg">
<mask id="mask0_7662_64307" style="mask-type:luminance" maskUnits="userSpaceOnUse" x="0" y="0" width="130" height="26">
<path d="M129.154 0.597656H0.53833V25.3213H129.154V0.597656Z" fill="white"/>
</mask>
<g mask="url(#mask0_7662_64307)">
<path d="M83.3189 19.7277C82.9931 19.4157 82.67 19.1009 82.3494 18.7832L83.3189 19.7277Z" fill="#2D2D7A"/>
<path d="M84.8683 21.2364C83.6144 20.0147 82.3667 18.7865 81.1298 17.5474C81.1298 17.5474 81.2683 17.4196 81.4437 17.2229C82.8701 15.6217 83.4304 13.6048 83.4446 11.4616C83.4717 7.13402 80.1621 3.34538 75.7129 3.74593C74.2824 3.87476 72.8766 4.21292 71.6981 5.09806C68.2704 7.67298 67.6024 13.0165 69.8674 16.5345C71.3547 18.8442 74.1803 19.8853 76.8412 19.5975C77.0077 19.5799 78.1255 19.3504 78.1255 19.3504C78.8221 20.0474 79.5141 20.7294 80.2043 21.4065H85.0471L84.8683 21.2364ZM75.6034 16.6381C73.1557 16.4318 72.0824 13.8383 72.0744 11.6986C72.0634 9.06335 73.7107 6.30876 76.6394 6.75664C80.0797 7.2835 80.467 11.8003 79.4363 14.4502C78.8369 15.9925 77.2194 16.7745 75.6034 16.6381Z" fill="#5858E0"/>
<path d="M37.3448 19.6587C36.126 19.6587 35.0159 19.3926 33.85 18.8204L33.7676 18.7796V16.9278L33.9965 17.0763C34.9959 17.7197 36.1562 18.0685 37.3448 18.0827C38.762 18.0827 39.6424 17.4647 39.6424 16.4699C39.6424 15.3694 38.5168 14.9532 37.2134 14.4717C36.383 14.1647 35.527 13.8477 34.8571 13.3168C34.0774 12.6999 33.7002 11.8983 33.7002 10.8672C33.7002 8.89816 35.1085 7.72266 37.4605 7.72266C38.6676 7.72266 39.83 8.02459 40.7371 8.56703L40.8091 8.61032V10.3786L40.5823 10.2382C39.6202 9.64189 38.491 9.30023 37.4836 9.30023C36.1688 9.30023 35.4143 9.85373 35.4143 10.8209C35.4143 12.0039 36.5903 12.4493 37.9513 12.9646C39.5608 13.5735 41.3802 14.2628 41.3802 16.4241C41.3802 17.423 41.003 18.2487 40.2897 18.8129C39.5876 19.3659 38.57 19.6587 37.3448 19.6587Z" fill="black"/>
<path d="M47.4871 19.5896C45.8434 19.5896 44.7081 18.9546 44.1127 17.7011C43.6357 16.6947 43.6357 15.566 43.6357 14.9586V8.04102H45.3964V14.7302C45.3964 15.173 45.3964 15.9967 45.7127 16.7234C46.097 17.606 46.805 18.0352 47.8754 18.0352C49.7761 18.0352 51.1557 16.5105 51.1557 14.4096V8.04102H52.8924V19.3632H51.2047L51.1687 17.7177L50.9967 17.9527C50.2105 19.023 48.997 19.5896 47.4871 19.5896Z" fill="black"/>
<path d="M61.9849 19.6575C60.3406 19.6575 59.0172 19.0034 58.1581 17.7705L57.9843 17.5189L57.9473 19.3586H56.259V3.05469H58.0193V9.79364L58.1984 9.54807C58.5273 9.09207 58.9433 8.70561 59.4221 8.41084C60.1464 7.96801 61.0089 7.74358 61.9873 7.74358C64.9833 7.74358 66.8449 10.0261 66.8449 13.7006C66.8449 17.375 64.9809 19.6575 61.9849 19.6575ZM61.5966 9.34176C59.3563 9.34176 58.0187 10.9707 58.0187 13.699C58.0187 16.4128 59.3563 18.0332 61.5966 18.0332C63.7366 18.0332 65.0166 16.4128 65.0166 13.699C65.0141 10.9722 63.7366 9.34327 61.5984 9.34327L61.5966 9.34176Z" fill="black"/>
<path d="M90.0917 19.6575C87.1101 19.6575 85.2578 17.375 85.2578 13.7006C85.2578 10.0261 87.1101 7.74407 90.0917 7.74407C91.7012 7.74407 93.0089 8.36453 93.8803 9.53903L94.0581 9.77955V3.05469H95.8187V19.3586H94.1532L94.116 17.5239L93.9424 17.7685C93.0652 19.0049 91.7341 19.6575 90.0917 19.6575ZM90.4806 9.34176C88.3406 9.34176 87.0603 10.9707 87.0603 13.699C87.0603 16.4128 88.3378 18.0332 90.4806 18.0332C92.735 18.0332 94.0812 16.4128 94.0812 13.699C94.0812 10.9722 92.735 9.34327 90.4806 9.34327V9.34176Z" fill="black"/>
<path d="M103.903 19.6576C100.568 19.6576 98.4966 17.375 98.4966 13.7006C98.4966 10.0262 100.568 7.74414 103.903 7.74414C107.238 7.74414 109.309 10.0267 109.309 13.7011C109.309 17.3755 107.237 19.6576 103.903 19.6576ZM103.903 9.36648C101.648 9.36648 100.302 10.9868 100.302 13.7006C100.302 16.3998 101.648 18.0116 103.903 18.0116C106.158 18.0116 107.503 16.4013 107.503 13.7006C107.503 10.9868 106.158 9.36648 103.903 9.36648Z" fill="black"/>
<path d="M116.952 19.6343C115.241 19.6343 113.843 19.0782 112.906 18.0265C112.001 17.0105 111.523 15.5301 111.523 13.7452C111.523 10.0567 113.585 7.76562 116.905 7.76562C118.269 7.76562 119.179 8.11787 119.599 8.33021L119.682 8.37147V10.1468L119.465 10.0356C118.685 9.63301 117.824 9.41162 117.042 9.41162C114.75 9.41162 113.327 11.0546 113.327 13.7C113.327 16.4107 114.68 17.9657 117.042 17.9657C117.881 17.9657 118.651 17.7724 119.537 17.3401L119.75 17.236V19.0083L119.665 19.0481C118.844 19.437 117.931 19.6343 116.952 19.6343Z" fill="black"/>
<path d="M125.12 19.6587C123.901 19.6587 122.791 19.3926 121.626 18.8204L121.542 18.7796V16.9278L121.771 17.0763C122.771 17.7198 123.931 18.0686 125.12 18.0827C126.536 18.0827 127.417 17.4647 127.417 16.4699C127.417 15.3689 126.291 14.9532 124.988 14.4717C124.159 14.1652 123.302 13.8482 122.632 13.3168C121.852 12.6999 121.475 11.8988 121.475 10.8672C121.475 8.89816 122.883 7.72266 125.235 7.72266C126.442 7.72266 127.605 8.02459 128.512 8.56703L128.583 8.61032V10.3786L128.357 10.2382C127.395 9.64189 126.265 9.30023 125.258 9.30023C123.943 9.30023 123.189 9.85373 123.189 10.8209C123.189 12.0039 124.364 12.4488 125.725 12.9641C127.334 13.573 129.155 14.2623 129.155 16.4241C129.155 17.423 128.778 18.2487 128.064 18.8129C127.363 19.3659 126.345 19.6587 125.12 19.6587Z" fill="black"/>
<mask id="mask1_7662_64307" style="mask-type:luminance" maskUnits="userSpaceOnUse" x="0" y="0" width="26" height="26">
<path d="M25.2501 0.599609H0.53833V25.3232H25.2501V0.599609Z" fill="white"/>
</mask>
<g mask="url(#mask1_7662_64307)">
<path fill-rule="evenodd" clip-rule="evenodd" d="M25.25 5.2536V23.7213C25.2512 23.9305 25.2112 24.1378 25.1322 24.3314C25.0532 24.525 24.9368 24.7012 24.7897 24.8498C24.6426 24.9984 24.4676 25.1165 24.2749 25.1974C24.0821 25.2782 23.8752 25.3202 23.6662 25.321H5.33805C4.97174 25.3194 4.61718 25.1913 4.33432 24.9585C4.05143 24.7256 3.85755 24.4022 3.7854 24.0429H22.0582C22.546 24.0402 23.0128 23.844 23.3561 23.4972C23.6993 23.1505 23.891 22.6816 23.889 22.1936V3.66797C24.2685 3.72446 24.6149 3.91585 24.8649 4.20701C25.1148 4.49821 25.2516 4.86975 25.25 5.2536Z" fill="#5B5BE1"/>
<path fill-rule="evenodd" clip-rule="evenodd" d="M23.6421 3.7267V22.1944C23.6438 22.4038 23.6041 22.6114 23.5254 22.8054C23.4466 22.9994 23.3304 23.1759 23.1832 23.3248C23.0361 23.4737 22.8611 23.5921 22.6681 23.6732C22.4751 23.7542 22.2681 23.7964 22.0588 23.7971H3.73017C3.36386 23.7954 3.00937 23.6673 2.72651 23.4345C2.44364 23.2016 2.24974 22.8783 2.17749 22.519H20.4503C20.691 22.5189 20.9293 22.4708 21.1512 22.3776C21.3731 22.2843 21.5743 22.1478 21.7429 21.976C22.087 21.6277 22.2794 21.1574 22.2781 20.6677V2.14258C22.6455 2.19686 22.9824 2.37762 23.2308 2.65375C23.4793 2.92987 23.6237 3.28402 23.6391 3.65522C23.6416 3.67898 23.6427 3.70282 23.6421 3.7267Z" fill="#5B5BE1"/>
<path fill-rule="evenodd" clip-rule="evenodd" d="M22.0334 2.1993V20.6671C22.035 21.0913 21.8683 21.4989 21.5697 21.8003L19.5282 17.5295V4.35053C19.5282 3.69133 18.9397 3.1252 18.2944 3.1252H4.25555C4.09552 3.12594 3.93718 3.15822 3.78961 3.22019C3.64207 3.28219 3.50816 3.37268 3.39558 3.48646C3.28302 3.60028 3.19395 3.73517 3.13352 3.88342C3.07309 4.0317 3.04247 4.1904 3.04339 4.35053V18.4977C3.04339 19.1438 3.60419 19.7452 4.25555 19.7452H17.3327L21.5712 21.8013C21.425 21.9499 21.2507 22.0679 21.0585 22.1485C20.8663 22.2291 20.66 22.2707 20.4516 22.2708H2.12145C1.26238 22.2708 0.538104 21.5411 0.538104 20.671V2.1993C0.536101 1.77713 0.701775 1.37144 0.998695 1.07145C1.29561 0.771459 1.69947 0.601739 2.12145 0.599609H20.4501C21.3147 0.599609 22.0334 1.3353 22.0334 2.1993Z" fill="#5B5BE1"/>
<path fill-rule="evenodd" clip-rule="evenodd" d="M15.9291 5.94727H6.64329C6.53748 5.94779 6.4328 5.9692 6.33526 6.01025C6.23772 6.0513 6.14926 6.11117 6.07486 6.18647C6.00049 6.26176 5.94169 6.35099 5.90184 6.44905C5.86197 6.54711 5.84181 6.6521 5.84255 6.75794V16.1121C5.84175 16.218 5.86184 16.323 5.90169 16.4211C5.94154 16.5192 6.00031 16.6085 6.07471 16.6839C6.14908 16.7592 6.2376 16.8191 6.33514 16.8602C6.43271 16.9013 6.53741 16.9227 6.64329 16.9232H15.925C16.031 16.9228 16.1357 16.9014 16.2333 16.8604C16.331 16.8193 16.4195 16.7594 16.4939 16.6841C16.5684 16.6087 16.6272 16.5194 16.6671 16.4212C16.707 16.3231 16.7271 16.218 16.7263 16.1121V6.75794C16.7275 6.65222 16.7079 6.54733 16.6684 6.44923C16.629 6.35117 16.5705 6.26188 16.4964 6.18653C16.4223 6.11117 16.334 6.05123 16.2366 6.01016C16.1393 5.96911 16.0347 5.94773 15.9291 5.94727ZM14.5655 12.4386H12.3283V14.7398H10.2958V12.4361H8.00732V10.3841H10.2958V8.1297H12.3308V10.3841H14.567L14.5655 12.4386Z" fill="#5B5BE1"/>
</g>
</g>
</svg>
