<svg width="132" height="28" viewBox="0 0 132 28" fill="none" xmlns="http://www.w3.org/2000/svg">
<mask id="mask0_9996_26741" style="mask-type:luminance" maskUnits="userSpaceOnUse" x="1" y="1" width="130" height="26">
<path d="M130.154 1.59766H1.53857V26.3213H130.154V1.59766Z" fill="white"/>
</mask>
<g mask="url(#mask0_9996_26741)">
<path d="M84.3191 20.7277C83.9933 20.4157 83.6702 20.1009 83.3496 19.7832L84.3191 20.7277Z" fill="#2D2D7A"/>
<path d="M85.8688 22.2364C84.6149 21.0147 83.3672 19.7865 82.1303 18.5474C82.1303 18.5474 82.2688 18.4196 82.4441 18.2229C83.8706 16.6217 84.4309 14.6048 84.4451 12.4616C84.4722 8.13402 81.1626 4.34538 76.7134 4.74593C75.2829 4.87476 73.8771 5.21292 72.6986 6.09806C69.2709 8.67298 68.6029 14.0165 70.8678 17.5345C72.3552 19.8442 75.1808 20.8853 77.8417 20.5975C78.0082 20.5799 79.126 20.3504 79.126 20.3504C79.8226 21.0474 80.5146 21.7294 81.2048 22.4065H86.0475L85.8688 22.2364ZM76.6038 17.6381C74.1562 17.4318 73.0829 14.8383 73.0749 12.6986C73.0638 10.0633 74.7112 7.30876 77.6398 7.75664C81.0802 8.2835 81.4675 12.8003 80.4368 15.4502C79.8374 16.9925 78.2198 17.7745 76.6038 17.6381Z" fill="#5858E0"/>
<path d="M38.3448 20.6578C37.126 20.6578 36.0159 20.3916 34.85 19.8194L34.7676 19.7787V17.9268L34.9965 18.0753C35.9959 18.7187 37.1562 19.0675 38.3448 19.0817C39.762 19.0817 40.6424 18.4638 40.6424 17.4689C40.6424 16.3684 39.5168 15.9523 38.2134 15.4707C37.383 15.1637 36.527 14.8467 35.8571 14.3158C35.0774 13.6989 34.7002 12.8973 34.7002 11.8662C34.7002 9.89719 36.1085 8.72168 38.4605 8.72168C39.6676 8.72168 40.83 9.02362 41.7371 9.56605L41.8091 9.60934V11.3776L41.5823 11.2372C40.6202 10.6409 39.491 10.2992 38.4836 10.2992C37.1688 10.2992 36.4143 10.8528 36.4143 11.8199C36.4143 13.003 37.5903 13.4483 38.9513 13.9636C40.5608 14.5725 42.3802 15.2619 42.3802 17.4232C42.3802 18.422 42.003 19.2478 41.2897 19.8119C40.5876 20.3649 39.57 20.6578 38.3448 20.6578Z" fill="black"/>
<path d="M48.4876 20.5896C46.8439 20.5896 45.7085 19.9546 45.1132 18.7011C44.6362 17.6947 44.6362 16.566 44.6362 15.9586V9.04102H46.3968V15.7302C46.3968 16.173 46.3968 16.9967 46.7132 17.7234C47.0975 18.606 47.8055 19.0352 48.8759 19.0352C50.7765 19.0352 52.1562 17.5105 52.1562 15.4096V9.04102H53.8928V20.3632H52.2052L52.1692 18.7177L51.9972 18.9527C51.211 20.023 49.9975 20.5896 48.4876 20.5896Z" fill="black"/>
<path d="M62.9851 20.6585C61.3408 20.6585 60.0174 20.0043 59.1584 18.7715L58.9845 18.5199L58.9476 20.3596H57.2593V4.05566H59.0196V10.7946L59.1987 10.549C59.5276 10.093 59.9436 9.70659 60.4224 9.41182C61.1467 8.96899 62.0091 8.74456 62.9876 8.74456C65.9836 8.74456 67.8451 11.0271 67.8451 14.7015C67.8451 18.3759 65.9811 20.6585 62.9851 20.6585ZM62.5968 10.3427C60.3565 10.3427 59.019 11.9716 59.019 14.7C59.019 17.4138 60.3565 19.0342 62.5968 19.0342C64.7368 19.0342 66.0168 17.4138 66.0168 14.7C66.0144 11.9731 64.7368 10.3442 62.5987 10.3442L62.5968 10.3427Z" fill="black"/>
<path d="M91.0917 20.6585C88.1101 20.6585 86.2578 18.3759 86.2578 14.7015C86.2578 11.0271 88.1101 8.74505 91.0917 8.74505C92.7012 8.74505 94.0089 9.36551 94.8803 10.54L95.0581 10.7805V4.05566H96.8187V20.3596H95.1532L95.116 18.5249L94.9424 18.7694C94.0652 20.0058 92.7341 20.6585 91.0917 20.6585ZM91.4806 10.3427C89.3406 10.3427 88.0603 11.9716 88.0603 14.7C88.0603 17.4138 89.3378 19.0342 91.4806 19.0342C93.735 19.0342 95.0812 17.4138 95.0812 14.7C95.0812 11.9731 93.735 10.3442 91.4806 10.3442V10.3427Z" fill="black"/>
<path d="M104.904 20.6576C101.569 20.6576 99.4971 18.375 99.4971 14.7006C99.4971 11.0262 101.569 8.74414 104.904 8.74414C108.238 8.74414 110.309 11.0267 110.309 14.7011C110.309 18.3755 108.238 20.6576 104.904 20.6576ZM104.904 10.3665C102.649 10.3665 101.303 11.9868 101.303 14.7006C101.303 17.3998 102.649 19.0116 104.904 19.0116C107.158 19.0116 108.503 17.4013 108.503 14.7006C108.503 11.9868 107.158 10.3665 104.904 10.3665Z" fill="black"/>
<path d="M117.952 20.6343C116.242 20.6343 114.844 20.0782 113.907 19.0265C113.001 18.0105 112.523 16.5301 112.523 14.7452C112.523 11.0567 114.586 8.76562 117.905 8.76562C119.27 8.76562 120.179 9.11787 120.6 9.33021L120.682 9.37147V11.1468L120.466 11.0356C119.685 10.633 118.825 10.4116 118.042 10.4116C115.751 10.4116 114.327 12.0546 114.327 14.7C114.327 17.4107 115.681 18.9657 118.042 18.9657C118.882 18.9657 119.651 18.7724 120.537 18.3401L120.751 18.236V20.0083L120.666 20.0481C119.844 20.437 118.931 20.6343 117.952 20.6343Z" fill="black"/>
<path d="M126.12 20.6578C124.902 20.6578 123.791 20.3916 122.626 19.8194L122.542 19.7787V17.9268L122.772 18.0753C123.771 18.7188 124.932 19.0676 126.12 19.0817C127.537 19.0817 128.417 18.4638 128.417 17.4689C128.417 16.3679 127.292 15.9523 125.988 15.4707C125.159 15.1643 124.303 14.8472 123.633 14.3158C122.853 13.6989 122.476 12.8978 122.476 11.8662C122.476 9.89719 123.884 8.72168 126.236 8.72168C127.443 8.72168 128.605 9.02362 129.512 9.56605L129.584 9.60934V11.3776L129.358 11.2372C128.396 10.6409 127.266 10.2992 126.258 10.2992C124.944 10.2992 124.19 10.8528 124.19 11.8199C124.19 13.003 125.365 13.4478 126.725 13.9631C128.335 14.572 130.156 15.2614 130.156 17.4232C130.156 18.422 129.779 19.2478 129.065 19.8119C128.363 20.3649 127.345 20.6578 126.12 20.6578Z" fill="black"/>
<mask id="mask1_9996_26741" style="mask-type:luminance" maskUnits="userSpaceOnUse" x="1" y="1" width="26" height="26">
<path d="M26.2504 1.59961H1.53857V26.3232H26.2504V1.59961Z" fill="white"/>
</mask>
<g mask="url(#mask1_9996_26741)">
<path fill-rule="evenodd" clip-rule="evenodd" d="M26.2503 6.25458V24.7223C26.2515 24.9314 26.2114 25.1388 26.1324 25.3324C26.0535 25.526 25.9371 25.7022 25.79 25.8508C25.6428 25.9993 25.4679 26.1175 25.2751 26.1983C25.0823 26.2792 24.8755 26.3212 24.6664 26.322H6.33829C5.97198 26.3204 5.61743 26.1923 5.33457 25.9594C5.05168 25.7266 4.8578 25.4032 4.78564 25.0438H23.0584C23.5463 25.0412 24.013 24.8449 24.3563 24.4982C24.6996 24.1515 24.8913 23.6826 24.8892 23.1945V4.66895C25.2687 4.72544 25.6152 4.91682 25.8651 5.20799C26.1151 5.49919 26.2518 5.87073 26.2503 6.25458Z" fill="#5B5BE1"/>
<path fill-rule="evenodd" clip-rule="evenodd" d="M24.6419 4.7267V23.1944C24.6436 23.4038 24.6039 23.6114 24.5251 23.8054C24.4464 23.9994 24.3301 24.1759 24.183 24.3248C24.0359 24.4737 23.8608 24.5921 23.6679 24.6732C23.4749 24.7542 23.2678 24.7964 23.0586 24.7971H4.72992C4.36362 24.7954 4.00912 24.6673 3.72626 24.4345C3.4434 24.2016 3.24949 23.8783 3.17725 23.519H21.4501C21.6908 23.5189 21.929 23.4708 22.1509 23.3776C22.3729 23.2843 22.574 23.1478 22.7427 22.976C23.0868 22.6277 23.2792 22.1574 23.2779 21.6677V3.14258C23.6452 3.19686 23.9821 3.37762 24.2306 3.65375C24.479 3.92987 24.6234 4.28402 24.6389 4.65522C24.6414 4.67898 24.6424 4.70282 24.6419 4.7267Z" fill="#5B5BE1"/>
<path fill-rule="evenodd" clip-rule="evenodd" d="M23.0334 3.1993V21.6671C23.035 22.0913 22.8683 22.4989 22.5697 22.8003L20.5282 18.5295V5.35053C20.5282 4.69133 19.9397 4.1252 19.2944 4.1252H5.25555C5.09552 4.12594 4.93718 4.15822 4.78961 4.22019C4.64207 4.28219 4.50816 4.37268 4.39558 4.48646C4.28302 4.60028 4.19395 4.73517 4.13352 4.88342C4.07309 5.0317 4.04247 5.1904 4.04339 5.35053V19.4977C4.04339 20.1438 4.60419 20.7452 5.25555 20.7452H18.3327L22.5712 22.8013C22.425 22.9499 22.2507 23.0679 22.0585 23.1485C21.8663 23.2291 21.66 23.2707 21.4516 23.2708H3.12145C2.26238 23.2708 1.5381 22.5411 1.5381 21.671V3.1993C1.5361 2.77713 1.70177 2.37144 1.99869 2.07145C2.29561 1.77146 2.69947 1.60174 3.12145 1.59961H21.4501C22.3147 1.59961 23.0334 2.3353 23.0334 3.1993Z" fill="#5B5BE1"/>
<path fill-rule="evenodd" clip-rule="evenodd" d="M16.9293 6.94727H7.64353C7.53772 6.94779 7.43304 6.9692 7.3355 7.01025C7.23797 7.0513 7.1495 7.11117 7.0751 7.18647C7.00074 7.26176 6.94193 7.35099 6.90209 7.44905C6.86221 7.54711 6.84206 7.6521 6.8428 7.75794V17.1121C6.842 17.218 6.86209 17.323 6.90193 17.4211C6.94178 17.5192 7.00055 17.6085 7.07495 17.6839C7.14932 17.7592 7.23784 17.8191 7.33538 17.8602C7.43295 17.9013 7.53766 17.9227 7.64353 17.9232H16.9253C17.0312 17.9228 17.1359 17.9014 17.2336 17.8604C17.3312 17.8193 17.4198 17.7594 17.4942 17.6841C17.5686 17.6087 17.6275 17.5194 17.6673 17.4212C17.7072 17.3231 17.7273 17.218 17.7265 17.1121V7.75794C17.7278 7.65222 17.7081 7.54733 17.6687 7.44923C17.6292 7.35117 17.5707 7.26188 17.4966 7.18653C17.4225 7.11117 17.3342 7.05123 17.2369 7.01016C17.1395 6.96911 17.035 6.94773 16.9293 6.94727ZM15.5658 13.4386H13.3286V15.7398H11.2961V13.4361H9.00757V11.3841H11.2961V9.1297H13.3311V11.3841H15.5673L15.5658 13.4386Z" fill="#5B5BE1"/>
</g>
</g>
</svg>
