<svg width="16" height="16" viewBox="0 0 16 16" fill="none" xmlns="http://www.w3.org/2000/svg">
<path d="M4.875 5.5C4.875 5.33424 4.94085 5.17527 5.05806 5.05806C5.17527 4.94085 5.33424 4.875 5.5 4.875H10.5C10.6658 4.875 10.8247 4.94085 10.9419 5.05806C11.0592 5.17527 11.125 5.33424 11.125 5.5C11.125 5.66576 11.0592 5.82473 10.9419 5.94194C10.8247 6.05915 10.6658 6.125 10.5 6.125H5.5C5.33424 6.125 5.17527 6.05915 5.05806 5.94194C4.94085 5.82473 4.875 5.66576 4.875 5.5ZM5.5 8.625H10.5C10.6658 8.625 10.8247 8.55915 10.9419 8.44194C11.0592 8.32473 11.125 8.16576 11.125 8C11.125 7.83424 11.0592 7.67527 10.9419 7.55806C10.8247 7.44085 10.6658 7.375 10.5 7.375H5.5C5.33424 7.375 5.17527 7.44085 5.05806 7.55806C4.94085 7.67527 4.875 7.83424 4.875 8C4.875 8.16576 4.94085 8.32473 5.05806 8.44194C5.17527 8.55915 5.33424 8.625 5.5 8.625ZM8 9.875H5.5C5.33424 9.875 5.17527 9.94085 5.05806 10.0581C4.94085 10.1753 4.875 10.3342 4.875 10.5C4.875 10.6658 4.94085 10.8247 5.05806 10.9419C5.17527 11.0592 5.33424 11.125 5.5 11.125H8C8.16576 11.125 8.32473 11.0592 8.44194 10.9419C8.55915 10.8247 8.625 10.6658 8.625 10.5C8.625 10.3342 8.55915 10.1753 8.44194 10.0581C8.32473 9.94085 8.16576 9.875 8 9.875ZM15.5 1.75V10.2414C15.5005 10.4056 15.4684 10.5683 15.4055 10.72C15.3426 10.8717 15.2502 11.0093 15.1336 11.125L11.125 15.1336C11.0093 15.2502 10.8717 15.3426 10.72 15.4055C10.5683 15.4684 10.4056 15.5005 10.2414 15.5H1.75C1.41848 15.5 1.10054 15.3683 0.866116 15.1339C0.631696 14.8995 0.5 14.5815 0.5 14.25V1.75C0.5 1.41848 0.631696 1.10054 0.866116 0.866116C1.10054 0.631696 1.41848 0.5 1.75 0.5H14.25C14.5815 0.5 14.8995 0.631696 15.1339 0.866116C15.3683 1.10054 15.5 1.41848 15.5 1.75ZM1.75 14.25H9.875V10.5C9.875 10.3342 9.94085 10.1753 10.0581 10.0581C10.1753 9.94085 10.3342 9.875 10.5 9.875H14.25V1.75H1.75V14.25ZM11.125 11.125V13.3672L13.3664 11.125H11.125Z" fill="#6C778B"/>
</svg>
