<svg width="32" height="32" viewBox="0 0 32 32" fill="none" xmlns="http://www.w3.org/2000/svg">
<path d="M25.53 24.47C25.6037 24.5387 25.6628 24.6215 25.7038 24.7135C25.7447 24.8055 25.7668 24.9048 25.7686 25.0055C25.7703 25.1062 25.7518 25.2062 25.7141 25.2996C25.6764 25.393 25.6202 25.4778 25.549 25.549C25.4778 25.6203 25.393 25.6764 25.2996 25.7141C25.2062 25.7518 25.1061 25.7704 25.0054 25.7686C24.9047 25.7668 24.8054 25.7448 24.7134 25.7038C24.6214 25.6628 24.5386 25.6037 24.47 25.53L16 17.0612L7.52997 25.53C7.38779 25.6625 7.19975 25.7346 7.00545 25.7312C6.81114 25.7277 6.62576 25.649 6.48835 25.5116C6.35093 25.3742 6.27222 25.1888 6.26879 24.9945C6.26537 24.8002 6.33749 24.6122 6.46997 24.47L14.9387 16L6.46997 7.53C6.33749 7.38782 6.26537 7.19978 6.26879 7.00548C6.27222 6.81118 6.35093 6.62579 6.48835 6.48838C6.62576 6.35096 6.81114 6.27225 7.00545 6.26882C7.19975 6.2654 7.38779 6.33752 7.52997 6.47L16 14.9387L24.47 6.47C24.6121 6.33752 24.8002 6.2654 24.9945 6.26882C25.1888 6.27225 25.3742 6.35096 25.5116 6.48838C25.649 6.62579 25.7277 6.81118 25.7311 7.00548C25.7346 7.19978 25.6625 7.38782 25.53 7.53L17.0612 16L25.53 24.47Z" fill="#6C778B"/>
</svg>
