<svg width="14" height="15" viewBox="0 0 14 15" fill="none" xmlns="http://www.w3.org/2000/svg">
<path d="M12.625 0.75H1.375C1.07663 0.75 0.790483 0.868526 0.579505 1.0795C0.368526 1.29048 0.25 1.57663 0.25 1.875V13.125C0.25 13.4234 0.368526 13.7095 0.579505 13.9205C0.790483 14.1315 1.07663 14.25 1.375 14.25H12.625C12.9234 14.25 13.2095 14.1315 13.4205 13.9205C13.6315 13.7095 13.75 13.4234 13.75 13.125V1.875C13.75 1.57663 13.6315 1.29048 13.4205 1.0795C13.2095 0.868526 12.9234 0.75 12.625 0.75ZM12.625 13.125H1.375V1.875H12.625V13.125Z" fill="#6C778B"/>
</svg>
