<svg width="23" height="12" viewBox="0 0 23 12" fill="none" xmlns="http://www.w3.org/2000/svg">
<path d="M22.5411 11.7083C22.4482 11.8013 22.3379 11.875 22.2165 11.9253C22.0951 11.9757 21.965 12.0016 21.8336 12.0016C21.7021 12.0016 21.572 11.9757 21.4506 11.9253C21.3292 11.875 21.2189 11.8013 21.1261 11.7083L11.8336 2.41454L2.54106 11.7083C2.35342 11.8959 2.09893 12.0013 1.83356 12.0013C1.5682 12.0013 1.3137 11.8959 1.12606 11.7083C0.938423 11.5206 0.833008 11.2662 0.833008 11.0008C0.833008 10.7354 0.938423 10.4809 1.12606 10.2933L11.1261 0.293286C11.2189 0.20031 11.3292 0.126551 11.4506 0.0762272C11.572 0.0259029 11.7021 0 11.8336 0C11.965 0 12.0951 0.0259029 12.2165 0.0762272C12.3379 0.126551 12.4482 0.20031 12.5411 0.293286L22.5411 10.2933C22.634 10.3862 22.7078 10.4964 22.7581 10.6178C22.8084 10.7392 22.8344 10.8694 22.8344 11.0008C22.8344 11.1322 22.8084 11.2623 22.7581 11.3837C22.7078 11.5051 22.634 11.6154 22.5411 11.7083Z" fill="#6C778B"/>
</svg>
