<svg width="18" height="18" viewBox="0 0 18 18" fill="none" xmlns="http://www.w3.org/2000/svg">
<path d="M15.75 10.6879V14.6254C15.75 14.9238 15.6315 15.21 15.4205 15.4209C15.2095 15.6319 14.9234 15.7504 14.625 15.7504H3.375C3.07663 15.7504 2.79048 15.6319 2.5795 15.4209C2.36853 15.21 2.25 14.9238 2.25 14.6254V10.6879C2.25 10.5388 2.30926 10.3957 2.41475 10.2902C2.52024 10.1847 2.66332 10.1254 2.8125 10.1254C2.96168 10.1254 3.10476 10.1847 3.21025 10.2902C3.31574 10.3957 3.375 10.5388 3.375 10.6879V14.6254H14.625V10.6879C14.625 10.5388 14.6843 10.3957 14.7898 10.2902C14.8952 10.1847 15.0383 10.1254 15.1875 10.1254C15.3367 10.1254 15.4798 10.1847 15.5852 10.2902C15.6907 10.3957 15.75 10.5388 15.75 10.6879ZM6.58547 6.02341L8.4375 4.17068V10.6879C8.4375 10.8371 8.49676 10.9802 8.60225 11.0857C8.70774 11.1912 8.85082 11.2504 9 11.2504C9.14918 11.2504 9.29226 11.1912 9.39775 11.0857C9.50324 10.9802 9.5625 10.8371 9.5625 10.6879V4.17068L11.4145 6.02341C11.5201 6.12896 11.6632 6.18826 11.8125 6.18826C11.9618 6.18826 12.1049 6.12896 12.2105 6.02341C12.316 5.91786 12.3753 5.77471 12.3753 5.62544C12.3753 5.47618 12.316 5.33302 12.2105 5.22747L9.39797 2.41497C9.34573 2.36267 9.28369 2.32119 9.2154 2.29288C9.14712 2.26457 9.07392 2.25 9 2.25C8.92608 2.25 8.85288 2.26457 8.7846 2.29288C8.71631 2.32119 8.65427 2.36267 8.60203 2.41497L5.78953 5.22747C5.68398 5.33302 5.62469 5.47618 5.62469 5.62544C5.62469 5.77471 5.68398 5.91786 5.78953 6.02341C5.89508 6.12896 6.03823 6.18826 6.1875 6.18826C6.33677 6.18826 6.47992 6.12896 6.58547 6.02341Z" fill="#5B5BE1"/>
</svg>
