<svg width="42" height="42" viewBox="0 0 42 42" fill="none" xmlns="http://www.w3.org/2000/svg">
<rect width="42" height="42" rx="6" fill="#5B5BE1" fill-opacity="0.15"/>
<rect x="0.5" y="0.5" width="41" height="41" rx="5.5" stroke="#5B5BE1" stroke-opacity="0.2"/>
<path d="M27.75 22.6879V26.6254C27.75 26.9238 27.6315 27.21 27.4205 27.4209C27.2095 27.6319 26.9234 27.7504 26.625 27.7504H15.375C15.0766 27.7504 14.7905 27.6319 14.5795 27.4209C14.3685 27.21 14.25 26.9238 14.25 26.6254V22.6879C14.25 22.5388 14.3093 22.3957 14.4148 22.2902C14.5202 22.1847 14.6633 22.1254 14.8125 22.1254C14.9617 22.1254 15.1048 22.1847 15.2102 22.2902C15.3157 22.3957 15.375 22.5388 15.375 22.6879V26.6254H26.625V22.6879C26.625 22.5388 26.6843 22.3957 26.7898 22.2902C26.8952 22.1847 27.0383 22.1254 27.1875 22.1254C27.3367 22.1254 27.4798 22.1847 27.5852 22.2902C27.6907 22.3957 27.75 22.5388 27.75 22.6879ZM18.5855 18.0234L20.4375 16.1707V22.6879C20.4375 22.8371 20.4968 22.9802 20.6023 23.0857C20.7077 23.1912 20.8508 23.2504 21 23.2504C21.1492 23.2504 21.2923 23.1912 21.3977 23.0857C21.5032 22.9802 21.5625 22.8371 21.5625 22.6879V16.1707L23.4145 18.0234C23.5201 18.129 23.6632 18.1883 23.8125 18.1883C23.9618 18.1883 24.1049 18.129 24.2105 18.0234C24.316 17.9179 24.3753 17.7747 24.3753 17.6254C24.3753 17.4762 24.316 17.333 24.2105 17.2275L21.398 14.415C21.3457 14.3627 21.2837 14.3212 21.2154 14.2929C21.1471 14.2646 21.0739 14.25 21 14.25C20.9261 14.25 20.8529 14.2646 20.7846 14.2929C20.7163 14.3212 20.6543 14.3627 20.602 14.415L17.7895 17.2275C17.684 17.333 17.6247 17.4762 17.6247 17.6254C17.6247 17.7747 17.684 17.9179 17.7895 18.0234C17.8951 18.129 18.0382 18.1883 18.1875 18.1883C18.3368 18.1883 18.4799 18.129 18.5855 18.0234Z" fill="#5B5BE1"/>
</svg>
