<svg width="44" height="44" viewBox="0 0 44 44" fill="none" xmlns="http://www.w3.org/2000/svg">
<rect width="44" height="44" rx="22" fill="white"/>
<path d="M29.5 13H14.5C14.1022 13 13.7206 13.158 13.4393 13.4393C13.158 13.7206 13 14.1022 13 14.5V29.5C13 29.8978 13.158 30.2794 13.4393 30.5607C13.7206 30.842 14.1022 31 14.5 31H29.5C29.8978 31 30.2794 30.842 30.5607 30.5607C30.842 30.2794 31 29.8978 31 29.5V14.5C31 14.1022 30.842 13.7206 30.5607 13.4393C30.2794 13.158 29.8978 13 29.5 13ZM14.5 14.5H29.5V21.7544L27.1853 19.4388C26.904 19.1577 26.5227 18.9998 26.125 18.9998C25.7273 18.9998 25.346 19.1577 25.0647 19.4388L15.0034 29.5H14.5V14.5ZM29.5 29.5H17.125L26.125 20.5L29.5 23.875V29.5ZM19 21.25C19.445 21.25 19.88 21.118 20.25 20.8708C20.62 20.6236 20.9084 20.2722 21.0787 19.861C21.249 19.4499 21.2936 18.9975 21.2068 18.561C21.12 18.1246 20.9057 17.7237 20.591 17.409C20.2763 17.0943 19.8754 16.88 19.439 16.7932C19.0025 16.7064 18.5501 16.751 18.139 16.9213C17.7278 17.0916 17.3764 17.38 17.1292 17.75C16.882 18.12 16.75 18.555 16.75 19C16.75 19.5967 16.9871 20.169 17.409 20.591C17.831 21.0129 18.4033 21.25 19 21.25ZM19 18.25C19.1483 18.25 19.2933 18.294 19.4167 18.3764C19.54 18.4588 19.6361 18.5759 19.6929 18.713C19.7497 18.85 19.7645 19.0008 19.7356 19.1463C19.7067 19.2918 19.6352 19.4254 19.5303 19.5303C19.4254 19.6352 19.2918 19.7067 19.1463 19.7356C19.0008 19.7645 18.85 19.7497 18.713 19.6929C18.5759 19.6361 18.4588 19.54 18.3764 19.4167C18.294 19.2933 18.25 19.1483 18.25 19C18.25 18.8011 18.329 18.6103 18.4697 18.4697C18.6103 18.329 18.8011 18.25 19 18.25Z" fill="#6C778B"/>
</svg>
